%TF.GenerationSoftware,KiCad,Pcbnew,9.0.1*%
%TF.CreationDate,2025-07-09T20:29:18+08:00*%
%TF.ProjectId,IMU,494d552e-6b69-4636-9164-5f7063625858,rev?*%
%TF.SameCoordinates,Original*%
%TF.FileFunction,Copper,L2,Bot*%
%TF.FilePolarity,Positive*%
%FSLAX45Y45*%
G04 Gerber Fmt 4.5, Leading zero omitted, Abs format (unit mm)*
G04 Created by KiCad (PCBNEW 9.0.1) date 2025-07-09 20:29:18*
%MOMM*%
%LPD*%
G01*
G04 APERTURE LIST*
%TA.AperFunction,Conductor*%
%ADD10C,0.200000*%
%TD*%
%TA.AperFunction,HeatsinkPad*%
%ADD11C,1.300000*%
%TD*%
%TA.AperFunction,ComponentPad*%
%ADD12C,2.000000*%
%TD*%
%TA.AperFunction,ComponentPad*%
%ADD13R,1.700000X1.700000*%
%TD*%
%TA.AperFunction,ComponentPad*%
%ADD14C,1.700000*%
%TD*%
%TA.AperFunction,HeatsinkPad*%
%ADD15O,2.100000X1.000000*%
%TD*%
%TA.AperFunction,HeatsinkPad*%
%ADD16O,1.600000X1.000000*%
%TD*%
%TA.AperFunction,HeatsinkPad*%
%ADD17C,0.800000*%
%TD*%
%TA.AperFunction,HeatsinkPad*%
%ADD18R,2.700000X2.700000*%
%TD*%
%TA.AperFunction,ViaPad*%
%ADD19C,0.500000*%
%TD*%
%TA.AperFunction,Conductor*%
%ADD20C,0.500000*%
%TD*%
%TA.AperFunction,Conductor*%
%ADD21C,0.800000*%
%TD*%
%TA.AperFunction,Conductor*%
%ADD22C,1.000000*%
%TD*%
%TA.AperFunction,Conductor*%
%ADD23C,0.180000*%
%TD*%
%TA.AperFunction,Conductor*%
%ADD24C,0.300000*%
%TD*%
%TA.AperFunction,Conductor*%
%ADD25C,0.130000*%
%TD*%
%TA.AperFunction,Profile*%
%ADD26C,0.050000*%
%TD*%
G04 APERTURE END LIST*
%TO.N,GND*%
D10*
X13219000Y-14599000D02*
X13619000Y-14599000D01*
X13619000Y-14995000D01*
X13219000Y-14995000D01*
X13219000Y-14599000D01*
%TA.AperFunction,Conductor*%
G36*
X13219000Y-14599000D02*
G01*
X13619000Y-14599000D01*
X13619000Y-14995000D01*
X13219000Y-14995000D01*
X13219000Y-14599000D01*
G37*
%TD.AperFunction*%
X13492500Y-12381500D02*
X14064000Y-12381500D01*
X14064000Y-12968000D01*
X13492500Y-12968000D01*
X13492500Y-12381500D01*
%TA.AperFunction,Conductor*%
G36*
X13492500Y-12381500D02*
G01*
X14064000Y-12381500D01*
X14064000Y-12968000D01*
X13492500Y-12968000D01*
X13492500Y-12381500D01*
G37*
%TD.AperFunction*%
%TO.N,VCC*%
X13600000Y-13600000D02*
X13800000Y-13600000D01*
X13800000Y-13750000D01*
X13600000Y-13750000D01*
X13600000Y-13600000D01*
%TA.AperFunction,Conductor*%
G36*
X13600000Y-13600000D02*
G01*
X13800000Y-13600000D01*
X13800000Y-13750000D01*
X13600000Y-13750000D01*
X13600000Y-13600000D01*
G37*
%TD.AperFunction*%
%TO.N,GND*%
X15992000Y-11739000D02*
X16368000Y-11739000D01*
X16368000Y-12105000D01*
X15992000Y-12105000D01*
X15992000Y-11739000D01*
%TA.AperFunction,Conductor*%
G36*
X15992000Y-11739000D02*
G01*
X16368000Y-11739000D01*
X16368000Y-12105000D01*
X15992000Y-12105000D01*
X15992000Y-11739000D01*
G37*
%TD.AperFunction*%
%TD*%
D11*
%TO.P,U5,29,GND*%
%TO.N,GND*%
X16100000Y-12000000D03*
X16300000Y-12000000D03*
X16100000Y-11800000D03*
X16300000Y-11800000D03*
%TD*%
D12*
%TO.P,SW3,1,1*%
%TO.N,GND*%
X16875000Y-15425000D03*
X16875000Y-14775000D03*
%TO.P,SW3,2,2*%
%TO.N,/GPIO17*%
X17325000Y-15425000D03*
X17325000Y-14775000D03*
%TD*%
D13*
%TO.P,J3,1,Pin_1*%
%TO.N,VCC*%
X14640000Y-12697500D03*
D14*
%TO.P,J3,2,Pin_2*%
%TO.N,/MTMS*%
X14894000Y-12697500D03*
%TO.P,J3,3,Pin_3*%
%TO.N,/MTCK*%
X15148000Y-12697500D03*
%TO.P,J3,4,Pin_4*%
%TO.N,GND*%
X15402000Y-12697500D03*
%TO.P,J3,5,Pin_5*%
%TO.N,/CHIP_PU*%
X15656000Y-12697500D03*
%TO.P,J3,6,Pin_6*%
%TO.N,/MTDI*%
X15910000Y-12697500D03*
%TO.P,J3,7,Pin_7*%
%TO.N,/MTDO*%
X16164000Y-12697500D03*
%TD*%
D15*
%TO.P,J1,S1,SHIELD*%
%TO.N,GND*%
X17689500Y-13632000D03*
D16*
X18107500Y-13632000D03*
D15*
X17689500Y-12768000D03*
D16*
X18107500Y-12768000D03*
%TD*%
D12*
%TO.P,SW4,1,1*%
%TO.N,GND*%
X17675000Y-15425000D03*
X17675000Y-14775000D03*
%TO.P,SW4,2,2*%
%TO.N,/GPIO18*%
X18125000Y-15425000D03*
X18125000Y-14775000D03*
%TD*%
D13*
%TO.P,SW1,1,A*%
%TO.N,Net-(SW1-A)*%
X17100000Y-14000000D03*
D14*
%TO.P,SW1,2,B*%
%TO.N,VBUS*%
X17100000Y-13746000D03*
%TO.P,SW1,3,C*%
%TO.N,unconnected-(SW1-C-Pad3)*%
X17100000Y-13492000D03*
%TD*%
D11*
%TO.P,U6,57,GND*%
%TO.N,GND*%
X13500000Y-12500000D03*
X13500000Y-12700000D03*
X13500000Y-12900000D03*
X13700000Y-12500000D03*
X13700000Y-12700000D03*
X13700000Y-12900000D03*
X13900000Y-12500000D03*
X13900000Y-12700000D03*
X13900000Y-12900000D03*
%TD*%
%TO.P,U3,9,EP*%
%TO.N,GND*%
X15100000Y-13680000D03*
X15100000Y-13920000D03*
X15300000Y-13680000D03*
X15300000Y-13920000D03*
%TD*%
D17*
%TO.P,U2,25,GND*%
%TO.N,GND*%
X13480000Y-14720000D03*
X13320000Y-14720000D03*
D18*
X13400000Y-14800000D03*
D17*
X13480000Y-14880000D03*
X13320000Y-14880000D03*
%TD*%
D12*
%TO.P,SW6,1,1*%
%TO.N,GND*%
X14475000Y-15425000D03*
X14475000Y-14775000D03*
%TO.P,SW6,2,2*%
%TO.N,/CHIP_PU*%
X14925000Y-15425000D03*
X14925000Y-14775000D03*
%TD*%
D13*
%TO.P,J2,1,Pin_1*%
%TO.N,GND*%
X14062000Y-15400000D03*
D14*
%TO.P,J2,2,Pin_2*%
%TO.N,VCC*%
X13808000Y-15400000D03*
%TO.P,J2,3,Pin_3*%
%TO.N,/GPIO12*%
X13554000Y-15400000D03*
%TO.P,J2,4,Pin_4*%
%TO.N,/GPIO13*%
X13300000Y-15400000D03*
%TO.P,J2,5,Pin_5*%
%TO.N,/GPIO7*%
X13046000Y-15400000D03*
%TO.P,J2,6,Pin_6*%
%TO.N,/GPIO8*%
X12792000Y-15400000D03*
%TO.P,J2,7,Pin_7*%
%TO.N,/GPIO10*%
X12538000Y-15400000D03*
%TD*%
D12*
%TO.P,SW2,1,1*%
%TO.N,GND*%
X16075000Y-15425000D03*
X16075000Y-14775000D03*
%TO.P,SW2,2,2*%
%TO.N,/GPIO16*%
X16525000Y-15425000D03*
X16525000Y-14775000D03*
%TD*%
%TO.P,SW5,1,1*%
%TO.N,GND*%
X15275000Y-15425000D03*
X15275000Y-14775000D03*
%TO.P,SW5,2,2*%
%TO.N,/GPIO0*%
X15725000Y-15425000D03*
X15725000Y-14775000D03*
%TD*%
D13*
%TO.P,J4,1,Pin_1*%
%TO.N,VBUS*%
X17800000Y-11700000D03*
D14*
%TO.P,J4,2,Pin_2*%
%TO.N,GND*%
X18054000Y-11700000D03*
%TD*%
D19*
%TO.N,GND*%
X12855000Y-11369000D03*
X18088000Y-14296000D03*
X18051000Y-13453000D03*
X12480000Y-12304000D03*
X15496000Y-15074000D03*
X14993000Y-12289000D03*
X15900000Y-14100000D03*
X17499000Y-14503000D03*
X14590000Y-11583000D03*
X12865000Y-11873000D03*
X16836000Y-13622000D03*
X12443000Y-14852000D03*
X12917916Y-12107695D03*
X15895000Y-14596000D03*
X16300000Y-15136000D03*
X13240000Y-11910000D03*
X16571000Y-14451000D03*
X14698000Y-15236000D03*
X16117000Y-12413000D03*
X14142000Y-13197000D03*
X13038389Y-12426611D03*
X14491000Y-11713000D03*
X18333000Y-13702000D03*
X17400000Y-14100000D03*
X15994000Y-13536000D03*
X12794389Y-12182611D03*
X15108000Y-11406000D03*
X13602000Y-14064000D03*
X15768000Y-14485000D03*
X18346000Y-15472000D03*
X16282000Y-14848000D03*
X14150000Y-11375000D03*
X17100000Y-14829000D03*
X17915000Y-14829000D03*
X18316000Y-14448000D03*
X17157000Y-15115000D03*
X17273000Y-12244000D03*
X12800000Y-13100000D03*
X16562000Y-11526000D03*
X17300000Y-14100000D03*
X16957000Y-11409000D03*
X13114000Y-12075000D03*
X16847000Y-13816000D03*
X15140000Y-14080000D03*
X17901000Y-13038000D03*
X14539000Y-14306000D03*
X18377000Y-15046000D03*
X13266000Y-12235000D03*
X12543175Y-11989600D03*
X16554000Y-11301000D03*
X12823111Y-12012889D03*
X16865000Y-13992000D03*
X17579000Y-12608000D03*
X15823000Y-12170000D03*
X13243000Y-12092000D03*
X13028000Y-11914000D03*
X13200000Y-11300000D03*
X12437000Y-13305000D03*
X14235000Y-14275000D03*
X17226000Y-11279000D03*
X15993000Y-13288000D03*
X15502000Y-14686000D03*
X17500000Y-14100000D03*
X17346000Y-14429000D03*
X12460000Y-11445000D03*
X12433000Y-13948000D03*
X15420000Y-12250000D03*
X13675000Y-11450000D03*
X12438000Y-12903000D03*
X17506000Y-14651000D03*
X15440000Y-13480000D03*
X14800000Y-11300000D03*
X15516000Y-11288000D03*
X12437000Y-14573000D03*
X15124000Y-12380000D03*
X12534000Y-11331000D03*
X16859000Y-14451000D03*
X12603000Y-12223000D03*
X15219000Y-14513000D03*
X14676000Y-12212000D03*
X13156611Y-12346389D03*
X15380000Y-14080000D03*
X13000000Y-11300000D03*
X18350000Y-12071000D03*
X13750000Y-11375000D03*
X14437500Y-11612500D03*
X14208000Y-14091000D03*
X12873889Y-12262111D03*
X17653000Y-14438000D03*
X15360000Y-13540000D03*
X14079000Y-11818000D03*
X12624068Y-12027165D03*
X16119000Y-13152000D03*
X15200000Y-11300000D03*
X17500000Y-14841000D03*
X17500000Y-12222000D03*
X12444664Y-11970885D03*
X16677000Y-11672000D03*
X15341000Y-11444000D03*
X16581000Y-13614000D03*
X17562000Y-11291000D03*
X16581000Y-13405000D03*
X17381000Y-11649000D03*
X14208000Y-13956000D03*
X17103000Y-12924000D03*
X14701000Y-14874000D03*
X12438000Y-15133000D03*
X15020000Y-14080000D03*
X15200000Y-13505000D03*
X16275000Y-12878000D03*
X13078611Y-12268389D03*
X16180000Y-13400000D03*
X14866000Y-12213000D03*
X14450000Y-11475000D03*
X14301000Y-15162000D03*
X14891000Y-11456000D03*
X12448000Y-11829840D03*
X16016000Y-11294000D03*
X12453000Y-12453000D03*
X12739000Y-12354000D03*
X15800000Y-14140000D03*
X15845000Y-11442000D03*
X12432000Y-14232000D03*
X12543541Y-11844026D03*
X15260000Y-14080000D03*
X16836000Y-13384000D03*
X17258000Y-11960000D03*
X13925000Y-11375000D03*
X16044000Y-14490000D03*
X14560000Y-13860000D03*
X16500000Y-13980000D03*
X14142000Y-13117000D03*
X16831000Y-12759000D03*
X18279000Y-12946000D03*
X16180000Y-13540000D03*
X15603000Y-12420000D03*
X12737766Y-11934981D03*
X16692000Y-14584000D03*
X14696000Y-14682000D03*
X13649000Y-14223000D03*
X15957000Y-13042000D03*
X13602000Y-14144000D03*
X12719000Y-11304000D03*
X14520000Y-13480000D03*
X12957889Y-12346111D03*
X13400000Y-11300000D03*
X13675000Y-15063000D03*
X12717488Y-12105709D03*
X14350000Y-11375000D03*
X18353000Y-11301000D03*
X12994611Y-12184389D03*
X15099000Y-15180000D03*
X17567000Y-11966000D03*
X12641872Y-11877865D03*
X14235082Y-14461599D03*
X12438000Y-13616000D03*
%TO.N,VCC*%
X13200000Y-11695000D03*
X14260000Y-14860000D03*
X16400000Y-13760000D03*
X16400000Y-13420000D03*
X14260000Y-14740000D03*
X14641000Y-12465618D03*
X13650000Y-13700000D03*
X16700000Y-12600000D03*
X13750000Y-13700000D03*
X13000000Y-11695000D03*
X16400000Y-13660000D03*
X13660000Y-13620000D03*
X13760000Y-13620000D03*
X16400000Y-13320000D03*
X12800000Y-11695000D03*
X16800000Y-12600000D03*
X14260000Y-14640000D03*
X16400000Y-13540000D03*
X15140000Y-13300000D03*
%TO.N,VBUS*%
X17405000Y-13044000D03*
X17406000Y-13440000D03*
%TO.N,/GPIO17*%
X13706000Y-13423000D03*
X14275000Y-13424000D03*
%TO.N,/GPIO16*%
X14227000Y-13336000D03*
X13694000Y-13334000D03*
%TO.N,/GPIO18*%
X13724000Y-13519000D03*
X14340000Y-13519000D03*
%TO.N,/CHIP_PU*%
X14825000Y-11700000D03*
X15801500Y-13032500D03*
X12929000Y-12594000D03*
X14200000Y-11850800D03*
X14932000Y-14198000D03*
%TO.N,/GPIO13*%
X13278000Y-13417684D03*
%TO.N,/GPIO10*%
X13110800Y-13283000D03*
%TO.N,/GPIO8*%
X13207000Y-13288000D03*
%TO.N,/GPIO12*%
X13385000Y-13370000D03*
%TO.N,/GPIO7*%
X13110800Y-13187000D03*
%TO.N,/MTMS*%
X14894000Y-12433000D03*
%TO.N,/U0TXD*%
X15011000Y-11900000D03*
X15750500Y-11883500D03*
%TO.N,/GPIO3*%
X13132000Y-13641000D03*
X13131400Y-14050000D03*
%TO.N,/GPIO4*%
X13196000Y-14101000D03*
X13193000Y-13582000D03*
%TO.N,/SPIQ*%
X14415116Y-12812116D03*
X14497000Y-13206000D03*
%TO.N,/GPIO5*%
X13247000Y-13643500D03*
X13247000Y-13751500D03*
%TO.N,/~{DTR}*%
X15588000Y-12099000D03*
X15388000Y-12099000D03*
%TO.N,/SPICS0*%
X14534000Y-13126000D03*
X14534000Y-12977000D03*
%TO.N,/SPIWP*%
X14424000Y-13126000D03*
X14424000Y-12978216D03*
%TO.N,/GPIO0*%
X14383000Y-13412000D03*
X14843000Y-12096000D03*
X17938000Y-14343000D03*
X12909000Y-12679000D03*
%TO.N,/GPIO1*%
X12830000Y-12981000D03*
X12866945Y-14800000D03*
%TO.N,/GPIO2*%
X13375000Y-13532000D03*
X12866620Y-12878510D03*
%TD*%
D20*
%TO.N,GND*%
X13602000Y-14064000D02*
X13602000Y-14123000D01*
D21*
X17300000Y-14100000D02*
X17500000Y-14100000D01*
D20*
X14208000Y-13956000D02*
X14208000Y-14095000D01*
X15402000Y-13303000D02*
X15402000Y-12697500D01*
D21*
X17500000Y-14100000D02*
X17689500Y-13910500D01*
D20*
X13602000Y-14123000D02*
X13623000Y-14144000D01*
D21*
X17689500Y-13910500D02*
X17689500Y-13632000D01*
D20*
X14142000Y-13197000D02*
X14142000Y-13122000D01*
X13602000Y-14144000D02*
X13623000Y-14144000D01*
X15200000Y-13505000D02*
X15402000Y-13303000D01*
X14208000Y-14095000D02*
X14208000Y-14091000D01*
D21*
%TO.N,VCC*%
X16360000Y-11580000D02*
X16700000Y-11920000D01*
D22*
X16800000Y-12600000D02*
X16700000Y-12600000D01*
D21*
X15140000Y-13300000D02*
X15060000Y-13380000D01*
D22*
X16400000Y-13760000D02*
X16400000Y-13820000D01*
X16400000Y-13660000D02*
X16400000Y-13760000D01*
D23*
X14640000Y-12484000D02*
X14640000Y-12697500D01*
D22*
X13750000Y-13700000D02*
X14380000Y-13700000D01*
D21*
X16650000Y-12650000D02*
X16700000Y-12600000D01*
D22*
X16400000Y-12900000D02*
X16700000Y-12600000D01*
X14380000Y-13700000D02*
X14640000Y-13700000D01*
D21*
X14260000Y-14640000D02*
X14260000Y-14740000D01*
D22*
X14640000Y-13700000D02*
X15060000Y-13700000D01*
X16400000Y-13820000D02*
X16400000Y-13420000D01*
X16400000Y-13420000D02*
X16400000Y-12900000D01*
X16400000Y-13420000D02*
X16400000Y-13320000D01*
X15060000Y-13700000D02*
X16360000Y-13700000D01*
D21*
X13640000Y-11280000D02*
X14520000Y-11280000D01*
X14640000Y-12760000D02*
X14640000Y-12697500D01*
X16700000Y-11920000D02*
X16700000Y-12600000D01*
D22*
X16360000Y-13700000D02*
X16400000Y-13660000D01*
D21*
X12740000Y-11700000D02*
X13220000Y-11700000D01*
X14820000Y-11580000D02*
X16360000Y-11580000D01*
X15060000Y-13380000D02*
X15060000Y-13700000D01*
X13220000Y-11700000D02*
X13640000Y-11280000D01*
D22*
X16400000Y-13540000D02*
X16400000Y-13660000D01*
D23*
X14641000Y-12483000D02*
X14640000Y-12484000D01*
X14641000Y-12465618D02*
X14641000Y-12483000D01*
D21*
X14260000Y-14740000D02*
X14260000Y-14860000D01*
X14520000Y-11280000D02*
X14820000Y-11580000D01*
D22*
X16400000Y-13320000D02*
X16400000Y-13200000D01*
D21*
X14380000Y-14520000D02*
X14380000Y-13700000D01*
X14640000Y-12697500D02*
X14640000Y-13700000D01*
X14260000Y-14640000D02*
X14380000Y-14520000D01*
D20*
%TO.N,VBUS*%
X17405000Y-13044000D02*
X17405000Y-13439000D01*
X17405000Y-13439000D02*
X17406000Y-13440000D01*
D23*
%TO.N,/GPIO17*%
X13706000Y-13423000D02*
X14274000Y-13423000D01*
X14274000Y-13423000D02*
X14275000Y-13424000D01*
%TO.N,/GPIO16*%
X14225000Y-13334000D02*
X14227000Y-13336000D01*
X13694000Y-13334000D02*
X14225000Y-13334000D01*
%TO.N,/GPIO18*%
X14340000Y-13519000D02*
X14342000Y-13521000D01*
X13724000Y-13519000D02*
X14340000Y-13519000D01*
D24*
%TO.N,/CHIP_PU*%
X14925000Y-14775000D02*
X14925000Y-14205000D01*
D23*
X14825000Y-11700000D02*
X14825000Y-11866500D01*
D24*
X14925000Y-14205000D02*
X14932000Y-14198000D01*
D23*
X14825000Y-11866500D02*
X15656000Y-12697500D01*
X12929000Y-12594000D02*
X12939000Y-12604000D01*
X14000800Y-12050000D02*
X14200000Y-11850800D01*
X15801500Y-13032500D02*
X15656000Y-12887000D01*
X12939000Y-12604000D02*
X13112118Y-12604000D01*
X13666118Y-12050000D02*
X14000800Y-12050000D01*
X15656000Y-12887000D02*
X15656000Y-12697500D01*
X13112118Y-12604000D02*
X13666118Y-12050000D01*
D24*
X14925000Y-14775000D02*
X14925000Y-15425000D01*
D25*
%TO.N,/GPIO13*%
X13018300Y-15118300D02*
X13300000Y-15400000D01*
X13018300Y-13515931D02*
X13018300Y-15118300D01*
X13116547Y-13417684D02*
X13018300Y-13515931D01*
X13278000Y-13417684D02*
X13116547Y-13417684D01*
%TO.N,/GPIO10*%
X12919000Y-15019000D02*
X12919000Y-13474800D01*
D23*
X13110800Y-13283000D02*
X13123000Y-13283000D01*
D25*
X12919000Y-13474800D02*
X13110800Y-13283000D01*
X12538000Y-15400000D02*
X12919000Y-15019000D01*
%TO.N,/GPIO8*%
X12952100Y-15239900D02*
X12792000Y-15400000D01*
X13207000Y-13308000D02*
X13170000Y-13345000D01*
X12952100Y-13488510D02*
X12952100Y-15239900D01*
X13207000Y-13288000D02*
X13207000Y-13308000D01*
X13095610Y-13345000D02*
X12952100Y-13488510D01*
X13170000Y-13345000D02*
X13095610Y-13345000D01*
%TO.N,/GPIO12*%
X13233000Y-15239000D02*
X13393000Y-15239000D01*
X13393000Y-15239000D02*
X13554000Y-15400000D01*
X13051400Y-13529642D02*
X13051400Y-15057400D01*
X13385000Y-13370000D02*
X13385000Y-13409000D01*
X13051400Y-15057400D02*
X13233000Y-15239000D01*
X13314000Y-13480000D02*
X13101042Y-13480000D01*
X13101042Y-13480000D02*
X13051400Y-13529642D01*
X13385000Y-13409000D02*
X13314000Y-13480000D01*
%TO.N,/GPIO7*%
X13106421Y-13381000D02*
X13213000Y-13381000D01*
X12985200Y-13502221D02*
X13106421Y-13381000D01*
X13046000Y-15400000D02*
X12985200Y-15339200D01*
X12985200Y-15339200D02*
X12985200Y-13502221D01*
X13213000Y-13381000D02*
X13282000Y-13312000D01*
X13198000Y-13187000D02*
X13110800Y-13187000D01*
X13282000Y-13271000D02*
X13198000Y-13187000D01*
X13282000Y-13312000D02*
X13282000Y-13271000D01*
D23*
%TO.N,/MTMS*%
X14894000Y-12433000D02*
X14894000Y-12697500D01*
%TO.N,/U0TXD*%
X15011000Y-11900000D02*
X15734000Y-11900000D01*
X15734000Y-11900000D02*
X15750500Y-11883500D01*
%TO.N,/GPIO3*%
X13131400Y-14050000D02*
X13131400Y-13641600D01*
%TO.N,/GPIO4*%
X13196000Y-14101000D02*
X13192900Y-14097900D01*
X13192900Y-13582100D02*
X13193000Y-13582000D01*
X13192900Y-14097900D02*
X13192900Y-13582100D01*
%TO.N,/SPIQ*%
X14479900Y-13188900D02*
X14479900Y-12876900D01*
X14497000Y-13206000D02*
X14479900Y-13188900D01*
X14479900Y-12876900D02*
X14415116Y-12812116D01*
%TO.N,/GPIO5*%
X13247000Y-13643500D02*
X13247000Y-13751500D01*
%TO.N,/~{DTR}*%
X15388000Y-12099000D02*
X15588000Y-12099000D01*
%TO.N,/SPICS0*%
X14534000Y-12977000D02*
X14534000Y-13126000D01*
%TO.N,/SPIWP*%
X14424000Y-12978216D02*
X14424000Y-13126000D01*
%TO.N,/GPIO0*%
X13811000Y-13271000D02*
X14242000Y-13271000D01*
X13596000Y-13056000D02*
X13811000Y-13271000D01*
X12909000Y-12679000D02*
X13091000Y-12679000D01*
X13091000Y-12679000D02*
X13674000Y-12096000D01*
X15892000Y-14942000D02*
X15725000Y-14775000D01*
X18177000Y-14942000D02*
X15892000Y-14942000D01*
X13674000Y-12096000D02*
X14843000Y-12096000D01*
X18278000Y-14841000D02*
X18177000Y-14942000D01*
X14242000Y-13271000D02*
X14383000Y-13412000D01*
X18278000Y-14683000D02*
X18278000Y-14841000D01*
X12909000Y-12679000D02*
X13096000Y-12679000D01*
X13096000Y-12679000D02*
X13473000Y-13056000D01*
X17938000Y-14343000D02*
X18278000Y-14683000D01*
X13473000Y-13056000D02*
X13596000Y-13056000D01*
%TO.N,/GPIO1*%
X12866945Y-14800000D02*
X12866000Y-14799055D01*
X12866000Y-13017000D02*
X12830000Y-12981000D01*
X12866000Y-14799055D02*
X12866000Y-13017000D01*
%TO.N,/GPIO2*%
X13463100Y-13443900D02*
X13375000Y-13532000D01*
X13439100Y-13348100D02*
X13463100Y-13372100D01*
X12866620Y-12878510D02*
X13095110Y-13107000D01*
X13407409Y-13315900D02*
X13439100Y-13347591D01*
X13439100Y-13347591D02*
X13439100Y-13348100D01*
X13095110Y-13107000D02*
X13198000Y-13107000D01*
X13463100Y-13372100D02*
X13463100Y-13443900D01*
X13406900Y-13315900D02*
X13407409Y-13315900D01*
X13198000Y-13107000D02*
X13406900Y-13315900D01*
%TD*%
%TA.AperFunction,Conductor*%
%TO.N,GND*%
G36*
X13549368Y-11222018D02*
G01*
X13553943Y-11227299D01*
X13554938Y-11234215D01*
X13552035Y-11240570D01*
X13551432Y-11241218D01*
X13186332Y-11606318D01*
X13180200Y-11609667D01*
X13177564Y-11609950D01*
X12731131Y-11609950D01*
X12713734Y-11613410D01*
X12713733Y-11613411D01*
X12697346Y-11620198D01*
X12697345Y-11620199D01*
X12682596Y-11630053D01*
X12682596Y-11630054D01*
X12670054Y-11642596D01*
X12670053Y-11642596D01*
X12660199Y-11657345D01*
X12660198Y-11657346D01*
X12653411Y-11673733D01*
X12653410Y-11673734D01*
X12649950Y-11691130D01*
X12649950Y-11708869D01*
X12653410Y-11726266D01*
X12653411Y-11726267D01*
X12660198Y-11742654D01*
X12660199Y-11742655D01*
X12670053Y-11757403D01*
X12670054Y-11757404D01*
X12682596Y-11769946D01*
X12682596Y-11769946D01*
X12697345Y-11779801D01*
X12697346Y-11779802D01*
X12708187Y-11784292D01*
X12713733Y-11786589D01*
X12713734Y-11786589D01*
X12713734Y-11786590D01*
X12731130Y-11790050D01*
X12731131Y-11790050D01*
X12731131Y-11790050D01*
X13228869Y-11790050D01*
X13228869Y-11790050D01*
X13246267Y-11786589D01*
X13254910Y-11783009D01*
X13262655Y-11779801D01*
X13274082Y-11772166D01*
X13277404Y-11769946D01*
X13673668Y-11373682D01*
X13679800Y-11370333D01*
X13682436Y-11370050D01*
X14477564Y-11370050D01*
X14484268Y-11372018D01*
X14486332Y-11373682D01*
X14750054Y-11637403D01*
X14758749Y-11646099D01*
X14762098Y-11652232D01*
X14761599Y-11659201D01*
X14760292Y-11661756D01*
X14758491Y-11664451D01*
X14752834Y-11678108D01*
X14752834Y-11678109D01*
X14749950Y-11692608D01*
X14749950Y-11692608D01*
X14749950Y-11707392D01*
X14749950Y-11707392D01*
X14749950Y-11707392D01*
X14752834Y-11721891D01*
X14752834Y-11721891D01*
X14752966Y-11722210D01*
X14753223Y-11722884D01*
X14758578Y-11738290D01*
X14764685Y-11755855D01*
X14765262Y-11757516D01*
X14765950Y-11761588D01*
X14765950Y-11874274D01*
X14766977Y-11878109D01*
X14767491Y-11880024D01*
X14769974Y-11889293D01*
X14769974Y-11889293D01*
X14777748Y-11902757D01*
X14777748Y-11902758D01*
X14878739Y-12003749D01*
X14882088Y-12009881D01*
X14881589Y-12016850D01*
X14877402Y-12022443D01*
X14870856Y-12024885D01*
X14865226Y-12023973D01*
X14864891Y-12023834D01*
X14864891Y-12023834D01*
X14864891Y-12023834D01*
X14850392Y-12020950D01*
X14850392Y-12020950D01*
X14835608Y-12020950D01*
X14835608Y-12020950D01*
X14821109Y-12023834D01*
X14821107Y-12023835D01*
X14820784Y-12023968D01*
X14820113Y-12024224D01*
X14797722Y-12032008D01*
X14785484Y-12036262D01*
X14781412Y-12036950D01*
X14127295Y-12036950D01*
X14120592Y-12034981D01*
X14116016Y-12029701D01*
X14115022Y-12022785D01*
X14117924Y-12016430D01*
X14118527Y-12015782D01*
X14134309Y-12000000D01*
X14198206Y-11936103D01*
X14201570Y-11933711D01*
X14234709Y-11917669D01*
X14234825Y-11917608D01*
X14235549Y-11917308D01*
X14236120Y-11916927D01*
X14237705Y-11916093D01*
X14237841Y-11916015D01*
X14245087Y-11911004D01*
X14245088Y-11911004D01*
X14245497Y-11910721D01*
X14246094Y-11910263D01*
X14247842Y-11909095D01*
X14258295Y-11898642D01*
X14266508Y-11886349D01*
X14272166Y-11872691D01*
X14273805Y-11864451D01*
X14275050Y-11858192D01*
X14275050Y-11843408D01*
X14272166Y-11828909D01*
X14272166Y-11828909D01*
X14272166Y-11828909D01*
X14271721Y-11827834D01*
X14266509Y-11815251D01*
X14266508Y-11815250D01*
X14258295Y-11802958D01*
X14258295Y-11802958D01*
X14247842Y-11792505D01*
X14247841Y-11792505D01*
X14235550Y-11784292D01*
X14235549Y-11784291D01*
X14221892Y-11778634D01*
X14221891Y-11778634D01*
X14207392Y-11775750D01*
X14207392Y-11775750D01*
X14192608Y-11775750D01*
X14192608Y-11775750D01*
X14178109Y-11778634D01*
X14178108Y-11778634D01*
X14164451Y-11784291D01*
X14164450Y-11784292D01*
X14152158Y-11792505D01*
X14152158Y-11792505D01*
X14141705Y-11802958D01*
X14133492Y-11815250D01*
X14133491Y-11815250D01*
X14133358Y-11815572D01*
X14133064Y-11816228D01*
X14117089Y-11849229D01*
X14114696Y-11852595D01*
X13979973Y-11987318D01*
X13973840Y-11990667D01*
X13971204Y-11990950D01*
X13658344Y-11990950D01*
X13646500Y-11994124D01*
X13646500Y-11994124D01*
X13644913Y-11994549D01*
X13643326Y-11994974D01*
X13629861Y-12002748D01*
X13629861Y-12002748D01*
X13091291Y-12541318D01*
X13085159Y-12544667D01*
X13082523Y-12544950D01*
X12995832Y-12544950D01*
X12989128Y-12542981D01*
X12989073Y-12542946D01*
X12971410Y-12531462D01*
X12971409Y-12531461D01*
X12968638Y-12529849D01*
X12967079Y-12528942D01*
X12967079Y-12528942D01*
X12967079Y-12528942D01*
X12966822Y-12528824D01*
X12965111Y-12527867D01*
X12964549Y-12527492D01*
X12964549Y-12527491D01*
X12950892Y-12521834D01*
X12950891Y-12521834D01*
X12936392Y-12518950D01*
X12936392Y-12518950D01*
X12921608Y-12518950D01*
X12921608Y-12518950D01*
X12907109Y-12521834D01*
X12907108Y-12521834D01*
X12893451Y-12527491D01*
X12893450Y-12527492D01*
X12881158Y-12535705D01*
X12881158Y-12535705D01*
X12870705Y-12546158D01*
X12870705Y-12546158D01*
X12862492Y-12558450D01*
X12862491Y-12558451D01*
X12856834Y-12572108D01*
X12856834Y-12572109D01*
X12853950Y-12586608D01*
X12853950Y-12586608D01*
X12853950Y-12601392D01*
X12853950Y-12601392D01*
X12853950Y-12601392D01*
X12856953Y-12616489D01*
X12856810Y-12616517D01*
X12856866Y-12622777D01*
X12853706Y-12628158D01*
X12850705Y-12631159D01*
X12842492Y-12643450D01*
X12842491Y-12643451D01*
X12836834Y-12657108D01*
X12836834Y-12657109D01*
X12833950Y-12671608D01*
X12833950Y-12671608D01*
X12833950Y-12686392D01*
X12833950Y-12686392D01*
X12833950Y-12686392D01*
X12836834Y-12700891D01*
X12836834Y-12700892D01*
X12842491Y-12714549D01*
X12842492Y-12714550D01*
X12850705Y-12726841D01*
X12850705Y-12726842D01*
X12861158Y-12737295D01*
X12861158Y-12737295D01*
X12873450Y-12745508D01*
X12873451Y-12745509D01*
X12886318Y-12750838D01*
X12887109Y-12751166D01*
X12887109Y-12751166D01*
X12887109Y-12751166D01*
X12901608Y-12754050D01*
X12901608Y-12754050D01*
X12916392Y-12754050D01*
X12922223Y-12752890D01*
X12930891Y-12751166D01*
X12931214Y-12751032D01*
X12931882Y-12750778D01*
X12962831Y-12740018D01*
X12966516Y-12738738D01*
X12970588Y-12738050D01*
X13066404Y-12738050D01*
X13073108Y-12740018D01*
X13075173Y-12741682D01*
X13436742Y-13103252D01*
X13436743Y-13103252D01*
X13436743Y-13103252D01*
X13439191Y-13104666D01*
X13450207Y-13111026D01*
X13451794Y-13111451D01*
X13453381Y-13111876D01*
X13453381Y-13111876D01*
X13455884Y-13112547D01*
X13465226Y-13115050D01*
X13566404Y-13115050D01*
X13573108Y-13117018D01*
X13575173Y-13118682D01*
X13694317Y-13237826D01*
X13697665Y-13243958D01*
X13697167Y-13250928D01*
X13692980Y-13256521D01*
X13687193Y-13258768D01*
X13687206Y-13258831D01*
X13686847Y-13258902D01*
X13686764Y-13258935D01*
X13686608Y-13258950D01*
X13672109Y-13261834D01*
X13672108Y-13261834D01*
X13658451Y-13267491D01*
X13658450Y-13267492D01*
X13646158Y-13275705D01*
X13646158Y-13275705D01*
X13635705Y-13286158D01*
X13635705Y-13286158D01*
X13627492Y-13298450D01*
X13627491Y-13298451D01*
X13621834Y-13312108D01*
X13621834Y-13312109D01*
X13618950Y-13326608D01*
X13618950Y-13326608D01*
X13618950Y-13341392D01*
X13618950Y-13341392D01*
X13618950Y-13341392D01*
X13621834Y-13355891D01*
X13621834Y-13355892D01*
X13627491Y-13369549D01*
X13627492Y-13369550D01*
X13635794Y-13381975D01*
X13637882Y-13388643D01*
X13636940Y-13393610D01*
X13633834Y-13401109D01*
X13633834Y-13401109D01*
X13630950Y-13415608D01*
X13630950Y-13415608D01*
X13630950Y-13430392D01*
X13630950Y-13430392D01*
X13630950Y-13430392D01*
X13633834Y-13444891D01*
X13633834Y-13444892D01*
X13639491Y-13458549D01*
X13639492Y-13458550D01*
X13647705Y-13470841D01*
X13647705Y-13470842D01*
X13652459Y-13475596D01*
X13655808Y-13481729D01*
X13655310Y-13488698D01*
X13655147Y-13489110D01*
X13651834Y-13497109D01*
X13651834Y-13497109D01*
X13648950Y-13511608D01*
X13648950Y-13527001D01*
X13648818Y-13527001D01*
X13647643Y-13533199D01*
X13642837Y-13538270D01*
X13636604Y-13539950D01*
X13592094Y-13539950D01*
X13576822Y-13544042D01*
X13576821Y-13544043D01*
X13563129Y-13551947D01*
X13563128Y-13551948D01*
X13551948Y-13563128D01*
X13551947Y-13563129D01*
X13544043Y-13576821D01*
X13544042Y-13576822D01*
X13539950Y-13592094D01*
X13539950Y-13757906D01*
X13540214Y-13758892D01*
X13544042Y-13773178D01*
X13544043Y-13773179D01*
X13551947Y-13786871D01*
X13551948Y-13786871D01*
X13551948Y-13786872D01*
X13563128Y-13798052D01*
X13563129Y-13798052D01*
X13563129Y-13798052D01*
X13569999Y-13802018D01*
X13576822Y-13805958D01*
X13592094Y-13810050D01*
X13592094Y-13810050D01*
X13807905Y-13810050D01*
X13807906Y-13810050D01*
X13823178Y-13805958D01*
X13830533Y-13801711D01*
X13836733Y-13800050D01*
X14277550Y-13800050D01*
X14284254Y-13802018D01*
X14288829Y-13807299D01*
X14289950Y-13812450D01*
X14289950Y-14477564D01*
X14287981Y-14484268D01*
X14286318Y-14486332D01*
X14190054Y-14582596D01*
X14190054Y-14582596D01*
X14186397Y-14588069D01*
X14186396Y-14588070D01*
X14186106Y-14588504D01*
X14180199Y-14597345D01*
X14177256Y-14604450D01*
X14176990Y-14605092D01*
X14176989Y-14605093D01*
X14173410Y-14613733D01*
X14173410Y-14613733D01*
X14170578Y-14627974D01*
X14170175Y-14630000D01*
X14169950Y-14631131D01*
X14169950Y-14868869D01*
X14173410Y-14886266D01*
X14173411Y-14886267D01*
X14180198Y-14902654D01*
X14180199Y-14902655D01*
X14190053Y-14917403D01*
X14190054Y-14917404D01*
X14202596Y-14929946D01*
X14202596Y-14929946D01*
X14217345Y-14939801D01*
X14217346Y-14939802D01*
X14229636Y-14944892D01*
X14233733Y-14946589D01*
X14233734Y-14946589D01*
X14233734Y-14946590D01*
X14251130Y-14950050D01*
X14251131Y-14950050D01*
X14251131Y-14950050D01*
X14268869Y-14950050D01*
X14268869Y-14950050D01*
X14274668Y-14948896D01*
X14286266Y-14946590D01*
X14286266Y-14946589D01*
X14286267Y-14946589D01*
X14302655Y-14939801D01*
X14317403Y-14929946D01*
X14329946Y-14917403D01*
X14339801Y-14902655D01*
X14346589Y-14886267D01*
X14347249Y-14882950D01*
X14350050Y-14868870D01*
X14350050Y-14868869D01*
X14350050Y-14868869D01*
X14350050Y-14868868D01*
X14350082Y-14868543D01*
X14350147Y-14868383D01*
X14350169Y-14868272D01*
X14350190Y-14868276D01*
X14352698Y-14862065D01*
X14353654Y-14860990D01*
X14422621Y-14792023D01*
X14423748Y-14796229D01*
X14430989Y-14808771D01*
X14441229Y-14819011D01*
X14453771Y-14826252D01*
X14457976Y-14827379D01*
X14388089Y-14897266D01*
X14396383Y-14903291D01*
X14417420Y-14914010D01*
X14439875Y-14921306D01*
X14439875Y-14921306D01*
X14463195Y-14925000D01*
X14486805Y-14925000D01*
X14510125Y-14921306D01*
X14532580Y-14914010D01*
X14553616Y-14903292D01*
X14553617Y-14903291D01*
X14561910Y-14897266D01*
X14561910Y-14897266D01*
X14492023Y-14827379D01*
X14496229Y-14826252D01*
X14508771Y-14819011D01*
X14519011Y-14808771D01*
X14526252Y-14796229D01*
X14527379Y-14792023D01*
X14597266Y-14861910D01*
X14597266Y-14861910D01*
X14603291Y-14853617D01*
X14603292Y-14853616D01*
X14614010Y-14832580D01*
X14621306Y-14810125D01*
X14625000Y-14786805D01*
X14625000Y-14763195D01*
X14621306Y-14739875D01*
X14614010Y-14717420D01*
X14603291Y-14696383D01*
X14597266Y-14688089D01*
X14597266Y-14688089D01*
X14527379Y-14757976D01*
X14526252Y-14753771D01*
X14519011Y-14741229D01*
X14508771Y-14730989D01*
X14496229Y-14723748D01*
X14492023Y-14722621D01*
X14561910Y-14652734D01*
X14561910Y-14652734D01*
X14553617Y-14646709D01*
X14532580Y-14635990D01*
X14510125Y-14628693D01*
X14510125Y-14628693D01*
X14486805Y-14625000D01*
X14463195Y-14625000D01*
X14439875Y-14628693D01*
X14427939Y-14632572D01*
X14420955Y-14632771D01*
X14414972Y-14629163D01*
X14411889Y-14622893D01*
X14412686Y-14615951D01*
X14415339Y-14612011D01*
X14449946Y-14577404D01*
X14449946Y-14577403D01*
X14459801Y-14562655D01*
X14466589Y-14546267D01*
X14468253Y-14537905D01*
X14470050Y-14528869D01*
X14470050Y-14511131D01*
X14470050Y-13812450D01*
X14472018Y-13805746D01*
X14477299Y-13801171D01*
X14482450Y-13800050D01*
X14630146Y-13800050D01*
X15050146Y-13800050D01*
X16287550Y-13800050D01*
X16294254Y-13802018D01*
X16298829Y-13807299D01*
X16299950Y-13812450D01*
X16299950Y-13829854D01*
X16299950Y-13829854D01*
X16299950Y-13829854D01*
X16303795Y-13849183D01*
X16303795Y-13849184D01*
X16311336Y-13867391D01*
X16311337Y-13867392D01*
X16322286Y-13883778D01*
X16322286Y-13883778D01*
X16336221Y-13897714D01*
X16336222Y-13897714D01*
X16352608Y-13908663D01*
X16352609Y-13908663D01*
X16370816Y-13916205D01*
X16370816Y-13916205D01*
X16370817Y-13916205D01*
X16370817Y-13916205D01*
X16390146Y-13920050D01*
X16390146Y-13920050D01*
X16409854Y-13920050D01*
X16422858Y-13917463D01*
X16429183Y-13916205D01*
X16447391Y-13908663D01*
X16463778Y-13897714D01*
X16477714Y-13883778D01*
X16488663Y-13867391D01*
X16496205Y-13849183D01*
X16500050Y-13829854D01*
X16500050Y-13481371D01*
X16964950Y-13481371D01*
X16964950Y-13502629D01*
X16968208Y-13523200D01*
X16968275Y-13523624D01*
X16974378Y-13542405D01*
X16974844Y-13543841D01*
X16984495Y-13562782D01*
X16996989Y-13579979D01*
X17012021Y-13595011D01*
X17029218Y-13607505D01*
X17030095Y-13607952D01*
X17035174Y-13612749D01*
X17036854Y-13619531D01*
X17034600Y-13626145D01*
X17030095Y-13630048D01*
X17029218Y-13630495D01*
X17012021Y-13642989D01*
X16996989Y-13658021D01*
X16984495Y-13675218D01*
X16974844Y-13694158D01*
X16968275Y-13714376D01*
X16966093Y-13728157D01*
X16964950Y-13735371D01*
X16964950Y-13756629D01*
X16965309Y-13758892D01*
X16967605Y-13773391D01*
X16968275Y-13777624D01*
X16971338Y-13787050D01*
X16974844Y-13797841D01*
X16984495Y-13816782D01*
X16996989Y-13833979D01*
X17008343Y-13845333D01*
X17011692Y-13851465D01*
X17011193Y-13858434D01*
X17007006Y-13864027D01*
X17003908Y-13865719D01*
X16990767Y-13870620D01*
X16990766Y-13870621D01*
X16979246Y-13879245D01*
X16979245Y-13879245D01*
X16970621Y-13890766D01*
X16970620Y-13890767D01*
X16965591Y-13904252D01*
X16964950Y-13910212D01*
X16964950Y-13910212D01*
X16964950Y-13910213D01*
X16964950Y-14089787D01*
X16964950Y-14089788D01*
X16965591Y-14095748D01*
X16970620Y-14109233D01*
X16970621Y-14109233D01*
X16979245Y-14120754D01*
X16979246Y-14120755D01*
X16990766Y-14129379D01*
X16990767Y-14129380D01*
X17004252Y-14134409D01*
X17004252Y-14134409D01*
X17004944Y-14134483D01*
X17010213Y-14135050D01*
X17189787Y-14135050D01*
X17195748Y-14134409D01*
X17209233Y-14129380D01*
X17220755Y-14120755D01*
X17229380Y-14109233D01*
X17234409Y-14095748D01*
X17235050Y-14089787D01*
X17235050Y-13910213D01*
X17234409Y-13904252D01*
X17231971Y-13897714D01*
X17229380Y-13890767D01*
X17229379Y-13890766D01*
X17220755Y-13879245D01*
X17220754Y-13879245D01*
X17209234Y-13870621D01*
X17209233Y-13870620D01*
X17196092Y-13865719D01*
X17190498Y-13861532D01*
X17188057Y-13854985D01*
X17189542Y-13848158D01*
X17191656Y-13845333D01*
X17203010Y-13833979D01*
X17206008Y-13829854D01*
X17215505Y-13816782D01*
X17215505Y-13816782D01*
X17215505Y-13816782D01*
X17225156Y-13797841D01*
X17231725Y-13777624D01*
X17235050Y-13756629D01*
X17235050Y-13735371D01*
X17231725Y-13714376D01*
X17225156Y-13694159D01*
X17215505Y-13675218D01*
X17215505Y-13675218D01*
X17215505Y-13675218D01*
X17205143Y-13660955D01*
X17203011Y-13658021D01*
X17203011Y-13658021D01*
X17187979Y-13642989D01*
X17170782Y-13630495D01*
X17170712Y-13630459D01*
X17169905Y-13630048D01*
X17169612Y-13629771D01*
X17169220Y-13629672D01*
X17167093Y-13627392D01*
X17164826Y-13625251D01*
X17164729Y-13624859D01*
X17164453Y-13624564D01*
X17163896Y-13621496D01*
X17163146Y-13618469D01*
X17163277Y-13618087D01*
X17163204Y-13617689D01*
X17164394Y-13614807D01*
X17165400Y-13611856D01*
X17165761Y-13611497D01*
X17165870Y-13611231D01*
X17166735Y-13610528D01*
X17168451Y-13608823D01*
X17169148Y-13608337D01*
X17170782Y-13607505D01*
X17171477Y-13607000D01*
X17537514Y-13607000D01*
X17617801Y-13607000D01*
X17616080Y-13607994D01*
X17610494Y-13613579D01*
X17606544Y-13620420D01*
X17604500Y-13628050D01*
X17604500Y-13635950D01*
X17606544Y-13643580D01*
X17610494Y-13650420D01*
X17616080Y-13656006D01*
X17617801Y-13657000D01*
X17537514Y-13657000D01*
X17538343Y-13661169D01*
X17538343Y-13661169D01*
X17545881Y-13679367D01*
X17545881Y-13679368D01*
X17556825Y-13695746D01*
X17556825Y-13695747D01*
X17570753Y-13709675D01*
X17570754Y-13709675D01*
X17587132Y-13720618D01*
X17587133Y-13720619D01*
X17605331Y-13728157D01*
X17605332Y-13728157D01*
X17624650Y-13732000D01*
X17624651Y-13732000D01*
X17664500Y-13732000D01*
X17664500Y-13662000D01*
X17714500Y-13662000D01*
X17714500Y-13732000D01*
X17754349Y-13732000D01*
X17754350Y-13732000D01*
X17773668Y-13728157D01*
X17773669Y-13728157D01*
X17791867Y-13720619D01*
X17791868Y-13720618D01*
X17808246Y-13709675D01*
X17808247Y-13709675D01*
X17822175Y-13695747D01*
X17822175Y-13695746D01*
X17833119Y-13679368D01*
X17833119Y-13679367D01*
X17840657Y-13661169D01*
X17840657Y-13661169D01*
X17841486Y-13657000D01*
X17761199Y-13657000D01*
X17762921Y-13656006D01*
X17768506Y-13650420D01*
X17772456Y-13643580D01*
X17774500Y-13635950D01*
X17774500Y-13628050D01*
X17772456Y-13620420D01*
X17768506Y-13613579D01*
X17762921Y-13607994D01*
X17761199Y-13607000D01*
X17841486Y-13607000D01*
X17980514Y-13607000D01*
X18060801Y-13607000D01*
X18059080Y-13607994D01*
X18053494Y-13613579D01*
X18049544Y-13620420D01*
X18047500Y-13628050D01*
X18047500Y-13635950D01*
X18049544Y-13643580D01*
X18053494Y-13650420D01*
X18059080Y-13656006D01*
X18060801Y-13657000D01*
X17980514Y-13657000D01*
X17981343Y-13661169D01*
X17981343Y-13661169D01*
X17988881Y-13679367D01*
X17988881Y-13679368D01*
X17999825Y-13695746D01*
X17999825Y-13695747D01*
X18013753Y-13709675D01*
X18013754Y-13709675D01*
X18030132Y-13720618D01*
X18030133Y-13720619D01*
X18048331Y-13728157D01*
X18048332Y-13728157D01*
X18067650Y-13732000D01*
X18067651Y-13732000D01*
X18082500Y-13732000D01*
X18082500Y-13662000D01*
X18132500Y-13662000D01*
X18132500Y-13732000D01*
X18147349Y-13732000D01*
X18147350Y-13732000D01*
X18166668Y-13728157D01*
X18166669Y-13728157D01*
X18184867Y-13720619D01*
X18184868Y-13720618D01*
X18201246Y-13709675D01*
X18201247Y-13709675D01*
X18215175Y-13695747D01*
X18215175Y-13695746D01*
X18226119Y-13679368D01*
X18226119Y-13679367D01*
X18233657Y-13661169D01*
X18233657Y-13661169D01*
X18234486Y-13657000D01*
X18154199Y-13657000D01*
X18155921Y-13656006D01*
X18161506Y-13650420D01*
X18165456Y-13643580D01*
X18167500Y-13635950D01*
X18167500Y-13628050D01*
X18165456Y-13620420D01*
X18161506Y-13613579D01*
X18155921Y-13607994D01*
X18154199Y-13607000D01*
X18234486Y-13607000D01*
X18233657Y-13602831D01*
X18233657Y-13602831D01*
X18226119Y-13584633D01*
X18226119Y-13584631D01*
X18215175Y-13568254D01*
X18215175Y-13568253D01*
X18201247Y-13554325D01*
X18201246Y-13554325D01*
X18184868Y-13543381D01*
X18184867Y-13543381D01*
X18166669Y-13535843D01*
X18166668Y-13535843D01*
X18147350Y-13532000D01*
X18132500Y-13532000D01*
X18132500Y-13602000D01*
X18082500Y-13602000D01*
X18082500Y-13532000D01*
X18067650Y-13532000D01*
X18048332Y-13535843D01*
X18048331Y-13535843D01*
X18030133Y-13543381D01*
X18030132Y-13543381D01*
X18013754Y-13554325D01*
X18013753Y-13554325D01*
X17999825Y-13568253D01*
X17999825Y-13568254D01*
X17988881Y-13584631D01*
X17988881Y-13584633D01*
X17981343Y-13602831D01*
X17981343Y-13602831D01*
X17980514Y-13607000D01*
X17841486Y-13607000D01*
X17840657Y-13602831D01*
X17840657Y-13602831D01*
X17833119Y-13584633D01*
X17833119Y-13584631D01*
X17822175Y-13568254D01*
X17822175Y-13568253D01*
X17808247Y-13554325D01*
X17808246Y-13554325D01*
X17791868Y-13543381D01*
X17791867Y-13543381D01*
X17786080Y-13540984D01*
X17780640Y-13536600D01*
X17778433Y-13529970D01*
X17780161Y-13523200D01*
X17781123Y-13521963D01*
X17781056Y-13521911D01*
X17781550Y-13521267D01*
X17781551Y-13521266D01*
X17788469Y-13509284D01*
X17792050Y-13495918D01*
X17792050Y-13482082D01*
X17788469Y-13468716D01*
X17783951Y-13460891D01*
X17781551Y-13456734D01*
X17781550Y-13456733D01*
X17771767Y-13446950D01*
X17771766Y-13446949D01*
X17759784Y-13440031D01*
X17759784Y-13440031D01*
X17759784Y-13440031D01*
X17746418Y-13436450D01*
X17732582Y-13436450D01*
X17719216Y-13440031D01*
X17719216Y-13440031D01*
X17707234Y-13446949D01*
X17707233Y-13446950D01*
X17697450Y-13456733D01*
X17697449Y-13456734D01*
X17690531Y-13468716D01*
X17690531Y-13468716D01*
X17686950Y-13482082D01*
X17686950Y-13495918D01*
X17689590Y-13505771D01*
X17690531Y-13509283D01*
X17690531Y-13509284D01*
X17697449Y-13521266D01*
X17697449Y-13521266D01*
X17697450Y-13521266D01*
X17707234Y-13531050D01*
X17707234Y-13531051D01*
X17707234Y-13531051D01*
X17708300Y-13531666D01*
X17713121Y-13536722D01*
X17714500Y-13542405D01*
X17714500Y-13602000D01*
X17664500Y-13602000D01*
X17664500Y-13532000D01*
X17624650Y-13532000D01*
X17605332Y-13535843D01*
X17605331Y-13535843D01*
X17587133Y-13543381D01*
X17587132Y-13543381D01*
X17570754Y-13554325D01*
X17570753Y-13554325D01*
X17556825Y-13568253D01*
X17556825Y-13568254D01*
X17545881Y-13584631D01*
X17545881Y-13584633D01*
X17538343Y-13602831D01*
X17538343Y-13602831D01*
X17537514Y-13607000D01*
X17171477Y-13607000D01*
X17187979Y-13595010D01*
X17203010Y-13579979D01*
X17203011Y-13579979D01*
X17203011Y-13579979D01*
X17215505Y-13562782D01*
X17215505Y-13562782D01*
X17215505Y-13562782D01*
X17225156Y-13543841D01*
X17231725Y-13523624D01*
X17235050Y-13502629D01*
X17235050Y-13481371D01*
X17231725Y-13460376D01*
X17227181Y-13446392D01*
X17329950Y-13446392D01*
X17332834Y-13460891D01*
X17332834Y-13460892D01*
X17338491Y-13474549D01*
X17338491Y-13474549D01*
X17338492Y-13474549D01*
X17338492Y-13474549D01*
X17341483Y-13479026D01*
X17346705Y-13486842D01*
X17352472Y-13492609D01*
X17355781Y-13495918D01*
X17358159Y-13498295D01*
X17370450Y-13506508D01*
X17370451Y-13506509D01*
X17377794Y-13509550D01*
X17382762Y-13511608D01*
X17384109Y-13512166D01*
X17384109Y-13512166D01*
X17384109Y-13512166D01*
X17398608Y-13515050D01*
X17398608Y-13515050D01*
X17413392Y-13515050D01*
X17423146Y-13513110D01*
X17427891Y-13512166D01*
X17441550Y-13506508D01*
X17453842Y-13498295D01*
X17464295Y-13487842D01*
X17472508Y-13475549D01*
X17478166Y-13461891D01*
X17480198Y-13451674D01*
X17481050Y-13447392D01*
X17481050Y-13432608D01*
X17480288Y-13428779D01*
X17480050Y-13426360D01*
X17480050Y-13036608D01*
X17477166Y-13022109D01*
X17477166Y-13022109D01*
X17477166Y-13022109D01*
X17474221Y-13015000D01*
X17471509Y-13008451D01*
X17471508Y-13008450D01*
X17463295Y-12996158D01*
X17463295Y-12996158D01*
X17452842Y-12985705D01*
X17452842Y-12985705D01*
X17440550Y-12977492D01*
X17440549Y-12977491D01*
X17426892Y-12971834D01*
X17426891Y-12971834D01*
X17412392Y-12968950D01*
X17412392Y-12968950D01*
X17397608Y-12968950D01*
X17397608Y-12968950D01*
X17383109Y-12971834D01*
X17383108Y-12971834D01*
X17369451Y-12977491D01*
X17369450Y-12977492D01*
X17357158Y-12985705D01*
X17357158Y-12985705D01*
X17346705Y-12996158D01*
X17346705Y-12996158D01*
X17338492Y-13008450D01*
X17338491Y-13008451D01*
X17332834Y-13022108D01*
X17332834Y-13022109D01*
X17329950Y-13036608D01*
X17329950Y-13036608D01*
X17329950Y-13446392D01*
X17329950Y-13446392D01*
X17329950Y-13446392D01*
X17227181Y-13446392D01*
X17225156Y-13440159D01*
X17215505Y-13421218D01*
X17215505Y-13421218D01*
X17215505Y-13421218D01*
X17203011Y-13404021D01*
X17187979Y-13388989D01*
X17170782Y-13376495D01*
X17151841Y-13366844D01*
X17151841Y-13366844D01*
X17151841Y-13366844D01*
X17131624Y-13360275D01*
X17131624Y-13360275D01*
X17131624Y-13360275D01*
X17113493Y-13357404D01*
X17110629Y-13356950D01*
X17089371Y-13356950D01*
X17086507Y-13357404D01*
X17068376Y-13360275D01*
X17048159Y-13366844D01*
X17029218Y-13376495D01*
X17012021Y-13388989D01*
X16996989Y-13404021D01*
X16984495Y-13421218D01*
X16974844Y-13440158D01*
X16968275Y-13460376D01*
X16964950Y-13481371D01*
X16500050Y-13481371D01*
X16500050Y-13410146D01*
X16500050Y-13310146D01*
X16500050Y-12946578D01*
X16502018Y-12939874D01*
X16503682Y-12937810D01*
X16546991Y-12894501D01*
X16660593Y-12780899D01*
X16698492Y-12743000D01*
X17537514Y-12743000D01*
X17617801Y-12743000D01*
X17616080Y-12743994D01*
X17610494Y-12749579D01*
X17606544Y-12756420D01*
X17604500Y-12764050D01*
X17604500Y-12771950D01*
X17606544Y-12779580D01*
X17610494Y-12786420D01*
X17616080Y-12792006D01*
X17617801Y-12793000D01*
X17537514Y-12793000D01*
X17538343Y-12797169D01*
X17538343Y-12797169D01*
X17545881Y-12815367D01*
X17545881Y-12815368D01*
X17556825Y-12831746D01*
X17556825Y-12831747D01*
X17570753Y-12845675D01*
X17570754Y-12845675D01*
X17587132Y-12856618D01*
X17587133Y-12856619D01*
X17605331Y-12864157D01*
X17605332Y-12864157D01*
X17624650Y-12868000D01*
X17624651Y-12868000D01*
X17664500Y-12868000D01*
X17664500Y-12798000D01*
X17714500Y-12798000D01*
X17714500Y-12857595D01*
X17712532Y-12864299D01*
X17708300Y-12868334D01*
X17707234Y-12868949D01*
X17697450Y-12878733D01*
X17697449Y-12878734D01*
X17690531Y-12890716D01*
X17690531Y-12890716D01*
X17686950Y-12904082D01*
X17686950Y-12917918D01*
X17690288Y-12930375D01*
X17690531Y-12931283D01*
X17690531Y-12931284D01*
X17697449Y-12943266D01*
X17697449Y-12943266D01*
X17697450Y-12943266D01*
X17707234Y-12953050D01*
X17707234Y-12953051D01*
X17707234Y-12953051D01*
X17712906Y-12956325D01*
X17719216Y-12959969D01*
X17732582Y-12963550D01*
X17732582Y-12963550D01*
X17746418Y-12963550D01*
X17746418Y-12963550D01*
X17759784Y-12959969D01*
X17771767Y-12953050D01*
X17781551Y-12943266D01*
X17788469Y-12931284D01*
X17792050Y-12917918D01*
X17792050Y-12904082D01*
X17788469Y-12890716D01*
X17783408Y-12881950D01*
X17781551Y-12878734D01*
X17781056Y-12878089D01*
X17781319Y-12877887D01*
X17778709Y-12873108D01*
X17779207Y-12866139D01*
X17783394Y-12860545D01*
X17786080Y-12859016D01*
X17791867Y-12856619D01*
X17791868Y-12856618D01*
X17808246Y-12845675D01*
X17808247Y-12845675D01*
X17822175Y-12831747D01*
X17822175Y-12831746D01*
X17833119Y-12815368D01*
X17833119Y-12815367D01*
X17840657Y-12797169D01*
X17840657Y-12797169D01*
X17841486Y-12793000D01*
X17761199Y-12793000D01*
X17762921Y-12792006D01*
X17768506Y-12786420D01*
X17772456Y-12779580D01*
X17774500Y-12771950D01*
X17774500Y-12764050D01*
X17772456Y-12756420D01*
X17768506Y-12749579D01*
X17762921Y-12743994D01*
X17761199Y-12743000D01*
X17841486Y-12743000D01*
X17980514Y-12743000D01*
X18060801Y-12743000D01*
X18059080Y-12743994D01*
X18053494Y-12749579D01*
X18049544Y-12756420D01*
X18047500Y-12764050D01*
X18047500Y-12771950D01*
X18049544Y-12779580D01*
X18053494Y-12786420D01*
X18059080Y-12792006D01*
X18060801Y-12793000D01*
X17980514Y-12793000D01*
X17981343Y-12797169D01*
X17981343Y-12797169D01*
X17988881Y-12815367D01*
X17988881Y-12815368D01*
X17999825Y-12831746D01*
X17999825Y-12831747D01*
X18013753Y-12845675D01*
X18013754Y-12845675D01*
X18030132Y-12856618D01*
X18030133Y-12856619D01*
X18048331Y-12864157D01*
X18048332Y-12864157D01*
X18067650Y-12868000D01*
X18067651Y-12868000D01*
X18082500Y-12868000D01*
X18082500Y-12798000D01*
X18132500Y-12798000D01*
X18132500Y-12868000D01*
X18147349Y-12868000D01*
X18147350Y-12868000D01*
X18166668Y-12864157D01*
X18166669Y-12864157D01*
X18184867Y-12856619D01*
X18184868Y-12856618D01*
X18201246Y-12845675D01*
X18201247Y-12845675D01*
X18215175Y-12831747D01*
X18215175Y-12831746D01*
X18226119Y-12815368D01*
X18226119Y-12815367D01*
X18233657Y-12797169D01*
X18233657Y-12797169D01*
X18234486Y-12793000D01*
X18154199Y-12793000D01*
X18155921Y-12792006D01*
X18161506Y-12786420D01*
X18165456Y-12779580D01*
X18167500Y-12771950D01*
X18167500Y-12764050D01*
X18165456Y-12756420D01*
X18161506Y-12749579D01*
X18155921Y-12743994D01*
X18154199Y-12743000D01*
X18234486Y-12743000D01*
X18233657Y-12738831D01*
X18233657Y-12738831D01*
X18226119Y-12720633D01*
X18226119Y-12720631D01*
X18215175Y-12704254D01*
X18215175Y-12704253D01*
X18201247Y-12690325D01*
X18201246Y-12690325D01*
X18184868Y-12679381D01*
X18184867Y-12679381D01*
X18166669Y-12671843D01*
X18166668Y-12671843D01*
X18147350Y-12668000D01*
X18132500Y-12668000D01*
X18132500Y-12738000D01*
X18082500Y-12738000D01*
X18082500Y-12668000D01*
X18067650Y-12668000D01*
X18048332Y-12671843D01*
X18048331Y-12671843D01*
X18030133Y-12679381D01*
X18030132Y-12679381D01*
X18013754Y-12690325D01*
X18013753Y-12690325D01*
X17999825Y-12704253D01*
X17999825Y-12704254D01*
X17988881Y-12720631D01*
X17988881Y-12720633D01*
X17981343Y-12738831D01*
X17981343Y-12738831D01*
X17980514Y-12743000D01*
X17841486Y-12743000D01*
X17840657Y-12738831D01*
X17840657Y-12738831D01*
X17833119Y-12720633D01*
X17833119Y-12720631D01*
X17822175Y-12704254D01*
X17822175Y-12704253D01*
X17808247Y-12690325D01*
X17808246Y-12690325D01*
X17791868Y-12679381D01*
X17791867Y-12679381D01*
X17773669Y-12671843D01*
X17773668Y-12671843D01*
X17754350Y-12668000D01*
X17714500Y-12668000D01*
X17714500Y-12738000D01*
X17664500Y-12738000D01*
X17664500Y-12668000D01*
X17624650Y-12668000D01*
X17605332Y-12671843D01*
X17605331Y-12671843D01*
X17587133Y-12679381D01*
X17587132Y-12679381D01*
X17570754Y-12690325D01*
X17570753Y-12690325D01*
X17556825Y-12704253D01*
X17556825Y-12704254D01*
X17545881Y-12720631D01*
X17545881Y-12720633D01*
X17538343Y-12738831D01*
X17538343Y-12738831D01*
X17537514Y-12743000D01*
X16698492Y-12743000D01*
X16737810Y-12703682D01*
X16743942Y-12700333D01*
X16746578Y-12700050D01*
X16809854Y-12700050D01*
X16822858Y-12697463D01*
X16829184Y-12696205D01*
X16847391Y-12688663D01*
X16863778Y-12677714D01*
X16877714Y-12663778D01*
X16888663Y-12647391D01*
X16896205Y-12629183D01*
X16897768Y-12621328D01*
X16900050Y-12609854D01*
X16900050Y-12590146D01*
X16896205Y-12570817D01*
X16896205Y-12570817D01*
X16896205Y-12570816D01*
X16896205Y-12570816D01*
X16888664Y-12552609D01*
X16888663Y-12552608D01*
X16877714Y-12536222D01*
X16877714Y-12536221D01*
X16863779Y-12522286D01*
X16863778Y-12522286D01*
X16847392Y-12511337D01*
X16847391Y-12511336D01*
X16829184Y-12503795D01*
X16829183Y-12503795D01*
X16809854Y-12499950D01*
X16809854Y-12499950D01*
X16802450Y-12499950D01*
X16795746Y-12497981D01*
X16791171Y-12492701D01*
X16790050Y-12487550D01*
X16790050Y-11911131D01*
X16790050Y-11911130D01*
X16790025Y-11911004D01*
X16789947Y-11910611D01*
X16789645Y-11909095D01*
X16789645Y-11909095D01*
X16787566Y-11898641D01*
X16786590Y-11893733D01*
X16782813Y-11884617D01*
X16779801Y-11877345D01*
X16773506Y-11867924D01*
X16769946Y-11862596D01*
X16769946Y-11862596D01*
X16525999Y-11618649D01*
X16517563Y-11610213D01*
X17664950Y-11610213D01*
X17664950Y-11789787D01*
X17664950Y-11789788D01*
X17665591Y-11795748D01*
X17670620Y-11809233D01*
X17670621Y-11809233D01*
X17679245Y-11820754D01*
X17679246Y-11820755D01*
X17690766Y-11829379D01*
X17690767Y-11829380D01*
X17704252Y-11834409D01*
X17704252Y-11834409D01*
X17704944Y-11834483D01*
X17710213Y-11835050D01*
X17889787Y-11835050D01*
X17895748Y-11834409D01*
X17909233Y-11829380D01*
X17920755Y-11820755D01*
X17929380Y-11809233D01*
X17934409Y-11795748D01*
X17935050Y-11789787D01*
X17935050Y-11787398D01*
X17935333Y-11786096D01*
X17936394Y-11784152D01*
X17937018Y-11782027D01*
X17938680Y-11779964D01*
X17938681Y-11779964D01*
X17938681Y-11779963D01*
X17938682Y-11779963D01*
X18005704Y-11712941D01*
X18007408Y-11719299D01*
X18013990Y-11730701D01*
X18023299Y-11740010D01*
X18034701Y-11746592D01*
X18041059Y-11748296D01*
X17977828Y-11811527D01*
X17977828Y-11811527D01*
X17983245Y-11815462D01*
X18002178Y-11825109D01*
X18022387Y-11831676D01*
X18043375Y-11835000D01*
X18064625Y-11835000D01*
X18085613Y-11831676D01*
X18085613Y-11831676D01*
X18105822Y-11825109D01*
X18124755Y-11815462D01*
X18130172Y-11811527D01*
X18130172Y-11811527D01*
X18066941Y-11748296D01*
X18073299Y-11746592D01*
X18084701Y-11740010D01*
X18094010Y-11730701D01*
X18100593Y-11719299D01*
X18102296Y-11712941D01*
X18165527Y-11776172D01*
X18165527Y-11776172D01*
X18169462Y-11770755D01*
X18179110Y-11751822D01*
X18185676Y-11731613D01*
X18185676Y-11731613D01*
X18189000Y-11710625D01*
X18189000Y-11689375D01*
X18185676Y-11668387D01*
X18185676Y-11668387D01*
X18179110Y-11648178D01*
X18169462Y-11629245D01*
X18165527Y-11623828D01*
X18165527Y-11623828D01*
X18102296Y-11687059D01*
X18100593Y-11680701D01*
X18094010Y-11669299D01*
X18084701Y-11659990D01*
X18073299Y-11653407D01*
X18066941Y-11651704D01*
X18130172Y-11588473D01*
X18124755Y-11584537D01*
X18105822Y-11574890D01*
X18085613Y-11568324D01*
X18064625Y-11565000D01*
X18043375Y-11565000D01*
X18022387Y-11568324D01*
X18022387Y-11568324D01*
X18002178Y-11574890D01*
X17983244Y-11584538D01*
X17977828Y-11588473D01*
X17977828Y-11588473D01*
X18041059Y-11651704D01*
X18034701Y-11653407D01*
X18023299Y-11659990D01*
X18013990Y-11669299D01*
X18007408Y-11680701D01*
X18005704Y-11687059D01*
X17938682Y-11620037D01*
X17935333Y-11613905D01*
X17935333Y-11613904D01*
X17935050Y-11612601D01*
X17935050Y-11610213D01*
X17934409Y-11604252D01*
X17931593Y-11596700D01*
X17929380Y-11590767D01*
X17929379Y-11590766D01*
X17920755Y-11579245D01*
X17920754Y-11579245D01*
X17909234Y-11570621D01*
X17909233Y-11570620D01*
X17895748Y-11565591D01*
X17895748Y-11565591D01*
X17889788Y-11564950D01*
X17889788Y-11564950D01*
X17889787Y-11564950D01*
X17889786Y-11564950D01*
X17710213Y-11564950D01*
X17710212Y-11564950D01*
X17704252Y-11565591D01*
X17690767Y-11570620D01*
X17690766Y-11570621D01*
X17679246Y-11579245D01*
X17679245Y-11579245D01*
X17670621Y-11590766D01*
X17670620Y-11590767D01*
X17665591Y-11604252D01*
X17664950Y-11610212D01*
X17664950Y-11610213D01*
X16517563Y-11610213D01*
X16417403Y-11510053D01*
X16417403Y-11510053D01*
X16411962Y-11506418D01*
X16411962Y-11506417D01*
X16411496Y-11506106D01*
X16402655Y-11500199D01*
X16394461Y-11496805D01*
X16386267Y-11493410D01*
X16386266Y-11493410D01*
X16368870Y-11489950D01*
X16368869Y-11489950D01*
X16368869Y-11489950D01*
X14862436Y-11489950D01*
X14855732Y-11487981D01*
X14853668Y-11486318D01*
X14608568Y-11241218D01*
X14605220Y-11235086D01*
X14605718Y-11228117D01*
X14609905Y-11222523D01*
X14616452Y-11220082D01*
X14617336Y-11220050D01*
X18467550Y-11220050D01*
X18474254Y-11222018D01*
X18478829Y-11227299D01*
X18479950Y-11232450D01*
X18479950Y-15567550D01*
X18477982Y-15574254D01*
X18472701Y-15578829D01*
X18467550Y-15579950D01*
X18203057Y-15579950D01*
X18196353Y-15577981D01*
X18191777Y-15572701D01*
X18190783Y-15565785D01*
X18193686Y-15559430D01*
X18197427Y-15556501D01*
X18203643Y-15553334D01*
X18222751Y-15539452D01*
X18239452Y-15522751D01*
X18253334Y-15503643D01*
X18264057Y-15482599D01*
X18271355Y-15460137D01*
X18273501Y-15446592D01*
X18275050Y-15436810D01*
X18275050Y-15413190D01*
X18271355Y-15389863D01*
X18264901Y-15370000D01*
X18264057Y-15367401D01*
X18264057Y-15367400D01*
X18264057Y-15367400D01*
X18257145Y-15353835D01*
X18253334Y-15346357D01*
X18239452Y-15327249D01*
X18222751Y-15310548D01*
X18203643Y-15296666D01*
X18182600Y-15285943D01*
X18160137Y-15278645D01*
X18136810Y-15274950D01*
X18136809Y-15274950D01*
X18113191Y-15274950D01*
X18113190Y-15274950D01*
X18089863Y-15278645D01*
X18067400Y-15285943D01*
X18046357Y-15296666D01*
X18038005Y-15302734D01*
X18027249Y-15310548D01*
X18027249Y-15310548D01*
X18027249Y-15310548D01*
X18010549Y-15327249D01*
X18010549Y-15327249D01*
X18010548Y-15327249D01*
X18005208Y-15334600D01*
X17996666Y-15346357D01*
X17985943Y-15367400D01*
X17978645Y-15389863D01*
X17974950Y-15413190D01*
X17974950Y-15436810D01*
X17978645Y-15460137D01*
X17985943Y-15482600D01*
X17992637Y-15495737D01*
X17996666Y-15503643D01*
X18010548Y-15522751D01*
X18027249Y-15539452D01*
X18046357Y-15553334D01*
X18052573Y-15556501D01*
X18057652Y-15561299D01*
X18059332Y-15568081D01*
X18057078Y-15574695D01*
X18051607Y-15579040D01*
X18046943Y-15579950D01*
X17752947Y-15579950D01*
X17746243Y-15577981D01*
X17741667Y-15572701D01*
X17740673Y-15565785D01*
X17743575Y-15559430D01*
X17747317Y-15556501D01*
X17753616Y-15553292D01*
X17753617Y-15553291D01*
X17761910Y-15547266D01*
X17761911Y-15547266D01*
X17692023Y-15477379D01*
X17696229Y-15476252D01*
X17708771Y-15469011D01*
X17719011Y-15458771D01*
X17726252Y-15446229D01*
X17727379Y-15442023D01*
X17797266Y-15511910D01*
X17797266Y-15511910D01*
X17803291Y-15503617D01*
X17803292Y-15503616D01*
X17814010Y-15482580D01*
X17821307Y-15460125D01*
X17825000Y-15436805D01*
X17825000Y-15413195D01*
X17821307Y-15389875D01*
X17814010Y-15367420D01*
X17803291Y-15346383D01*
X17797266Y-15338089D01*
X17797266Y-15338089D01*
X17727379Y-15407976D01*
X17726252Y-15403771D01*
X17719011Y-15391229D01*
X17708771Y-15380989D01*
X17696229Y-15373748D01*
X17692023Y-15372621D01*
X17761911Y-15302734D01*
X17761910Y-15302734D01*
X17753617Y-15296709D01*
X17732580Y-15285990D01*
X17710125Y-15278693D01*
X17710125Y-15278693D01*
X17686805Y-15275000D01*
X17663195Y-15275000D01*
X17639875Y-15278693D01*
X17617420Y-15285990D01*
X17596383Y-15296708D01*
X17588089Y-15302734D01*
X17657977Y-15372621D01*
X17653771Y-15373748D01*
X17641229Y-15380989D01*
X17630989Y-15391229D01*
X17623748Y-15403771D01*
X17622621Y-15407977D01*
X17552734Y-15338089D01*
X17546708Y-15346383D01*
X17535990Y-15367420D01*
X17528693Y-15389875D01*
X17525000Y-15413195D01*
X17525000Y-15436805D01*
X17528693Y-15460125D01*
X17535990Y-15482580D01*
X17546709Y-15503617D01*
X17552734Y-15511910D01*
X17552734Y-15511910D01*
X17622621Y-15442023D01*
X17623748Y-15446229D01*
X17630989Y-15458771D01*
X17641229Y-15469011D01*
X17653771Y-15476252D01*
X17657977Y-15477379D01*
X17588089Y-15547266D01*
X17596383Y-15553291D01*
X17602683Y-15556501D01*
X17607763Y-15561299D01*
X17609442Y-15568081D01*
X17607188Y-15574695D01*
X17601717Y-15579040D01*
X17597053Y-15579950D01*
X17403057Y-15579950D01*
X17396353Y-15577981D01*
X17391777Y-15572701D01*
X17390783Y-15565785D01*
X17393686Y-15559430D01*
X17397427Y-15556501D01*
X17403643Y-15553334D01*
X17422751Y-15539452D01*
X17439452Y-15522751D01*
X17453334Y-15503643D01*
X17464057Y-15482599D01*
X17471355Y-15460137D01*
X17473501Y-15446592D01*
X17475050Y-15436810D01*
X17475050Y-15413190D01*
X17471355Y-15389863D01*
X17464901Y-15370000D01*
X17464057Y-15367401D01*
X17464057Y-15367400D01*
X17464057Y-15367400D01*
X17457145Y-15353835D01*
X17453334Y-15346357D01*
X17439452Y-15327249D01*
X17422751Y-15310548D01*
X17403643Y-15296666D01*
X17382600Y-15285943D01*
X17360137Y-15278645D01*
X17336810Y-15274950D01*
X17336809Y-15274950D01*
X17313191Y-15274950D01*
X17313190Y-15274950D01*
X17289863Y-15278645D01*
X17267400Y-15285943D01*
X17246357Y-15296666D01*
X17238005Y-15302734D01*
X17227249Y-15310548D01*
X17227249Y-15310548D01*
X17227249Y-15310548D01*
X17210549Y-15327249D01*
X17210549Y-15327249D01*
X17210548Y-15327249D01*
X17205208Y-15334600D01*
X17196666Y-15346357D01*
X17185943Y-15367400D01*
X17178645Y-15389863D01*
X17174950Y-15413190D01*
X17174950Y-15436810D01*
X17178645Y-15460137D01*
X17185943Y-15482600D01*
X17192637Y-15495737D01*
X17196666Y-15503643D01*
X17210548Y-15522751D01*
X17227249Y-15539452D01*
X17246357Y-15553334D01*
X17252573Y-15556501D01*
X17257652Y-15561299D01*
X17259332Y-15568081D01*
X17257078Y-15574695D01*
X17251607Y-15579040D01*
X17246943Y-15579950D01*
X16952947Y-15579950D01*
X16946243Y-15577981D01*
X16941667Y-15572701D01*
X16940673Y-15565785D01*
X16943575Y-15559430D01*
X16947317Y-15556501D01*
X16953616Y-15553292D01*
X16953617Y-15553291D01*
X16961910Y-15547266D01*
X16961911Y-15547266D01*
X16892023Y-15477379D01*
X16896229Y-15476252D01*
X16908771Y-15469011D01*
X16919011Y-15458771D01*
X16926252Y-15446229D01*
X16927379Y-15442023D01*
X16997266Y-15511910D01*
X16997266Y-15511910D01*
X17003291Y-15503617D01*
X17003292Y-15503616D01*
X17014010Y-15482580D01*
X17021307Y-15460125D01*
X17025000Y-15436805D01*
X17025000Y-15413195D01*
X17021307Y-15389875D01*
X17014010Y-15367420D01*
X17003291Y-15346383D01*
X16997266Y-15338089D01*
X16997266Y-15338089D01*
X16927379Y-15407976D01*
X16926252Y-15403771D01*
X16919011Y-15391229D01*
X16908771Y-15380989D01*
X16896229Y-15373748D01*
X16892023Y-15372621D01*
X16961911Y-15302734D01*
X16961910Y-15302734D01*
X16953617Y-15296709D01*
X16932580Y-15285990D01*
X16910125Y-15278693D01*
X16910125Y-15278693D01*
X16886805Y-15275000D01*
X16863195Y-15275000D01*
X16839875Y-15278693D01*
X16817420Y-15285990D01*
X16796383Y-15296708D01*
X16788089Y-15302734D01*
X16857977Y-15372621D01*
X16853771Y-15373748D01*
X16841229Y-15380989D01*
X16830989Y-15391229D01*
X16823748Y-15403771D01*
X16822621Y-15407977D01*
X16752734Y-15338089D01*
X16746708Y-15346383D01*
X16735990Y-15367420D01*
X16728693Y-15389875D01*
X16725000Y-15413195D01*
X16725000Y-15436805D01*
X16728693Y-15460125D01*
X16735990Y-15482580D01*
X16746709Y-15503617D01*
X16752734Y-15511910D01*
X16752734Y-15511910D01*
X16822621Y-15442023D01*
X16823748Y-15446229D01*
X16830989Y-15458771D01*
X16841229Y-15469011D01*
X16853771Y-15476252D01*
X16857977Y-15477379D01*
X16788089Y-15547266D01*
X16796383Y-15553291D01*
X16802683Y-15556501D01*
X16807763Y-15561299D01*
X16809442Y-15568081D01*
X16807188Y-15574695D01*
X16801717Y-15579040D01*
X16797053Y-15579950D01*
X16603057Y-15579950D01*
X16596353Y-15577981D01*
X16591777Y-15572701D01*
X16590783Y-15565785D01*
X16593685Y-15559430D01*
X16597427Y-15556501D01*
X16603643Y-15553334D01*
X16622751Y-15539452D01*
X16639452Y-15522751D01*
X16653334Y-15503643D01*
X16664057Y-15482599D01*
X16671355Y-15460137D01*
X16673500Y-15446592D01*
X16675050Y-15436810D01*
X16675050Y-15413190D01*
X16671355Y-15389863D01*
X16664901Y-15370000D01*
X16664057Y-15367401D01*
X16664057Y-15367400D01*
X16664057Y-15367400D01*
X16657145Y-15353835D01*
X16653334Y-15346357D01*
X16639452Y-15327249D01*
X16622751Y-15310548D01*
X16603643Y-15296666D01*
X16582600Y-15285943D01*
X16560137Y-15278645D01*
X16536810Y-15274950D01*
X16536809Y-15274950D01*
X16513191Y-15274950D01*
X16513190Y-15274950D01*
X16489863Y-15278645D01*
X16467400Y-15285943D01*
X16446357Y-15296666D01*
X16438005Y-15302734D01*
X16427249Y-15310548D01*
X16427249Y-15310548D01*
X16427249Y-15310548D01*
X16410548Y-15327249D01*
X16410548Y-15327249D01*
X16410548Y-15327249D01*
X16405208Y-15334600D01*
X16396666Y-15346357D01*
X16385943Y-15367400D01*
X16378645Y-15389863D01*
X16374950Y-15413190D01*
X16374950Y-15436810D01*
X16378645Y-15460137D01*
X16385943Y-15482600D01*
X16392637Y-15495737D01*
X16396666Y-15503643D01*
X16410548Y-15522751D01*
X16427249Y-15539452D01*
X16446357Y-15553334D01*
X16452573Y-15556501D01*
X16457652Y-15561299D01*
X16459332Y-15568081D01*
X16457078Y-15574695D01*
X16451607Y-15579040D01*
X16446943Y-15579950D01*
X16152947Y-15579950D01*
X16146243Y-15577981D01*
X16141667Y-15572701D01*
X16140673Y-15565785D01*
X16143575Y-15559430D01*
X16147317Y-15556501D01*
X16153616Y-15553292D01*
X16153617Y-15553291D01*
X16161910Y-15547266D01*
X16161910Y-15547266D01*
X16092023Y-15477379D01*
X16096229Y-15476252D01*
X16108771Y-15469011D01*
X16119011Y-15458771D01*
X16126252Y-15446229D01*
X16127379Y-15442023D01*
X16197266Y-15511910D01*
X16197266Y-15511910D01*
X16203291Y-15503617D01*
X16203292Y-15503616D01*
X16214010Y-15482580D01*
X16221306Y-15460125D01*
X16225000Y-15436805D01*
X16225000Y-15413195D01*
X16221306Y-15389875D01*
X16214010Y-15367420D01*
X16203291Y-15346383D01*
X16197266Y-15338089D01*
X16197266Y-15338089D01*
X16127379Y-15407976D01*
X16126252Y-15403771D01*
X16119011Y-15391229D01*
X16108771Y-15380989D01*
X16096229Y-15373748D01*
X16092023Y-15372621D01*
X16161910Y-15302734D01*
X16161910Y-15302734D01*
X16153617Y-15296709D01*
X16132580Y-15285990D01*
X16110125Y-15278693D01*
X16110125Y-15278693D01*
X16086805Y-15275000D01*
X16063195Y-15275000D01*
X16039875Y-15278693D01*
X16017420Y-15285990D01*
X15996383Y-15296708D01*
X15988089Y-15302734D01*
X16057977Y-15372621D01*
X16053771Y-15373748D01*
X16041229Y-15380989D01*
X16030989Y-15391229D01*
X16023748Y-15403771D01*
X16022621Y-15407977D01*
X15952734Y-15338089D01*
X15946708Y-15346383D01*
X15935990Y-15367420D01*
X15928693Y-15389875D01*
X15925000Y-15413195D01*
X15925000Y-15436805D01*
X15928693Y-15460125D01*
X15935990Y-15482580D01*
X15946709Y-15503617D01*
X15952734Y-15511910D01*
X15952734Y-15511910D01*
X16022621Y-15442023D01*
X16023748Y-15446229D01*
X16030989Y-15458771D01*
X16041229Y-15469011D01*
X16053771Y-15476252D01*
X16057976Y-15477379D01*
X15988089Y-15547266D01*
X15996383Y-15553291D01*
X16002683Y-15556501D01*
X16007762Y-15561299D01*
X16009442Y-15568081D01*
X16007188Y-15574695D01*
X16001717Y-15579040D01*
X15997053Y-15579950D01*
X15803057Y-15579950D01*
X15796353Y-15577981D01*
X15791777Y-15572701D01*
X15790783Y-15565785D01*
X15793685Y-15559430D01*
X15797427Y-15556501D01*
X15803643Y-15553334D01*
X15822751Y-15539452D01*
X15839452Y-15522751D01*
X15853334Y-15503643D01*
X15864057Y-15482599D01*
X15871355Y-15460137D01*
X15873500Y-15446592D01*
X15875050Y-15436810D01*
X15875050Y-15413190D01*
X15871355Y-15389863D01*
X15864901Y-15370000D01*
X15864057Y-15367401D01*
X15864057Y-15367400D01*
X15864057Y-15367400D01*
X15857145Y-15353835D01*
X15853334Y-15346357D01*
X15839452Y-15327249D01*
X15822751Y-15310548D01*
X15803643Y-15296666D01*
X15782600Y-15285943D01*
X15760137Y-15278645D01*
X15736810Y-15274950D01*
X15736809Y-15274950D01*
X15713191Y-15274950D01*
X15713190Y-15274950D01*
X15689863Y-15278645D01*
X15667400Y-15285943D01*
X15646357Y-15296666D01*
X15638005Y-15302734D01*
X15627249Y-15310548D01*
X15627249Y-15310548D01*
X15627249Y-15310548D01*
X15610548Y-15327249D01*
X15610548Y-15327249D01*
X15610548Y-15327249D01*
X15605208Y-15334600D01*
X15596666Y-15346357D01*
X15585943Y-15367400D01*
X15578645Y-15389863D01*
X15574950Y-15413190D01*
X15574950Y-15436810D01*
X15578645Y-15460137D01*
X15585943Y-15482600D01*
X15592637Y-15495737D01*
X15596666Y-15503643D01*
X15610548Y-15522751D01*
X15627249Y-15539452D01*
X15646357Y-15553334D01*
X15652573Y-15556501D01*
X15657652Y-15561299D01*
X15659332Y-15568081D01*
X15657078Y-15574695D01*
X15651607Y-15579040D01*
X15646943Y-15579950D01*
X15352947Y-15579950D01*
X15346243Y-15577981D01*
X15341667Y-15572701D01*
X15340673Y-15565785D01*
X15343575Y-15559430D01*
X15347317Y-15556501D01*
X15353616Y-15553292D01*
X15353617Y-15553291D01*
X15361910Y-15547266D01*
X15361910Y-15547266D01*
X15292023Y-15477379D01*
X15296229Y-15476252D01*
X15308771Y-15469011D01*
X15319011Y-15458771D01*
X15326252Y-15446229D01*
X15327379Y-15442023D01*
X15397266Y-15511910D01*
X15397266Y-15511910D01*
X15403291Y-15503617D01*
X15403292Y-15503616D01*
X15414010Y-15482580D01*
X15421306Y-15460125D01*
X15425000Y-15436805D01*
X15425000Y-15413195D01*
X15421306Y-15389875D01*
X15414010Y-15367420D01*
X15403291Y-15346383D01*
X15397266Y-15338089D01*
X15397266Y-15338089D01*
X15327379Y-15407976D01*
X15326252Y-15403771D01*
X15319011Y-15391229D01*
X15308771Y-15380989D01*
X15296229Y-15373748D01*
X15292023Y-15372621D01*
X15361910Y-15302734D01*
X15361910Y-15302734D01*
X15353617Y-15296709D01*
X15332580Y-15285990D01*
X15310125Y-15278693D01*
X15310125Y-15278693D01*
X15286805Y-15275000D01*
X15263195Y-15275000D01*
X15239875Y-15278693D01*
X15217420Y-15285990D01*
X15196383Y-15296708D01*
X15188089Y-15302734D01*
X15257977Y-15372621D01*
X15253771Y-15373748D01*
X15241229Y-15380989D01*
X15230989Y-15391229D01*
X15223748Y-15403771D01*
X15222621Y-15407977D01*
X15152734Y-15338089D01*
X15146708Y-15346383D01*
X15135990Y-15367420D01*
X15128693Y-15389875D01*
X15125000Y-15413195D01*
X15125000Y-15436805D01*
X15128693Y-15460125D01*
X15135990Y-15482580D01*
X15146709Y-15503617D01*
X15152734Y-15511910D01*
X15152734Y-15511910D01*
X15222621Y-15442023D01*
X15223748Y-15446229D01*
X15230989Y-15458771D01*
X15241229Y-15469011D01*
X15253771Y-15476252D01*
X15257976Y-15477379D01*
X15188089Y-15547266D01*
X15196383Y-15553291D01*
X15202683Y-15556501D01*
X15207762Y-15561299D01*
X15209442Y-15568081D01*
X15207188Y-15574695D01*
X15201717Y-15579040D01*
X15197053Y-15579950D01*
X15003057Y-15579950D01*
X14996353Y-15577981D01*
X14991777Y-15572701D01*
X14990783Y-15565785D01*
X14993685Y-15559430D01*
X14997427Y-15556501D01*
X15003643Y-15553334D01*
X15022751Y-15539452D01*
X15039452Y-15522751D01*
X15053334Y-15503643D01*
X15064057Y-15482599D01*
X15071355Y-15460137D01*
X15073500Y-15446592D01*
X15075050Y-15436810D01*
X15075050Y-15413190D01*
X15071355Y-15389863D01*
X15064901Y-15370000D01*
X15064057Y-15367401D01*
X15064057Y-15367400D01*
X15064057Y-15367400D01*
X15057145Y-15353835D01*
X15053334Y-15346357D01*
X15053333Y-15346355D01*
X15053080Y-15345942D01*
X15053098Y-15345931D01*
X15052276Y-15344550D01*
X15044003Y-15327249D01*
X14997903Y-15230835D01*
X14991263Y-15216949D01*
X14990050Y-15211600D01*
X14990050Y-14988400D01*
X14991263Y-14983051D01*
X14997503Y-14970000D01*
X15052275Y-14855450D01*
X15053097Y-14854070D01*
X15053079Y-14854059D01*
X15053334Y-14853644D01*
X15053334Y-14853644D01*
X15053334Y-14853643D01*
X15064057Y-14832599D01*
X15071355Y-14810137D01*
X15072814Y-14800926D01*
X15075050Y-14786810D01*
X15075050Y-14763195D01*
X15125000Y-14763195D01*
X15125000Y-14786805D01*
X15128693Y-14810125D01*
X15135990Y-14832580D01*
X15146709Y-14853617D01*
X15152734Y-14861910D01*
X15152734Y-14861910D01*
X15222621Y-14792023D01*
X15223748Y-14796229D01*
X15230989Y-14808771D01*
X15241229Y-14819011D01*
X15253771Y-14826252D01*
X15257976Y-14827379D01*
X15188089Y-14897266D01*
X15196383Y-14903291D01*
X15217420Y-14914010D01*
X15239875Y-14921306D01*
X15239875Y-14921306D01*
X15263195Y-14925000D01*
X15286805Y-14925000D01*
X15310125Y-14921306D01*
X15332580Y-14914010D01*
X15353616Y-14903292D01*
X15353617Y-14903291D01*
X15361910Y-14897266D01*
X15361910Y-14897266D01*
X15292023Y-14827379D01*
X15296229Y-14826252D01*
X15308771Y-14819011D01*
X15319011Y-14808771D01*
X15326252Y-14796229D01*
X15327379Y-14792023D01*
X15397266Y-14861910D01*
X15397266Y-14861910D01*
X15403291Y-14853617D01*
X15403292Y-14853616D01*
X15414010Y-14832580D01*
X15421306Y-14810125D01*
X15425000Y-14786805D01*
X15425000Y-14763195D01*
X15424999Y-14763190D01*
X15574950Y-14763190D01*
X15574950Y-14786810D01*
X15578645Y-14810137D01*
X15585943Y-14832600D01*
X15592081Y-14844645D01*
X15596666Y-14853643D01*
X15610548Y-14872751D01*
X15627249Y-14889452D01*
X15646357Y-14903334D01*
X15652084Y-14906252D01*
X15667400Y-14914057D01*
X15667400Y-14914057D01*
X15667401Y-14914057D01*
X15689863Y-14921355D01*
X15690231Y-14921414D01*
X15692022Y-14921835D01*
X15829837Y-14965326D01*
X15834874Y-14968383D01*
X15855742Y-14989252D01*
X15869208Y-14997026D01*
X15884226Y-15001050D01*
X15884226Y-15001050D01*
X18184774Y-15001050D01*
X18184774Y-15001050D01*
X18196619Y-14997876D01*
X18199793Y-14997026D01*
X18213258Y-14989252D01*
X18325252Y-14877257D01*
X18333026Y-14863792D01*
X18334954Y-14856598D01*
X18337050Y-14848774D01*
X18337050Y-14675226D01*
X18333026Y-14660208D01*
X18333026Y-14660207D01*
X18333026Y-14660207D01*
X18325252Y-14646743D01*
X18325252Y-14646742D01*
X18023304Y-14344795D01*
X18020911Y-14341429D01*
X18018093Y-14335608D01*
X18004869Y-14308290D01*
X18004808Y-14308175D01*
X18004508Y-14307450D01*
X18004127Y-14306880D01*
X18003293Y-14305295D01*
X18003216Y-14305158D01*
X18003215Y-14305158D01*
X18003215Y-14305157D01*
X17997924Y-14297507D01*
X17997463Y-14296906D01*
X17996296Y-14295159D01*
X17996295Y-14295159D01*
X17996295Y-14295158D01*
X17985842Y-14284705D01*
X17985842Y-14284705D01*
X17985841Y-14284705D01*
X17973550Y-14276492D01*
X17973549Y-14276491D01*
X17959892Y-14270834D01*
X17959891Y-14270834D01*
X17945392Y-14267950D01*
X17945392Y-14267950D01*
X17930608Y-14267950D01*
X17930608Y-14267950D01*
X17916109Y-14270834D01*
X17916108Y-14270834D01*
X17902451Y-14276491D01*
X17902450Y-14276492D01*
X17890158Y-14284705D01*
X17890158Y-14284705D01*
X17879705Y-14295158D01*
X17879705Y-14295158D01*
X17871492Y-14307450D01*
X17871491Y-14307451D01*
X17865834Y-14321108D01*
X17865834Y-14321109D01*
X17862950Y-14335608D01*
X17862950Y-14335608D01*
X17862950Y-14350392D01*
X17862950Y-14350392D01*
X17862950Y-14350392D01*
X17865834Y-14364891D01*
X17865834Y-14364892D01*
X17871491Y-14378549D01*
X17871492Y-14378550D01*
X17879705Y-14390841D01*
X17879705Y-14390842D01*
X17890158Y-14401295D01*
X17890159Y-14401295D01*
X17902449Y-14409508D01*
X17902450Y-14409508D01*
X17902451Y-14409508D01*
X17902773Y-14409642D01*
X17903429Y-14409936D01*
X17936429Y-14425911D01*
X17939795Y-14428304D01*
X18116053Y-14604563D01*
X18119402Y-14610695D01*
X18118903Y-14617664D01*
X18114716Y-14623257D01*
X18109225Y-14625578D01*
X18089863Y-14628645D01*
X18067400Y-14635943D01*
X18046357Y-14646666D01*
X18038005Y-14652734D01*
X18027249Y-14660548D01*
X18027249Y-14660548D01*
X18027249Y-14660548D01*
X18010549Y-14677249D01*
X18010549Y-14677249D01*
X18010548Y-14677249D01*
X18005175Y-14684645D01*
X17996666Y-14696357D01*
X17985943Y-14717400D01*
X17978645Y-14739863D01*
X17974950Y-14763190D01*
X17974950Y-14786810D01*
X17978645Y-14810137D01*
X17985943Y-14832600D01*
X17992081Y-14844645D01*
X17996666Y-14853643D01*
X17997978Y-14855449D01*
X18003654Y-14863261D01*
X18006002Y-14869842D01*
X18004419Y-14876647D01*
X17999409Y-14881517D01*
X17993622Y-14882950D01*
X17806316Y-14882950D01*
X17799612Y-14880981D01*
X17795037Y-14875701D01*
X17794043Y-14868785D01*
X17796285Y-14863261D01*
X17803291Y-14853617D01*
X17814010Y-14832580D01*
X17821307Y-14810125D01*
X17825000Y-14786805D01*
X17825000Y-14763195D01*
X17821307Y-14739875D01*
X17814010Y-14717420D01*
X17803291Y-14696383D01*
X17797266Y-14688089D01*
X17797266Y-14688089D01*
X17727379Y-14757976D01*
X17726252Y-14753771D01*
X17719011Y-14741229D01*
X17708771Y-14730989D01*
X17696229Y-14723748D01*
X17692023Y-14722621D01*
X17761911Y-14652734D01*
X17761910Y-14652734D01*
X17753617Y-14646709D01*
X17732580Y-14635990D01*
X17710125Y-14628693D01*
X17710125Y-14628693D01*
X17686805Y-14625000D01*
X17663195Y-14625000D01*
X17639875Y-14628693D01*
X17617420Y-14635990D01*
X17596383Y-14646708D01*
X17588089Y-14652734D01*
X17657977Y-14722621D01*
X17653771Y-14723748D01*
X17641229Y-14730989D01*
X17630989Y-14741229D01*
X17623748Y-14753771D01*
X17622621Y-14757977D01*
X17552734Y-14688089D01*
X17546708Y-14696383D01*
X17535990Y-14717420D01*
X17528693Y-14739875D01*
X17525000Y-14763195D01*
X17525000Y-14786805D01*
X17528693Y-14810125D01*
X17535990Y-14832580D01*
X17546709Y-14853617D01*
X17553716Y-14863261D01*
X17556064Y-14869842D01*
X17554481Y-14876647D01*
X17549470Y-14881517D01*
X17543684Y-14882950D01*
X17456378Y-14882950D01*
X17449674Y-14880981D01*
X17445099Y-14875701D01*
X17444104Y-14868785D01*
X17446346Y-14863261D01*
X17447997Y-14860990D01*
X17453334Y-14853643D01*
X17464057Y-14832599D01*
X17471355Y-14810137D01*
X17472814Y-14800926D01*
X17475050Y-14786810D01*
X17475050Y-14763190D01*
X17471355Y-14739863D01*
X17466119Y-14723748D01*
X17464057Y-14717401D01*
X17464057Y-14717400D01*
X17464057Y-14717400D01*
X17458166Y-14705839D01*
X17453334Y-14696357D01*
X17439452Y-14677249D01*
X17422751Y-14660548D01*
X17403643Y-14646666D01*
X17382600Y-14635943D01*
X17360137Y-14628645D01*
X17336810Y-14624950D01*
X17336809Y-14624950D01*
X17313191Y-14624950D01*
X17313190Y-14624950D01*
X17289863Y-14628645D01*
X17267400Y-14635943D01*
X17246357Y-14646666D01*
X17238005Y-14652734D01*
X17227249Y-14660548D01*
X17227249Y-14660548D01*
X17227249Y-14660548D01*
X17210549Y-14677249D01*
X17210549Y-14677249D01*
X17210548Y-14677249D01*
X17205175Y-14684645D01*
X17196666Y-14696357D01*
X17185943Y-14717400D01*
X17178645Y-14739863D01*
X17174950Y-14763190D01*
X17174950Y-14786810D01*
X17178645Y-14810137D01*
X17185943Y-14832600D01*
X17192081Y-14844645D01*
X17196666Y-14853643D01*
X17197978Y-14855449D01*
X17203654Y-14863261D01*
X17206002Y-14869842D01*
X17204419Y-14876647D01*
X17199409Y-14881517D01*
X17193622Y-14882950D01*
X17006316Y-14882950D01*
X16999612Y-14880981D01*
X16995037Y-14875701D01*
X16994043Y-14868785D01*
X16996285Y-14863261D01*
X17003291Y-14853617D01*
X17014010Y-14832580D01*
X17021307Y-14810125D01*
X17025000Y-14786805D01*
X17025000Y-14763195D01*
X17021307Y-14739875D01*
X17014010Y-14717420D01*
X17003291Y-14696383D01*
X16997266Y-14688089D01*
X16997266Y-14688089D01*
X16927379Y-14757976D01*
X16926252Y-14753771D01*
X16919011Y-14741229D01*
X16908771Y-14730989D01*
X16896229Y-14723748D01*
X16892023Y-14722621D01*
X16961911Y-14652734D01*
X16961910Y-14652734D01*
X16953617Y-14646709D01*
X16932580Y-14635990D01*
X16910125Y-14628693D01*
X16910125Y-14628693D01*
X16886805Y-14625000D01*
X16863195Y-14625000D01*
X16839875Y-14628693D01*
X16817420Y-14635990D01*
X16796383Y-14646708D01*
X16788089Y-14652734D01*
X16857977Y-14722621D01*
X16853771Y-14723748D01*
X16841229Y-14730989D01*
X16830989Y-14741229D01*
X16823748Y-14753771D01*
X16822621Y-14757977D01*
X16752734Y-14688089D01*
X16746708Y-14696383D01*
X16735990Y-14717420D01*
X16728693Y-14739875D01*
X16725000Y-14763195D01*
X16725000Y-14786805D01*
X16728693Y-14810125D01*
X16735990Y-14832580D01*
X16746709Y-14853617D01*
X16753715Y-14863261D01*
X16756063Y-14869842D01*
X16754481Y-14876647D01*
X16749470Y-14881517D01*
X16743684Y-14882950D01*
X16656378Y-14882950D01*
X16649674Y-14880981D01*
X16645099Y-14875701D01*
X16644104Y-14868785D01*
X16646346Y-14863261D01*
X16647996Y-14860990D01*
X16653334Y-14853643D01*
X16664057Y-14832599D01*
X16671355Y-14810137D01*
X16672814Y-14800926D01*
X16675050Y-14786810D01*
X16675050Y-14763190D01*
X16671355Y-14739863D01*
X16666119Y-14723748D01*
X16664057Y-14717401D01*
X16664057Y-14717400D01*
X16664057Y-14717400D01*
X16658166Y-14705839D01*
X16653334Y-14696357D01*
X16639452Y-14677249D01*
X16622751Y-14660548D01*
X16603643Y-14646666D01*
X16582600Y-14635943D01*
X16560137Y-14628645D01*
X16536810Y-14624950D01*
X16536809Y-14624950D01*
X16513191Y-14624950D01*
X16513190Y-14624950D01*
X16489863Y-14628645D01*
X16467400Y-14635943D01*
X16446357Y-14646666D01*
X16438005Y-14652734D01*
X16427249Y-14660548D01*
X16427249Y-14660548D01*
X16427249Y-14660548D01*
X16410548Y-14677249D01*
X16410548Y-14677249D01*
X16410548Y-14677249D01*
X16405175Y-14684645D01*
X16396666Y-14696357D01*
X16385943Y-14717400D01*
X16378645Y-14739863D01*
X16374950Y-14763190D01*
X16374950Y-14786810D01*
X16378645Y-14810137D01*
X16385943Y-14832600D01*
X16392081Y-14844645D01*
X16396666Y-14853643D01*
X16397977Y-14855449D01*
X16403654Y-14863261D01*
X16406002Y-14869842D01*
X16404419Y-14876647D01*
X16399409Y-14881517D01*
X16393622Y-14882950D01*
X16206316Y-14882950D01*
X16199612Y-14880981D01*
X16195037Y-14875701D01*
X16194042Y-14868785D01*
X16196284Y-14863261D01*
X16203291Y-14853617D01*
X16214010Y-14832580D01*
X16221306Y-14810125D01*
X16225000Y-14786805D01*
X16225000Y-14763195D01*
X16221306Y-14739875D01*
X16214010Y-14717420D01*
X16203291Y-14696383D01*
X16197266Y-14688089D01*
X16197266Y-14688089D01*
X16127379Y-14757976D01*
X16126252Y-14753771D01*
X16119011Y-14741229D01*
X16108771Y-14730989D01*
X16096229Y-14723748D01*
X16092023Y-14722621D01*
X16161910Y-14652734D01*
X16161910Y-14652734D01*
X16153617Y-14646709D01*
X16132580Y-14635990D01*
X16110125Y-14628693D01*
X16110125Y-14628693D01*
X16086805Y-14625000D01*
X16063195Y-14625000D01*
X16039875Y-14628693D01*
X16017420Y-14635990D01*
X15996383Y-14646708D01*
X15988089Y-14652734D01*
X16057977Y-14722621D01*
X16053771Y-14723748D01*
X16041229Y-14730989D01*
X16030989Y-14741229D01*
X16023748Y-14753771D01*
X16022621Y-14757977D01*
X15952734Y-14688089D01*
X15946708Y-14696383D01*
X15935990Y-14717420D01*
X15928693Y-14739875D01*
X15925000Y-14763195D01*
X15925000Y-14786805D01*
X15928693Y-14810125D01*
X15935990Y-14832580D01*
X15946709Y-14853617D01*
X15953715Y-14863261D01*
X15956063Y-14869842D01*
X15954481Y-14876647D01*
X15949470Y-14881517D01*
X15943684Y-14882950D01*
X15925398Y-14882950D01*
X15918694Y-14880981D01*
X15914118Y-14875701D01*
X15913573Y-14874282D01*
X15911711Y-14868383D01*
X15871836Y-14742023D01*
X15871414Y-14740231D01*
X15871355Y-14739864D01*
X15871355Y-14739863D01*
X15866119Y-14723748D01*
X15864057Y-14717401D01*
X15864057Y-14717400D01*
X15864057Y-14717400D01*
X15858166Y-14705839D01*
X15853334Y-14696357D01*
X15839452Y-14677249D01*
X15822751Y-14660548D01*
X15803643Y-14646666D01*
X15782600Y-14635943D01*
X15760137Y-14628645D01*
X15736810Y-14624950D01*
X15736809Y-14624950D01*
X15713191Y-14624950D01*
X15713190Y-14624950D01*
X15689863Y-14628645D01*
X15667400Y-14635943D01*
X15646357Y-14646666D01*
X15638005Y-14652734D01*
X15627249Y-14660548D01*
X15627249Y-14660548D01*
X15627249Y-14660548D01*
X15610548Y-14677249D01*
X15610548Y-14677249D01*
X15610548Y-14677249D01*
X15605175Y-14684645D01*
X15596666Y-14696357D01*
X15585943Y-14717400D01*
X15578645Y-14739863D01*
X15574950Y-14763190D01*
X15424999Y-14763190D01*
X15421306Y-14739875D01*
X15414010Y-14717420D01*
X15403291Y-14696383D01*
X15397266Y-14688089D01*
X15397266Y-14688089D01*
X15327379Y-14757976D01*
X15326252Y-14753771D01*
X15319011Y-14741229D01*
X15308771Y-14730989D01*
X15296229Y-14723748D01*
X15292023Y-14722621D01*
X15361910Y-14652734D01*
X15361910Y-14652734D01*
X15353617Y-14646709D01*
X15332580Y-14635990D01*
X15310125Y-14628693D01*
X15310125Y-14628693D01*
X15286805Y-14625000D01*
X15263195Y-14625000D01*
X15239875Y-14628693D01*
X15217420Y-14635990D01*
X15196383Y-14646708D01*
X15188089Y-14652734D01*
X15257977Y-14722621D01*
X15253771Y-14723748D01*
X15241229Y-14730989D01*
X15230989Y-14741229D01*
X15223748Y-14753771D01*
X15222621Y-14757977D01*
X15152734Y-14688089D01*
X15146708Y-14696383D01*
X15135990Y-14717420D01*
X15128693Y-14739875D01*
X15125000Y-14763195D01*
X15075050Y-14763195D01*
X15075050Y-14763190D01*
X15071355Y-14739863D01*
X15066119Y-14723748D01*
X15064057Y-14717401D01*
X15064057Y-14717400D01*
X15064057Y-14717400D01*
X15058166Y-14705839D01*
X15053334Y-14696357D01*
X15053333Y-14696355D01*
X15053080Y-14695942D01*
X15053098Y-14695931D01*
X15052276Y-14694550D01*
X15037099Y-14662809D01*
X15036018Y-14660548D01*
X15005797Y-14597345D01*
X14991263Y-14566949D01*
X14990050Y-14561600D01*
X14990050Y-14259450D01*
X14990849Y-14255071D01*
X14993351Y-14248443D01*
X15003327Y-14222015D01*
X15003492Y-14221517D01*
X15004166Y-14219891D01*
X15004364Y-14218892D01*
X15004606Y-14218164D01*
X15004658Y-14217984D01*
X15006416Y-14208690D01*
X15006416Y-14208689D01*
X15006552Y-14207973D01*
X15006583Y-14207740D01*
X15007050Y-14205392D01*
X15007050Y-14190608D01*
X15007050Y-14190608D01*
X15004166Y-14176109D01*
X15004166Y-14176109D01*
X15004166Y-14176109D01*
X15000604Y-14167509D01*
X14998509Y-14162451D01*
X14998508Y-14162450D01*
X14990295Y-14150158D01*
X14990295Y-14150158D01*
X14979842Y-14139705D01*
X14979841Y-14139705D01*
X14967550Y-14131492D01*
X14967549Y-14131491D01*
X14953892Y-14125834D01*
X14953891Y-14125834D01*
X14939392Y-14122950D01*
X14939392Y-14122950D01*
X14924608Y-14122950D01*
X14924608Y-14122950D01*
X14910109Y-14125834D01*
X14910108Y-14125834D01*
X14896451Y-14131491D01*
X14896450Y-14131492D01*
X14884158Y-14139705D01*
X14884158Y-14139705D01*
X14873705Y-14150158D01*
X14873705Y-14150158D01*
X14865492Y-14162450D01*
X14865491Y-14162451D01*
X14859834Y-14176108D01*
X14859834Y-14176109D01*
X14856950Y-14190608D01*
X14856950Y-14205392D01*
X14857010Y-14205998D01*
X14856989Y-14206000D01*
X14857058Y-14206546D01*
X14859470Y-14248444D01*
X14859892Y-14252792D01*
X14859950Y-14253989D01*
X14859950Y-14561600D01*
X14858737Y-14566949D01*
X14797723Y-14694551D01*
X14796902Y-14695930D01*
X14796920Y-14695941D01*
X14796666Y-14696356D01*
X14785943Y-14717400D01*
X14778645Y-14739863D01*
X14774950Y-14763190D01*
X14774950Y-14786810D01*
X14778645Y-14810137D01*
X14785943Y-14832600D01*
X14796666Y-14853644D01*
X14796920Y-14854058D01*
X14796902Y-14854069D01*
X14797723Y-14855449D01*
X14829265Y-14921413D01*
X14858737Y-14983051D01*
X14858737Y-14983051D01*
X14859950Y-14988400D01*
X14859950Y-15211600D01*
X14858737Y-15216949D01*
X14797723Y-15344551D01*
X14796902Y-15345930D01*
X14796920Y-15345941D01*
X14796666Y-15346356D01*
X14785943Y-15367400D01*
X14778645Y-15389863D01*
X14774950Y-15413190D01*
X14774950Y-15436810D01*
X14778645Y-15460137D01*
X14785943Y-15482600D01*
X14792637Y-15495737D01*
X14796666Y-15503643D01*
X14810548Y-15522751D01*
X14827249Y-15539452D01*
X14846357Y-15553334D01*
X14852573Y-15556501D01*
X14857652Y-15561299D01*
X14859332Y-15568081D01*
X14857078Y-15574695D01*
X14851607Y-15579040D01*
X14846943Y-15579950D01*
X14552947Y-15579950D01*
X14546243Y-15577981D01*
X14541667Y-15572701D01*
X14540673Y-15565785D01*
X14543575Y-15559430D01*
X14547317Y-15556501D01*
X14553616Y-15553292D01*
X14553617Y-15553291D01*
X14561910Y-15547266D01*
X14561910Y-15547266D01*
X14492023Y-15477379D01*
X14496229Y-15476252D01*
X14508771Y-15469011D01*
X14519011Y-15458771D01*
X14526252Y-15446229D01*
X14527379Y-15442023D01*
X14597266Y-15511910D01*
X14597266Y-15511910D01*
X14603291Y-15503617D01*
X14603292Y-15503616D01*
X14614010Y-15482580D01*
X14621306Y-15460125D01*
X14625000Y-15436805D01*
X14625000Y-15413195D01*
X14621306Y-15389875D01*
X14614010Y-15367420D01*
X14603291Y-15346383D01*
X14597266Y-15338089D01*
X14597266Y-15338089D01*
X14527379Y-15407976D01*
X14526252Y-15403771D01*
X14519011Y-15391229D01*
X14508771Y-15380989D01*
X14496229Y-15373748D01*
X14492023Y-15372621D01*
X14561910Y-15302734D01*
X14561910Y-15302734D01*
X14553617Y-15296709D01*
X14532580Y-15285990D01*
X14510125Y-15278693D01*
X14510125Y-15278693D01*
X14486805Y-15275000D01*
X14463195Y-15275000D01*
X14439875Y-15278693D01*
X14417420Y-15285990D01*
X14396383Y-15296708D01*
X14388089Y-15302734D01*
X14457977Y-15372621D01*
X14453771Y-15373748D01*
X14441229Y-15380989D01*
X14430989Y-15391229D01*
X14423748Y-15403771D01*
X14422621Y-15407977D01*
X14352734Y-15338089D01*
X14346708Y-15346383D01*
X14335990Y-15367420D01*
X14328693Y-15389875D01*
X14325000Y-15413195D01*
X14325000Y-15436805D01*
X14328693Y-15460125D01*
X14335990Y-15482580D01*
X14346709Y-15503617D01*
X14352734Y-15511910D01*
X14352734Y-15511910D01*
X14422621Y-15442023D01*
X14423748Y-15446229D01*
X14430989Y-15458771D01*
X14441229Y-15469011D01*
X14453771Y-15476252D01*
X14457976Y-15477379D01*
X14388089Y-15547266D01*
X14396383Y-15553291D01*
X14402683Y-15556501D01*
X14407762Y-15561299D01*
X14409442Y-15568081D01*
X14407188Y-15574695D01*
X14401717Y-15579040D01*
X14397053Y-15579950D01*
X12389900Y-15579950D01*
X12383196Y-15577981D01*
X12378621Y-15572701D01*
X12377500Y-15567550D01*
X12377500Y-15310215D01*
X12403000Y-15310215D01*
X12403000Y-15375000D01*
X12494699Y-15375000D01*
X12491407Y-15380701D01*
X12488000Y-15393417D01*
X12488000Y-15406583D01*
X12491407Y-15419299D01*
X12494699Y-15425000D01*
X12403000Y-15425000D01*
X12403000Y-15489784D01*
X12403640Y-15495737D01*
X12403640Y-15495738D01*
X12408664Y-15509209D01*
X12408665Y-15509209D01*
X12417281Y-15520719D01*
X12417281Y-15520719D01*
X12428791Y-15529335D01*
X12428791Y-15529335D01*
X12442262Y-15534360D01*
X12442263Y-15534360D01*
X12448215Y-15535000D01*
X12448217Y-15535000D01*
X12513000Y-15535000D01*
X12513000Y-15443301D01*
X12518701Y-15446592D01*
X12531417Y-15450000D01*
X12544583Y-15450000D01*
X12557299Y-15446592D01*
X12563000Y-15443301D01*
X12563000Y-15535000D01*
X12627783Y-15535000D01*
X12627784Y-15535000D01*
X12633737Y-15534360D01*
X12633738Y-15534360D01*
X12647209Y-15529335D01*
X12647209Y-15529335D01*
X12658719Y-15520719D01*
X12658719Y-15520719D01*
X12667335Y-15509209D01*
X12667335Y-15509209D01*
X12672242Y-15496053D01*
X12676429Y-15490459D01*
X12682976Y-15488018D01*
X12689803Y-15489503D01*
X12692628Y-15491618D01*
X12704021Y-15503011D01*
X12721218Y-15515505D01*
X12721218Y-15515505D01*
X12721218Y-15515505D01*
X12740159Y-15525156D01*
X12760376Y-15531725D01*
X12781371Y-15535050D01*
X12781371Y-15535050D01*
X12802629Y-15535050D01*
X12802629Y-15535050D01*
X12823624Y-15531725D01*
X12843841Y-15525156D01*
X12862782Y-15515505D01*
X12871447Y-15509209D01*
X12879979Y-15503011D01*
X12879979Y-15503011D01*
X12879979Y-15503010D01*
X12895010Y-15487979D01*
X12895011Y-15487979D01*
X12895011Y-15487979D01*
X12907505Y-15470782D01*
X12907505Y-15470782D01*
X12907505Y-15470782D01*
X12907951Y-15469905D01*
X12912749Y-15464826D01*
X12919531Y-15463146D01*
X12926144Y-15465400D01*
X12930049Y-15469906D01*
X12930495Y-15470782D01*
X12942989Y-15487979D01*
X12958021Y-15503011D01*
X12975218Y-15515505D01*
X12975218Y-15515505D01*
X12975218Y-15515505D01*
X12994159Y-15525156D01*
X13014376Y-15531725D01*
X13035371Y-15535050D01*
X13035371Y-15535050D01*
X13056629Y-15535050D01*
X13056629Y-15535050D01*
X13077624Y-15531725D01*
X13097841Y-15525156D01*
X13116782Y-15515505D01*
X13125447Y-15509209D01*
X13133979Y-15503011D01*
X13133979Y-15503011D01*
X13133979Y-15503010D01*
X13149010Y-15487979D01*
X13149011Y-15487979D01*
X13149011Y-15487979D01*
X13161505Y-15470782D01*
X13161505Y-15470782D01*
X13161505Y-15470782D01*
X13161951Y-15469905D01*
X13166749Y-15464826D01*
X13173531Y-15463146D01*
X13180144Y-15465400D01*
X13184049Y-15469906D01*
X13184495Y-15470782D01*
X13196989Y-15487979D01*
X13212021Y-15503011D01*
X13229218Y-15515505D01*
X13229218Y-15515505D01*
X13229218Y-15515505D01*
X13248159Y-15525156D01*
X13268376Y-15531725D01*
X13289371Y-15535050D01*
X13289371Y-15535050D01*
X13310629Y-15535050D01*
X13310629Y-15535050D01*
X13331624Y-15531725D01*
X13351841Y-15525156D01*
X13370782Y-15515505D01*
X13379447Y-15509209D01*
X13387979Y-15503011D01*
X13387979Y-15503011D01*
X13387979Y-15503010D01*
X13403010Y-15487979D01*
X13403011Y-15487979D01*
X13403011Y-15487979D01*
X13415505Y-15470782D01*
X13415505Y-15470782D01*
X13415505Y-15470782D01*
X13415951Y-15469905D01*
X13420749Y-15464826D01*
X13427531Y-15463146D01*
X13434144Y-15465400D01*
X13438049Y-15469906D01*
X13438495Y-15470782D01*
X13450989Y-15487979D01*
X13466021Y-15503011D01*
X13483218Y-15515505D01*
X13483218Y-15515505D01*
X13483218Y-15515505D01*
X13502159Y-15525156D01*
X13522376Y-15531725D01*
X13543371Y-15535050D01*
X13543371Y-15535050D01*
X13564629Y-15535050D01*
X13564629Y-15535050D01*
X13585624Y-15531725D01*
X13605841Y-15525156D01*
X13624782Y-15515505D01*
X13633447Y-15509209D01*
X13641979Y-15503011D01*
X13641979Y-15503011D01*
X13641979Y-15503010D01*
X13657010Y-15487979D01*
X13657011Y-15487979D01*
X13657011Y-15487979D01*
X13669505Y-15470782D01*
X13669505Y-15470782D01*
X13669505Y-15470782D01*
X13669951Y-15469905D01*
X13674749Y-15464826D01*
X13681531Y-15463146D01*
X13688144Y-15465400D01*
X13692049Y-15469906D01*
X13692495Y-15470782D01*
X13704989Y-15487979D01*
X13720021Y-15503011D01*
X13737218Y-15515505D01*
X13737218Y-15515505D01*
X13737218Y-15515505D01*
X13756159Y-15525156D01*
X13776376Y-15531725D01*
X13797371Y-15535050D01*
X13797371Y-15535050D01*
X13818629Y-15535050D01*
X13818629Y-15535050D01*
X13839624Y-15531725D01*
X13859841Y-15525156D01*
X13878782Y-15515505D01*
X13887447Y-15509209D01*
X13895979Y-15503011D01*
X13895979Y-15503011D01*
X13895979Y-15503010D01*
X13911010Y-15487979D01*
X13911011Y-15487979D01*
X13911011Y-15487979D01*
X13923505Y-15470782D01*
X13923505Y-15470782D01*
X13923505Y-15470782D01*
X13923951Y-15469905D01*
X13928749Y-15464826D01*
X13935531Y-15463146D01*
X13942144Y-15465400D01*
X13946049Y-15469906D01*
X13946495Y-15470782D01*
X13958989Y-15487979D01*
X13974021Y-15503011D01*
X13991218Y-15515505D01*
X13991218Y-15515505D01*
X13991218Y-15515505D01*
X14010159Y-15525156D01*
X14030376Y-15531725D01*
X14051371Y-15535050D01*
X14051371Y-15535050D01*
X14072629Y-15535050D01*
X14072629Y-15535050D01*
X14093624Y-15531725D01*
X14113841Y-15525156D01*
X14132782Y-15515505D01*
X14141447Y-15509209D01*
X14149979Y-15503011D01*
X14149979Y-15503011D01*
X14149979Y-15503010D01*
X14165010Y-15487979D01*
X14165011Y-15487979D01*
X14165011Y-15487979D01*
X14177505Y-15470782D01*
X14177505Y-15470782D01*
X14177505Y-15470782D01*
X14187156Y-15451841D01*
X14193725Y-15431624D01*
X14197050Y-15410629D01*
X14197050Y-15389371D01*
X14193725Y-15368376D01*
X14187156Y-15348159D01*
X14177505Y-15329218D01*
X14177505Y-15329218D01*
X14177505Y-15329218D01*
X14166992Y-15314748D01*
X14165011Y-15312021D01*
X14149979Y-15296989D01*
X14132782Y-15284495D01*
X14113842Y-15274844D01*
X14093624Y-15268275D01*
X14093151Y-15268162D01*
X14093159Y-15268130D01*
X14092134Y-15267884D01*
X13978261Y-15230843D01*
X13973328Y-15227819D01*
X13885558Y-15140048D01*
X13885557Y-15140048D01*
X13872093Y-15132274D01*
X13872092Y-15132274D01*
X13868919Y-15131424D01*
X13862996Y-15129837D01*
X13857074Y-15128250D01*
X13857074Y-15128250D01*
X13314659Y-15128250D01*
X13307955Y-15126281D01*
X13305891Y-15124618D01*
X13140320Y-14959048D01*
X13276307Y-14959048D01*
X13276307Y-14959048D01*
X13277368Y-14959757D01*
X13277369Y-14959757D01*
X13293748Y-14966541D01*
X13293749Y-14966541D01*
X13311135Y-14970000D01*
X13311136Y-14970000D01*
X13328864Y-14970000D01*
X13328865Y-14970000D01*
X13346251Y-14966541D01*
X13346252Y-14966541D01*
X13362631Y-14959757D01*
X13363692Y-14959048D01*
X13436307Y-14959048D01*
X13436307Y-14959048D01*
X13437368Y-14959757D01*
X13437369Y-14959757D01*
X13453748Y-14966541D01*
X13453749Y-14966541D01*
X13471135Y-14970000D01*
X13471136Y-14970000D01*
X13488864Y-14970000D01*
X13488865Y-14970000D01*
X13506251Y-14966541D01*
X13506252Y-14966541D01*
X13522631Y-14959757D01*
X13523692Y-14959048D01*
X13523692Y-14959048D01*
X13480000Y-14915355D01*
X13480000Y-14915355D01*
X13436307Y-14959048D01*
X13363692Y-14959048D01*
X13320000Y-14915355D01*
X13320000Y-14915355D01*
X13276307Y-14959048D01*
X13140320Y-14959048D01*
X13140082Y-14958809D01*
X13136733Y-14952677D01*
X13136450Y-14950041D01*
X13136450Y-14871135D01*
X13230000Y-14871135D01*
X13230000Y-14888865D01*
X13233458Y-14906251D01*
X13233459Y-14906252D01*
X13240243Y-14922631D01*
X13240952Y-14923692D01*
X13284645Y-14880000D01*
X13279672Y-14875027D01*
X13295000Y-14875027D01*
X13295000Y-14884973D01*
X13298806Y-14894161D01*
X13305839Y-14901194D01*
X13315027Y-14905000D01*
X13324973Y-14905000D01*
X13334161Y-14901194D01*
X13341194Y-14894161D01*
X13345000Y-14884973D01*
X13345000Y-14880000D01*
X13355355Y-14880000D01*
X13355355Y-14880000D01*
X13399073Y-14923718D01*
X13400926Y-14923718D01*
X13444645Y-14880000D01*
X13439672Y-14875027D01*
X13455000Y-14875027D01*
X13455000Y-14884973D01*
X13458806Y-14894161D01*
X13465839Y-14901194D01*
X13475027Y-14905000D01*
X13484973Y-14905000D01*
X13494161Y-14901194D01*
X13501194Y-14894161D01*
X13505000Y-14884973D01*
X13505000Y-14880000D01*
X13515355Y-14880000D01*
X13515355Y-14880000D01*
X13559048Y-14923692D01*
X13559048Y-14923692D01*
X13559757Y-14922631D01*
X13566541Y-14906252D01*
X13566541Y-14906251D01*
X13570000Y-14888865D01*
X13570000Y-14888864D01*
X13570000Y-14871136D01*
X13570000Y-14871135D01*
X13566541Y-14853749D01*
X13566541Y-14853748D01*
X13559757Y-14837369D01*
X13559757Y-14837368D01*
X13559048Y-14836307D01*
X13515355Y-14880000D01*
X13505000Y-14880000D01*
X13505000Y-14875027D01*
X13501194Y-14865839D01*
X13494161Y-14858806D01*
X13484973Y-14855000D01*
X13475027Y-14855000D01*
X13465839Y-14858806D01*
X13458806Y-14865839D01*
X13455000Y-14875027D01*
X13439672Y-14875027D01*
X13400926Y-14836282D01*
X13399073Y-14836282D01*
X13355355Y-14880000D01*
X13345000Y-14880000D01*
X13345000Y-14875027D01*
X13341194Y-14865839D01*
X13334161Y-14858806D01*
X13324973Y-14855000D01*
X13315027Y-14855000D01*
X13305839Y-14858806D01*
X13298806Y-14865839D01*
X13295000Y-14875027D01*
X13279672Y-14875027D01*
X13240952Y-14836308D01*
X13240952Y-14836308D01*
X13240243Y-14837369D01*
X13233459Y-14853748D01*
X13233458Y-14853749D01*
X13230000Y-14871135D01*
X13136450Y-14871135D01*
X13136450Y-14799073D01*
X13276282Y-14799073D01*
X13276282Y-14800926D01*
X13320000Y-14844645D01*
X13320000Y-14844645D01*
X13363718Y-14800926D01*
X13363718Y-14799073D01*
X13436282Y-14799073D01*
X13436282Y-14800926D01*
X13480000Y-14844645D01*
X13480000Y-14844645D01*
X13523718Y-14800926D01*
X13523718Y-14799073D01*
X13480000Y-14755355D01*
X13480000Y-14755355D01*
X13436282Y-14799073D01*
X13363718Y-14799073D01*
X13320000Y-14755355D01*
X13320000Y-14755355D01*
X13276282Y-14799073D01*
X13136450Y-14799073D01*
X13136450Y-14711135D01*
X13230000Y-14711135D01*
X13230000Y-14728865D01*
X13233458Y-14746251D01*
X13233459Y-14746252D01*
X13240243Y-14762631D01*
X13240952Y-14763692D01*
X13284645Y-14720000D01*
X13279672Y-14715027D01*
X13295000Y-14715027D01*
X13295000Y-14724973D01*
X13298806Y-14734161D01*
X13305839Y-14741194D01*
X13315027Y-14745000D01*
X13324973Y-14745000D01*
X13334161Y-14741194D01*
X13341194Y-14734161D01*
X13345000Y-14724973D01*
X13345000Y-14720000D01*
X13355355Y-14720000D01*
X13355355Y-14720000D01*
X13399073Y-14763718D01*
X13400926Y-14763718D01*
X13444645Y-14720000D01*
X13439672Y-14715027D01*
X13455000Y-14715027D01*
X13455000Y-14724973D01*
X13458806Y-14734161D01*
X13465839Y-14741194D01*
X13475027Y-14745000D01*
X13484973Y-14745000D01*
X13494161Y-14741194D01*
X13501194Y-14734161D01*
X13505000Y-14724973D01*
X13505000Y-14720000D01*
X13515355Y-14720000D01*
X13515355Y-14720000D01*
X13559048Y-14763692D01*
X13559048Y-14763692D01*
X13559757Y-14762631D01*
X13566541Y-14746252D01*
X13566541Y-14746251D01*
X13570000Y-14728865D01*
X13570000Y-14728864D01*
X13570000Y-14711136D01*
X13570000Y-14711135D01*
X13566541Y-14693749D01*
X13566541Y-14693748D01*
X13559757Y-14677369D01*
X13559757Y-14677368D01*
X13559048Y-14676307D01*
X13515355Y-14720000D01*
X13505000Y-14720000D01*
X13505000Y-14715027D01*
X13501194Y-14705839D01*
X13494161Y-14698806D01*
X13484973Y-14695000D01*
X13475027Y-14695000D01*
X13465839Y-14698806D01*
X13458806Y-14705839D01*
X13455000Y-14715027D01*
X13439672Y-14715027D01*
X13400926Y-14676282D01*
X13399073Y-14676282D01*
X13355355Y-14720000D01*
X13345000Y-14720000D01*
X13345000Y-14715027D01*
X13341194Y-14705839D01*
X13334161Y-14698806D01*
X13324973Y-14695000D01*
X13315027Y-14695000D01*
X13305839Y-14698806D01*
X13298806Y-14705839D01*
X13295000Y-14715027D01*
X13279672Y-14715027D01*
X13240952Y-14676308D01*
X13240952Y-14676308D01*
X13240243Y-14677369D01*
X13233459Y-14693748D01*
X13233458Y-14693749D01*
X13230000Y-14711135D01*
X13136450Y-14711135D01*
X13136450Y-14640952D01*
X13276308Y-14640952D01*
X13276308Y-14640952D01*
X13320000Y-14684645D01*
X13320000Y-14684645D01*
X13363692Y-14640952D01*
X13363692Y-14640952D01*
X13436308Y-14640952D01*
X13436308Y-14640952D01*
X13480000Y-14684645D01*
X13480000Y-14684645D01*
X13523692Y-14640952D01*
X13522631Y-14640243D01*
X13506252Y-14633459D01*
X13506251Y-14633458D01*
X13488865Y-14630000D01*
X13471135Y-14630000D01*
X13453749Y-14633458D01*
X13453748Y-14633459D01*
X13437369Y-14640243D01*
X13436308Y-14640952D01*
X13363692Y-14640952D01*
X13362631Y-14640243D01*
X13346252Y-14633459D01*
X13346251Y-14633458D01*
X13328865Y-14630000D01*
X13311135Y-14630000D01*
X13293749Y-14633458D01*
X13293748Y-14633459D01*
X13277369Y-14640243D01*
X13276308Y-14640952D01*
X13136450Y-14640952D01*
X13136450Y-14174671D01*
X13138418Y-14167967D01*
X13143699Y-14163391D01*
X13150615Y-14162397D01*
X13155739Y-14164360D01*
X13160450Y-14167508D01*
X13160451Y-14167509D01*
X13174108Y-14173166D01*
X13174109Y-14173166D01*
X13174109Y-14173166D01*
X13174109Y-14173166D01*
X13188608Y-14176050D01*
X13188608Y-14176050D01*
X13203392Y-14176050D01*
X13213146Y-14174110D01*
X13217891Y-14173166D01*
X13231549Y-14167508D01*
X13243842Y-14159295D01*
X13254295Y-14148842D01*
X13262508Y-14136549D01*
X13268166Y-14122891D01*
X13271050Y-14108392D01*
X13271050Y-14093608D01*
X13271050Y-14093608D01*
X13268166Y-14079109D01*
X13268166Y-14079109D01*
X13268166Y-14079109D01*
X13268166Y-14079108D01*
X13263298Y-14067357D01*
X13263124Y-14066893D01*
X13252908Y-14042442D01*
X13251950Y-14037662D01*
X13251950Y-13837212D01*
X13253918Y-13830508D01*
X13259199Y-13825933D01*
X13261931Y-13825050D01*
X13266492Y-13824143D01*
X13268891Y-13823666D01*
X13282549Y-13818008D01*
X13294842Y-13809795D01*
X13305295Y-13799342D01*
X13313508Y-13787049D01*
X13313582Y-13786872D01*
X13319166Y-13773392D01*
X13319166Y-13773391D01*
X13322050Y-13758892D01*
X13322050Y-13744108D01*
X13322050Y-13744108D01*
X13319641Y-13732000D01*
X13319166Y-13729609D01*
X13319033Y-13729288D01*
X13318777Y-13728614D01*
X13309375Y-13701572D01*
X13309033Y-13694593D01*
X13309375Y-13693428D01*
X13318827Y-13666241D01*
X13318866Y-13666115D01*
X13319166Y-13665391D01*
X13319300Y-13664718D01*
X13319832Y-13663005D01*
X13319873Y-13662853D01*
X13321452Y-13654197D01*
X13321452Y-13654196D01*
X13321539Y-13653717D01*
X13321640Y-13652953D01*
X13322050Y-13650892D01*
X13322050Y-13636108D01*
X13319166Y-13621609D01*
X13319166Y-13621609D01*
X13319166Y-13621609D01*
X13313816Y-13608693D01*
X13313069Y-13601747D01*
X13316197Y-13595499D01*
X13322206Y-13591933D01*
X13329188Y-13592183D01*
X13332161Y-13593638D01*
X13339450Y-13598508D01*
X13339451Y-13598509D01*
X13352816Y-13604044D01*
X13353109Y-13604166D01*
X13353109Y-13604166D01*
X13353109Y-13604166D01*
X13367608Y-13607050D01*
X13367608Y-13607050D01*
X13382392Y-13607050D01*
X13392146Y-13605110D01*
X13396891Y-13604166D01*
X13407455Y-13599790D01*
X13410549Y-13598509D01*
X13410549Y-13598509D01*
X13410549Y-13598508D01*
X13422842Y-13590295D01*
X13433295Y-13579842D01*
X13441508Y-13567549D01*
X13447166Y-13553891D01*
X13449051Y-13544413D01*
X13452289Y-13538222D01*
X13452439Y-13538070D01*
X13510352Y-13480157D01*
X13518126Y-13466692D01*
X13519217Y-13462620D01*
X13522150Y-13451674D01*
X13522150Y-13320817D01*
X13518399Y-13306817D01*
X13518126Y-13305798D01*
X13513883Y-13298450D01*
X13510352Y-13292334D01*
X13510352Y-13292333D01*
X13165767Y-12947748D01*
X13165766Y-12947748D01*
X13152302Y-12939974D01*
X13152301Y-12939974D01*
X13151929Y-12939874D01*
X13149128Y-12939124D01*
X13142225Y-12937274D01*
X13137283Y-12935950D01*
X13137283Y-12935950D01*
X13012705Y-12935950D01*
X13006001Y-12933981D01*
X13003937Y-12932318D01*
X12944065Y-12872446D01*
X12940716Y-12866313D01*
X12940673Y-12866109D01*
X12938786Y-12856619D01*
X12938786Y-12856618D01*
X12933129Y-12842961D01*
X12933128Y-12842960D01*
X12924915Y-12830669D01*
X12924915Y-12830668D01*
X12914462Y-12820215D01*
X12914461Y-12820215D01*
X12902170Y-12812002D01*
X12902169Y-12812001D01*
X12888512Y-12806345D01*
X12888511Y-12806344D01*
X12874012Y-12803460D01*
X12874012Y-12803460D01*
X12859228Y-12803460D01*
X12859228Y-12803460D01*
X12844729Y-12806344D01*
X12844728Y-12806345D01*
X12831071Y-12812001D01*
X12831070Y-12812002D01*
X12818778Y-12820215D01*
X12818778Y-12820215D01*
X12808325Y-12830668D01*
X12808325Y-12830669D01*
X12800112Y-12842960D01*
X12800111Y-12842961D01*
X12794454Y-12856618D01*
X12794454Y-12856619D01*
X12791570Y-12871118D01*
X12791570Y-12871118D01*
X12791570Y-12885902D01*
X12791570Y-12885902D01*
X12791570Y-12885902D01*
X12794454Y-12900401D01*
X12794454Y-12900402D01*
X12795130Y-12902034D01*
X12795877Y-12908981D01*
X12792749Y-12915229D01*
X12790563Y-12917089D01*
X12782158Y-12922705D01*
X12782158Y-12922705D01*
X12771705Y-12933158D01*
X12771705Y-12933158D01*
X12763492Y-12945450D01*
X12763491Y-12945451D01*
X12757834Y-12959108D01*
X12757834Y-12959109D01*
X12754950Y-12973608D01*
X12754950Y-12973608D01*
X12754950Y-12988392D01*
X12754950Y-12988392D01*
X12754950Y-12988392D01*
X12757834Y-13002891D01*
X12757834Y-13002892D01*
X12763491Y-13016549D01*
X12763492Y-13016550D01*
X12771705Y-13028841D01*
X12771705Y-13028842D01*
X12782158Y-13039295D01*
X12782158Y-13039295D01*
X12794450Y-13047508D01*
X12794451Y-13047509D01*
X12808108Y-13053166D01*
X12808109Y-13053166D01*
X12817586Y-13055051D01*
X12819262Y-13055927D01*
X12821110Y-13056329D01*
X12823613Y-13058203D01*
X12823777Y-13058289D01*
X12823935Y-13058445D01*
X12824218Y-13058727D01*
X12827567Y-13064860D01*
X12827850Y-13067495D01*
X12827850Y-15143674D01*
X12828527Y-15146202D01*
X12828950Y-15149412D01*
X12828950Y-15160392D01*
X12828950Y-15160392D01*
X12828950Y-15160392D01*
X12831834Y-15174891D01*
X12831834Y-15174892D01*
X12837491Y-15188549D01*
X12837492Y-15188550D01*
X12845705Y-15200841D01*
X12845705Y-15200842D01*
X12856158Y-15211295D01*
X12856158Y-15211295D01*
X12868450Y-15219508D01*
X12868451Y-15219509D01*
X12880992Y-15224703D01*
X12882109Y-15225166D01*
X12882109Y-15225166D01*
X12882109Y-15225166D01*
X12896608Y-15228050D01*
X12896608Y-15228050D01*
X12911392Y-15228050D01*
X12921146Y-15226110D01*
X12925891Y-15225166D01*
X12939549Y-15219508D01*
X12939550Y-15219508D01*
X12939550Y-15219508D01*
X12943380Y-15216949D01*
X12948742Y-15213366D01*
X12951771Y-15212417D01*
X12954746Y-15211308D01*
X12955082Y-15211381D01*
X12955409Y-15211278D01*
X12958471Y-15212118D01*
X12961574Y-15212793D01*
X12961945Y-15213071D01*
X12962147Y-15213127D01*
X12964399Y-15214908D01*
X12974194Y-15224703D01*
X12977542Y-15230835D01*
X12977044Y-15237805D01*
X12976476Y-15239097D01*
X12931271Y-15327889D01*
X12930722Y-15328787D01*
X12930749Y-15328803D01*
X12930495Y-15329218D01*
X12930048Y-15330095D01*
X12925251Y-15335174D01*
X12918469Y-15336854D01*
X12911855Y-15334600D01*
X12907952Y-15330095D01*
X12907505Y-15329218D01*
X12895011Y-15312021D01*
X12879979Y-15296989D01*
X12862782Y-15284495D01*
X12843841Y-15274844D01*
X12843841Y-15274844D01*
X12843841Y-15274844D01*
X12823624Y-15268275D01*
X12823624Y-15268275D01*
X12823624Y-15268275D01*
X12807496Y-15265721D01*
X12802629Y-15264950D01*
X12781371Y-15264950D01*
X12776504Y-15265721D01*
X12760376Y-15268275D01*
X12740158Y-15274844D01*
X12721218Y-15284495D01*
X12704021Y-15296989D01*
X12692628Y-15308382D01*
X12686496Y-15311730D01*
X12679527Y-15311232D01*
X12673934Y-15307045D01*
X12672242Y-15303947D01*
X12667335Y-15290791D01*
X12667335Y-15290791D01*
X12658719Y-15279281D01*
X12658719Y-15279281D01*
X12647209Y-15270665D01*
X12647209Y-15270664D01*
X12633738Y-15265640D01*
X12633737Y-15265640D01*
X12627784Y-15265000D01*
X12563000Y-15265000D01*
X12563000Y-15356699D01*
X12557299Y-15353407D01*
X12544583Y-15350000D01*
X12531417Y-15350000D01*
X12518701Y-15353407D01*
X12513000Y-15356699D01*
X12513000Y-15265000D01*
X12448215Y-15265000D01*
X12442263Y-15265640D01*
X12442262Y-15265640D01*
X12428791Y-15270664D01*
X12428791Y-15270665D01*
X12417281Y-15279281D01*
X12417281Y-15279281D01*
X12408665Y-15290791D01*
X12408664Y-15290791D01*
X12403640Y-15304262D01*
X12403640Y-15304263D01*
X12403000Y-15310215D01*
X12377500Y-15310215D01*
X12377500Y-11232450D01*
X12379468Y-11225746D01*
X12384749Y-11221171D01*
X12389900Y-11220050D01*
X13542664Y-11220050D01*
X13549368Y-11222018D01*
G37*
%TD.AperFunction*%
%TA.AperFunction,Conductor*%
G36*
X14930399Y-12057263D02*
G01*
X14935251Y-12060261D01*
X15416323Y-12541332D01*
X15419671Y-12547464D01*
X15419173Y-12554433D01*
X15414985Y-12560027D01*
X15408439Y-12562468D01*
X15407554Y-12562500D01*
X15391375Y-12562500D01*
X15370387Y-12565824D01*
X15370387Y-12565824D01*
X15350178Y-12572390D01*
X15331244Y-12582038D01*
X15325828Y-12585973D01*
X15325828Y-12585973D01*
X15389059Y-12649204D01*
X15382701Y-12650907D01*
X15371299Y-12657490D01*
X15361990Y-12666799D01*
X15355407Y-12678201D01*
X15353704Y-12684559D01*
X15290473Y-12621328D01*
X15290473Y-12621328D01*
X15286538Y-12626744D01*
X15286538Y-12626745D01*
X15286076Y-12627650D01*
X15281278Y-12632730D01*
X15274496Y-12634409D01*
X15267883Y-12632154D01*
X15263979Y-12627649D01*
X15263505Y-12626718D01*
X15263505Y-12626718D01*
X15263505Y-12626718D01*
X15251011Y-12609521D01*
X15235979Y-12594489D01*
X15218782Y-12581995D01*
X15199841Y-12572344D01*
X15199841Y-12572344D01*
X15199841Y-12572344D01*
X15179624Y-12565775D01*
X15179624Y-12565775D01*
X15179624Y-12565775D01*
X15163496Y-12563221D01*
X15158629Y-12562450D01*
X15137371Y-12562450D01*
X15132504Y-12563221D01*
X15116376Y-12565775D01*
X15096158Y-12572344D01*
X15077218Y-12581995D01*
X15060021Y-12594489D01*
X15044989Y-12609521D01*
X15032495Y-12626718D01*
X15032048Y-12627595D01*
X15031333Y-12628352D01*
X15030975Y-12629331D01*
X15028975Y-12630849D01*
X15027250Y-12632674D01*
X15026239Y-12632925D01*
X15025409Y-12633554D01*
X15022906Y-12633750D01*
X15020468Y-12634354D01*
X15019482Y-12634017D01*
X15018444Y-12634099D01*
X15016232Y-12632909D01*
X15013855Y-12632099D01*
X15013043Y-12631196D01*
X15012289Y-12630790D01*
X15010571Y-12628441D01*
X15010156Y-12627979D01*
X15010051Y-12627789D01*
X15009505Y-12626718D01*
X15009301Y-12626438D01*
X15008934Y-12625776D01*
X15008916Y-12625695D01*
X15008729Y-12625389D01*
X14954399Y-12518675D01*
X14953050Y-12513049D01*
X14953050Y-12494588D01*
X14953738Y-12490516D01*
X14954783Y-12487510D01*
X14965827Y-12455741D01*
X14965866Y-12455615D01*
X14966166Y-12454891D01*
X14966300Y-12454218D01*
X14966832Y-12452505D01*
X14966873Y-12452353D01*
X14968452Y-12443697D01*
X14968452Y-12443696D01*
X14968539Y-12443217D01*
X14968640Y-12442453D01*
X14969050Y-12440392D01*
X14969050Y-12440392D01*
X14969050Y-12425608D01*
X14969050Y-12425608D01*
X14966166Y-12411109D01*
X14966166Y-12411109D01*
X14966166Y-12411109D01*
X14964598Y-12407323D01*
X14960509Y-12397451D01*
X14960508Y-12397450D01*
X14952295Y-12385158D01*
X14952295Y-12385158D01*
X14941842Y-12374705D01*
X14941841Y-12374705D01*
X14929550Y-12366492D01*
X14929549Y-12366491D01*
X14915892Y-12360834D01*
X14915891Y-12360834D01*
X14901392Y-12357950D01*
X14901392Y-12357950D01*
X14886608Y-12357950D01*
X14886608Y-12357950D01*
X14872109Y-12360834D01*
X14872108Y-12360834D01*
X14858451Y-12366491D01*
X14858450Y-12366492D01*
X14846158Y-12374705D01*
X14846158Y-12374705D01*
X14835705Y-12385158D01*
X14835705Y-12385158D01*
X14827492Y-12397450D01*
X14827491Y-12397451D01*
X14821834Y-12411108D01*
X14821834Y-12411109D01*
X14818950Y-12425608D01*
X14818950Y-12425608D01*
X14818950Y-12440392D01*
X14818950Y-12440392D01*
X14818950Y-12440392D01*
X14821834Y-12454891D01*
X14821834Y-12454891D01*
X14821966Y-12455210D01*
X14822223Y-12455884D01*
X14829324Y-12476310D01*
X14833971Y-12489677D01*
X14834262Y-12490516D01*
X14834329Y-12490909D01*
X14834448Y-12491094D01*
X14834950Y-12494588D01*
X14834950Y-12513049D01*
X14833600Y-12518675D01*
X14794403Y-12595666D01*
X14789608Y-12600747D01*
X14782826Y-12602429D01*
X14776212Y-12600177D01*
X14771886Y-12594760D01*
X14771054Y-12592738D01*
X14770907Y-12592363D01*
X14769380Y-12588267D01*
X14764266Y-12581436D01*
X14763868Y-12580872D01*
X14761946Y-12577982D01*
X14720840Y-12532008D01*
X14708713Y-12518444D01*
X14708101Y-12517159D01*
X14707091Y-12516155D01*
X14706630Y-12514066D01*
X14705712Y-12512135D01*
X14705863Y-12510590D01*
X14705586Y-12509332D01*
X14706324Y-12505888D01*
X14706325Y-12505881D01*
X14712454Y-12489320D01*
X14712521Y-12489115D01*
X14712602Y-12488894D01*
X14712622Y-12488867D01*
X14712778Y-12488446D01*
X14712866Y-12488234D01*
X14713166Y-12487510D01*
X14713208Y-12487296D01*
X14713583Y-12485863D01*
X14713664Y-12485615D01*
X14713714Y-12485442D01*
X14715425Y-12476310D01*
X14715425Y-12476310D01*
X14715550Y-12475646D01*
X14715598Y-12475284D01*
X14716050Y-12473010D01*
X14716050Y-12458226D01*
X14713166Y-12443728D01*
X14713166Y-12443728D01*
X14713166Y-12443727D01*
X14711784Y-12440392D01*
X14707509Y-12430070D01*
X14707508Y-12430068D01*
X14699295Y-12417777D01*
X14699295Y-12417776D01*
X14688842Y-12407324D01*
X14688841Y-12407323D01*
X14676550Y-12399110D01*
X14676549Y-12399110D01*
X14662892Y-12393453D01*
X14662891Y-12393452D01*
X14648392Y-12390568D01*
X14648392Y-12390568D01*
X14633608Y-12390568D01*
X14633608Y-12390568D01*
X14619109Y-12393452D01*
X14619108Y-12393453D01*
X14605451Y-12399110D01*
X14605450Y-12399110D01*
X14593158Y-12407323D01*
X14593158Y-12407324D01*
X14582705Y-12417776D01*
X14582705Y-12417777D01*
X14574492Y-12430068D01*
X14574491Y-12430070D01*
X14568834Y-12443727D01*
X14568834Y-12443728D01*
X14565950Y-12458226D01*
X14565950Y-12458227D01*
X14565950Y-12473010D01*
X14565950Y-12473010D01*
X14565950Y-12473010D01*
X14568834Y-12487510D01*
X14568872Y-12487636D01*
X14569093Y-12488234D01*
X14574677Y-12505402D01*
X14574878Y-12512387D01*
X14572129Y-12517503D01*
X14518052Y-12577984D01*
X14515517Y-12581055D01*
X14515516Y-12581056D01*
X14514466Y-12582942D01*
X14514466Y-12582943D01*
X14514059Y-12583673D01*
X14510620Y-12588267D01*
X14508829Y-12593069D01*
X14508519Y-12593626D01*
X14508519Y-12593627D01*
X14508221Y-12594407D01*
X14508037Y-12595066D01*
X14507711Y-12596066D01*
X14505591Y-12601751D01*
X14505591Y-12601752D01*
X14504950Y-12607712D01*
X14504950Y-12607713D01*
X14504950Y-12770702D01*
X14504897Y-12770881D01*
X14504945Y-12771061D01*
X14503917Y-12774220D01*
X14502981Y-12777406D01*
X14502841Y-12777528D01*
X14502783Y-12777705D01*
X14500209Y-12779808D01*
X14497701Y-12781981D01*
X14497517Y-12782008D01*
X14497373Y-12782126D01*
X14494071Y-12782503D01*
X14490785Y-12782976D01*
X14490616Y-12782898D01*
X14490431Y-12782920D01*
X14487451Y-12781453D01*
X14484430Y-12780073D01*
X14484276Y-12779890D01*
X14484162Y-12779834D01*
X14483385Y-12778831D01*
X14481929Y-12777101D01*
X14481664Y-12776662D01*
X14481625Y-12776567D01*
X14481442Y-12776294D01*
X14481293Y-12776047D01*
X14481278Y-12775988D01*
X14480941Y-12775422D01*
X14480409Y-12774411D01*
X14480332Y-12774275D01*
X14480331Y-12774274D01*
X14480331Y-12774274D01*
X14475040Y-12766623D01*
X14474579Y-12766022D01*
X14473412Y-12764275D01*
X14473411Y-12764275D01*
X14473411Y-12764275D01*
X14462958Y-12753821D01*
X14462958Y-12753821D01*
X14462958Y-12753821D01*
X14450666Y-12745608D01*
X14450665Y-12745607D01*
X14437008Y-12739950D01*
X14437007Y-12739950D01*
X14422508Y-12737066D01*
X14422508Y-12737066D01*
X14407724Y-12737066D01*
X14407724Y-12737066D01*
X14393225Y-12739950D01*
X14393224Y-12739950D01*
X14379567Y-12745607D01*
X14379566Y-12745608D01*
X14367275Y-12753821D01*
X14367274Y-12753821D01*
X14356821Y-12764274D01*
X14356821Y-12764275D01*
X14348608Y-12776566D01*
X14348607Y-12776567D01*
X14342950Y-12790224D01*
X14342950Y-12790225D01*
X14340066Y-12804724D01*
X14340066Y-12804724D01*
X14340066Y-12819508D01*
X14340066Y-12819508D01*
X14340066Y-12819508D01*
X14342950Y-12834007D01*
X14342950Y-12834008D01*
X14348607Y-12847665D01*
X14348608Y-12847666D01*
X14356821Y-12859958D01*
X14356821Y-12859958D01*
X14367274Y-12870411D01*
X14367275Y-12870412D01*
X14379566Y-12878624D01*
X14379566Y-12878624D01*
X14379567Y-12878625D01*
X14379889Y-12878758D01*
X14380545Y-12879052D01*
X14395668Y-12886373D01*
X14400845Y-12891066D01*
X14402662Y-12897812D01*
X14400544Y-12904470D01*
X14395162Y-12908926D01*
X14395011Y-12908990D01*
X14388451Y-12911708D01*
X14388450Y-12911708D01*
X14376158Y-12919921D01*
X14376158Y-12919921D01*
X14365705Y-12930374D01*
X14365705Y-12930375D01*
X14357492Y-12942666D01*
X14357491Y-12942667D01*
X14351834Y-12956324D01*
X14351834Y-12956325D01*
X14348950Y-12970824D01*
X14348950Y-12970824D01*
X14348950Y-12985608D01*
X14348950Y-12985608D01*
X14348950Y-12985608D01*
X14351834Y-13000107D01*
X14351834Y-13000108D01*
X14351966Y-13000427D01*
X14352223Y-13001100D01*
X14364262Y-13035732D01*
X14364329Y-13036125D01*
X14364448Y-13036310D01*
X14364950Y-13039804D01*
X14364950Y-13064412D01*
X14364262Y-13068484D01*
X14352223Y-13103116D01*
X14351967Y-13103788D01*
X14351834Y-13104108D01*
X14351834Y-13104109D01*
X14351826Y-13104149D01*
X14351508Y-13105401D01*
X14351162Y-13106518D01*
X14351121Y-13106668D01*
X14349461Y-13115782D01*
X14349360Y-13116545D01*
X14348950Y-13118608D01*
X14348950Y-13118608D01*
X14348950Y-13133392D01*
X14348950Y-13133392D01*
X14348950Y-13133392D01*
X14351834Y-13147891D01*
X14351834Y-13147892D01*
X14357491Y-13161549D01*
X14357492Y-13161550D01*
X14365705Y-13173841D01*
X14365705Y-13173842D01*
X14376158Y-13184295D01*
X14376158Y-13184295D01*
X14388450Y-13192508D01*
X14388451Y-13192509D01*
X14402108Y-13198166D01*
X14402109Y-13198166D01*
X14411969Y-13200127D01*
X14414381Y-13201389D01*
X14416937Y-13202329D01*
X14417432Y-13202985D01*
X14418160Y-13203366D01*
X14419507Y-13205731D01*
X14421149Y-13207904D01*
X14421340Y-13208949D01*
X14421618Y-13209437D01*
X14421914Y-13211349D01*
X14421950Y-13211819D01*
X14421950Y-13213392D01*
X14422143Y-13214365D01*
X14422200Y-13215111D01*
X14422199Y-13215117D01*
X14422202Y-13215141D01*
X14422207Y-13215209D01*
X14422228Y-13215394D01*
X14422228Y-13215394D01*
X14424304Y-13225311D01*
X14424371Y-13225561D01*
X14424834Y-13227892D01*
X14430491Y-13241549D01*
X14430492Y-13241550D01*
X14438705Y-13253841D01*
X14438705Y-13253842D01*
X14449158Y-13264295D01*
X14449158Y-13264295D01*
X14461450Y-13272508D01*
X14461451Y-13272509D01*
X14469167Y-13275705D01*
X14475109Y-13278166D01*
X14475109Y-13278166D01*
X14475109Y-13278166D01*
X14489608Y-13281050D01*
X14489608Y-13281050D01*
X14504392Y-13281050D01*
X14514788Y-13278982D01*
X14518891Y-13278166D01*
X14527057Y-13274783D01*
X14532805Y-13272403D01*
X14539752Y-13271656D01*
X14546000Y-13274783D01*
X14549565Y-13280792D01*
X14549950Y-13283859D01*
X14549950Y-13587550D01*
X14547981Y-13594254D01*
X14542701Y-13598829D01*
X14537550Y-13599950D01*
X14394813Y-13599950D01*
X14388110Y-13597981D01*
X14383534Y-13592701D01*
X14382540Y-13585785D01*
X14385442Y-13579430D01*
X14387393Y-13577709D01*
X14387371Y-13577681D01*
X14387841Y-13577295D01*
X14387842Y-13577295D01*
X14398295Y-13566842D01*
X14406508Y-13554549D01*
X14406601Y-13554325D01*
X14407790Y-13551455D01*
X14412166Y-13540891D01*
X14414123Y-13531050D01*
X14415050Y-13526392D01*
X14415050Y-13511608D01*
X14412166Y-13497109D01*
X14412166Y-13497109D01*
X14412166Y-13497109D01*
X14411270Y-13494945D01*
X14410523Y-13487998D01*
X14413650Y-13481751D01*
X14417981Y-13478744D01*
X14418549Y-13478508D01*
X14430842Y-13470295D01*
X14441295Y-13459842D01*
X14449508Y-13447549D01*
X14455166Y-13433891D01*
X14456183Y-13428779D01*
X14458050Y-13419392D01*
X14458050Y-13404608D01*
X14455166Y-13390109D01*
X14455166Y-13390109D01*
X14455166Y-13390109D01*
X14454559Y-13388643D01*
X14449509Y-13376451D01*
X14449508Y-13376450D01*
X14441295Y-13364158D01*
X14441295Y-13364158D01*
X14430842Y-13353705D01*
X14427758Y-13351645D01*
X14418549Y-13345492D01*
X14418229Y-13345359D01*
X14417572Y-13345064D01*
X14384570Y-13329089D01*
X14381205Y-13326696D01*
X14278258Y-13223748D01*
X14278257Y-13223748D01*
X14264793Y-13215974D01*
X14264792Y-13215974D01*
X14261619Y-13215124D01*
X14255224Y-13213410D01*
X14249774Y-13211950D01*
X14249774Y-13211950D01*
X13840595Y-13211950D01*
X13833892Y-13209981D01*
X13831827Y-13208318D01*
X13654202Y-13030693D01*
X13650853Y-13024560D01*
X13651352Y-13017591D01*
X13655539Y-13011998D01*
X13662085Y-13009556D01*
X13666802Y-13010131D01*
X13673071Y-13012168D01*
X13690949Y-13015000D01*
X13709051Y-13015000D01*
X13726929Y-13012168D01*
X13744144Y-13006575D01*
X13744145Y-13006574D01*
X13760273Y-12998357D01*
X13761853Y-12997208D01*
X13761853Y-12997208D01*
X13704645Y-12940000D01*
X13705266Y-12940000D01*
X13715439Y-12937274D01*
X13724561Y-12932008D01*
X13732008Y-12924561D01*
X13737274Y-12915439D01*
X13740000Y-12905266D01*
X13740000Y-12904645D01*
X13797208Y-12961853D01*
X13799027Y-12961710D01*
X13800973Y-12961710D01*
X13802791Y-12961853D01*
X13860000Y-12904645D01*
X13860000Y-12905266D01*
X13862726Y-12915439D01*
X13867992Y-12924561D01*
X13875439Y-12932008D01*
X13884561Y-12937274D01*
X13894734Y-12940000D01*
X13895355Y-12940000D01*
X13838147Y-12997208D01*
X13838147Y-12997209D01*
X13839727Y-12998357D01*
X13839727Y-12998357D01*
X13855855Y-13006575D01*
X13855855Y-13006575D01*
X13873071Y-13012168D01*
X13890949Y-13015000D01*
X13909051Y-13015000D01*
X13926929Y-13012168D01*
X13944144Y-13006575D01*
X13944145Y-13006574D01*
X13960273Y-12998357D01*
X13961853Y-12997208D01*
X13961853Y-12997208D01*
X13904645Y-12940000D01*
X13905266Y-12940000D01*
X13915439Y-12937274D01*
X13924561Y-12932008D01*
X13932008Y-12924561D01*
X13937274Y-12915439D01*
X13940000Y-12905266D01*
X13940000Y-12904645D01*
X13997208Y-12961853D01*
X13998357Y-12960273D01*
X14006574Y-12944145D01*
X14006575Y-12944144D01*
X14012168Y-12926929D01*
X14015000Y-12909051D01*
X14015000Y-12890949D01*
X14012168Y-12873071D01*
X14006575Y-12855855D01*
X14006575Y-12855855D01*
X13998357Y-12839727D01*
X13998357Y-12839727D01*
X13997208Y-12838147D01*
X13940000Y-12895355D01*
X13940000Y-12894734D01*
X13937274Y-12884561D01*
X13932008Y-12875439D01*
X13924561Y-12867992D01*
X13915439Y-12862726D01*
X13905266Y-12860000D01*
X13904645Y-12860000D01*
X13961853Y-12802791D01*
X13961710Y-12800973D01*
X13961710Y-12799027D01*
X13961853Y-12797208D01*
X13904645Y-12740000D01*
X13905266Y-12740000D01*
X13915439Y-12737274D01*
X13924561Y-12732008D01*
X13932008Y-12724561D01*
X13937274Y-12715439D01*
X13940000Y-12705266D01*
X13940000Y-12704645D01*
X13997208Y-12761853D01*
X13998357Y-12760273D01*
X14006574Y-12744145D01*
X14006575Y-12744144D01*
X14012168Y-12726929D01*
X14015000Y-12709051D01*
X14015000Y-12690949D01*
X14012168Y-12673071D01*
X14006575Y-12655855D01*
X14006575Y-12655855D01*
X13998357Y-12639727D01*
X13998357Y-12639727D01*
X13997208Y-12638147D01*
X13940000Y-12695355D01*
X13940000Y-12694734D01*
X13937274Y-12684561D01*
X13932008Y-12675439D01*
X13924561Y-12667992D01*
X13915439Y-12662726D01*
X13905266Y-12660000D01*
X13904645Y-12660000D01*
X13961853Y-12602791D01*
X13961710Y-12600973D01*
X13961710Y-12599027D01*
X13961853Y-12597208D01*
X13904645Y-12540000D01*
X13905266Y-12540000D01*
X13915439Y-12537274D01*
X13924561Y-12532008D01*
X13932008Y-12524561D01*
X13937274Y-12515439D01*
X13940000Y-12505266D01*
X13940000Y-12504645D01*
X13997208Y-12561853D01*
X13998357Y-12560273D01*
X14006574Y-12544145D01*
X14006575Y-12544144D01*
X14012168Y-12526929D01*
X14015000Y-12509051D01*
X14015000Y-12490949D01*
X14012168Y-12473071D01*
X14006575Y-12455855D01*
X14006575Y-12455855D01*
X13998357Y-12439727D01*
X13998357Y-12439727D01*
X13997208Y-12438147D01*
X13940000Y-12495355D01*
X13940000Y-12494734D01*
X13937274Y-12484561D01*
X13932008Y-12475439D01*
X13924561Y-12467992D01*
X13915439Y-12462726D01*
X13905266Y-12460000D01*
X13904645Y-12460000D01*
X13961853Y-12402791D01*
X13960273Y-12401643D01*
X13944145Y-12393425D01*
X13944144Y-12393425D01*
X13926929Y-12387832D01*
X13909051Y-12385000D01*
X13890949Y-12385000D01*
X13873071Y-12387832D01*
X13855855Y-12393425D01*
X13855855Y-12393425D01*
X13839727Y-12401643D01*
X13838147Y-12402791D01*
X13838147Y-12402791D01*
X13895355Y-12460000D01*
X13894734Y-12460000D01*
X13884561Y-12462726D01*
X13875439Y-12467992D01*
X13867992Y-12475439D01*
X13862726Y-12484561D01*
X13860000Y-12494734D01*
X13860000Y-12495355D01*
X13802791Y-12438146D01*
X13800973Y-12438290D01*
X13799027Y-12438290D01*
X13797209Y-12438146D01*
X13740000Y-12495355D01*
X13740000Y-12494734D01*
X13737274Y-12484561D01*
X13732008Y-12475439D01*
X13724561Y-12467992D01*
X13715439Y-12462726D01*
X13705266Y-12460000D01*
X13704645Y-12460000D01*
X13761853Y-12402791D01*
X13760273Y-12401643D01*
X13744145Y-12393425D01*
X13744144Y-12393425D01*
X13726929Y-12387832D01*
X13709051Y-12385000D01*
X13690949Y-12385000D01*
X13673071Y-12387832D01*
X13655855Y-12393425D01*
X13655855Y-12393425D01*
X13639727Y-12401643D01*
X13638147Y-12402791D01*
X13638147Y-12402791D01*
X13695355Y-12460000D01*
X13694734Y-12460000D01*
X13684561Y-12462726D01*
X13675439Y-12467992D01*
X13667992Y-12475439D01*
X13662726Y-12484561D01*
X13660000Y-12494734D01*
X13660000Y-12495355D01*
X13602791Y-12438146D01*
X13600973Y-12438290D01*
X13599027Y-12438290D01*
X13597209Y-12438146D01*
X13540000Y-12495355D01*
X13540000Y-12494734D01*
X13537274Y-12484561D01*
X13532008Y-12475439D01*
X13524561Y-12467992D01*
X13515439Y-12462726D01*
X13505266Y-12460000D01*
X13504645Y-12460000D01*
X13561853Y-12402791D01*
X13560273Y-12401643D01*
X13544145Y-12393425D01*
X13544144Y-12393425D01*
X13526929Y-12387832D01*
X13509051Y-12385000D01*
X13498445Y-12385000D01*
X13491741Y-12383031D01*
X13487166Y-12377751D01*
X13486172Y-12370835D01*
X13489074Y-12364480D01*
X13489676Y-12363833D01*
X13694827Y-12158682D01*
X13700960Y-12155333D01*
X13703595Y-12155050D01*
X14781412Y-12155050D01*
X14785484Y-12155738D01*
X14789964Y-12157295D01*
X14820259Y-12167827D01*
X14820385Y-12167866D01*
X14821109Y-12168166D01*
X14821781Y-12168299D01*
X14822892Y-12168644D01*
X14823493Y-12168831D01*
X14823493Y-12168831D01*
X14823495Y-12168832D01*
X14823646Y-12168873D01*
X14832303Y-12170452D01*
X14832303Y-12170452D01*
X14832782Y-12170539D01*
X14833545Y-12170640D01*
X14834684Y-12170866D01*
X14835608Y-12171050D01*
X14835608Y-12171050D01*
X14850392Y-12171050D01*
X14861335Y-12168873D01*
X14864891Y-12168166D01*
X14878549Y-12162508D01*
X14890842Y-12154295D01*
X14901295Y-12143842D01*
X14909508Y-12131549D01*
X14915166Y-12117891D01*
X14916304Y-12112168D01*
X14918050Y-12103392D01*
X14918050Y-12088608D01*
X14915166Y-12074109D01*
X14915166Y-12074108D01*
X14915027Y-12073774D01*
X14915007Y-12073585D01*
X14914989Y-12073526D01*
X14915000Y-12073522D01*
X14914280Y-12066827D01*
X14917407Y-12060579D01*
X14923416Y-12057014D01*
X14930399Y-12057263D01*
G37*
%TD.AperFunction*%
%TA.AperFunction,Conductor*%
G36*
X16050693Y-11670229D02*
G01*
X16051319Y-11670112D01*
X16054005Y-11671202D01*
X16056786Y-11672018D01*
X16057203Y-11672500D01*
X16057793Y-11672739D01*
X16059464Y-11675109D01*
X16061361Y-11677299D01*
X16061452Y-11677929D01*
X16061819Y-11678450D01*
X16061943Y-11681346D01*
X16062356Y-11684215D01*
X16062091Y-11684794D01*
X16062118Y-11685431D01*
X16060658Y-11687933D01*
X16059453Y-11690570D01*
X16058837Y-11691053D01*
X16058596Y-11691465D01*
X16055712Y-11693498D01*
X16039727Y-11701643D01*
X16038147Y-11702791D01*
X16038147Y-11702791D01*
X16095355Y-11760000D01*
X16094734Y-11760000D01*
X16084561Y-11762726D01*
X16075439Y-11767992D01*
X16067992Y-11775439D01*
X16062726Y-11784561D01*
X16060000Y-11794734D01*
X16060000Y-11795355D01*
X16002791Y-11738147D01*
X16002791Y-11738147D01*
X16001643Y-11739727D01*
X15993425Y-11755855D01*
X15993425Y-11755855D01*
X15987832Y-11773071D01*
X15985000Y-11790949D01*
X15985000Y-11809051D01*
X15987832Y-11826929D01*
X15993425Y-11844144D01*
X15993425Y-11844145D01*
X16001643Y-11860273D01*
X16002791Y-11861853D01*
X16002791Y-11861853D01*
X16060000Y-11804645D01*
X16060000Y-11805266D01*
X16062726Y-11815439D01*
X16067992Y-11824561D01*
X16075439Y-11832008D01*
X16084561Y-11837274D01*
X16094734Y-11840000D01*
X16095355Y-11840000D01*
X16038146Y-11897209D01*
X16038290Y-11899027D01*
X16038290Y-11900973D01*
X16038146Y-11902791D01*
X16095355Y-11960000D01*
X16094734Y-11960000D01*
X16084561Y-11962726D01*
X16075439Y-11967992D01*
X16067992Y-11975439D01*
X16062726Y-11984561D01*
X16060000Y-11994734D01*
X16060000Y-11995355D01*
X16002791Y-11938147D01*
X16002791Y-11938147D01*
X16001643Y-11939727D01*
X15993425Y-11955855D01*
X15993425Y-11955855D01*
X15987832Y-11973071D01*
X15985000Y-11990949D01*
X15985000Y-12009051D01*
X15987832Y-12026929D01*
X15993425Y-12044144D01*
X15993425Y-12044145D01*
X16001643Y-12060273D01*
X16002791Y-12061853D01*
X16002791Y-12061853D01*
X16060000Y-12004645D01*
X16060000Y-12005266D01*
X16062726Y-12015439D01*
X16067992Y-12024561D01*
X16075439Y-12032008D01*
X16084561Y-12037274D01*
X16094734Y-12040000D01*
X16095355Y-12040000D01*
X16038147Y-12097208D01*
X16038147Y-12097209D01*
X16039727Y-12098357D01*
X16039727Y-12098357D01*
X16055855Y-12106575D01*
X16055855Y-12106575D01*
X16073071Y-12112168D01*
X16090949Y-12115000D01*
X16109051Y-12115000D01*
X16126929Y-12112168D01*
X16144144Y-12106575D01*
X16144145Y-12106574D01*
X16160273Y-12098357D01*
X16161853Y-12097208D01*
X16161853Y-12097208D01*
X16104645Y-12040000D01*
X16105266Y-12040000D01*
X16115439Y-12037274D01*
X16124561Y-12032008D01*
X16132008Y-12024561D01*
X16137274Y-12015439D01*
X16140000Y-12005266D01*
X16140000Y-12004645D01*
X16197208Y-12061853D01*
X16199027Y-12061710D01*
X16200973Y-12061710D01*
X16202791Y-12061853D01*
X16260000Y-12004645D01*
X16260000Y-12005266D01*
X16262726Y-12015439D01*
X16267992Y-12024561D01*
X16275439Y-12032008D01*
X16284561Y-12037274D01*
X16294734Y-12040000D01*
X16295355Y-12040000D01*
X16238147Y-12097208D01*
X16238147Y-12097209D01*
X16239727Y-12098357D01*
X16239727Y-12098357D01*
X16255855Y-12106575D01*
X16255855Y-12106575D01*
X16273071Y-12112168D01*
X16290949Y-12115000D01*
X16309051Y-12115000D01*
X16326929Y-12112168D01*
X16344144Y-12106575D01*
X16344145Y-12106574D01*
X16360273Y-12098357D01*
X16361853Y-12097208D01*
X16361853Y-12097208D01*
X16304645Y-12040000D01*
X16305266Y-12040000D01*
X16315439Y-12037274D01*
X16324561Y-12032008D01*
X16332008Y-12024561D01*
X16337274Y-12015439D01*
X16340000Y-12005266D01*
X16340000Y-12004645D01*
X16397208Y-12061853D01*
X16398357Y-12060273D01*
X16406574Y-12044145D01*
X16406575Y-12044144D01*
X16412168Y-12026929D01*
X16415000Y-12009051D01*
X16415000Y-11990949D01*
X16412168Y-11973071D01*
X16406575Y-11955855D01*
X16406575Y-11955855D01*
X16398357Y-11939727D01*
X16398357Y-11939727D01*
X16397208Y-11938147D01*
X16340000Y-11995355D01*
X16340000Y-11994734D01*
X16337274Y-11984561D01*
X16332008Y-11975439D01*
X16324561Y-11967992D01*
X16315439Y-11962726D01*
X16305266Y-11960000D01*
X16304645Y-11960000D01*
X16361853Y-11902791D01*
X16361710Y-11900973D01*
X16361710Y-11899027D01*
X16361853Y-11897208D01*
X16304645Y-11840000D01*
X16305266Y-11840000D01*
X16315439Y-11837274D01*
X16324561Y-11832008D01*
X16332008Y-11824561D01*
X16337274Y-11815439D01*
X16340000Y-11805266D01*
X16340000Y-11804645D01*
X16397208Y-11861853D01*
X16398357Y-11860273D01*
X16406574Y-11844145D01*
X16406575Y-11844144D01*
X16412168Y-11826929D01*
X16415000Y-11809051D01*
X16415000Y-11792286D01*
X16416968Y-11785582D01*
X16422249Y-11781007D01*
X16429165Y-11780012D01*
X16435520Y-11782915D01*
X16436168Y-11783518D01*
X16606318Y-11953668D01*
X16609667Y-11959800D01*
X16609950Y-11962436D01*
X16609950Y-12543422D01*
X16607981Y-12550126D01*
X16606318Y-12552190D01*
X16336222Y-12822286D01*
X16336222Y-12822286D01*
X16329332Y-12829176D01*
X16322286Y-12836222D01*
X16311337Y-12852608D01*
X16311337Y-12852609D01*
X16308486Y-12859492D01*
X16308485Y-12859493D01*
X16308293Y-12859958D01*
X16303795Y-12870816D01*
X16302242Y-12878625D01*
X16302103Y-12879324D01*
X16302102Y-12879325D01*
X16299950Y-12890146D01*
X16299950Y-13587550D01*
X16297981Y-13594254D01*
X16292701Y-13598829D01*
X16287550Y-13599950D01*
X15162450Y-13599950D01*
X15155746Y-13597981D01*
X15151171Y-13592701D01*
X15150050Y-13587550D01*
X15150050Y-13422436D01*
X15152018Y-13415732D01*
X15153682Y-13413668D01*
X15209946Y-13357404D01*
X15209946Y-13357404D01*
X15219801Y-13342655D01*
X15226589Y-13326267D01*
X15230050Y-13308869D01*
X15230050Y-13291131D01*
X15226589Y-13273733D01*
X15220446Y-13258902D01*
X15219801Y-13257345D01*
X15219801Y-13257345D01*
X15209946Y-13242596D01*
X15209946Y-13242596D01*
X15197404Y-13230054D01*
X15197403Y-13230053D01*
X15182655Y-13220199D01*
X15182654Y-13220198D01*
X15166267Y-13213410D01*
X15166266Y-13213410D01*
X15148870Y-13209950D01*
X15148869Y-13209950D01*
X15131131Y-13209950D01*
X15131130Y-13209950D01*
X15113734Y-13213410D01*
X15113733Y-13213410D01*
X15097345Y-13220198D01*
X15097345Y-13220199D01*
X15082596Y-13230053D01*
X15082596Y-13230054D01*
X14990054Y-13322596D01*
X14990053Y-13322596D01*
X14986749Y-13327541D01*
X14986748Y-13327543D01*
X14986476Y-13327950D01*
X14980199Y-13337345D01*
X14977434Y-13344019D01*
X14977156Y-13344691D01*
X14977156Y-13344692D01*
X14973410Y-13353733D01*
X14973410Y-13353734D01*
X14970028Y-13370739D01*
X14970028Y-13370739D01*
X14969950Y-13371131D01*
X14969950Y-13587550D01*
X14967981Y-13594254D01*
X14962701Y-13598829D01*
X14957550Y-13599950D01*
X14742450Y-13599950D01*
X14735746Y-13597981D01*
X14731171Y-13592701D01*
X14730050Y-13587550D01*
X14730050Y-12884080D01*
X14731491Y-12878278D01*
X14731698Y-12877887D01*
X14769271Y-12806915D01*
X14769300Y-12806839D01*
X14769380Y-12806733D01*
X14770888Y-12802687D01*
X14773651Y-12795466D01*
X14773651Y-12795465D01*
X14773764Y-12795106D01*
X14773769Y-12795108D01*
X14774035Y-12794251D01*
X14774281Y-12793590D01*
X14778469Y-12787997D01*
X14785016Y-12785556D01*
X14791843Y-12787042D01*
X14794667Y-12789157D01*
X14806021Y-12800511D01*
X14823218Y-12813005D01*
X14823218Y-12813005D01*
X14823218Y-12813005D01*
X14842159Y-12822656D01*
X14862376Y-12829225D01*
X14883371Y-12832550D01*
X14883371Y-12832550D01*
X14904629Y-12832550D01*
X14904629Y-12832550D01*
X14925624Y-12829225D01*
X14945841Y-12822656D01*
X14964782Y-12813005D01*
X14970257Y-12809027D01*
X14981979Y-12800511D01*
X14981979Y-12800511D01*
X14981979Y-12800510D01*
X14997010Y-12785479D01*
X14997011Y-12785479D01*
X14997011Y-12785479D01*
X15009505Y-12768282D01*
X15009505Y-12768282D01*
X15009505Y-12768282D01*
X15009951Y-12767405D01*
X15014749Y-12762326D01*
X15021531Y-12760646D01*
X15028144Y-12762900D01*
X15032049Y-12767406D01*
X15032495Y-12768282D01*
X15044989Y-12785479D01*
X15060021Y-12800511D01*
X15077218Y-12813005D01*
X15077218Y-12813005D01*
X15077218Y-12813005D01*
X15096159Y-12822656D01*
X15116376Y-12829225D01*
X15137371Y-12832550D01*
X15137371Y-12832550D01*
X15158629Y-12832550D01*
X15158629Y-12832550D01*
X15179624Y-12829225D01*
X15199841Y-12822656D01*
X15218782Y-12813005D01*
X15224257Y-12809027D01*
X15235979Y-12800511D01*
X15235979Y-12800511D01*
X15235979Y-12800510D01*
X15251010Y-12785479D01*
X15251011Y-12785479D01*
X15251011Y-12785479D01*
X15258318Y-12775421D01*
X15263505Y-12768282D01*
X15263979Y-12767351D01*
X15268776Y-12762271D01*
X15275558Y-12760591D01*
X15282172Y-12762844D01*
X15286076Y-12767350D01*
X15286537Y-12768255D01*
X15290473Y-12773672D01*
X15353704Y-12710441D01*
X15355407Y-12716799D01*
X15361990Y-12728201D01*
X15371299Y-12737510D01*
X15382701Y-12744092D01*
X15389059Y-12745796D01*
X15325828Y-12809027D01*
X15325828Y-12809027D01*
X15331245Y-12812962D01*
X15350178Y-12822609D01*
X15370387Y-12829176D01*
X15391375Y-12832500D01*
X15412625Y-12832500D01*
X15433613Y-12829176D01*
X15433613Y-12829176D01*
X15453822Y-12822609D01*
X15472755Y-12812962D01*
X15478172Y-12809027D01*
X15478172Y-12809027D01*
X15414941Y-12745796D01*
X15421299Y-12744092D01*
X15432701Y-12737510D01*
X15442010Y-12728201D01*
X15448592Y-12716799D01*
X15450296Y-12710441D01*
X15513527Y-12773672D01*
X15513527Y-12773672D01*
X15517462Y-12768255D01*
X15517923Y-12767351D01*
X15518642Y-12766589D01*
X15519003Y-12765605D01*
X15521000Y-12764092D01*
X15522720Y-12762271D01*
X15523737Y-12762019D01*
X15524572Y-12761386D01*
X15527071Y-12761193D01*
X15529502Y-12760591D01*
X15530494Y-12760929D01*
X15531539Y-12760848D01*
X15533745Y-12762037D01*
X15536116Y-12762845D01*
X15536931Y-12763753D01*
X15537690Y-12764162D01*
X15539417Y-12766524D01*
X15539821Y-12766975D01*
X15539924Y-12767162D01*
X15540495Y-12768282D01*
X15540701Y-12768566D01*
X15541071Y-12769233D01*
X15541089Y-12769313D01*
X15541272Y-12769612D01*
X15564566Y-12815367D01*
X15595149Y-12875439D01*
X15595600Y-12876325D01*
X15596950Y-12881950D01*
X15596950Y-12894774D01*
X15598873Y-12901950D01*
X15599659Y-12904884D01*
X15599659Y-12904884D01*
X15600974Y-12909792D01*
X15608748Y-12923257D01*
X15608748Y-12923258D01*
X15716196Y-13030705D01*
X15718589Y-13034070D01*
X15734485Y-13066910D01*
X15734487Y-13066913D01*
X15734631Y-13067209D01*
X15734692Y-13067326D01*
X15734992Y-13068049D01*
X15735372Y-13068620D01*
X15735673Y-13069192D01*
X15735685Y-13069213D01*
X15736206Y-13070204D01*
X15736284Y-13070342D01*
X15741577Y-13077995D01*
X15742037Y-13078595D01*
X15743204Y-13080341D01*
X15743205Y-13080342D01*
X15753658Y-13090795D01*
X15753658Y-13090795D01*
X15765950Y-13099008D01*
X15765951Y-13099009D01*
X15778263Y-13104108D01*
X15779609Y-13104666D01*
X15779609Y-13104666D01*
X15779609Y-13104666D01*
X15794108Y-13107550D01*
X15794108Y-13107550D01*
X15808892Y-13107550D01*
X15819694Y-13105401D01*
X15823391Y-13104666D01*
X15837049Y-13099008D01*
X15849342Y-13090795D01*
X15859795Y-13080342D01*
X15868008Y-13068049D01*
X15873666Y-13054391D01*
X15876081Y-13042252D01*
X15876550Y-13039892D01*
X15876550Y-13025108D01*
X15873666Y-13010609D01*
X15873666Y-13010609D01*
X15873666Y-13010609D01*
X15872772Y-13008451D01*
X15868009Y-12996951D01*
X15868008Y-12996950D01*
X15859795Y-12984658D01*
X15859795Y-12984658D01*
X15849342Y-12974205D01*
X15844282Y-12970824D01*
X15837049Y-12965992D01*
X15836729Y-12965859D01*
X15836072Y-12965564D01*
X15803070Y-12949589D01*
X15799705Y-12947196D01*
X15726963Y-12874453D01*
X15723614Y-12868321D01*
X15724113Y-12861352D01*
X15724680Y-12860059D01*
X15724711Y-12860000D01*
X15770730Y-12769608D01*
X15770934Y-12769224D01*
X15771301Y-12768562D01*
X15771505Y-12768282D01*
X15772050Y-12767212D01*
X15772156Y-12767020D01*
X15774493Y-12764714D01*
X15776749Y-12762326D01*
X15776968Y-12762271D01*
X15777129Y-12762113D01*
X15780343Y-12761436D01*
X15783531Y-12760646D01*
X15783745Y-12760719D01*
X15783966Y-12760673D01*
X15787036Y-12761841D01*
X15790144Y-12762900D01*
X15790304Y-12763084D01*
X15790496Y-12763158D01*
X15791239Y-12764163D01*
X15794048Y-12767405D01*
X15794495Y-12768282D01*
X15806989Y-12785479D01*
X15822021Y-12800511D01*
X15839218Y-12813005D01*
X15839218Y-12813005D01*
X15839218Y-12813005D01*
X15858159Y-12822656D01*
X15878376Y-12829225D01*
X15899371Y-12832550D01*
X15899371Y-12832550D01*
X15920629Y-12832550D01*
X15920629Y-12832550D01*
X15941624Y-12829225D01*
X15961841Y-12822656D01*
X15980782Y-12813005D01*
X15986257Y-12809027D01*
X15997979Y-12800511D01*
X15997979Y-12800511D01*
X15997979Y-12800510D01*
X16013010Y-12785479D01*
X16013011Y-12785479D01*
X16013011Y-12785479D01*
X16025505Y-12768282D01*
X16025505Y-12768282D01*
X16025505Y-12768282D01*
X16025951Y-12767405D01*
X16030749Y-12762326D01*
X16037531Y-12760646D01*
X16044144Y-12762900D01*
X16048049Y-12767406D01*
X16048495Y-12768282D01*
X16060989Y-12785479D01*
X16076021Y-12800511D01*
X16093218Y-12813005D01*
X16093218Y-12813005D01*
X16093218Y-12813005D01*
X16112159Y-12822656D01*
X16132376Y-12829225D01*
X16153371Y-12832550D01*
X16153371Y-12832550D01*
X16174629Y-12832550D01*
X16174629Y-12832550D01*
X16195624Y-12829225D01*
X16215841Y-12822656D01*
X16234782Y-12813005D01*
X16240257Y-12809027D01*
X16251979Y-12800511D01*
X16251979Y-12800511D01*
X16251979Y-12800510D01*
X16267010Y-12785479D01*
X16267011Y-12785479D01*
X16267011Y-12785479D01*
X16279505Y-12768282D01*
X16279505Y-12768282D01*
X16279505Y-12768282D01*
X16289156Y-12749341D01*
X16295725Y-12729124D01*
X16299050Y-12708129D01*
X16299050Y-12686871D01*
X16295725Y-12665876D01*
X16289156Y-12645659D01*
X16279505Y-12626718D01*
X16279505Y-12626718D01*
X16279505Y-12626718D01*
X16267011Y-12609521D01*
X16251979Y-12594489D01*
X16234782Y-12581995D01*
X16215841Y-12572344D01*
X16215841Y-12572344D01*
X16215841Y-12572344D01*
X16195624Y-12565775D01*
X16195624Y-12565775D01*
X16195624Y-12565775D01*
X16179496Y-12563221D01*
X16174629Y-12562450D01*
X16153371Y-12562450D01*
X16148504Y-12563221D01*
X16132376Y-12565775D01*
X16112158Y-12572344D01*
X16093218Y-12581995D01*
X16076021Y-12594489D01*
X16060989Y-12609521D01*
X16048495Y-12626718D01*
X16048048Y-12627595D01*
X16043251Y-12632674D01*
X16036469Y-12634354D01*
X16029855Y-12632100D01*
X16025952Y-12627595D01*
X16025505Y-12626718D01*
X16013011Y-12609521D01*
X15997979Y-12594489D01*
X15980782Y-12581995D01*
X15961841Y-12572344D01*
X15961841Y-12572344D01*
X15961841Y-12572344D01*
X15941624Y-12565775D01*
X15941624Y-12565775D01*
X15941624Y-12565775D01*
X15925496Y-12563221D01*
X15920629Y-12562450D01*
X15899371Y-12562450D01*
X15894504Y-12563221D01*
X15878376Y-12565775D01*
X15858158Y-12572344D01*
X15839218Y-12581995D01*
X15822021Y-12594489D01*
X15806989Y-12609521D01*
X15794495Y-12626718D01*
X15794048Y-12627595D01*
X15789251Y-12632674D01*
X15782469Y-12634354D01*
X15775855Y-12632100D01*
X15771952Y-12627595D01*
X15771505Y-12626718D01*
X15759011Y-12609521D01*
X15743979Y-12594489D01*
X15726782Y-12581995D01*
X15707842Y-12572344D01*
X15687624Y-12565775D01*
X15687151Y-12565662D01*
X15687159Y-12565630D01*
X15686134Y-12565384D01*
X15572261Y-12528343D01*
X15567328Y-12525319D01*
X15148401Y-12106392D01*
X15312950Y-12106392D01*
X15315834Y-12120891D01*
X15315834Y-12120892D01*
X15321491Y-12134549D01*
X15321492Y-12134550D01*
X15329705Y-12146841D01*
X15329705Y-12146842D01*
X15340158Y-12157295D01*
X15340158Y-12157295D01*
X15352450Y-12165508D01*
X15352451Y-12165509D01*
X15365791Y-12171034D01*
X15366109Y-12171166D01*
X15366109Y-12171166D01*
X15366109Y-12171166D01*
X15380608Y-12174050D01*
X15380608Y-12174050D01*
X15395392Y-12174050D01*
X15401223Y-12172890D01*
X15409891Y-12171166D01*
X15410214Y-12171032D01*
X15410882Y-12170778D01*
X15437909Y-12161382D01*
X15445516Y-12158738D01*
X15449588Y-12158050D01*
X15526412Y-12158050D01*
X15530484Y-12158738D01*
X15538703Y-12161595D01*
X15565259Y-12170827D01*
X15565385Y-12170866D01*
X15566109Y-12171166D01*
X15566781Y-12171299D01*
X15567892Y-12171644D01*
X15568493Y-12171831D01*
X15568493Y-12171831D01*
X15568495Y-12171832D01*
X15568646Y-12171873D01*
X15577303Y-12173452D01*
X15577303Y-12173452D01*
X15577782Y-12173539D01*
X15578545Y-12173640D01*
X15580127Y-12173954D01*
X15580608Y-12174050D01*
X15580608Y-12174050D01*
X15595392Y-12174050D01*
X15606335Y-12171873D01*
X15609891Y-12171166D01*
X15623549Y-12165508D01*
X15635842Y-12157295D01*
X15646295Y-12146842D01*
X15654508Y-12134549D01*
X15660166Y-12120891D01*
X15663014Y-12106575D01*
X15663050Y-12106392D01*
X15663050Y-12091608D01*
X15660166Y-12077109D01*
X15660166Y-12077109D01*
X15660166Y-12077109D01*
X15655907Y-12066827D01*
X15654509Y-12063451D01*
X15654508Y-12063450D01*
X15646295Y-12051158D01*
X15646295Y-12051158D01*
X15635842Y-12040705D01*
X15635841Y-12040705D01*
X15623550Y-12032492D01*
X15623549Y-12032491D01*
X15609892Y-12026834D01*
X15609891Y-12026834D01*
X15595392Y-12023950D01*
X15595392Y-12023950D01*
X15580608Y-12023950D01*
X15580608Y-12023950D01*
X15566109Y-12026834D01*
X15566107Y-12026835D01*
X15565784Y-12026968D01*
X15565113Y-12027224D01*
X15541723Y-12035355D01*
X15530484Y-12039262D01*
X15526412Y-12039950D01*
X15449588Y-12039950D01*
X15445516Y-12039262D01*
X15436887Y-12036262D01*
X15411056Y-12027282D01*
X15411051Y-12027281D01*
X15410740Y-12027173D01*
X15410614Y-12027133D01*
X15409891Y-12026834D01*
X15409217Y-12026700D01*
X15408577Y-12026501D01*
X15407488Y-12026164D01*
X15407338Y-12026122D01*
X15407338Y-12026122D01*
X15398218Y-12024461D01*
X15397455Y-12024360D01*
X15395392Y-12023950D01*
X15380608Y-12023950D01*
X15380608Y-12023950D01*
X15366109Y-12026834D01*
X15366108Y-12026834D01*
X15352451Y-12032491D01*
X15352450Y-12032492D01*
X15340158Y-12040705D01*
X15340158Y-12040705D01*
X15329705Y-12051158D01*
X15329705Y-12051158D01*
X15321492Y-12063450D01*
X15321491Y-12063451D01*
X15315834Y-12077108D01*
X15315834Y-12077109D01*
X15312950Y-12091608D01*
X15312950Y-12091608D01*
X15312950Y-12106392D01*
X15312950Y-12106392D01*
X15312950Y-12106392D01*
X15148401Y-12106392D01*
X15032957Y-11990947D01*
X15029608Y-11984815D01*
X15030106Y-11977846D01*
X15034294Y-11972252D01*
X15037652Y-11970467D01*
X15062088Y-11961972D01*
X15068516Y-11959738D01*
X15072588Y-11959050D01*
X15705009Y-11959050D01*
X15706523Y-11959143D01*
X15706679Y-11959162D01*
X15709549Y-11959515D01*
X15732345Y-11959050D01*
X15741774Y-11959050D01*
X15742551Y-11958842D01*
X15755018Y-11958587D01*
X15755213Y-11958575D01*
X15756000Y-11958550D01*
X15757891Y-11958550D01*
X15757892Y-11958550D01*
X15758233Y-11958482D01*
X15759333Y-11958314D01*
X15759365Y-11958311D01*
X15759368Y-11958311D01*
X15759567Y-11958289D01*
X15762023Y-11957783D01*
X15769842Y-11956173D01*
X15769843Y-11956180D01*
X15769925Y-11956156D01*
X15772391Y-11955666D01*
X15786049Y-11950008D01*
X15798342Y-11941795D01*
X15808795Y-11931342D01*
X15817008Y-11919049D01*
X15822666Y-11905391D01*
X15825550Y-11890892D01*
X15825550Y-11876108D01*
X15825550Y-11876108D01*
X15822666Y-11861609D01*
X15822666Y-11861609D01*
X15822666Y-11861609D01*
X15818319Y-11851114D01*
X15817009Y-11847951D01*
X15817008Y-11847950D01*
X15808795Y-11835658D01*
X15808795Y-11835658D01*
X15798342Y-11825205D01*
X15798341Y-11825205D01*
X15786050Y-11816992D01*
X15786049Y-11816991D01*
X15772392Y-11811334D01*
X15772391Y-11811334D01*
X15757892Y-11808450D01*
X15757892Y-11808450D01*
X15743108Y-11808450D01*
X15743108Y-11808450D01*
X15728609Y-11811334D01*
X15728608Y-11811334D01*
X15714951Y-11816991D01*
X15714950Y-11816992D01*
X15702658Y-11825205D01*
X15702658Y-11825205D01*
X15701191Y-11826672D01*
X15701025Y-11826835D01*
X15700606Y-11827238D01*
X15700489Y-11827323D01*
X15689972Y-11837481D01*
X15686887Y-11839091D01*
X15683795Y-11840711D01*
X15683781Y-11840712D01*
X15683778Y-11840714D01*
X15683769Y-11840713D01*
X15681370Y-11840950D01*
X15072588Y-11840950D01*
X15068516Y-11840262D01*
X15055273Y-11835658D01*
X15033884Y-11828223D01*
X15033213Y-11827967D01*
X15032891Y-11827834D01*
X15032891Y-11827834D01*
X15032853Y-11827826D01*
X15031598Y-11827508D01*
X15030488Y-11827164D01*
X15030338Y-11827122D01*
X15030338Y-11827122D01*
X15021218Y-11825461D01*
X15020455Y-11825360D01*
X15018392Y-11824950D01*
X15003608Y-11824950D01*
X15003608Y-11824950D01*
X14989109Y-11827834D01*
X14989108Y-11827834D01*
X14975451Y-11833491D01*
X14975450Y-11833492D01*
X14963158Y-11841705D01*
X14963158Y-11841705D01*
X14952705Y-11852158D01*
X14952705Y-11852158D01*
X14944492Y-11864450D01*
X14944491Y-11864451D01*
X14940454Y-11874198D01*
X14936070Y-11879638D01*
X14929441Y-11881845D01*
X14922671Y-11880117D01*
X14920230Y-11878221D01*
X14887682Y-11845673D01*
X14884333Y-11839540D01*
X14884050Y-11836904D01*
X14884050Y-11761588D01*
X14884738Y-11757516D01*
X14887350Y-11750000D01*
X14896827Y-11722741D01*
X14896866Y-11722615D01*
X14897166Y-11721891D01*
X14897300Y-11721218D01*
X14897832Y-11719505D01*
X14897873Y-11719353D01*
X14899452Y-11710697D01*
X14899452Y-11710696D01*
X14899539Y-11710217D01*
X14899640Y-11709453D01*
X14900050Y-11707392D01*
X14900050Y-11707392D01*
X14900050Y-11692608D01*
X14900050Y-11692608D01*
X14898511Y-11684869D01*
X14899133Y-11677910D01*
X14903419Y-11672392D01*
X14910008Y-11670068D01*
X14910672Y-11670050D01*
X16050082Y-11670050D01*
X16050693Y-11670229D01*
G37*
%TD.AperFunction*%
%TA.AperFunction,Conductor*%
G36*
X13660000Y-12905266D02*
G01*
X13662726Y-12915439D01*
X13667992Y-12924561D01*
X13675439Y-12932008D01*
X13684561Y-12937274D01*
X13694734Y-12940000D01*
X13695355Y-12940000D01*
X13635403Y-12999952D01*
X13629271Y-13003300D01*
X13622329Y-13002812D01*
X13621344Y-13002447D01*
X13618792Y-13000974D01*
X13614189Y-12999741D01*
X13613632Y-12999591D01*
X13613631Y-12999591D01*
X13609023Y-12998357D01*
X13603774Y-12996950D01*
X13603774Y-12996950D01*
X13566731Y-12996950D01*
X13560027Y-12994981D01*
X13557963Y-12993318D01*
X13504645Y-12940000D01*
X13505266Y-12940000D01*
X13515439Y-12937274D01*
X13524561Y-12932008D01*
X13532008Y-12924561D01*
X13537274Y-12915439D01*
X13540000Y-12905266D01*
X13540000Y-12904645D01*
X13597208Y-12961853D01*
X13599027Y-12961710D01*
X13600973Y-12961710D01*
X13602791Y-12961853D01*
X13660000Y-12904645D01*
X13660000Y-12905266D01*
G37*
%TD.AperFunction*%
%TA.AperFunction,Conductor*%
G36*
X13376933Y-12486827D02*
G01*
X13382527Y-12491014D01*
X13384968Y-12497561D01*
X13385000Y-12498445D01*
X13385000Y-12509051D01*
X13387832Y-12526929D01*
X13393425Y-12544144D01*
X13393425Y-12544145D01*
X13401643Y-12560273D01*
X13402791Y-12561853D01*
X13402791Y-12561853D01*
X13460000Y-12504645D01*
X13460000Y-12505266D01*
X13462726Y-12515439D01*
X13467992Y-12524561D01*
X13475439Y-12532008D01*
X13484561Y-12537274D01*
X13494734Y-12540000D01*
X13495355Y-12540000D01*
X13438146Y-12597209D01*
X13438290Y-12599027D01*
X13438290Y-12600973D01*
X13438146Y-12602791D01*
X13495355Y-12660000D01*
X13494734Y-12660000D01*
X13484561Y-12662726D01*
X13475439Y-12667992D01*
X13467992Y-12675439D01*
X13462726Y-12684561D01*
X13460000Y-12694734D01*
X13460000Y-12695355D01*
X13402791Y-12638147D01*
X13402791Y-12638147D01*
X13401643Y-12639727D01*
X13393425Y-12655855D01*
X13393425Y-12655855D01*
X13387832Y-12673071D01*
X13385000Y-12690949D01*
X13385000Y-12709051D01*
X13387832Y-12726929D01*
X13393425Y-12744144D01*
X13393425Y-12744145D01*
X13401643Y-12760273D01*
X13402791Y-12761853D01*
X13402791Y-12761853D01*
X13460000Y-12704645D01*
X13460000Y-12705266D01*
X13462726Y-12715439D01*
X13467992Y-12724561D01*
X13475439Y-12732008D01*
X13484561Y-12737274D01*
X13494734Y-12740000D01*
X13495355Y-12740000D01*
X13438146Y-12797209D01*
X13438290Y-12799027D01*
X13438290Y-12800973D01*
X13438146Y-12802791D01*
X13495355Y-12860000D01*
X13494734Y-12860000D01*
X13484561Y-12862726D01*
X13475439Y-12867992D01*
X13467992Y-12875439D01*
X13462726Y-12884561D01*
X13460000Y-12894734D01*
X13460000Y-12895355D01*
X13402791Y-12838147D01*
X13402791Y-12838147D01*
X13401643Y-12839727D01*
X13393425Y-12855855D01*
X13393425Y-12855855D01*
X13390589Y-12864583D01*
X13386646Y-12870350D01*
X13380210Y-12873070D01*
X13373325Y-12871879D01*
X13370028Y-12869519D01*
X13185777Y-12685268D01*
X13182429Y-12679136D01*
X13182927Y-12672166D01*
X13185777Y-12667732D01*
X13363832Y-12489677D01*
X13369964Y-12486329D01*
X13376933Y-12486827D01*
G37*
%TD.AperFunction*%
%TA.AperFunction,Conductor*%
G36*
X13660000Y-12705266D02*
G01*
X13662726Y-12715439D01*
X13667992Y-12724561D01*
X13675439Y-12732008D01*
X13684561Y-12737274D01*
X13694734Y-12740000D01*
X13695355Y-12740000D01*
X13638146Y-12797209D01*
X13638290Y-12799027D01*
X13638290Y-12800973D01*
X13638146Y-12802791D01*
X13695355Y-12860000D01*
X13694734Y-12860000D01*
X13684561Y-12862726D01*
X13675439Y-12867992D01*
X13667992Y-12875439D01*
X13662726Y-12884561D01*
X13660000Y-12894734D01*
X13660000Y-12895355D01*
X13602791Y-12838146D01*
X13600973Y-12838290D01*
X13599027Y-12838290D01*
X13597209Y-12838146D01*
X13540000Y-12895355D01*
X13540000Y-12894734D01*
X13537274Y-12884561D01*
X13532008Y-12875439D01*
X13524561Y-12867992D01*
X13515439Y-12862726D01*
X13505266Y-12860000D01*
X13504645Y-12860000D01*
X13561853Y-12802791D01*
X13561710Y-12800973D01*
X13561710Y-12799027D01*
X13561853Y-12797208D01*
X13504645Y-12740000D01*
X13505266Y-12740000D01*
X13515439Y-12737274D01*
X13524561Y-12732008D01*
X13532008Y-12724561D01*
X13537274Y-12715439D01*
X13540000Y-12705266D01*
X13540000Y-12704645D01*
X13597208Y-12761853D01*
X13599027Y-12761710D01*
X13600973Y-12761710D01*
X13602791Y-12761853D01*
X13660000Y-12704645D01*
X13660000Y-12705266D01*
G37*
%TD.AperFunction*%
%TA.AperFunction,Conductor*%
G36*
X13860000Y-12705266D02*
G01*
X13862726Y-12715439D01*
X13867992Y-12724561D01*
X13875439Y-12732008D01*
X13884561Y-12737274D01*
X13894734Y-12740000D01*
X13895355Y-12740000D01*
X13838146Y-12797209D01*
X13838290Y-12799027D01*
X13838290Y-12800973D01*
X13838146Y-12802791D01*
X13895355Y-12860000D01*
X13894734Y-12860000D01*
X13884561Y-12862726D01*
X13875439Y-12867992D01*
X13867992Y-12875439D01*
X13862726Y-12884561D01*
X13860000Y-12894734D01*
X13860000Y-12895355D01*
X13802791Y-12838146D01*
X13800973Y-12838290D01*
X13799027Y-12838290D01*
X13797209Y-12838146D01*
X13740000Y-12895355D01*
X13740000Y-12894734D01*
X13737274Y-12884561D01*
X13732008Y-12875439D01*
X13724561Y-12867992D01*
X13715439Y-12862726D01*
X13705266Y-12860000D01*
X13704645Y-12860000D01*
X13761853Y-12802791D01*
X13761710Y-12800973D01*
X13761710Y-12799027D01*
X13761853Y-12797208D01*
X13704645Y-12740000D01*
X13705266Y-12740000D01*
X13715439Y-12737274D01*
X13724561Y-12732008D01*
X13732008Y-12724561D01*
X13737274Y-12715439D01*
X13740000Y-12705266D01*
X13740000Y-12704645D01*
X13797208Y-12761853D01*
X13799027Y-12761710D01*
X13800973Y-12761710D01*
X13802791Y-12761853D01*
X13860000Y-12704645D01*
X13860000Y-12705266D01*
G37*
%TD.AperFunction*%
%TA.AperFunction,Conductor*%
G36*
X13660000Y-12505266D02*
G01*
X13662726Y-12515439D01*
X13667992Y-12524561D01*
X13675439Y-12532008D01*
X13684561Y-12537274D01*
X13694734Y-12540000D01*
X13695355Y-12540000D01*
X13638146Y-12597209D01*
X13638290Y-12599027D01*
X13638290Y-12600973D01*
X13638146Y-12602791D01*
X13695355Y-12660000D01*
X13694734Y-12660000D01*
X13684561Y-12662726D01*
X13675439Y-12667992D01*
X13667992Y-12675439D01*
X13662726Y-12684561D01*
X13660000Y-12694734D01*
X13660000Y-12695355D01*
X13602791Y-12638146D01*
X13600973Y-12638290D01*
X13599027Y-12638290D01*
X13597209Y-12638146D01*
X13540000Y-12695355D01*
X13540000Y-12694734D01*
X13537274Y-12684561D01*
X13532008Y-12675439D01*
X13524561Y-12667992D01*
X13515439Y-12662726D01*
X13505266Y-12660000D01*
X13504645Y-12660000D01*
X13561853Y-12602791D01*
X13561710Y-12600973D01*
X13561710Y-12599027D01*
X13561853Y-12597208D01*
X13504645Y-12540000D01*
X13505266Y-12540000D01*
X13515439Y-12537274D01*
X13524561Y-12532008D01*
X13532008Y-12524561D01*
X13537274Y-12515439D01*
X13540000Y-12505266D01*
X13540000Y-12504645D01*
X13597208Y-12561853D01*
X13599027Y-12561710D01*
X13600973Y-12561710D01*
X13602791Y-12561853D01*
X13660000Y-12504645D01*
X13660000Y-12505266D01*
G37*
%TD.AperFunction*%
%TA.AperFunction,Conductor*%
G36*
X13860000Y-12505266D02*
G01*
X13862726Y-12515439D01*
X13867992Y-12524561D01*
X13875439Y-12532008D01*
X13884561Y-12537274D01*
X13894734Y-12540000D01*
X13895355Y-12540000D01*
X13838146Y-12597209D01*
X13838290Y-12599027D01*
X13838290Y-12600973D01*
X13838146Y-12602791D01*
X13895355Y-12660000D01*
X13894734Y-12660000D01*
X13884561Y-12662726D01*
X13875439Y-12667992D01*
X13867992Y-12675439D01*
X13862726Y-12684561D01*
X13860000Y-12694734D01*
X13860000Y-12695355D01*
X13802791Y-12638146D01*
X13800973Y-12638290D01*
X13799027Y-12638290D01*
X13797209Y-12638146D01*
X13740000Y-12695355D01*
X13740000Y-12694734D01*
X13737274Y-12684561D01*
X13732008Y-12675439D01*
X13724561Y-12667992D01*
X13715439Y-12662726D01*
X13705266Y-12660000D01*
X13704645Y-12660000D01*
X13761853Y-12602791D01*
X13761710Y-12600973D01*
X13761710Y-12599027D01*
X13761853Y-12597208D01*
X13704645Y-12540000D01*
X13705266Y-12540000D01*
X13715439Y-12537274D01*
X13724561Y-12532008D01*
X13732008Y-12524561D01*
X13737274Y-12515439D01*
X13740000Y-12505266D01*
X13740000Y-12504645D01*
X13797208Y-12561853D01*
X13799027Y-12561710D01*
X13800973Y-12561710D01*
X13802791Y-12561853D01*
X13860000Y-12504645D01*
X13860000Y-12505266D01*
G37*
%TD.AperFunction*%
%TA.AperFunction,Conductor*%
G36*
X16260000Y-11805266D02*
G01*
X16262726Y-11815439D01*
X16267992Y-11824561D01*
X16275439Y-11832008D01*
X16284561Y-11837274D01*
X16294734Y-11840000D01*
X16295355Y-11840000D01*
X16238146Y-11897209D01*
X16238290Y-11899027D01*
X16238290Y-11900973D01*
X16238146Y-11902791D01*
X16295355Y-11960000D01*
X16294734Y-11960000D01*
X16284561Y-11962726D01*
X16275439Y-11967992D01*
X16267992Y-11975439D01*
X16262726Y-11984561D01*
X16260000Y-11994734D01*
X16260000Y-11995355D01*
X16202791Y-11938146D01*
X16200973Y-11938290D01*
X16199027Y-11938290D01*
X16197209Y-11938146D01*
X16140000Y-11995355D01*
X16140000Y-11994734D01*
X16137274Y-11984561D01*
X16132008Y-11975439D01*
X16124561Y-11967992D01*
X16115439Y-11962726D01*
X16105266Y-11960000D01*
X16104645Y-11960000D01*
X16161853Y-11902791D01*
X16161710Y-11900973D01*
X16161710Y-11899027D01*
X16161853Y-11897208D01*
X16104645Y-11840000D01*
X16105266Y-11840000D01*
X16115439Y-11837274D01*
X16124561Y-11832008D01*
X16132008Y-11824561D01*
X16137274Y-11815439D01*
X16140000Y-11805266D01*
X16140000Y-11804645D01*
X16197208Y-11861853D01*
X16199027Y-11861710D01*
X16200973Y-11861710D01*
X16202791Y-11861853D01*
X16260000Y-11804645D01*
X16260000Y-11805266D01*
G37*
%TD.AperFunction*%
%TA.AperFunction,Conductor*%
G36*
X16256786Y-11672018D02*
G01*
X16261361Y-11677299D01*
X16262356Y-11684215D01*
X16259453Y-11690570D01*
X16255712Y-11693498D01*
X16239727Y-11701643D01*
X16238147Y-11702791D01*
X16238147Y-11702791D01*
X16295355Y-11760000D01*
X16294734Y-11760000D01*
X16284561Y-11762726D01*
X16275439Y-11767992D01*
X16267992Y-11775439D01*
X16262726Y-11784561D01*
X16260000Y-11794734D01*
X16260000Y-11795355D01*
X16202791Y-11738146D01*
X16200973Y-11738290D01*
X16199027Y-11738290D01*
X16197209Y-11738146D01*
X16140000Y-11795355D01*
X16140000Y-11794734D01*
X16137274Y-11784561D01*
X16132008Y-11775439D01*
X16124561Y-11767992D01*
X16115439Y-11762726D01*
X16105266Y-11760000D01*
X16104645Y-11760000D01*
X16161853Y-11702791D01*
X16160273Y-11701643D01*
X16144288Y-11693498D01*
X16139209Y-11688701D01*
X16137529Y-11681919D01*
X16139783Y-11675305D01*
X16145255Y-11670960D01*
X16149918Y-11670050D01*
X16250082Y-11670050D01*
X16256786Y-11672018D01*
G37*
%TD.AperFunction*%
%TD*%
%TA.AperFunction,Conductor*%
%TO.N,/CHIP_PU*%
G36*
X14816000Y-11749520D02*
G01*
X14834000Y-11749520D01*
X14849520Y-11704877D01*
X14825000Y-11699900D01*
X14800480Y-11704877D01*
X14816000Y-11749520D01*
G37*
%TD.AperFunction*%
%TD*%
%TA.AperFunction,Conductor*%
%TO.N,/CHIP_PU*%
G36*
X15543311Y-12572083D02*
G01*
X15530583Y-12584811D01*
X15572633Y-12714083D01*
X15656071Y-12697571D01*
X15672583Y-12614133D01*
X15543311Y-12572083D01*
G37*
%TD.AperFunction*%
%TD*%
%TA.AperFunction,Conductor*%
%TO.N,/GPIO0*%
G36*
X17966652Y-14384380D02*
G01*
X17979380Y-14371652D01*
X17958787Y-14329111D01*
X17937929Y-14342929D01*
X17924111Y-14363787D01*
X17966652Y-14384380D01*
G37*
%TD.AperFunction*%
%TD*%
%TA.AperFunction,Conductor*%
%TO.N,VCC*%
G36*
X14631000Y-12515138D02*
G01*
X14649000Y-12515138D01*
X14665520Y-12470496D01*
X14641000Y-12465518D01*
X14616480Y-12470496D01*
X14631000Y-12515138D01*
G37*
%TD.AperFunction*%
%TD*%
%TA.AperFunction,Conductor*%
%TO.N,/GPIO17*%
G36*
X14225480Y-13414000D02*
G01*
X14225480Y-13432000D01*
X14270123Y-13448520D01*
X14275100Y-13424000D01*
X14270123Y-13399480D01*
X14225480Y-13414000D01*
G37*
%TD.AperFunction*%
%TD*%
%TA.AperFunction,Conductor*%
%TO.N,/GPIO0*%
G36*
X12958520Y-12688000D02*
G01*
X12958520Y-12670000D01*
X12913877Y-12654480D01*
X12908900Y-12679000D01*
X12913877Y-12703520D01*
X12958520Y-12688000D01*
G37*
%TD.AperFunction*%
%TD*%
%TA.AperFunction,Conductor*%
%TO.N,VCC*%
G36*
X14649000Y-12527500D02*
G01*
X14631000Y-12527500D01*
X14555000Y-12612500D01*
X14640000Y-12697600D01*
X14725000Y-12612500D01*
X14649000Y-12527500D01*
G37*
%TD.AperFunction*%
%TD*%
%TA.AperFunction,Conductor*%
%TO.N,/CHIP_PU*%
G36*
X14910000Y-14246640D02*
G01*
X14940000Y-14246640D01*
X14956520Y-14202877D01*
X14932000Y-14197900D01*
X14907480Y-14202877D01*
X14910000Y-14246640D01*
G37*
%TD.AperFunction*%
%TD*%
%TA.AperFunction,Conductor*%
%TO.N,/GPIO16*%
G36*
X13743520Y-13343000D02*
G01*
X13743520Y-13325000D01*
X13698877Y-13309480D01*
X13693900Y-13334000D01*
X13698877Y-13358520D01*
X13743520Y-13343000D01*
G37*
%TD.AperFunction*%
%TD*%
%TA.AperFunction,Conductor*%
%TO.N,/GPIO7*%
G36*
X13160320Y-13193500D02*
G01*
X13160320Y-13180500D01*
X13115677Y-13162480D01*
X13110700Y-13187000D01*
X13115677Y-13211520D01*
X13160320Y-13193500D01*
G37*
%TD.AperFunction*%
%TD*%
%TA.AperFunction,Conductor*%
%TO.N,/GPIO10*%
G36*
X13071188Y-13313419D02*
G01*
X13080381Y-13322612D01*
X13124689Y-13303787D01*
X13110871Y-13282929D01*
X13090013Y-13269111D01*
X13071188Y-13313419D01*
G37*
%TD.AperFunction*%
%TD*%
%TA.AperFunction,Conductor*%
%TO.N,/GPIO5*%
G36*
X13256000Y-13701980D02*
G01*
X13238000Y-13701980D01*
X13222480Y-13746623D01*
X13247000Y-13751600D01*
X13271520Y-13746623D01*
X13256000Y-13701980D01*
G37*
%TD.AperFunction*%
%TD*%
%TA.AperFunction,Conductor*%
%TO.N,/GPIO13*%
G36*
X13185543Y-15276351D02*
G01*
X13176351Y-15285543D01*
X13216633Y-15416583D01*
X13300071Y-15400071D01*
X13316583Y-15316633D01*
X13185543Y-15276351D01*
G37*
%TD.AperFunction*%
%TD*%
%TA.AperFunction,Conductor*%
%TO.N,/SPIWP*%
G36*
X14433000Y-13076480D02*
G01*
X14415000Y-13076480D01*
X14399480Y-13121123D01*
X14424000Y-13126100D01*
X14448520Y-13121123D01*
X14433000Y-13076480D01*
G37*
%TD.AperFunction*%
%TD*%
%TA.AperFunction,Conductor*%
%TO.N,/GPIO13*%
G36*
X13228480Y-13411184D02*
G01*
X13228480Y-13424184D01*
X13273123Y-13442203D01*
X13278100Y-13417684D01*
X13273123Y-13393164D01*
X13228480Y-13411184D01*
G37*
%TD.AperFunction*%
%TD*%
%TA.AperFunction,Conductor*%
%TO.N,/~{DTR}*%
G36*
X15538480Y-12090000D02*
G01*
X15538480Y-12108000D01*
X15583123Y-12123520D01*
X15588100Y-12099000D01*
X15583123Y-12074480D01*
X15538480Y-12090000D01*
G37*
%TD.AperFunction*%
%TD*%
%TA.AperFunction,Conductor*%
%TO.N,/U0TXD*%
G36*
X15707324Y-11891000D02*
G01*
X15707324Y-11909000D01*
X15755377Y-11908020D01*
X15750600Y-11883500D01*
X15736611Y-11862713D01*
X15707324Y-11891000D01*
G37*
%TD.AperFunction*%
%TD*%
%TA.AperFunction,Conductor*%
%TO.N,/GPIO18*%
G36*
X13773520Y-13528000D02*
G01*
X13773520Y-13510000D01*
X13728877Y-13494480D01*
X13723900Y-13519000D01*
X13728877Y-13543520D01*
X13773520Y-13528000D01*
G37*
%TD.AperFunction*%
%TD*%
%TA.AperFunction,Conductor*%
%TO.N,VCC*%
G36*
X14600000Y-12867500D02*
G01*
X14680000Y-12867500D01*
X14725000Y-12782500D01*
X14640000Y-12697400D01*
X14555000Y-12782500D01*
X14600000Y-12867500D01*
G37*
%TD.AperFunction*%
%TD*%
%TA.AperFunction,Conductor*%
%TO.N,/GPIO0*%
G36*
X15858699Y-14921427D02*
G01*
X15871427Y-14908699D01*
X15823078Y-14755491D01*
X15724929Y-14774929D01*
X15705491Y-14873078D01*
X15858699Y-14921427D01*
G37*
%TD.AperFunction*%
%TD*%
%TA.AperFunction,Conductor*%
%TO.N,/CHIP_PU*%
G36*
X15647000Y-12865867D02*
G01*
X15665000Y-12865867D01*
X15726675Y-12744723D01*
X15656000Y-12697400D01*
X15585325Y-12744723D01*
X15647000Y-12865867D01*
G37*
%TD.AperFunction*%
%TD*%
%TA.AperFunction,Conductor*%
%TO.N,/CHIP_PU*%
G36*
X14940000Y-14576921D02*
G01*
X14910000Y-14576921D01*
X14841853Y-14719443D01*
X14925000Y-14775100D01*
X15008147Y-14719443D01*
X14940000Y-14576921D01*
G37*
%TD.AperFunction*%
%TD*%
%TA.AperFunction,Conductor*%
%TO.N,/SPIQ*%
G36*
X14443768Y-12853496D02*
G01*
X14456496Y-12840768D01*
X14435903Y-12798227D01*
X14415045Y-12812045D01*
X14401227Y-12832903D01*
X14443768Y-12853496D01*
G37*
%TD.AperFunction*%
%TD*%
%TA.AperFunction,Conductor*%
%TO.N,/GPIO12*%
G36*
X13372965Y-13411842D02*
G01*
X13382158Y-13421035D01*
X13405787Y-13383889D01*
X13385071Y-13369929D01*
X13360480Y-13374877D01*
X13372965Y-13411842D01*
G37*
%TD.AperFunction*%
%TD*%
%TA.AperFunction,Conductor*%
%TO.N,/SPIQ*%
G36*
X14488900Y-13163424D02*
G01*
X14470900Y-13163424D01*
X14472480Y-13210877D01*
X14497000Y-13206100D01*
X14510889Y-13185213D01*
X14488900Y-13163424D01*
G37*
%TD.AperFunction*%
%TD*%
%TA.AperFunction,Conductor*%
%TO.N,/CHIP_PU*%
G36*
X14910000Y-14973078D02*
G01*
X14940000Y-14973078D01*
X15008147Y-14830557D01*
X14925000Y-14774900D01*
X14841853Y-14830557D01*
X14910000Y-14973078D01*
G37*
%TD.AperFunction*%
%TD*%
%TA.AperFunction,Conductor*%
%TO.N,/GPIO12*%
G36*
X13439543Y-15276351D02*
G01*
X13430351Y-15285543D01*
X13470633Y-15416583D01*
X13554071Y-15400071D01*
X13570583Y-15316633D01*
X13439543Y-15276351D01*
G37*
%TD.AperFunction*%
%TD*%
%TA.AperFunction,Conductor*%
%TO.N,/SPICS0*%
G36*
X14525000Y-13026520D02*
G01*
X14543000Y-13026520D01*
X14558520Y-12981877D01*
X14534000Y-12976900D01*
X14509480Y-12981877D01*
X14525000Y-13026520D01*
G37*
%TD.AperFunction*%
%TD*%
%TA.AperFunction,Conductor*%
%TO.N,/MTMS*%
G36*
X14903000Y-12529133D02*
G01*
X14885000Y-12529133D01*
X14823325Y-12650276D01*
X14894000Y-12697600D01*
X14964675Y-12650276D01*
X14903000Y-12529133D01*
G37*
%TD.AperFunction*%
%TD*%
%TA.AperFunction,Conductor*%
%TO.N,/SPIWP*%
G36*
X14415000Y-13027736D02*
G01*
X14433000Y-13027736D01*
X14448520Y-12983093D01*
X14424000Y-12978116D01*
X14399480Y-12983093D01*
X14415000Y-13027736D01*
G37*
%TD.AperFunction*%
%TD*%
%TA.AperFunction,Conductor*%
%TO.N,/GPIO0*%
G36*
X14793480Y-12087000D02*
G01*
X14793480Y-12105000D01*
X14838123Y-12120520D01*
X14843100Y-12096000D01*
X14838123Y-12071480D01*
X14793480Y-12087000D01*
G37*
%TD.AperFunction*%
%TD*%
%TA.AperFunction,Conductor*%
%TO.N,/GPIO8*%
G36*
X12915649Y-15285543D02*
G01*
X12906457Y-15276351D01*
X12775417Y-15316633D01*
X12791929Y-15400071D01*
X12875367Y-15416583D01*
X12915649Y-15285543D01*
G37*
%TD.AperFunction*%
%TD*%
%TA.AperFunction,Conductor*%
%TO.N,/MTMS*%
G36*
X14885000Y-12482520D02*
G01*
X14903000Y-12482520D01*
X14918520Y-12437877D01*
X14894000Y-12432900D01*
X14869480Y-12437877D01*
X14885000Y-12482520D01*
G37*
%TD.AperFunction*%
%TD*%
%TA.AperFunction,Conductor*%
%TO.N,/GPIO10*%
G36*
X12661649Y-15285543D02*
G01*
X12652457Y-15276351D01*
X12521417Y-15316633D01*
X12537929Y-15400071D01*
X12621367Y-15416583D01*
X12661649Y-15285543D01*
G37*
%TD.AperFunction*%
%TD*%
%TA.AperFunction,Conductor*%
%TO.N,/CHIP_PU*%
G36*
X14158620Y-11879452D02*
G01*
X14171348Y-11892180D01*
X14213889Y-11871587D01*
X14200071Y-11850729D01*
X14179213Y-11836911D01*
X14158620Y-11879452D01*
G37*
%TD.AperFunction*%
%TD*%
%TA.AperFunction,Conductor*%
%TO.N,/GPIO4*%
G36*
X13201900Y-14051480D02*
G01*
X13183900Y-14051480D01*
X13171480Y-14096123D01*
X13196000Y-14101100D01*
X13216787Y-14087111D01*
X13201900Y-14051480D01*
G37*
%TD.AperFunction*%
%TD*%
%TA.AperFunction,Conductor*%
%TO.N,/GPIO5*%
G36*
X13238000Y-13693020D02*
G01*
X13256000Y-13693020D01*
X13271520Y-13648377D01*
X13247000Y-13643400D01*
X13222480Y-13648377D01*
X13238000Y-13693020D01*
G37*
%TD.AperFunction*%
%TD*%
%TA.AperFunction,Conductor*%
%TO.N,/GPIO0*%
G36*
X14354348Y-13370620D02*
G01*
X14341620Y-13383348D01*
X14362213Y-13425889D01*
X14383071Y-13412071D01*
X14396889Y-13391213D01*
X14354348Y-13370620D01*
G37*
%TD.AperFunction*%
%TD*%
%TA.AperFunction,Conductor*%
%TO.N,/CHIP_PU*%
G36*
X12976398Y-12613000D02*
G01*
X12976398Y-12595000D01*
X12942889Y-12573213D01*
X12928900Y-12594000D01*
X12933877Y-12618520D01*
X12976398Y-12613000D01*
G37*
%TD.AperFunction*%
%TD*%
%TA.AperFunction,Conductor*%
%TO.N,/GPIO16*%
G36*
X14177480Y-13325000D02*
G01*
X14177480Y-13343000D01*
X14222123Y-13360520D01*
X14227100Y-13336000D01*
X14222123Y-13311480D01*
X14177480Y-13325000D01*
G37*
%TD.AperFunction*%
%TD*%
%TA.AperFunction,Conductor*%
%TO.N,/GPIO0*%
G36*
X12958520Y-12688000D02*
G01*
X12958520Y-12670000D01*
X12913877Y-12654480D01*
X12908900Y-12679000D01*
X12913877Y-12703520D01*
X12958520Y-12688000D01*
G37*
%TD.AperFunction*%
%TD*%
%TA.AperFunction,Conductor*%
%TO.N,/GPIO3*%
G36*
X13122400Y-13690520D02*
G01*
X13140400Y-13690520D01*
X13156520Y-13645877D01*
X13132000Y-13640900D01*
X13107480Y-13645877D01*
X13122400Y-13690520D01*
G37*
%TD.AperFunction*%
%TD*%
%TA.AperFunction,Conductor*%
%TO.N,/SPICS0*%
G36*
X14543000Y-13076480D02*
G01*
X14525000Y-13076480D01*
X14509480Y-13121123D01*
X14534000Y-13126100D01*
X14558520Y-13121123D01*
X14543000Y-13076480D01*
G37*
%TD.AperFunction*%
%TD*%
%TA.AperFunction,Conductor*%
%TO.N,/GPIO8*%
G36*
X13180207Y-13325601D02*
G01*
X13189399Y-13334793D01*
X13220889Y-13308787D01*
X13207071Y-13287929D01*
X13182480Y-13283123D01*
X13180207Y-13325601D01*
G37*
%TD.AperFunction*%
%TD*%
%TA.AperFunction,Conductor*%
%TO.N,/GPIO4*%
G36*
X13183900Y-13631520D02*
G01*
X13201900Y-13631520D01*
X13217520Y-13586877D01*
X13193000Y-13581900D01*
X13168480Y-13586877D01*
X13183900Y-13631520D01*
G37*
%TD.AperFunction*%
%TD*%
%TA.AperFunction,Conductor*%
%TO.N,/GPIO7*%
G36*
X12991700Y-15256817D02*
G01*
X12978700Y-15256817D01*
X12962633Y-15383417D01*
X13046000Y-15400100D01*
X13093223Y-15329325D01*
X12991700Y-15256817D01*
G37*
%TD.AperFunction*%
%TD*%
%TA.AperFunction,Conductor*%
%TO.N,/~{DTR}*%
G36*
X15437520Y-12108000D02*
G01*
X15437520Y-12090000D01*
X15392877Y-12074480D01*
X15387900Y-12099000D01*
X15392877Y-12123520D01*
X15437520Y-12108000D01*
G37*
%TD.AperFunction*%
%TD*%
%TA.AperFunction,Conductor*%
%TO.N,/CHIP_PU*%
G36*
X14940000Y-15226921D02*
G01*
X14910000Y-15226921D01*
X14841853Y-15369443D01*
X14925000Y-15425100D01*
X15008147Y-15369443D01*
X14940000Y-15226921D01*
G37*
%TD.AperFunction*%
%TD*%
%TA.AperFunction,Conductor*%
%TO.N,/GPIO17*%
G36*
X13755520Y-13432000D02*
G01*
X13755520Y-13414000D01*
X13710877Y-13398480D01*
X13705900Y-13423000D01*
X13710877Y-13447520D01*
X13755520Y-13432000D01*
G37*
%TD.AperFunction*%
%TD*%
%TA.AperFunction,Conductor*%
%TO.N,/U0TXD*%
G36*
X15060520Y-11909000D02*
G01*
X15060520Y-11891000D01*
X15015877Y-11875480D01*
X15010900Y-11900000D01*
X15015877Y-11924520D01*
X15060520Y-11909000D01*
G37*
%TD.AperFunction*%
%TD*%
%TA.AperFunction,Conductor*%
%TO.N,/GPIO18*%
G36*
X14290480Y-13510000D02*
G01*
X14290480Y-13528000D01*
X14335123Y-13543520D01*
X14340100Y-13519000D01*
X14335123Y-13494480D01*
X14290480Y-13510000D01*
G37*
%TD.AperFunction*%
%TD*%
%TA.AperFunction,Conductor*%
%TO.N,/GPIO3*%
G36*
X13140400Y-14000480D02*
G01*
X13122400Y-14000480D01*
X13106880Y-14045123D01*
X13131400Y-14050100D01*
X13155920Y-14045123D01*
X13140400Y-14000480D01*
G37*
%TD.AperFunction*%
%TD*%
%TA.AperFunction,Conductor*%
%TO.N,/CHIP_PU*%
G36*
X15772848Y-12991120D02*
G01*
X15760120Y-13003848D01*
X15780713Y-13046389D01*
X15801571Y-13032571D01*
X15815389Y-13011713D01*
X15772848Y-12991120D01*
G37*
%TD.AperFunction*%
%TD*%
D26*
X11700000Y-11200000D02*
X18500000Y-11200000D01*
X18500000Y-15600000D01*
X11700000Y-15600000D01*
X11700000Y-11200000D01*
M02*
