%TF.GenerationSoftware,KiCad,Pcbnew,9.0.1*%
%TF.CreationDate,2025-07-09T23:19:27+08:00*%
%TF.ProjectId,IMU,494d552e-6b69-4636-9164-5f7063625858,rev?*%
%TF.SameCoordinates,Original*%
%TF.FileFunction,Paste,Top*%
%TF.FilePolarity,Positive*%
%FSLAX45Y45*%
G04 Gerber Fmt 4.5, Leading zero omitted, Abs format (unit mm)*
G04 Created by KiCad (PCBNEW 9.0.1) date 2025-07-09 23:19:27*
%MOMM*%
%LPD*%
G01*
G04 APERTURE LIST*
G04 Aperture macros list*
%AMRoundRect*
0 Rectangle with rounded corners*
0 $1 Rounding radius*
0 $2 $3 $4 $5 $6 $7 $8 $9 X,Y pos of 4 corners*
0 Add a 4 corners polygon primitive as box body*
4,1,4,$2,$3,$4,$5,$6,$7,$8,$9,$2,$3,0*
0 Add four circle primitives for the rounded corners*
1,1,$1+$1,$2,$3*
1,1,$1+$1,$4,$5*
1,1,$1+$1,$6,$7*
1,1,$1+$1,$8,$9*
0 Add four rect primitives between the rounded corners*
20,1,$1+$1,$2,$3,$4,$5,0*
20,1,$1+$1,$4,$5,$6,$7,0*
20,1,$1+$1,$6,$7,$8,$9,0*
20,1,$1+$1,$8,$9,$2,$3,0*%
G04 Aperture macros list end*
%ADD10RoundRect,0.250000X0.250000X0.475000X-0.250000X0.475000X-0.250000X-0.475000X0.250000X-0.475000X0*%
%ADD11RoundRect,0.250000X0.475000X-0.250000X0.475000X0.250000X-0.475000X0.250000X-0.475000X-0.250000X0*%
%ADD12RoundRect,0.250000X-0.250000X-0.475000X0.250000X-0.475000X0.250000X0.475000X-0.250000X0.475000X0*%
%ADD13RoundRect,0.250000X0.450000X-0.262500X0.450000X0.262500X-0.450000X0.262500X-0.450000X-0.262500X0*%
%ADD14RoundRect,0.250000X-0.450000X0.262500X-0.450000X-0.262500X0.450000X-0.262500X0.450000X0.262500X0*%
%ADD15RoundRect,0.225000X0.250000X-0.225000X0.250000X0.225000X-0.250000X0.225000X-0.250000X-0.225000X0*%
%ADD16O,1.950000X0.300000*%
%ADD17O,0.300000X1.950000*%
%ADD18RoundRect,0.250000X-0.262500X-0.450000X0.262500X-0.450000X0.262500X0.450000X-0.262500X0.450000X0*%
%ADD19RoundRect,0.225000X0.225000X-0.225000X0.225000X0.225000X-0.225000X0.225000X-0.225000X-0.225000X0*%
%ADD20RoundRect,0.062500X0.062500X-0.837500X0.062500X0.837500X-0.062500X0.837500X-0.062500X-0.837500X0*%
%ADD21RoundRect,0.062500X0.837500X-0.062500X0.837500X0.062500X-0.837500X0.062500X-0.837500X-0.062500X0*%
%ADD22RoundRect,0.250000X0.262500X0.450000X-0.262500X0.450000X-0.262500X-0.450000X0.262500X-0.450000X0*%
%ADD23RoundRect,0.250000X1.000000X0.650000X-1.000000X0.650000X-1.000000X-0.650000X1.000000X-0.650000X0*%
%ADD24RoundRect,0.375000X0.375000X-0.625000X0.375000X0.625000X-0.375000X0.625000X-0.375000X-0.625000X0*%
%ADD25RoundRect,0.500000X1.400000X-0.500000X1.400000X0.500000X-1.400000X0.500000X-1.400000X-0.500000X0*%
%ADD26RoundRect,0.243750X-0.243750X-0.456250X0.243750X-0.456250X0.243750X0.456250X-0.243750X0.456250X0*%
%ADD27RoundRect,0.150000X0.500000X-0.150000X0.500000X0.150000X-0.500000X0.150000X-0.500000X-0.150000X0*%
%ADD28RoundRect,0.075000X0.575000X-0.075000X0.575000X0.075000X-0.575000X0.075000X-0.575000X-0.075000X0*%
%ADD29RoundRect,0.250000X0.625000X-0.312500X0.625000X0.312500X-0.625000X0.312500X-0.625000X-0.312500X0*%
%ADD30RoundRect,0.150000X0.587500X0.150000X-0.587500X0.150000X-0.587500X-0.150000X0.587500X-0.150000X0*%
%ADD31RoundRect,0.250000X-0.315000X-0.315000X0.315000X-0.315000X0.315000X0.315000X-0.315000X0.315000X0*%
%ADD32RoundRect,0.050000X-1.137500X-0.050000X1.137500X-0.050000X1.137500X0.050000X-1.137500X0.050000X0*%
%ADD33RoundRect,0.050000X-0.050000X-1.137500X0.050000X-1.137500X0.050000X1.137500X-0.050000X1.137500X0*%
%ADD34R,1.000000X1.000000*%
%ADD35RoundRect,0.250000X-0.450000X-0.350000X0.450000X-0.350000X0.450000X0.350000X-0.450000X0.350000X0*%
%ADD36RoundRect,0.250000X-0.435000X-0.615000X0.435000X-0.615000X0.435000X0.615000X-0.435000X0.615000X0*%
%ADD37RoundRect,0.125000X-0.950000X-0.125000X0.950000X-0.125000X0.950000X0.125000X-0.950000X0.125000X0*%
%ADD38RoundRect,0.250000X-0.335000X0.335000X-0.335000X-0.335000X0.335000X-0.335000X0.335000X0.335000X0*%
%ADD39RoundRect,0.062500X-0.062500X0.600000X-0.062500X-0.600000X0.062500X-0.600000X0.062500X0.600000X0*%
%ADD40RoundRect,0.062500X-0.600000X0.062500X-0.600000X-0.062500X0.600000X-0.062500X0.600000X0.062500X0*%
%ADD41RoundRect,0.225000X-0.250000X0.225000X-0.250000X-0.225000X0.250000X-0.225000X0.250000X0.225000X0*%
%TA.AperFunction,Profile*%
%ADD42C,0.050000*%
%TD*%
G04 APERTURE END LIST*
D10*
%TO.C,C22*%
X16695000Y-14100000D03*
X16505000Y-14100000D03*
%TD*%
D11*
%TO.C,C28*%
X12700000Y-11695000D03*
X12700000Y-11505000D03*
%TD*%
D12*
%TO.C,C24*%
X13905000Y-13600000D03*
X14095000Y-13600000D03*
%TD*%
D13*
%TO.C,R8*%
X15400000Y-11991250D03*
X15400000Y-11808750D03*
%TD*%
D14*
%TO.C,R9*%
X15600000Y-11808750D03*
X15600000Y-11991250D03*
%TD*%
D15*
%TO.C,C10*%
X13675000Y-11677500D03*
X13675000Y-11522500D03*
%TD*%
D16*
%TO.C,U1*%
X13197500Y-13825000D03*
X13197500Y-13875000D03*
X13197500Y-13925000D03*
X13197500Y-13975000D03*
D17*
X13325000Y-14102500D03*
X13375000Y-14102500D03*
X13425000Y-14102500D03*
X13475000Y-14102500D03*
D16*
X13602500Y-13975000D03*
X13602500Y-13925000D03*
X13602500Y-13875000D03*
X13602500Y-13825000D03*
D17*
X13475000Y-13697500D03*
X13425000Y-13697500D03*
X13375000Y-13697500D03*
X13325000Y-13697500D03*
%TD*%
D10*
%TO.C,C23*%
X16295000Y-14100000D03*
X16105000Y-14100000D03*
%TD*%
D18*
%TO.C,R15*%
X14708750Y-11900000D03*
X14891250Y-11900000D03*
%TD*%
D19*
%TO.C,U5*%
X16088000Y-12012000D03*
X16200000Y-12012000D03*
X16312000Y-12012000D03*
X16088000Y-11900000D03*
X16200000Y-11900000D03*
X16312000Y-11900000D03*
X16088000Y-11788000D03*
X16200000Y-11788000D03*
X16312000Y-11788000D03*
D20*
X16050000Y-12195000D03*
X16100000Y-12195000D03*
X16150000Y-12195000D03*
X16200000Y-12195000D03*
X16250000Y-12195000D03*
X16300000Y-12195000D03*
X16350000Y-12195000D03*
D21*
X16495000Y-12050000D03*
X16495000Y-12000000D03*
X16495000Y-11950000D03*
X16495000Y-11900000D03*
X16495000Y-11850000D03*
X16495000Y-11800000D03*
X16495000Y-11750000D03*
D20*
X16350000Y-11605000D03*
X16300000Y-11605000D03*
X16250000Y-11605000D03*
X16200000Y-11605000D03*
X16150000Y-11605000D03*
X16100000Y-11605000D03*
X16050000Y-11605000D03*
D21*
X15905000Y-11750000D03*
X15905000Y-11800000D03*
X15905000Y-11850000D03*
X15905000Y-11900000D03*
X15905000Y-11950000D03*
X15905000Y-12000000D03*
X15905000Y-12050000D03*
%TD*%
D22*
%TO.C,R3*%
X14091250Y-14700000D03*
X13908750Y-14700000D03*
%TD*%
D10*
%TO.C,C20*%
X12795000Y-12600000D03*
X12605000Y-12600000D03*
%TD*%
D23*
%TO.C,D1*%
X18100000Y-12400000D03*
X17700000Y-12400000D03*
%TD*%
D10*
%TO.C,C6*%
X14095000Y-14200000D03*
X13905000Y-14200000D03*
%TD*%
%TO.C,C34*%
X14595000Y-14500000D03*
X14405000Y-14500000D03*
%TD*%
D12*
%TO.C,C8*%
X12605000Y-14700000D03*
X12795000Y-14700000D03*
%TD*%
%TO.C,C3*%
X13905000Y-14000000D03*
X14095000Y-14000000D03*
%TD*%
D10*
%TO.C,C31*%
X17995000Y-14500000D03*
X17805000Y-14500000D03*
%TD*%
D12*
%TO.C,C32*%
X17705000Y-12100000D03*
X17895000Y-12100000D03*
%TD*%
D10*
%TO.C,C18*%
X12795000Y-13500000D03*
X12605000Y-13500000D03*
%TD*%
D11*
%TO.C,C21*%
X13300000Y-11695000D03*
X13300000Y-11505000D03*
%TD*%
D10*
%TO.C,C4*%
X12795000Y-14300000D03*
X12605000Y-14300000D03*
%TD*%
%TO.C,C17*%
X12795000Y-13700000D03*
X12605000Y-13700000D03*
%TD*%
D24*
%TO.C,U4*%
X16170000Y-13815000D03*
X16400000Y-13815000D03*
D25*
X16400000Y-13185000D03*
D24*
X16630000Y-13815000D03*
%TD*%
D18*
%TO.C,R1*%
X17608750Y-13900000D03*
X17791250Y-13900000D03*
%TD*%
D26*
%TO.C,LED1*%
X17606250Y-14100000D03*
X17793750Y-14100000D03*
%TD*%
D18*
%TO.C,R4*%
X12608750Y-13900000D03*
X12791250Y-13900000D03*
%TD*%
D10*
%TO.C,C35*%
X15595000Y-13300000D03*
X15405000Y-13300000D03*
%TD*%
D22*
%TO.C,R14*%
X17091250Y-11600000D03*
X16908750Y-11600000D03*
%TD*%
D27*
%TO.C,J1*%
X17625500Y-13520000D03*
X17625500Y-13440000D03*
D28*
X17625500Y-13325000D03*
X17625500Y-13225000D03*
X17625500Y-13175000D03*
X17625500Y-13075000D03*
D27*
X17625500Y-12960000D03*
X17625500Y-12880000D03*
X17625500Y-12880000D03*
X17625500Y-12960000D03*
D28*
X17625500Y-13025000D03*
X17625500Y-13125000D03*
X17625500Y-13275000D03*
X17625500Y-13375000D03*
D27*
X17625500Y-13440000D03*
X17625500Y-13520000D03*
%TD*%
D11*
%TO.C,C26*%
X12900000Y-11695000D03*
X12900000Y-11505000D03*
%TD*%
D29*
%TO.C,L3*%
X12650000Y-13096250D03*
X12650000Y-12803750D03*
%TD*%
D18*
%TO.C,R6*%
X18008750Y-13900000D03*
X18191250Y-13900000D03*
%TD*%
D12*
%TO.C,C25*%
X13905000Y-13400000D03*
X14095000Y-13400000D03*
%TD*%
D30*
%TO.C,Q2*%
X15193750Y-12195000D03*
X15193750Y-12005000D03*
X15006250Y-12100000D03*
%TD*%
D18*
%TO.C,R7*%
X18008750Y-14100000D03*
X18191250Y-14100000D03*
%TD*%
D31*
%TO.C,U6*%
X13490000Y-12490000D03*
X13490000Y-12630000D03*
X13490000Y-12770000D03*
X13490000Y-12910000D03*
X13630000Y-12490000D03*
X13630000Y-12630000D03*
X13630000Y-12770000D03*
X13630000Y-12910000D03*
X13770000Y-12490000D03*
X13770000Y-12630000D03*
X13770000Y-12770000D03*
X13770000Y-12910000D03*
X13910000Y-12490000D03*
X13910000Y-12630000D03*
X13910000Y-12770000D03*
X13910000Y-12910000D03*
D32*
X13281250Y-12440000D03*
X13281250Y-12480000D03*
X13281250Y-12520000D03*
X13281250Y-12560000D03*
X13281250Y-12600000D03*
X13281250Y-12640000D03*
X13281250Y-12680000D03*
X13281250Y-12720000D03*
X13281250Y-12760000D03*
X13281250Y-12800000D03*
X13281250Y-12840000D03*
X13281250Y-12880000D03*
X13281250Y-12920000D03*
X13281250Y-12960000D03*
D33*
X13440000Y-13118750D03*
X13480000Y-13118750D03*
X13520000Y-13118750D03*
X13560000Y-13118750D03*
X13600000Y-13118750D03*
X13640000Y-13118750D03*
X13680000Y-13118750D03*
X13720000Y-13118750D03*
X13760000Y-13118750D03*
X13800000Y-13118750D03*
X13840000Y-13118750D03*
X13880000Y-13118750D03*
X13920000Y-13118750D03*
X13960000Y-13118750D03*
D32*
X14118750Y-12960000D03*
X14118750Y-12920000D03*
X14118750Y-12880000D03*
X14118750Y-12840000D03*
X14118750Y-12800000D03*
X14118750Y-12760000D03*
X14118750Y-12720000D03*
X14118750Y-12680000D03*
X14118750Y-12640000D03*
X14118750Y-12600000D03*
X14118750Y-12560000D03*
X14118750Y-12520000D03*
X14118750Y-12480000D03*
X14118750Y-12440000D03*
D33*
X13960000Y-12281250D03*
X13920000Y-12281250D03*
X13880000Y-12281250D03*
X13840000Y-12281250D03*
X13800000Y-12281250D03*
X13760000Y-12281250D03*
X13720000Y-12281250D03*
X13680000Y-12281250D03*
X13640000Y-12281250D03*
X13600000Y-12281250D03*
X13560000Y-12281250D03*
X13520000Y-12281250D03*
X13480000Y-12281250D03*
X13440000Y-12281250D03*
%TD*%
D18*
%TO.C,R10*%
X14808750Y-13300000D03*
X14991250Y-13300000D03*
%TD*%
D10*
%TO.C,C1*%
X12795000Y-14500000D03*
X12605000Y-14500000D03*
%TD*%
D34*
%TO.C,L1*%
X13500000Y-11685000D03*
X13500000Y-11515000D03*
%TD*%
D35*
%TO.C,X1*%
X13890000Y-11685000D03*
X14110000Y-11685000D03*
X14110000Y-11515000D03*
X13890000Y-11515000D03*
%TD*%
D12*
%TO.C,C16*%
X13905000Y-13800000D03*
X14095000Y-13800000D03*
%TD*%
D36*
%TO.C,U3*%
X15115000Y-13692500D03*
X15115000Y-13907500D03*
X15285000Y-13692500D03*
X15285000Y-13907500D03*
D37*
X14825000Y-13609500D03*
X14825000Y-13736500D03*
X14825000Y-13863500D03*
X14825000Y-13990500D03*
X15575000Y-13990500D03*
X15575000Y-13863500D03*
X15575000Y-13736500D03*
X15575000Y-13609500D03*
%TD*%
D10*
%TO.C,C2*%
X12795000Y-14900000D03*
X12605000Y-14900000D03*
%TD*%
D38*
%TO.C,U2*%
X13467500Y-14732500D03*
X13332500Y-14732500D03*
X13467500Y-14867500D03*
X13332500Y-14867500D03*
D39*
X13525000Y-14578750D03*
X13475000Y-14578750D03*
X13425000Y-14578750D03*
X13375000Y-14578750D03*
X13325000Y-14578750D03*
X13275000Y-14578750D03*
D40*
X13178750Y-14675000D03*
X13178750Y-14725000D03*
X13178750Y-14775000D03*
X13178750Y-14825000D03*
X13178750Y-14875000D03*
X13178750Y-14925000D03*
D39*
X13275000Y-15021250D03*
X13325000Y-15021250D03*
X13375000Y-15021250D03*
X13425000Y-15021250D03*
X13475000Y-15021250D03*
X13525000Y-15021250D03*
D40*
X13621250Y-14925000D03*
X13621250Y-14875000D03*
X13621250Y-14825000D03*
X13621250Y-14775000D03*
X13621250Y-14725000D03*
X13621250Y-14675000D03*
%TD*%
D22*
%TO.C,R2*%
X14091250Y-14900000D03*
X13908750Y-14900000D03*
%TD*%
D18*
%TO.C,R12*%
X16908750Y-12200000D03*
X17091250Y-12200000D03*
%TD*%
D12*
%TO.C,C15*%
X16905000Y-12400000D03*
X17095000Y-12400000D03*
%TD*%
D10*
%TO.C,C19*%
X12795000Y-13300000D03*
X12605000Y-13300000D03*
%TD*%
%TO.C,C5*%
X12795000Y-15100000D03*
X12605000Y-15100000D03*
%TD*%
%TO.C,C29*%
X16395000Y-14500000D03*
X16205000Y-14500000D03*
%TD*%
D12*
%TO.C,C14*%
X16905000Y-12600000D03*
X17095000Y-12600000D03*
%TD*%
%TO.C,C7*%
X13905000Y-14400000D03*
X14095000Y-14400000D03*
%TD*%
D18*
%TO.C,R11*%
X16908750Y-11800000D03*
X17091250Y-11800000D03*
%TD*%
D41*
%TO.C,C11*%
X14325000Y-11522500D03*
X14325000Y-11677500D03*
%TD*%
D10*
%TO.C,C30*%
X17195000Y-14500000D03*
X17005000Y-14500000D03*
%TD*%
D30*
%TO.C,Q1*%
X15193750Y-11795000D03*
X15193750Y-11605000D03*
X15006250Y-11700000D03*
%TD*%
D22*
%TO.C,R13*%
X17091250Y-12000000D03*
X16908750Y-12000000D03*
%TD*%
%TO.C,R16*%
X14991250Y-14500000D03*
X14808750Y-14500000D03*
%TD*%
D10*
%TO.C,C33*%
X15595000Y-14500000D03*
X15405000Y-14500000D03*
%TD*%
D11*
%TO.C,C27*%
X13100000Y-11695000D03*
X13100000Y-11505000D03*
%TD*%
D12*
%TO.C,C9*%
X13905000Y-15100000D03*
X14095000Y-15100000D03*
%TD*%
D18*
%TO.C,R5*%
X12608750Y-14100000D03*
X12791250Y-14100000D03*
%TD*%
D42*
X11700000Y-11200000D02*
X18500000Y-11200000D01*
X18500000Y-15600000D01*
X11700000Y-15600000D01*
X11700000Y-11200000D01*
M02*
