%TF.GenerationSoftware,KiCad,Pcbnew,9.0.1*%
%TF.CreationDate,2025-07-09T20:29:18+08:00*%
%TF.ProjectId,IMU,494d552e-6b69-4636-9164-5f7063625858,rev?*%
%TF.SameCoordinates,Original*%
%TF.FileFunction,Soldermask,Bot*%
%TF.FilePolarity,Negative*%
%FSLAX45Y45*%
G04 Gerber Fmt 4.5, Leading zero omitted, Abs format (unit mm)*
G04 Created by KiCad (PCBNEW 9.0.1) date 2025-07-09 20:29:18*
%MOMM*%
%LPD*%
G01*
G04 APERTURE LIST*
%ADD10C,2.000000*%
%ADD11R,1.700000X1.700000*%
%ADD12C,1.700000*%
%ADD13C,0.650000*%
%ADD14O,2.100000X1.000000*%
%ADD15O,1.600000X1.000000*%
%TA.AperFunction,Profile*%
%ADD16C,0.050000*%
%TD*%
G04 APERTURE END LIST*
D10*
%TO.C,SW3*%
X16875000Y-15425000D03*
X16875000Y-14775000D03*
X17325000Y-15425000D03*
X17325000Y-14775000D03*
%TD*%
D11*
%TO.C,J3*%
X14640000Y-12697500D03*
D12*
X14894000Y-12697500D03*
X15148000Y-12697500D03*
X15402000Y-12697500D03*
X15656000Y-12697500D03*
X15910000Y-12697500D03*
X16164000Y-12697500D03*
%TD*%
D13*
%TO.C,J1*%
X17739500Y-13489000D03*
X17739500Y-12911000D03*
D14*
X17689500Y-13632000D03*
D15*
X18107500Y-13632000D03*
D14*
X17689500Y-12768000D03*
D15*
X18107500Y-12768000D03*
%TD*%
D10*
%TO.C,SW4*%
X17675000Y-15425000D03*
X17675000Y-14775000D03*
X18125000Y-15425000D03*
X18125000Y-14775000D03*
%TD*%
D11*
%TO.C,SW1*%
X17100000Y-14000000D03*
D12*
X17100000Y-13746000D03*
X17100000Y-13492000D03*
%TD*%
D10*
%TO.C,SW6*%
X14475000Y-15425000D03*
X14475000Y-14775000D03*
X14925000Y-15425000D03*
X14925000Y-14775000D03*
%TD*%
D11*
%TO.C,J2*%
X14062000Y-15400000D03*
D12*
X13808000Y-15400000D03*
X13554000Y-15400000D03*
X13300000Y-15400000D03*
X13046000Y-15400000D03*
X12792000Y-15400000D03*
X12538000Y-15400000D03*
%TD*%
D10*
%TO.C,SW2*%
X16075000Y-15425000D03*
X16075000Y-14775000D03*
X16525000Y-15425000D03*
X16525000Y-14775000D03*
%TD*%
%TO.C,SW5*%
X15275000Y-15425000D03*
X15275000Y-14775000D03*
X15725000Y-15425000D03*
X15725000Y-14775000D03*
%TD*%
D11*
%TO.C,J4*%
X17800000Y-11700000D03*
D12*
X18054000Y-11700000D03*
%TD*%
D16*
X11700000Y-11200000D02*
X18500000Y-11200000D01*
X18500000Y-15600000D01*
X11700000Y-15600000D01*
X11700000Y-11200000D01*
M02*
