M48
; DRILL file {KiCad 9.0.1} date 2025-07-09T23:34:26+0800
; FORMAT={3:3/ absolute / metric / suppress leading zeros}
; #@! TF.CreationDate,2025-07-09T23:34:26+08:00
; #@! TF.GenerationSoftware,Kicad,Pcbnew,9.0.1
; #@! TF.FileFunction,Plated,1,2,PTH
FMAT,2
METRIC,TZ
; #@! TA.AperFunction,Plated,PTH,ViaDrill
T1C0.300
; #@! TA.AperFunction,Plated,PTH,ComponentDrill
T2C0.500
; #@! TA.AperFunction,Plated,PTH,ComponentDrill
T3C0.600
; #@! TA.AperFunction,Plated,PTH,ComponentDrill
T4C0.800
; #@! TA.AperFunction,Plated,PTH,ComponentDrill
T5C1.000
; #@! TA.AperFunction,Plated,PTH,ComponentDrill
T6C1.100
%
G90
G05
T1
X124160Y-155150
X124320Y-142320
X124330Y-139480
X124370Y-133050
X124370Y-145730
X124380Y-129030
X124380Y-136160
X124430Y-148520
X124447Y-119709
X124480Y-118298
X124530Y-124530
X124600Y-114450
X124800Y-123040
X125340Y-113310
X125432Y-119896
X125435Y-118440
X126030Y-122230
X126326Y-120326
X126419Y-118779
X126700Y-155370
X127175Y-121057
X127190Y-113040
X127378Y-119350
X127390Y-123540
X127944Y-121826
X128000Y-116950
X128050Y-129450
X128231Y-120129
X128350Y-130870
X128360Y-127980
X128550Y-113690
X128650Y-118730
X128669Y-148000
X128739Y-122621
X129090Y-126790
X129179Y-121077
X129210Y-155360
X129290Y-125940
X129579Y-123461
X129946Y-121844
X130000Y-113000
X130000Y-116950
X130280Y-119140
X130384Y-124266
X130786Y-122684
X131108Y-131870
X131108Y-132830
X131140Y-120750
X131314Y-140500
X131320Y-136410
X131566Y-123464
X131860Y-155360
X131930Y-135820
X131960Y-141010
X132000Y-113000
X132000Y-116950
X132070Y-132880
X132400Y-119100
X132430Y-120920
X132470Y-136435
X132470Y-137515
X132660Y-122350
X132780Y-134177
X133850Y-133700
X134000Y-113000
X134400Y-155410
X135550Y-133610
X136020Y-140640
X136020Y-141440
X136490Y-142230
X136500Y-137000
X136600Y-136200
X136750Y-114500
X136750Y-150630
X136790Y-152730
X136800Y-155380
X136940Y-133340
X137060Y-134230
X137240Y-135190
X137500Y-113750
X137500Y-137000
X137600Y-136200
X139230Y-155440
X139250Y-113750
X140790Y-118180
X141360Y-123000
X141500Y-113750
X142000Y-118508
X142080Y-139560
X142080Y-140910
X142270Y-133360
X142350Y-142750
X142351Y-144616
X142530Y-123900
X142540Y-155240
X142600Y-146400
X142600Y-147400
X142600Y-148600
X142750Y-134240
X143010Y-151620
X143060Y-124870
X143400Y-135190
X143500Y-113750
X143830Y-134120
X144151Y-128121
X144240Y-129782
X144240Y-131260
X144375Y-116125
X144500Y-114750
X144910Y-117130
X144970Y-132060
X145260Y-120210
X145340Y-129770
X145340Y-131260
X145390Y-143060
X145600Y-138600
X145900Y-115830
X146410Y-124656
X146480Y-121900
X146960Y-146820
X146980Y-152360
X147010Y-148740
X147070Y-154260
X148000Y-113000
X148180Y-123100
X148250Y-117000
X148430Y-120960
X148910Y-114560
X148940Y-124330
X149320Y-141980
X149930Y-122890
X150110Y-119000
X150990Y-151800
X151070Y-155340
X151080Y-114060
X151240Y-123800
X151400Y-133000
X152000Y-113000
X152000Y-135050
X152190Y-145130
X153410Y-114440
X153600Y-135400
X153880Y-120990
X154200Y-122500
X154400Y-134800
X154890Y-154190
X154960Y-150740
X155020Y-146860
X155160Y-112880
X155880Y-120990
X156030Y-124200
X157505Y-118835
X157680Y-144850
X158000Y-141400
X158015Y-130325
X158230Y-121700
X158450Y-114420
X158950Y-145960
X159000Y-141000
X159020Y-155400
X159570Y-130420
X159930Y-132880
X159940Y-135360
X160160Y-112940
X160440Y-144900
X161170Y-124130
X161190Y-131520
X161800Y-134000
X161800Y-135400
X162750Y-128780
X162820Y-148480
X162970Y-154250
X163000Y-151360
X164000Y-133200
X164000Y-134200
X164000Y-135400
X164000Y-136600
X164000Y-137600
X165000Y-139800
X165540Y-113010
X165620Y-115260
X165710Y-144510
X165810Y-134050
X165810Y-136140
X166770Y-116720
X166920Y-145840
X167000Y-126000
X167000Y-155410
X168000Y-126000
X168310Y-127590
X168360Y-133840
X168360Y-136220
X168470Y-138160
X168590Y-144510
X168650Y-139920
X169570Y-114090
X170880Y-154300
X171000Y-148290
X171030Y-129240
X171570Y-151150
X172260Y-112790
X172580Y-119600
X172730Y-122440
X173000Y-141000
X173460Y-144290
X173810Y-116490
X174000Y-141000
X174050Y-130440
X174060Y-134400
X174990Y-145030
X174990Y-154960
X175000Y-122220
X175000Y-141000
X175000Y-148410
X175060Y-146510
X175620Y-112910
X175670Y-119660
X175790Y-126080
X176530Y-144380
X178910Y-154300
X179010Y-130380
X179150Y-148290
X179380Y-143430
X180510Y-134530
X180880Y-142960
X182790Y-129460
X183160Y-144480
X183330Y-137020
X183500Y-120710
X183770Y-150460
T2
X133200Y-147200
X133200Y-148800
X134800Y-147200
X134800Y-148800
T4
X135000Y-125000
X135000Y-127000
X135000Y-129000
X137000Y-125000
X137000Y-127000
X137000Y-129000
X139000Y-125000
X139000Y-127000
X139000Y-129000
X151000Y-136800
X151000Y-139200
X153000Y-136800
X153000Y-139200
X161000Y-118000
X161000Y-120000
X163000Y-118000
X163000Y-120000
T5
X122840Y-154000
X125380Y-154000
X127920Y-154000
X130460Y-154000
X133000Y-154000
X135540Y-154000
X138080Y-154000
X140620Y-154000
X146400Y-126975
X148940Y-126975
X151480Y-126975
X154020Y-126975
X156560Y-126975
X159100Y-126975
X161640Y-126975
X171000Y-134920
X171000Y-137460
X171000Y-140000
X178000Y-117000
X180540Y-117000
T6
X144750Y-147750
X144750Y-154250
X149250Y-147750
X149250Y-154250
X152750Y-147750
X152750Y-154250
X157250Y-147750
X157250Y-154250
X160750Y-147750
X160750Y-154250
X165250Y-147750
X165250Y-154250
X168750Y-147750
X168750Y-154250
X173250Y-147750
X173250Y-154250
X176750Y-147750
X176750Y-154250
X181250Y-147750
X181250Y-154250
T3
G00X176345Y-127680
M15
G01X177445Y-127680
M16
G05
G00X176345Y-136320
M15
G01X177445Y-136320
M16
G05
G00X180775Y-127680
M15
G01X181375Y-127680
M16
G05
G00X180775Y-136320
M15
G01X181375Y-136320
M16
G05
M30
