%TF.GenerationSoftware,KiCad,Pcbnew,9.0.1*%
%TF.CreationDate,2025-07-09T23:34:26+08:00*%
%TF.ProjectId,IMU,494d552e-6b69-4636-9164-5f7063625858,rev?*%
%TF.SameCoordinates,Original*%
%TF.FileFunction,Copper,L2,Bot*%
%TF.FilePolarity,Positive*%
%FSLAX45Y45*%
G04 Gerber Fmt 4.5, Leading zero omitted, Abs format (unit mm)*
G04 Created by KiCad (PCBNEW 9.0.1) date 2025-07-09 23:34:26*
%MOMM*%
%LPD*%
G01*
G04 APERTURE LIST*
%TA.AperFunction,Conductor*%
%ADD10C,0.200000*%
%TD*%
%TA.AperFunction,HeatsinkPad*%
%ADD11C,1.300000*%
%TD*%
%TA.AperFunction,ComponentPad*%
%ADD12C,2.000000*%
%TD*%
%TA.AperFunction,ComponentPad*%
%ADD13R,1.700000X1.700000*%
%TD*%
%TA.AperFunction,ComponentPad*%
%ADD14C,1.700000*%
%TD*%
%TA.AperFunction,HeatsinkPad*%
%ADD15O,2.100000X1.000000*%
%TD*%
%TA.AperFunction,HeatsinkPad*%
%ADD16O,1.600000X1.000000*%
%TD*%
%TA.AperFunction,HeatsinkPad*%
%ADD17C,0.800000*%
%TD*%
%TA.AperFunction,HeatsinkPad*%
%ADD18R,2.700000X2.700000*%
%TD*%
%TA.AperFunction,ViaPad*%
%ADD19C,0.500000*%
%TD*%
%TA.AperFunction,Conductor*%
%ADD20C,0.500000*%
%TD*%
%TA.AperFunction,Conductor*%
%ADD21C,0.800000*%
%TD*%
%TA.AperFunction,Conductor*%
%ADD22C,1.000000*%
%TD*%
%TA.AperFunction,Conductor*%
%ADD23C,0.180000*%
%TD*%
%TA.AperFunction,Conductor*%
%ADD24C,0.300000*%
%TD*%
%TA.AperFunction,Conductor*%
%ADD25C,0.130000*%
%TD*%
%TA.AperFunction,Profile*%
%ADD26C,0.050000*%
%TD*%
G04 APERTURE END LIST*
%TO.N,GND*%
D10*
X13219000Y-14599000D02*
X13619000Y-14599000D01*
X13619000Y-14995000D01*
X13219000Y-14995000D01*
X13219000Y-14599000D01*
%TA.AperFunction,Conductor*%
G36*
X13219000Y-14599000D02*
G01*
X13619000Y-14599000D01*
X13619000Y-14995000D01*
X13219000Y-14995000D01*
X13219000Y-14599000D01*
G37*
%TD.AperFunction*%
X13492500Y-12381500D02*
X14064000Y-12381500D01*
X14064000Y-12968000D01*
X13492500Y-12968000D01*
X13492500Y-12381500D01*
%TA.AperFunction,Conductor*%
G36*
X13492500Y-12381500D02*
G01*
X14064000Y-12381500D01*
X14064000Y-12968000D01*
X13492500Y-12968000D01*
X13492500Y-12381500D01*
G37*
%TD.AperFunction*%
%TO.N,VCC*%
X13600000Y-13600000D02*
X13800000Y-13600000D01*
X13800000Y-13750000D01*
X13600000Y-13750000D01*
X13600000Y-13600000D01*
%TA.AperFunction,Conductor*%
G36*
X13600000Y-13600000D02*
G01*
X13800000Y-13600000D01*
X13800000Y-13750000D01*
X13600000Y-13750000D01*
X13600000Y-13600000D01*
G37*
%TD.AperFunction*%
%TO.N,GND*%
X15992000Y-11739000D02*
X16368000Y-11739000D01*
X16368000Y-12105000D01*
X15992000Y-12105000D01*
X15992000Y-11739000D01*
%TA.AperFunction,Conductor*%
G36*
X15992000Y-11739000D02*
G01*
X16368000Y-11739000D01*
X16368000Y-12105000D01*
X15992000Y-12105000D01*
X15992000Y-11739000D01*
G37*
%TD.AperFunction*%
%TD*%
D11*
%TO.P,U5,29,GND*%
%TO.N,GND*%
X16100000Y-12000000D03*
X16300000Y-12000000D03*
X16100000Y-11800000D03*
X16300000Y-11800000D03*
%TD*%
D12*
%TO.P,SW3,1,1*%
%TO.N,GND*%
X16875000Y-15425000D03*
X16875000Y-14775000D03*
%TO.P,SW3,2,2*%
%TO.N,/GPIO17*%
X17325000Y-15425000D03*
X17325000Y-14775000D03*
%TD*%
D13*
%TO.P,J3,1,Pin_1*%
%TO.N,VCC*%
X14640000Y-12697500D03*
D14*
%TO.P,J3,2,Pin_2*%
%TO.N,/MTMS*%
X14894000Y-12697500D03*
%TO.P,J3,3,Pin_3*%
%TO.N,/MTCK*%
X15148000Y-12697500D03*
%TO.P,J3,4,Pin_4*%
%TO.N,GND*%
X15402000Y-12697500D03*
%TO.P,J3,5,Pin_5*%
%TO.N,/CHIP_PU*%
X15656000Y-12697500D03*
%TO.P,J3,6,Pin_6*%
%TO.N,/MTDI*%
X15910000Y-12697500D03*
%TO.P,J3,7,Pin_7*%
%TO.N,/MTDO*%
X16164000Y-12697500D03*
%TD*%
D15*
%TO.P,J1,S1,SHIELD*%
%TO.N,GND*%
X17689500Y-13632000D03*
D16*
X18107500Y-13632000D03*
D15*
X17689500Y-12768000D03*
D16*
X18107500Y-12768000D03*
%TD*%
D12*
%TO.P,SW4,1,1*%
%TO.N,GND*%
X17675000Y-15425000D03*
X17675000Y-14775000D03*
%TO.P,SW4,2,2*%
%TO.N,/GPIO18*%
X18125000Y-15425000D03*
X18125000Y-14775000D03*
%TD*%
D13*
%TO.P,SW1,1,A*%
%TO.N,Net-(SW1-A)*%
X17100000Y-14000000D03*
D14*
%TO.P,SW1,2,B*%
%TO.N,VBUS*%
X17100000Y-13746000D03*
%TO.P,SW1,3,C*%
%TO.N,unconnected-(SW1-C-Pad3)*%
X17100000Y-13492000D03*
%TD*%
D11*
%TO.P,U6,57,GND*%
%TO.N,GND*%
X13500000Y-12500000D03*
X13500000Y-12700000D03*
X13500000Y-12900000D03*
X13700000Y-12500000D03*
X13700000Y-12700000D03*
X13700000Y-12900000D03*
X13900000Y-12500000D03*
X13900000Y-12700000D03*
X13900000Y-12900000D03*
%TD*%
%TO.P,U3,9,EP*%
%TO.N,GND*%
X15100000Y-13680000D03*
X15100000Y-13920000D03*
X15300000Y-13680000D03*
X15300000Y-13920000D03*
%TD*%
D17*
%TO.P,U2,25,GND*%
%TO.N,GND*%
X13480000Y-14720000D03*
X13320000Y-14720000D03*
D18*
X13400000Y-14800000D03*
D17*
X13480000Y-14880000D03*
X13320000Y-14880000D03*
%TD*%
D12*
%TO.P,SW6,1,1*%
%TO.N,GND*%
X14475000Y-15425000D03*
X14475000Y-14775000D03*
%TO.P,SW6,2,2*%
%TO.N,/CHIP_PU*%
X14925000Y-15425000D03*
X14925000Y-14775000D03*
%TD*%
D13*
%TO.P,J2,1,Pin_1*%
%TO.N,GND*%
X14062000Y-15400000D03*
D14*
%TO.P,J2,2,Pin_2*%
%TO.N,VCC*%
X13808000Y-15400000D03*
%TO.P,J2,3,Pin_3*%
%TO.N,/GPIO12*%
X13554000Y-15400000D03*
%TO.P,J2,4,Pin_4*%
%TO.N,/GPIO13*%
X13300000Y-15400000D03*
%TO.P,J2,5,Pin_5*%
%TO.N,/GPIO7*%
X13046000Y-15400000D03*
%TO.P,J2,6,Pin_6*%
%TO.N,/GPIO8*%
X12792000Y-15400000D03*
%TO.P,J2,7,Pin_7*%
%TO.N,/GPIO10*%
X12538000Y-15400000D03*
%TO.P,J2,8,Pin_8*%
%TO.N,/GPIO35*%
X12284000Y-15400000D03*
%TD*%
D12*
%TO.P,SW2,1,1*%
%TO.N,GND*%
X16075000Y-15425000D03*
X16075000Y-14775000D03*
%TO.P,SW2,2,2*%
%TO.N,/GPIO16*%
X16525000Y-15425000D03*
X16525000Y-14775000D03*
%TD*%
%TO.P,SW5,1,1*%
%TO.N,GND*%
X15275000Y-15425000D03*
X15275000Y-14775000D03*
%TO.P,SW5,2,2*%
%TO.N,/GPIO0*%
X15725000Y-15425000D03*
X15725000Y-14775000D03*
%TD*%
D13*
%TO.P,J4,1,Pin_1*%
%TO.N,VBUS*%
X17800000Y-11700000D03*
D14*
%TO.P,J4,2,Pin_2*%
%TO.N,GND*%
X18054000Y-11700000D03*
%TD*%
D19*
%TO.N,GND*%
X12855000Y-11369000D03*
X14818000Y-12310000D03*
X18088000Y-14296000D03*
X18051000Y-13453000D03*
X12480000Y-12304000D03*
X15496000Y-15074000D03*
X14993000Y-12289000D03*
X15900000Y-14100000D03*
X17499000Y-14503000D03*
X14590000Y-11583000D03*
X12865000Y-11873000D03*
X12670000Y-15537000D03*
X16836000Y-13622000D03*
X12443000Y-14852000D03*
X12917916Y-12107695D03*
X15895000Y-14596000D03*
X16300000Y-15136000D03*
X13240000Y-11910000D03*
X16571000Y-14451000D03*
X14698000Y-15236000D03*
X16117000Y-12413000D03*
X13038389Y-12426611D03*
X14491000Y-11713000D03*
X18333000Y-13702000D03*
X13923000Y-15544000D03*
X17400000Y-14100000D03*
X15994000Y-13536000D03*
X12794389Y-12182611D03*
X15108000Y-11406000D03*
X13602000Y-14064000D03*
X15768000Y-14485000D03*
X13679000Y-15273000D03*
X16282000Y-14848000D03*
X14150000Y-11375000D03*
X17100000Y-14829000D03*
X17915000Y-14829000D03*
X18316000Y-14448000D03*
X16297000Y-15425000D03*
X17157000Y-15115000D03*
X17891000Y-15430000D03*
X17273000Y-12244000D03*
X16562000Y-11526000D03*
X17300000Y-14100000D03*
X15902000Y-15540000D03*
X12805000Y-12945000D03*
X16957000Y-11409000D03*
X13114000Y-12075000D03*
X16847000Y-13816000D03*
X17901000Y-13038000D03*
X14539000Y-14306000D03*
X18377000Y-15046000D03*
X13266000Y-12235000D03*
X12543175Y-11989600D03*
X16554000Y-11301000D03*
X13440000Y-15541000D03*
X12823111Y-12012889D03*
X16865000Y-13992000D03*
X17579000Y-12608000D03*
X15823000Y-12170000D03*
X13243000Y-12092000D03*
X13028000Y-11914000D03*
X13200000Y-11300000D03*
X12437000Y-13305000D03*
X14235000Y-14275000D03*
X12835000Y-13087000D03*
X17226000Y-11279000D03*
X14648000Y-12190000D03*
X15993000Y-13288000D03*
X15502000Y-14686000D03*
X17500000Y-14100000D03*
X17346000Y-14429000D03*
X12460000Y-11445000D03*
X12433000Y-13948000D03*
X13186000Y-15536000D03*
X15420000Y-12250000D03*
X13675000Y-11450000D03*
X12438000Y-12903000D03*
X17506000Y-14651000D03*
X15440000Y-13480000D03*
X14800000Y-11300000D03*
X15516000Y-11288000D03*
X12437000Y-14573000D03*
X15124000Y-12380000D03*
X12534000Y-11331000D03*
X16859000Y-14451000D03*
X12603000Y-12223000D03*
X15219000Y-14513000D03*
X13156611Y-12346389D03*
X13000000Y-11300000D03*
X18350000Y-12071000D03*
X13750000Y-11375000D03*
X14437500Y-11612500D03*
X14208000Y-14091000D03*
X12873889Y-12262111D03*
X17088000Y-15430000D03*
X17653000Y-14438000D03*
X15360000Y-13540000D03*
X14079000Y-11818000D03*
X12632623Y-12032578D03*
X16119000Y-13152000D03*
X15200000Y-11300000D03*
X15107000Y-15534000D03*
X17500000Y-14841000D03*
X17500000Y-12222000D03*
X12444664Y-11970885D03*
X16677000Y-11672000D03*
X15341000Y-11444000D03*
X16581000Y-13614000D03*
X17562000Y-11291000D03*
X16581000Y-13405000D03*
X17381000Y-11649000D03*
X15489000Y-15419000D03*
X14208000Y-13956000D03*
X17103000Y-12924000D03*
X14701000Y-14874000D03*
X12921000Y-15536000D03*
X15200000Y-13505000D03*
X16275000Y-12878000D03*
X13078611Y-12268389D03*
X16180000Y-13400000D03*
X14450000Y-11475000D03*
X14301000Y-15162000D03*
X14891000Y-11456000D03*
X12448000Y-11829840D03*
X16016000Y-11294000D03*
X12453000Y-12453000D03*
X12739000Y-12354000D03*
X16700000Y-15541000D03*
X13680000Y-15538000D03*
X15800000Y-14140000D03*
X15845000Y-11442000D03*
X12432000Y-14232000D03*
X12543541Y-11844026D03*
X16836000Y-13384000D03*
X12416000Y-15515000D03*
X14526000Y-12021000D03*
X12836000Y-12798000D03*
X17258000Y-11960000D03*
X13925000Y-11375000D03*
X16044000Y-14490000D03*
X14560000Y-13860000D03*
X16500000Y-13980000D03*
X14707000Y-15426000D03*
X16831000Y-12759000D03*
X18279000Y-12946000D03*
X16180000Y-13540000D03*
X15603000Y-12420000D03*
X12737766Y-11934981D03*
X16692000Y-14584000D03*
X14696000Y-14682000D03*
X13649000Y-14223000D03*
X15957000Y-13042000D03*
X13602000Y-14144000D03*
X12719000Y-11304000D03*
X14254000Y-15524000D03*
X12957889Y-12346111D03*
X13400000Y-11300000D03*
X13675000Y-15063000D03*
X12717488Y-12105709D03*
X14350000Y-11375000D03*
X12994611Y-12184389D03*
X15099000Y-15180000D03*
X17567000Y-11966000D03*
X12641872Y-11877865D03*
X14235082Y-14461599D03*
X12438000Y-13616000D03*
X17499000Y-15496000D03*
%TO.N,VCC*%
X13200000Y-11695000D03*
X14260000Y-14860000D03*
X16400000Y-13760000D03*
X16400000Y-13420000D03*
X14260000Y-14740000D03*
X14641000Y-12465618D03*
X13650000Y-13700000D03*
X16700000Y-12600000D03*
X13750000Y-13700000D03*
X13000000Y-11695000D03*
X16400000Y-13660000D03*
X13660000Y-13620000D03*
X13760000Y-13620000D03*
X16400000Y-13320000D03*
X12800000Y-11695000D03*
X16800000Y-12600000D03*
X14260000Y-14640000D03*
X16400000Y-13540000D03*
X15140000Y-13300000D03*
%TO.N,VBUS*%
X17405000Y-13044000D03*
X17406000Y-13440000D03*
%TO.N,/GPIO17*%
X13706000Y-13423000D03*
X14275000Y-13424000D03*
%TO.N,/GPIO16*%
X14227000Y-13336000D03*
X13694000Y-13334000D03*
%TO.N,/GPIO18*%
X13724000Y-13519000D03*
X14340000Y-13519000D03*
%TO.N,/CHIP_PU*%
X14825000Y-11700000D03*
X15801500Y-13032500D03*
X12929000Y-12594000D03*
X14200000Y-11850800D03*
X14932000Y-14198000D03*
%TO.N,/GPIO13*%
X13278000Y-13417684D03*
%TO.N,/GPIO10*%
X13110800Y-13283000D03*
%TO.N,/GPIO8*%
X13207000Y-13288000D03*
%TO.N,/GPIO12*%
X13385000Y-13370000D03*
%TO.N,/GPIO7*%
X13110800Y-13187000D03*
%TO.N,/MTMS*%
X14894000Y-12433000D03*
%TO.N,/U0TXD*%
X15011000Y-11900000D03*
X15750500Y-11883500D03*
%TO.N,/GPIO3*%
X13132000Y-13641000D03*
X13131400Y-14050000D03*
%TO.N,/GPIO4*%
X13196000Y-14101000D03*
X13193000Y-13582000D03*
%TO.N,/SPIQ*%
X14415116Y-12812116D03*
X14497000Y-13206000D03*
%TO.N,/GPIO5*%
X13247000Y-13643500D03*
X13247000Y-13751500D03*
%TO.N,/~{DTR}*%
X15588000Y-12099000D03*
X15388000Y-12099000D03*
%TO.N,/SPICS0*%
X14534000Y-13126000D03*
X14534000Y-12977000D03*
%TO.N,/SPIWP*%
X14424000Y-13126000D03*
X14424000Y-12978216D03*
%TO.N,/GPIO0*%
X14383000Y-13412000D03*
X14843000Y-12096000D03*
X17938000Y-14343000D03*
X12909000Y-12679000D03*
%TO.N,/GPIO35*%
X14136000Y-12300000D03*
%TO.N,/GPIO36*%
X14306000Y-12487000D03*
X12866945Y-14800000D03*
%TO.N,/GPIO37*%
X13555000Y-13361000D03*
X14253000Y-12390000D03*
%TD*%
D20*
%TO.N,GND*%
X13602000Y-14064000D02*
X13602000Y-14123000D01*
D21*
X17300000Y-14100000D02*
X17500000Y-14100000D01*
D20*
X14208000Y-13956000D02*
X14208000Y-14095000D01*
X15402000Y-13303000D02*
X15402000Y-12697500D01*
D21*
X17500000Y-14100000D02*
X17689500Y-13910500D01*
D20*
X13602000Y-14123000D02*
X13623000Y-14144000D01*
D21*
X17689500Y-13910500D02*
X17689500Y-13632000D01*
D20*
X13602000Y-14144000D02*
X13623000Y-14144000D01*
X15200000Y-13505000D02*
X15402000Y-13303000D01*
X14208000Y-14095000D02*
X14208000Y-14091000D01*
D21*
%TO.N,VCC*%
X16360000Y-11580000D02*
X16700000Y-11920000D01*
D22*
X16800000Y-12600000D02*
X16700000Y-12600000D01*
D21*
X15140000Y-13300000D02*
X14640000Y-13300000D01*
D22*
X16400000Y-13760000D02*
X16400000Y-13820000D01*
X16400000Y-13660000D02*
X16400000Y-13760000D01*
D21*
X14640000Y-13700000D02*
X15044000Y-14104000D01*
D23*
X14640000Y-12484000D02*
X14640000Y-12697500D01*
D22*
X13750000Y-13700000D02*
X14380000Y-13700000D01*
D21*
X16650000Y-12650000D02*
X16700000Y-12600000D01*
D22*
X16400000Y-12900000D02*
X16700000Y-12600000D01*
D21*
X14640000Y-13300000D02*
X14640000Y-13700000D01*
D22*
X14380000Y-13700000D02*
X14640000Y-13700000D01*
D21*
X14260000Y-14640000D02*
X14260000Y-14740000D01*
D22*
X16400000Y-13820000D02*
X16400000Y-13420000D01*
X16400000Y-13420000D02*
X16400000Y-12900000D01*
X16400000Y-13420000D02*
X16400000Y-13320000D01*
D21*
X13640000Y-11280000D02*
X14520000Y-11280000D01*
X14640000Y-12760000D02*
X14640000Y-12697500D01*
X16700000Y-11920000D02*
X16700000Y-12600000D01*
D22*
X16360000Y-13700000D02*
X16400000Y-13660000D01*
D21*
X12740000Y-11700000D02*
X13220000Y-11700000D01*
X15044000Y-14104000D02*
X15636000Y-14104000D01*
X14820000Y-11580000D02*
X16360000Y-11580000D01*
X15636000Y-14104000D02*
X15980000Y-13760000D01*
X13220000Y-11700000D02*
X13640000Y-11280000D01*
D22*
X16400000Y-13540000D02*
X16400000Y-13660000D01*
D23*
X14641000Y-12483000D02*
X14640000Y-12484000D01*
X14641000Y-12465618D02*
X14641000Y-12483000D01*
D21*
X14260000Y-14740000D02*
X14260000Y-14860000D01*
X14520000Y-11280000D02*
X14820000Y-11580000D01*
D22*
X16400000Y-13320000D02*
X16400000Y-13200000D01*
D21*
X14380000Y-14520000D02*
X14380000Y-13700000D01*
X14640000Y-12697500D02*
X14640000Y-13700000D01*
X15980000Y-13760000D02*
X16400000Y-13760000D01*
X14260000Y-14640000D02*
X14380000Y-14520000D01*
D20*
%TO.N,VBUS*%
X17405000Y-13044000D02*
X17405000Y-13439000D01*
X17405000Y-13439000D02*
X17406000Y-13440000D01*
D23*
%TO.N,/GPIO17*%
X13706000Y-13423000D02*
X14274000Y-13423000D01*
X14274000Y-13423000D02*
X14275000Y-13424000D01*
%TO.N,/GPIO16*%
X14225000Y-13334000D02*
X14227000Y-13336000D01*
X13694000Y-13334000D02*
X14225000Y-13334000D01*
%TO.N,/GPIO18*%
X14340000Y-13519000D02*
X14342000Y-13521000D01*
X13724000Y-13519000D02*
X14340000Y-13519000D01*
D24*
%TO.N,/CHIP_PU*%
X14925000Y-14775000D02*
X14925000Y-14205000D01*
D23*
X14825000Y-11700000D02*
X14825000Y-11866500D01*
D24*
X14925000Y-14205000D02*
X14932000Y-14198000D01*
D23*
X14825000Y-11866500D02*
X15656000Y-12697500D01*
X12929000Y-12594000D02*
X12939000Y-12604000D01*
X14000800Y-12050000D02*
X14200000Y-11850800D01*
X15801500Y-13032500D02*
X15656000Y-12887000D01*
X12939000Y-12604000D02*
X13112118Y-12604000D01*
X13666118Y-12050000D02*
X14000800Y-12050000D01*
X15656000Y-12887000D02*
X15656000Y-12697500D01*
X13112118Y-12604000D02*
X13666118Y-12050000D01*
D24*
X14925000Y-14775000D02*
X14925000Y-15425000D01*
D25*
%TO.N,/GPIO13*%
X13018300Y-15118300D02*
X13300000Y-15400000D01*
X13018300Y-13515931D02*
X13018300Y-15118300D01*
X13116547Y-13417684D02*
X13018300Y-13515931D01*
X13278000Y-13417684D02*
X13116547Y-13417684D01*
%TO.N,/GPIO10*%
X12919000Y-15019000D02*
X12919000Y-13474800D01*
D23*
X13110800Y-13283000D02*
X13123000Y-13283000D01*
D25*
X12919000Y-13474800D02*
X13110800Y-13283000D01*
X12538000Y-15400000D02*
X12919000Y-15019000D01*
%TO.N,/GPIO8*%
X12952100Y-15239900D02*
X12792000Y-15400000D01*
X13207000Y-13308000D02*
X13170000Y-13345000D01*
X12952100Y-13488510D02*
X12952100Y-15239900D01*
X13207000Y-13288000D02*
X13207000Y-13308000D01*
X13095610Y-13345000D02*
X12952100Y-13488510D01*
X13170000Y-13345000D02*
X13095610Y-13345000D01*
%TO.N,/GPIO12*%
X13233000Y-15239000D02*
X13393000Y-15239000D01*
X13393000Y-15239000D02*
X13554000Y-15400000D01*
X13051400Y-13529642D02*
X13051400Y-15057400D01*
X13385000Y-13370000D02*
X13385000Y-13409000D01*
X13051400Y-15057400D02*
X13233000Y-15239000D01*
X13314000Y-13480000D02*
X13101042Y-13480000D01*
X13101042Y-13480000D02*
X13051400Y-13529642D01*
X13385000Y-13409000D02*
X13314000Y-13480000D01*
%TO.N,/GPIO7*%
X13106421Y-13381000D02*
X13213000Y-13381000D01*
X12985200Y-13502221D02*
X13106421Y-13381000D01*
X13046000Y-15400000D02*
X12985200Y-15339200D01*
X12985200Y-15339200D02*
X12985200Y-13502221D01*
X13213000Y-13381000D02*
X13282000Y-13312000D01*
X13198000Y-13187000D02*
X13110800Y-13187000D01*
X13282000Y-13271000D02*
X13198000Y-13187000D01*
X13282000Y-13312000D02*
X13282000Y-13271000D01*
D23*
%TO.N,/MTMS*%
X14894000Y-12433000D02*
X14894000Y-12697500D01*
%TO.N,/U0TXD*%
X15011000Y-11900000D02*
X15734000Y-11900000D01*
X15734000Y-11900000D02*
X15750500Y-11883500D01*
%TO.N,/GPIO3*%
X13131400Y-14050000D02*
X13131400Y-13641600D01*
%TO.N,/GPIO4*%
X13196000Y-14101000D02*
X13192900Y-14097900D01*
X13192900Y-13582100D02*
X13193000Y-13582000D01*
X13192900Y-14097900D02*
X13192900Y-13582100D01*
%TO.N,/SPIQ*%
X14479900Y-13188900D02*
X14479900Y-12876900D01*
X14497000Y-13206000D02*
X14479900Y-13188900D01*
X14479900Y-12876900D02*
X14415116Y-12812116D01*
%TO.N,/GPIO5*%
X13247000Y-13643500D02*
X13247000Y-13751500D01*
%TO.N,/~{DTR}*%
X15388000Y-12099000D02*
X15588000Y-12099000D01*
%TO.N,/SPICS0*%
X14534000Y-12977000D02*
X14534000Y-13126000D01*
%TO.N,/SPIWP*%
X14424000Y-12978216D02*
X14424000Y-13126000D01*
%TO.N,/GPIO0*%
X14360000Y-13389000D02*
X14360000Y-12624000D01*
X12909000Y-12679000D02*
X13091000Y-12679000D01*
X14383000Y-13412000D02*
X14360000Y-13389000D01*
X14360000Y-12624000D02*
X14843000Y-12141000D01*
X13091000Y-12679000D02*
X13674000Y-12096000D01*
X15892000Y-14942000D02*
X15725000Y-14775000D01*
X18177000Y-14942000D02*
X15892000Y-14942000D01*
X13674000Y-12096000D02*
X14843000Y-12096000D01*
X18278000Y-14841000D02*
X18177000Y-14942000D01*
X18278000Y-14683000D02*
X18278000Y-14841000D01*
X14843000Y-12141000D02*
X14843000Y-12096000D01*
X17938000Y-14343000D02*
X18278000Y-14683000D01*
%TO.N,/GPIO35*%
X14201000Y-13017000D02*
X14055000Y-13163000D01*
X13331000Y-13163000D02*
X13239000Y-13071000D01*
X13019000Y-13071000D02*
X12827900Y-13262100D01*
X12284000Y-15277000D02*
X12284000Y-15400000D01*
X12827900Y-14733100D02*
X12284000Y-15277000D01*
X14135000Y-12301000D02*
X14135000Y-12414000D01*
X13239000Y-13071000D02*
X13019000Y-13071000D01*
X14136000Y-12300000D02*
X14135000Y-12301000D01*
X14055000Y-13163000D02*
X13331000Y-13163000D01*
X14135000Y-12414000D02*
X14201000Y-12480000D01*
X14201000Y-12480000D02*
X14201000Y-13017000D01*
X12827900Y-13262100D02*
X12827900Y-14733100D01*
%TO.N,/GPIO36*%
X13295000Y-13213000D02*
X13202000Y-13120000D01*
X12866000Y-14799055D02*
X12866945Y-14800000D01*
X14092000Y-13213000D02*
X13295000Y-13213000D01*
X13040000Y-13120000D02*
X12866000Y-13294000D01*
X12866000Y-13294000D02*
X12866000Y-14799055D01*
X14254000Y-13051000D02*
X14092000Y-13213000D01*
X14306000Y-12487000D02*
X14254000Y-12539000D01*
X13202000Y-13120000D02*
X13040000Y-13120000D01*
X14254000Y-12539000D02*
X14254000Y-13051000D01*
%TO.N,/GPIO37*%
X13652000Y-13266000D02*
X13557000Y-13361000D01*
X14124000Y-13266000D02*
X13652000Y-13266000D01*
X14384000Y-12456000D02*
X14384000Y-12512000D01*
X14301900Y-13088100D02*
X14124000Y-13266000D01*
X14384000Y-12512000D02*
X14301900Y-12594100D01*
X14318000Y-12390000D02*
X14384000Y-12456000D01*
X14253000Y-12390000D02*
X14318000Y-12390000D01*
X13557000Y-13361000D02*
X13555000Y-13361000D01*
X14301900Y-12594100D02*
X14301900Y-13088100D01*
%TD*%
%TA.AperFunction,Conductor*%
%TO.N,GND*%
G36*
X13475042Y-13374628D02*
G01*
X13480709Y-13378714D01*
X13482583Y-13382336D01*
X13482601Y-13382329D01*
X13482688Y-13382539D01*
X13482783Y-13382721D01*
X13482834Y-13382891D01*
X13488491Y-13396549D01*
X13488492Y-13396550D01*
X13496705Y-13408841D01*
X13496705Y-13408842D01*
X13507158Y-13419295D01*
X13507158Y-13419295D01*
X13519450Y-13427508D01*
X13519451Y-13427509D01*
X13526412Y-13430392D01*
X13533109Y-13433166D01*
X13533109Y-13433166D01*
X13533109Y-13433166D01*
X13547608Y-13436050D01*
X13547608Y-13436050D01*
X13562392Y-13436050D01*
X13573242Y-13433892D01*
X13576891Y-13433166D01*
X13590549Y-13427508D01*
X13602842Y-13419295D01*
X13602842Y-13419295D01*
X13609782Y-13412355D01*
X13615914Y-13409006D01*
X13622883Y-13409505D01*
X13628477Y-13413692D01*
X13630918Y-13420238D01*
X13630950Y-13421123D01*
X13630950Y-13430392D01*
X13630950Y-13430392D01*
X13630950Y-13430392D01*
X13633834Y-13444891D01*
X13633834Y-13444892D01*
X13639491Y-13458549D01*
X13639492Y-13458550D01*
X13647705Y-13470841D01*
X13647705Y-13470842D01*
X13652459Y-13475596D01*
X13655808Y-13481729D01*
X13655310Y-13488698D01*
X13655147Y-13489110D01*
X13651834Y-13497109D01*
X13651834Y-13497109D01*
X13648950Y-13511608D01*
X13648950Y-13527001D01*
X13648818Y-13527001D01*
X13647643Y-13533199D01*
X13642837Y-13538270D01*
X13636604Y-13539950D01*
X13592094Y-13539950D01*
X13576822Y-13544042D01*
X13576821Y-13544043D01*
X13563129Y-13551947D01*
X13563128Y-13551948D01*
X13551948Y-13563128D01*
X13551947Y-13563129D01*
X13544043Y-13576821D01*
X13544042Y-13576822D01*
X13539950Y-13592094D01*
X13539950Y-13757906D01*
X13540214Y-13758892D01*
X13544042Y-13773178D01*
X13544043Y-13773179D01*
X13551947Y-13786871D01*
X13551948Y-13786871D01*
X13551948Y-13786872D01*
X13563128Y-13798052D01*
X13563129Y-13798052D01*
X13563129Y-13798052D01*
X13575979Y-13805471D01*
X13576822Y-13805958D01*
X13592094Y-13810050D01*
X13592094Y-13810050D01*
X13807905Y-13810050D01*
X13807906Y-13810050D01*
X13823178Y-13805958D01*
X13830533Y-13801711D01*
X13836733Y-13800050D01*
X14277550Y-13800050D01*
X14284254Y-13802018D01*
X14288829Y-13807299D01*
X14289950Y-13812450D01*
X14289950Y-14477564D01*
X14287981Y-14484268D01*
X14286318Y-14486332D01*
X14190054Y-14582596D01*
X14190054Y-14582596D01*
X14186397Y-14588069D01*
X14186396Y-14588070D01*
X14186106Y-14588504D01*
X14180199Y-14597345D01*
X14177256Y-14604450D01*
X14176990Y-14605092D01*
X14176989Y-14605093D01*
X14173410Y-14613733D01*
X14173410Y-14613733D01*
X14170578Y-14627974D01*
X14170175Y-14630000D01*
X14169950Y-14631131D01*
X14169950Y-14868869D01*
X14173410Y-14886266D01*
X14173411Y-14886267D01*
X14180198Y-14902654D01*
X14180199Y-14902655D01*
X14190053Y-14917403D01*
X14190054Y-14917404D01*
X14202596Y-14929946D01*
X14202596Y-14929946D01*
X14217345Y-14939801D01*
X14217346Y-14939802D01*
X14229636Y-14944892D01*
X14233733Y-14946589D01*
X14233734Y-14946589D01*
X14233734Y-14946590D01*
X14251130Y-14950050D01*
X14251131Y-14950050D01*
X14251131Y-14950050D01*
X14268869Y-14950050D01*
X14268869Y-14950050D01*
X14274668Y-14948896D01*
X14286266Y-14946590D01*
X14286266Y-14946589D01*
X14286267Y-14946589D01*
X14302655Y-14939801D01*
X14317403Y-14929946D01*
X14329946Y-14917403D01*
X14339801Y-14902655D01*
X14346589Y-14886267D01*
X14347249Y-14882951D01*
X14350050Y-14868870D01*
X14350050Y-14868869D01*
X14350050Y-14868869D01*
X14350050Y-14868868D01*
X14350082Y-14868543D01*
X14350147Y-14868383D01*
X14350169Y-14868272D01*
X14350190Y-14868276D01*
X14352698Y-14862065D01*
X14353654Y-14860990D01*
X14422621Y-14792023D01*
X14423748Y-14796229D01*
X14430989Y-14808771D01*
X14441229Y-14819011D01*
X14453771Y-14826252D01*
X14457976Y-14827379D01*
X14388089Y-14897266D01*
X14396383Y-14903291D01*
X14417420Y-14914010D01*
X14439875Y-14921306D01*
X14439875Y-14921306D01*
X14463195Y-14925000D01*
X14486805Y-14925000D01*
X14510125Y-14921306D01*
X14532580Y-14914010D01*
X14553616Y-14903292D01*
X14553617Y-14903291D01*
X14561910Y-14897266D01*
X14561910Y-14897266D01*
X14492023Y-14827379D01*
X14496229Y-14826252D01*
X14508771Y-14819011D01*
X14519011Y-14808771D01*
X14526252Y-14796229D01*
X14527379Y-14792023D01*
X14597266Y-14861910D01*
X14597266Y-14861910D01*
X14603291Y-14853617D01*
X14603292Y-14853616D01*
X14614010Y-14832580D01*
X14621306Y-14810125D01*
X14625000Y-14786805D01*
X14625000Y-14763195D01*
X14621306Y-14739875D01*
X14614010Y-14717420D01*
X14603291Y-14696383D01*
X14597266Y-14688089D01*
X14597266Y-14688089D01*
X14527379Y-14757976D01*
X14526252Y-14753771D01*
X14519011Y-14741229D01*
X14508771Y-14730989D01*
X14496229Y-14723748D01*
X14492023Y-14722621D01*
X14561910Y-14652734D01*
X14561910Y-14652734D01*
X14553617Y-14646709D01*
X14532580Y-14635990D01*
X14510125Y-14628693D01*
X14510125Y-14628693D01*
X14486805Y-14625000D01*
X14463195Y-14625000D01*
X14439875Y-14628693D01*
X14427939Y-14632572D01*
X14420955Y-14632771D01*
X14414972Y-14629163D01*
X14411889Y-14622893D01*
X14412686Y-14615951D01*
X14415339Y-14612011D01*
X14449946Y-14577404D01*
X14449946Y-14577403D01*
X14459801Y-14562655D01*
X14466589Y-14546267D01*
X14468253Y-14537905D01*
X14470050Y-14528869D01*
X14470050Y-14511131D01*
X14470050Y-13812450D01*
X14472018Y-13805746D01*
X14477299Y-13801171D01*
X14482450Y-13800050D01*
X14607564Y-13800050D01*
X14614268Y-13802018D01*
X14616332Y-13803682D01*
X14917372Y-14104722D01*
X14920721Y-14110855D01*
X14920222Y-14117824D01*
X14916035Y-14123417D01*
X14911024Y-14125652D01*
X14910110Y-14125834D01*
X14910108Y-14125834D01*
X14896451Y-14131491D01*
X14896450Y-14131492D01*
X14884158Y-14139705D01*
X14884158Y-14139705D01*
X14873705Y-14150158D01*
X14873705Y-14150158D01*
X14865492Y-14162450D01*
X14865491Y-14162451D01*
X14859834Y-14176108D01*
X14859834Y-14176109D01*
X14856950Y-14190608D01*
X14856950Y-14205392D01*
X14857010Y-14205998D01*
X14856989Y-14206000D01*
X14857058Y-14206546D01*
X14859470Y-14248444D01*
X14859892Y-14252792D01*
X14859950Y-14253989D01*
X14859950Y-14561600D01*
X14858737Y-14566949D01*
X14797723Y-14694551D01*
X14796902Y-14695930D01*
X14796920Y-14695941D01*
X14796666Y-14696356D01*
X14785943Y-14717400D01*
X14778645Y-14739863D01*
X14774950Y-14763190D01*
X14774950Y-14786810D01*
X14778645Y-14810137D01*
X14785943Y-14832600D01*
X14796666Y-14853644D01*
X14796920Y-14854058D01*
X14796902Y-14854069D01*
X14797723Y-14855449D01*
X14829265Y-14921413D01*
X14858737Y-14983051D01*
X14858737Y-14983051D01*
X14859950Y-14988400D01*
X14859950Y-15211600D01*
X14858737Y-15216949D01*
X14797723Y-15344551D01*
X14796902Y-15345930D01*
X14796920Y-15345941D01*
X14796666Y-15346356D01*
X14785943Y-15367400D01*
X14778645Y-15389863D01*
X14774950Y-15413190D01*
X14774950Y-15436810D01*
X14778645Y-15460137D01*
X14785943Y-15482600D01*
X14792798Y-15496053D01*
X14796666Y-15503643D01*
X14810548Y-15522751D01*
X14827249Y-15539452D01*
X14846357Y-15553334D01*
X14852150Y-15556286D01*
X14852573Y-15556501D01*
X14857652Y-15561299D01*
X14859332Y-15568081D01*
X14857078Y-15574695D01*
X14851607Y-15579040D01*
X14846943Y-15579950D01*
X14552947Y-15579950D01*
X14546243Y-15577981D01*
X14541667Y-15572701D01*
X14540673Y-15565785D01*
X14543575Y-15559430D01*
X14547317Y-15556501D01*
X14553616Y-15553292D01*
X14553617Y-15553291D01*
X14561910Y-15547266D01*
X14561910Y-15547266D01*
X14492023Y-15477379D01*
X14496229Y-15476252D01*
X14508771Y-15469011D01*
X14519011Y-15458771D01*
X14526252Y-15446229D01*
X14527379Y-15442023D01*
X14597266Y-15511910D01*
X14597266Y-15511910D01*
X14603291Y-15503617D01*
X14603292Y-15503616D01*
X14614010Y-15482580D01*
X14621306Y-15460125D01*
X14625000Y-15436805D01*
X14625000Y-15413195D01*
X14621306Y-15389875D01*
X14614010Y-15367420D01*
X14603291Y-15346383D01*
X14597266Y-15338089D01*
X14597266Y-15338089D01*
X14527379Y-15407976D01*
X14526252Y-15403771D01*
X14519011Y-15391229D01*
X14508771Y-15380989D01*
X14496229Y-15373748D01*
X14492023Y-15372621D01*
X14561910Y-15302734D01*
X14561910Y-15302734D01*
X14553617Y-15296709D01*
X14532580Y-15285990D01*
X14510125Y-15278693D01*
X14510125Y-15278693D01*
X14486805Y-15275000D01*
X14463195Y-15275000D01*
X14439875Y-15278693D01*
X14417420Y-15285990D01*
X14396383Y-15296708D01*
X14388089Y-15302734D01*
X14457977Y-15372621D01*
X14453771Y-15373748D01*
X14441229Y-15380989D01*
X14430989Y-15391229D01*
X14423748Y-15403771D01*
X14422621Y-15407977D01*
X14352734Y-15338089D01*
X14346708Y-15346383D01*
X14335990Y-15367420D01*
X14328693Y-15389875D01*
X14325000Y-15413195D01*
X14325000Y-15436805D01*
X14328693Y-15460125D01*
X14335990Y-15482580D01*
X14346709Y-15503617D01*
X14352734Y-15511910D01*
X14352734Y-15511910D01*
X14422621Y-15442023D01*
X14423748Y-15446229D01*
X14430989Y-15458771D01*
X14441229Y-15469011D01*
X14453771Y-15476252D01*
X14457976Y-15477379D01*
X14388089Y-15547266D01*
X14396383Y-15553291D01*
X14402683Y-15556501D01*
X14407762Y-15561299D01*
X14409442Y-15568081D01*
X14407188Y-15574695D01*
X14401717Y-15579040D01*
X14397053Y-15579950D01*
X12389900Y-15579950D01*
X12383196Y-15577981D01*
X12378621Y-15572701D01*
X12377500Y-15567550D01*
X12377500Y-15502626D01*
X12379468Y-15495922D01*
X12381132Y-15493858D01*
X12383371Y-15491618D01*
X12387010Y-15487979D01*
X12387011Y-15487979D01*
X12387011Y-15487979D01*
X12399505Y-15470782D01*
X12399505Y-15470782D01*
X12399505Y-15470782D01*
X12399951Y-15469905D01*
X12404749Y-15464826D01*
X12411531Y-15463146D01*
X12418144Y-15465400D01*
X12422049Y-15469906D01*
X12422495Y-15470782D01*
X12434989Y-15487979D01*
X12450021Y-15503011D01*
X12467218Y-15515505D01*
X12467218Y-15515505D01*
X12467218Y-15515505D01*
X12486159Y-15525156D01*
X12506376Y-15531725D01*
X12527371Y-15535050D01*
X12527371Y-15535050D01*
X12548629Y-15535050D01*
X12548629Y-15535050D01*
X12569624Y-15531725D01*
X12589841Y-15525156D01*
X12608782Y-15515505D01*
X12617448Y-15509209D01*
X12625979Y-15503011D01*
X12625979Y-15503011D01*
X12625979Y-15503010D01*
X12641010Y-15487979D01*
X12641011Y-15487979D01*
X12641011Y-15487979D01*
X12653505Y-15470782D01*
X12653505Y-15470782D01*
X12653505Y-15470782D01*
X12653951Y-15469905D01*
X12658749Y-15464826D01*
X12665531Y-15463146D01*
X12672144Y-15465400D01*
X12676049Y-15469906D01*
X12676495Y-15470782D01*
X12688989Y-15487979D01*
X12704021Y-15503011D01*
X12721218Y-15515505D01*
X12721218Y-15515505D01*
X12721218Y-15515505D01*
X12740159Y-15525156D01*
X12760376Y-15531725D01*
X12781371Y-15535050D01*
X12781371Y-15535050D01*
X12802629Y-15535050D01*
X12802629Y-15535050D01*
X12823624Y-15531725D01*
X12843841Y-15525156D01*
X12862782Y-15515505D01*
X12871448Y-15509209D01*
X12879979Y-15503011D01*
X12879979Y-15503011D01*
X12879979Y-15503010D01*
X12895010Y-15487979D01*
X12895011Y-15487979D01*
X12895011Y-15487979D01*
X12907505Y-15470782D01*
X12907505Y-15470782D01*
X12907505Y-15470782D01*
X12907951Y-15469905D01*
X12912749Y-15464826D01*
X12919531Y-15463146D01*
X12926144Y-15465400D01*
X12930049Y-15469906D01*
X12930495Y-15470782D01*
X12942989Y-15487979D01*
X12958021Y-15503011D01*
X12975218Y-15515505D01*
X12975218Y-15515505D01*
X12975218Y-15515505D01*
X12994159Y-15525156D01*
X13014376Y-15531725D01*
X13035371Y-15535050D01*
X13035371Y-15535050D01*
X13056629Y-15535050D01*
X13056629Y-15535050D01*
X13077624Y-15531725D01*
X13097841Y-15525156D01*
X13116782Y-15515505D01*
X13125448Y-15509209D01*
X13133979Y-15503011D01*
X13133979Y-15503011D01*
X13133979Y-15503010D01*
X13149010Y-15487979D01*
X13149011Y-15487979D01*
X13149011Y-15487979D01*
X13161505Y-15470782D01*
X13161505Y-15470782D01*
X13161505Y-15470782D01*
X13161951Y-15469905D01*
X13166749Y-15464826D01*
X13173531Y-15463146D01*
X13180144Y-15465400D01*
X13184049Y-15469906D01*
X13184495Y-15470782D01*
X13196989Y-15487979D01*
X13212021Y-15503011D01*
X13229218Y-15515505D01*
X13229218Y-15515505D01*
X13229218Y-15515505D01*
X13248159Y-15525156D01*
X13268376Y-15531725D01*
X13289371Y-15535050D01*
X13289371Y-15535050D01*
X13310629Y-15535050D01*
X13310629Y-15535050D01*
X13331624Y-15531725D01*
X13351841Y-15525156D01*
X13370782Y-15515505D01*
X13379448Y-15509209D01*
X13387979Y-15503011D01*
X13387979Y-15503011D01*
X13387979Y-15503010D01*
X13403010Y-15487979D01*
X13403011Y-15487979D01*
X13403011Y-15487979D01*
X13415505Y-15470782D01*
X13415505Y-15470782D01*
X13415505Y-15470782D01*
X13415951Y-15469905D01*
X13420749Y-15464826D01*
X13427531Y-15463146D01*
X13434144Y-15465400D01*
X13438049Y-15469906D01*
X13438495Y-15470782D01*
X13450989Y-15487979D01*
X13466021Y-15503011D01*
X13483218Y-15515505D01*
X13483218Y-15515505D01*
X13483218Y-15515505D01*
X13502159Y-15525156D01*
X13522376Y-15531725D01*
X13543371Y-15535050D01*
X13543371Y-15535050D01*
X13564629Y-15535050D01*
X13564629Y-15535050D01*
X13585624Y-15531725D01*
X13605841Y-15525156D01*
X13624782Y-15515505D01*
X13633448Y-15509209D01*
X13641979Y-15503011D01*
X13641979Y-15503011D01*
X13641979Y-15503010D01*
X13657010Y-15487979D01*
X13657011Y-15487979D01*
X13657011Y-15487979D01*
X13669505Y-15470782D01*
X13669505Y-15470782D01*
X13669505Y-15470782D01*
X13669951Y-15469905D01*
X13674749Y-15464826D01*
X13681531Y-15463146D01*
X13688144Y-15465400D01*
X13692049Y-15469906D01*
X13692495Y-15470782D01*
X13704989Y-15487979D01*
X13720021Y-15503011D01*
X13737218Y-15515505D01*
X13737218Y-15515505D01*
X13737218Y-15515505D01*
X13756159Y-15525156D01*
X13776376Y-15531725D01*
X13797371Y-15535050D01*
X13797371Y-15535050D01*
X13818629Y-15535050D01*
X13818629Y-15535050D01*
X13839624Y-15531725D01*
X13859841Y-15525156D01*
X13878782Y-15515505D01*
X13887448Y-15509209D01*
X13895978Y-15503011D01*
X13895978Y-15503011D01*
X13895979Y-15503010D01*
X13907372Y-15491618D01*
X13913504Y-15488270D01*
X13920473Y-15488768D01*
X13926066Y-15492955D01*
X13927758Y-15496053D01*
X13932665Y-15509209D01*
X13932665Y-15509209D01*
X13941281Y-15520719D01*
X13941281Y-15520719D01*
X13952791Y-15529335D01*
X13952791Y-15529335D01*
X13966262Y-15534360D01*
X13966263Y-15534360D01*
X13972215Y-15535000D01*
X13972217Y-15535000D01*
X14037000Y-15535000D01*
X14037000Y-15443301D01*
X14042701Y-15446592D01*
X14055417Y-15450000D01*
X14068583Y-15450000D01*
X14081299Y-15446592D01*
X14087000Y-15443301D01*
X14087000Y-15535000D01*
X14151783Y-15535000D01*
X14151784Y-15535000D01*
X14157737Y-15534360D01*
X14157738Y-15534360D01*
X14171209Y-15529335D01*
X14171209Y-15529335D01*
X14182719Y-15520719D01*
X14182719Y-15520719D01*
X14191335Y-15509209D01*
X14191335Y-15509209D01*
X14196360Y-15495738D01*
X14196360Y-15495737D01*
X14197000Y-15489784D01*
X14197000Y-15489783D01*
X14197000Y-15425000D01*
X14105301Y-15425000D01*
X14108592Y-15419299D01*
X14112000Y-15406583D01*
X14112000Y-15393417D01*
X14108592Y-15380701D01*
X14105301Y-15375000D01*
X14197000Y-15375000D01*
X14197000Y-15310217D01*
X14197000Y-15310216D01*
X14196846Y-15308786D01*
X14196846Y-15308785D01*
X14196360Y-15304263D01*
X14196360Y-15304262D01*
X14191335Y-15290791D01*
X14191335Y-15290791D01*
X14182719Y-15279281D01*
X14182719Y-15279281D01*
X14171209Y-15270665D01*
X14171209Y-15270664D01*
X14157738Y-15265640D01*
X14157737Y-15265640D01*
X14151784Y-15265000D01*
X14087000Y-15265000D01*
X14087000Y-15356699D01*
X14081299Y-15353407D01*
X14068583Y-15350000D01*
X14055417Y-15350000D01*
X14042701Y-15353407D01*
X14037000Y-15356699D01*
X14037000Y-15265000D01*
X13972215Y-15265000D01*
X13966263Y-15265640D01*
X13966262Y-15265640D01*
X13952791Y-15270664D01*
X13952791Y-15270665D01*
X13941281Y-15279281D01*
X13941281Y-15279281D01*
X13932665Y-15290791D01*
X13932665Y-15290791D01*
X13927758Y-15303947D01*
X13923570Y-15309540D01*
X13917024Y-15311982D01*
X13910197Y-15310497D01*
X13907371Y-15308382D01*
X13895979Y-15296989D01*
X13878782Y-15284495D01*
X13859841Y-15274844D01*
X13859841Y-15274844D01*
X13859841Y-15274844D01*
X13839624Y-15268275D01*
X13839624Y-15268275D01*
X13839624Y-15268275D01*
X13823496Y-15265721D01*
X13818629Y-15264950D01*
X13797371Y-15264950D01*
X13792504Y-15265721D01*
X13776376Y-15268275D01*
X13776376Y-15268275D01*
X13761185Y-15273211D01*
X13756158Y-15274844D01*
X13737218Y-15284495D01*
X13720021Y-15296989D01*
X13704989Y-15312021D01*
X13692495Y-15329218D01*
X13692048Y-15330095D01*
X13687251Y-15335174D01*
X13680469Y-15336854D01*
X13673855Y-15334600D01*
X13669952Y-15330095D01*
X13669505Y-15329218D01*
X13657011Y-15312021D01*
X13641979Y-15296989D01*
X13624782Y-15284495D01*
X13605841Y-15274844D01*
X13605841Y-15274844D01*
X13605841Y-15274844D01*
X13585624Y-15268275D01*
X13585624Y-15268275D01*
X13585624Y-15268275D01*
X13569496Y-15265721D01*
X13564629Y-15264950D01*
X13543371Y-15264950D01*
X13536373Y-15266058D01*
X13522375Y-15268275D01*
X13514412Y-15270863D01*
X13507428Y-15271062D01*
X13501812Y-15267838D01*
X13427723Y-15193749D01*
X13427722Y-15193748D01*
X13414828Y-15186304D01*
X13414828Y-15186304D01*
X13411232Y-15185340D01*
X13400445Y-15182450D01*
X13400445Y-15182450D01*
X13261560Y-15182450D01*
X13254856Y-15180481D01*
X13252792Y-15178818D01*
X13111582Y-15037608D01*
X13108233Y-15031476D01*
X13107950Y-15028840D01*
X13107950Y-14959048D01*
X13276307Y-14959048D01*
X13276307Y-14959048D01*
X13277368Y-14959757D01*
X13277369Y-14959757D01*
X13293748Y-14966541D01*
X13293749Y-14966541D01*
X13311135Y-14970000D01*
X13311136Y-14970000D01*
X13328864Y-14970000D01*
X13328865Y-14970000D01*
X13346251Y-14966541D01*
X13346252Y-14966541D01*
X13362631Y-14959757D01*
X13363692Y-14959048D01*
X13436307Y-14959048D01*
X13436307Y-14959048D01*
X13437368Y-14959757D01*
X13437369Y-14959757D01*
X13453748Y-14966541D01*
X13453749Y-14966541D01*
X13471135Y-14970000D01*
X13471136Y-14970000D01*
X13488864Y-14970000D01*
X13488865Y-14970000D01*
X13506251Y-14966541D01*
X13506252Y-14966541D01*
X13522631Y-14959757D01*
X13523692Y-14959048D01*
X13523692Y-14959048D01*
X13480000Y-14915355D01*
X13480000Y-14915355D01*
X13436307Y-14959048D01*
X13363692Y-14959048D01*
X13320000Y-14915355D01*
X13320000Y-14915355D01*
X13276307Y-14959048D01*
X13107950Y-14959048D01*
X13107950Y-14871135D01*
X13230000Y-14871135D01*
X13230000Y-14888865D01*
X13233458Y-14906251D01*
X13233459Y-14906252D01*
X13240243Y-14922631D01*
X13240952Y-14923692D01*
X13284645Y-14880000D01*
X13279672Y-14875027D01*
X13295000Y-14875027D01*
X13295000Y-14884973D01*
X13298806Y-14894161D01*
X13305839Y-14901194D01*
X13315027Y-14905000D01*
X13324973Y-14905000D01*
X13334161Y-14901194D01*
X13341194Y-14894161D01*
X13345000Y-14884973D01*
X13345000Y-14880000D01*
X13355355Y-14880000D01*
X13355355Y-14880000D01*
X13399073Y-14923718D01*
X13400926Y-14923718D01*
X13444645Y-14880000D01*
X13439672Y-14875027D01*
X13455000Y-14875027D01*
X13455000Y-14884973D01*
X13458806Y-14894161D01*
X13465839Y-14901194D01*
X13475027Y-14905000D01*
X13484973Y-14905000D01*
X13494161Y-14901194D01*
X13501194Y-14894161D01*
X13505000Y-14884973D01*
X13505000Y-14880000D01*
X13515355Y-14880000D01*
X13515355Y-14880000D01*
X13559048Y-14923692D01*
X13559048Y-14923692D01*
X13559757Y-14922631D01*
X13566541Y-14906252D01*
X13566541Y-14906251D01*
X13570000Y-14888865D01*
X13570000Y-14888864D01*
X13570000Y-14871136D01*
X13570000Y-14871135D01*
X13566541Y-14853749D01*
X13566541Y-14853748D01*
X13559757Y-14837369D01*
X13559757Y-14837368D01*
X13559048Y-14836307D01*
X13515355Y-14880000D01*
X13505000Y-14880000D01*
X13505000Y-14875027D01*
X13501194Y-14865839D01*
X13494161Y-14858806D01*
X13484973Y-14855000D01*
X13475027Y-14855000D01*
X13465839Y-14858806D01*
X13458806Y-14865839D01*
X13455000Y-14875027D01*
X13439672Y-14875027D01*
X13400926Y-14836282D01*
X13399073Y-14836282D01*
X13355355Y-14880000D01*
X13345000Y-14880000D01*
X13345000Y-14875027D01*
X13341194Y-14865839D01*
X13334161Y-14858806D01*
X13324973Y-14855000D01*
X13315027Y-14855000D01*
X13305839Y-14858806D01*
X13298806Y-14865839D01*
X13295000Y-14875027D01*
X13279672Y-14875027D01*
X13240952Y-14836308D01*
X13240952Y-14836308D01*
X13240243Y-14837369D01*
X13233459Y-14853748D01*
X13233458Y-14853749D01*
X13230000Y-14871135D01*
X13107950Y-14871135D01*
X13107950Y-14799073D01*
X13276282Y-14799073D01*
X13276282Y-14800926D01*
X13320000Y-14844645D01*
X13320000Y-14844645D01*
X13363718Y-14800926D01*
X13363718Y-14799073D01*
X13436282Y-14799073D01*
X13436282Y-14800926D01*
X13480000Y-14844645D01*
X13480000Y-14844645D01*
X13523718Y-14800926D01*
X13523718Y-14799073D01*
X13480000Y-14755355D01*
X13480000Y-14755355D01*
X13436282Y-14799073D01*
X13363718Y-14799073D01*
X13320000Y-14755355D01*
X13320000Y-14755355D01*
X13276282Y-14799073D01*
X13107950Y-14799073D01*
X13107950Y-14711135D01*
X13230000Y-14711135D01*
X13230000Y-14728865D01*
X13233458Y-14746251D01*
X13233459Y-14746252D01*
X13240243Y-14762631D01*
X13240952Y-14763692D01*
X13284645Y-14720000D01*
X13279672Y-14715027D01*
X13295000Y-14715027D01*
X13295000Y-14724973D01*
X13298806Y-14734161D01*
X13305839Y-14741194D01*
X13315027Y-14745000D01*
X13324973Y-14745000D01*
X13334161Y-14741194D01*
X13341194Y-14734161D01*
X13345000Y-14724973D01*
X13345000Y-14720000D01*
X13355355Y-14720000D01*
X13355355Y-14720000D01*
X13399073Y-14763718D01*
X13400926Y-14763718D01*
X13444645Y-14720000D01*
X13439672Y-14715027D01*
X13455000Y-14715027D01*
X13455000Y-14724973D01*
X13458806Y-14734161D01*
X13465839Y-14741194D01*
X13475027Y-14745000D01*
X13484973Y-14745000D01*
X13494161Y-14741194D01*
X13501194Y-14734161D01*
X13505000Y-14724973D01*
X13505000Y-14720000D01*
X13515355Y-14720000D01*
X13515355Y-14720000D01*
X13559048Y-14763692D01*
X13559048Y-14763692D01*
X13559757Y-14762631D01*
X13566541Y-14746252D01*
X13566541Y-14746251D01*
X13570000Y-14728865D01*
X13570000Y-14728864D01*
X13570000Y-14711136D01*
X13570000Y-14711135D01*
X13566541Y-14693749D01*
X13566541Y-14693748D01*
X13559757Y-14677369D01*
X13559757Y-14677368D01*
X13559048Y-14676307D01*
X13515355Y-14720000D01*
X13505000Y-14720000D01*
X13505000Y-14715027D01*
X13501194Y-14705839D01*
X13494161Y-14698806D01*
X13484973Y-14695000D01*
X13475027Y-14695000D01*
X13465839Y-14698806D01*
X13458806Y-14705839D01*
X13455000Y-14715027D01*
X13439672Y-14715027D01*
X13400926Y-14676282D01*
X13399073Y-14676282D01*
X13355355Y-14720000D01*
X13345000Y-14720000D01*
X13345000Y-14715027D01*
X13341194Y-14705839D01*
X13334161Y-14698806D01*
X13324973Y-14695000D01*
X13315027Y-14695000D01*
X13305839Y-14698806D01*
X13298806Y-14705839D01*
X13295000Y-14715027D01*
X13279672Y-14715027D01*
X13240952Y-14676308D01*
X13240952Y-14676308D01*
X13240243Y-14677369D01*
X13233459Y-14693748D01*
X13233458Y-14693749D01*
X13230000Y-14711135D01*
X13107950Y-14711135D01*
X13107950Y-14640952D01*
X13276308Y-14640952D01*
X13276308Y-14640952D01*
X13320000Y-14684645D01*
X13320000Y-14684645D01*
X13363692Y-14640952D01*
X13363692Y-14640952D01*
X13436308Y-14640952D01*
X13436308Y-14640952D01*
X13480000Y-14684645D01*
X13480000Y-14684645D01*
X13523692Y-14640952D01*
X13522631Y-14640243D01*
X13506252Y-14633459D01*
X13506251Y-14633458D01*
X13488865Y-14630000D01*
X13471135Y-14630000D01*
X13453749Y-14633458D01*
X13453748Y-14633459D01*
X13437369Y-14640243D01*
X13436308Y-14640952D01*
X13363692Y-14640952D01*
X13362631Y-14640243D01*
X13346252Y-14633459D01*
X13346251Y-14633458D01*
X13328865Y-14630000D01*
X13311135Y-14630000D01*
X13293749Y-14633458D01*
X13293748Y-14633459D01*
X13277369Y-14640243D01*
X13276308Y-14640952D01*
X13107950Y-14640952D01*
X13107950Y-14145187D01*
X13109918Y-14138484D01*
X13115199Y-14133908D01*
X13122115Y-14132914D01*
X13128470Y-14135816D01*
X13130660Y-14138298D01*
X13131600Y-14139705D01*
X13137705Y-14148842D01*
X13148158Y-14159295D01*
X13148158Y-14159295D01*
X13160450Y-14167508D01*
X13160451Y-14167509D01*
X13174108Y-14173166D01*
X13174109Y-14173166D01*
X13174109Y-14173166D01*
X13174109Y-14173166D01*
X13188608Y-14176050D01*
X13188608Y-14176050D01*
X13203392Y-14176050D01*
X13213146Y-14174110D01*
X13217891Y-14173166D01*
X13231549Y-14167508D01*
X13243842Y-14159295D01*
X13254295Y-14148842D01*
X13262508Y-14136549D01*
X13268166Y-14122891D01*
X13271050Y-14108392D01*
X13271050Y-14093608D01*
X13271050Y-14093608D01*
X13268166Y-14079109D01*
X13268166Y-14079109D01*
X13268166Y-14079109D01*
X13268166Y-14079108D01*
X13263298Y-14067357D01*
X13263124Y-14066893D01*
X13252908Y-14042442D01*
X13251950Y-14037662D01*
X13251950Y-13837212D01*
X13253918Y-13830508D01*
X13259199Y-13825933D01*
X13261931Y-13825050D01*
X13266492Y-13824143D01*
X13268891Y-13823666D01*
X13282549Y-13818008D01*
X13294842Y-13809795D01*
X13305295Y-13799342D01*
X13313508Y-13787049D01*
X13313582Y-13786872D01*
X13317585Y-13777209D01*
X13319166Y-13773391D01*
X13322050Y-13758892D01*
X13322050Y-13744108D01*
X13322050Y-13744108D01*
X13319641Y-13732000D01*
X13319166Y-13729609D01*
X13319033Y-13729288D01*
X13318777Y-13728614D01*
X13309375Y-13701572D01*
X13309033Y-13694593D01*
X13309375Y-13693428D01*
X13310548Y-13690054D01*
X13318827Y-13666241D01*
X13318866Y-13666115D01*
X13319166Y-13665391D01*
X13319300Y-13664718D01*
X13319832Y-13663005D01*
X13319873Y-13662853D01*
X13321452Y-13654197D01*
X13321452Y-13654196D01*
X13321539Y-13653717D01*
X13321640Y-13652953D01*
X13321708Y-13652609D01*
X13322050Y-13650892D01*
X13322050Y-13636108D01*
X13322050Y-13636108D01*
X13319166Y-13621609D01*
X13319166Y-13621609D01*
X13319166Y-13621609D01*
X13318305Y-13619531D01*
X13313509Y-13607951D01*
X13313508Y-13607950D01*
X13305295Y-13595658D01*
X13305295Y-13595658D01*
X13294842Y-13585205D01*
X13294841Y-13585205D01*
X13282550Y-13576992D01*
X13282549Y-13576991D01*
X13273388Y-13573197D01*
X13273356Y-13573171D01*
X13273316Y-13573167D01*
X13270636Y-13570979D01*
X13267948Y-13568812D01*
X13267924Y-13568765D01*
X13267903Y-13568748D01*
X13267834Y-13568585D01*
X13266343Y-13565582D01*
X13266115Y-13564883D01*
X13265166Y-13560109D01*
X13262325Y-13553250D01*
X13262175Y-13552792D01*
X13262086Y-13549762D01*
X13261762Y-13546748D01*
X13261985Y-13546304D01*
X13261970Y-13545808D01*
X13263533Y-13543211D01*
X13264890Y-13540500D01*
X13265317Y-13540247D01*
X13265573Y-13539821D01*
X13268292Y-13538482D01*
X13270899Y-13536935D01*
X13271613Y-13536845D01*
X13271841Y-13536733D01*
X13272189Y-13536773D01*
X13273965Y-13536550D01*
X13321445Y-13536550D01*
X13321445Y-13536550D01*
X13335827Y-13532696D01*
X13348722Y-13525251D01*
X13415758Y-13458215D01*
X13416221Y-13457853D01*
X13416826Y-13457148D01*
X13430251Y-13443722D01*
X13432356Y-13440077D01*
X13437696Y-13430827D01*
X13438856Y-13426499D01*
X13439360Y-13425452D01*
X13439650Y-13425130D01*
X13440070Y-13424177D01*
X13447827Y-13411982D01*
X13449529Y-13409006D01*
X13450182Y-13407865D01*
X13450182Y-13407864D01*
X13450183Y-13407864D01*
X13450183Y-13407863D01*
X13450223Y-13407774D01*
X13451212Y-13405992D01*
X13451508Y-13405549D01*
X13457166Y-13391891D01*
X13458220Y-13386589D01*
X13458755Y-13383902D01*
X13461993Y-13377711D01*
X13468065Y-13374254D01*
X13475042Y-13374628D01*
G37*
%TD.AperFunction*%
%TA.AperFunction,Conductor*%
G36*
X18200347Y-11220069D02*
G01*
X18230650Y-11221771D01*
X18232030Y-11221927D01*
X18261608Y-11226952D01*
X18262963Y-11227261D01*
X18265931Y-11228117D01*
X18291793Y-11235567D01*
X18293105Y-11236026D01*
X18320822Y-11247507D01*
X18322074Y-11248110D01*
X18342318Y-11259299D01*
X18348333Y-11262623D01*
X18349510Y-11263362D01*
X18373979Y-11280724D01*
X18375066Y-11281591D01*
X18397435Y-11301581D01*
X18398418Y-11302565D01*
X18418409Y-11324934D01*
X18419276Y-11326021D01*
X18436637Y-11350490D01*
X18437377Y-11351667D01*
X18451889Y-11377925D01*
X18452493Y-11379178D01*
X18463973Y-11406895D01*
X18464433Y-11408207D01*
X18472738Y-11437036D01*
X18473048Y-11438392D01*
X18478073Y-11467969D01*
X18478229Y-11469351D01*
X18479931Y-11499653D01*
X18479950Y-11500348D01*
X18479950Y-15299652D01*
X18479931Y-15300347D01*
X18478229Y-15330649D01*
X18478073Y-15332031D01*
X18473048Y-15361608D01*
X18472738Y-15362964D01*
X18464433Y-15391793D01*
X18463973Y-15393105D01*
X18452493Y-15420822D01*
X18451889Y-15422075D01*
X18437377Y-15448333D01*
X18436637Y-15449510D01*
X18419276Y-15473978D01*
X18418409Y-15475066D01*
X18398418Y-15497435D01*
X18397435Y-15498418D01*
X18375066Y-15518409D01*
X18373979Y-15519276D01*
X18349510Y-15536637D01*
X18348333Y-15537377D01*
X18322075Y-15551889D01*
X18320822Y-15552493D01*
X18293105Y-15563973D01*
X18291793Y-15564433D01*
X18262964Y-15572738D01*
X18261608Y-15573048D01*
X18232031Y-15578073D01*
X18230649Y-15578229D01*
X18204174Y-15579715D01*
X18197370Y-15578126D01*
X18192506Y-15573110D01*
X18191125Y-15566261D01*
X18193667Y-15559753D01*
X18197849Y-15556287D01*
X18203643Y-15553334D01*
X18222751Y-15539452D01*
X18239452Y-15522751D01*
X18253334Y-15503643D01*
X18264057Y-15482599D01*
X18271355Y-15460137D01*
X18273501Y-15446592D01*
X18275050Y-15436810D01*
X18275050Y-15413190D01*
X18271355Y-15389863D01*
X18264901Y-15370000D01*
X18264057Y-15367401D01*
X18264057Y-15367400D01*
X18264057Y-15367400D01*
X18257145Y-15353835D01*
X18253334Y-15346357D01*
X18239452Y-15327249D01*
X18222751Y-15310548D01*
X18203643Y-15296666D01*
X18182600Y-15285943D01*
X18160137Y-15278645D01*
X18136810Y-15274950D01*
X18136809Y-15274950D01*
X18113191Y-15274950D01*
X18113190Y-15274950D01*
X18089863Y-15278645D01*
X18067400Y-15285943D01*
X18046357Y-15296666D01*
X18038005Y-15302734D01*
X18027249Y-15310548D01*
X18027249Y-15310548D01*
X18027249Y-15310548D01*
X18010549Y-15327249D01*
X18010549Y-15327249D01*
X18010548Y-15327249D01*
X18007074Y-15332031D01*
X17996666Y-15346357D01*
X17985943Y-15367400D01*
X17978645Y-15389863D01*
X17974950Y-15413190D01*
X17974950Y-15436810D01*
X17978645Y-15460137D01*
X17985943Y-15482600D01*
X17992798Y-15496053D01*
X17996666Y-15503643D01*
X18010548Y-15522751D01*
X18027249Y-15539452D01*
X18046357Y-15553334D01*
X18052151Y-15556286D01*
X18052573Y-15556501D01*
X18057652Y-15561299D01*
X18059332Y-15568081D01*
X18057078Y-15574695D01*
X18051607Y-15579040D01*
X18046943Y-15579950D01*
X17752947Y-15579950D01*
X17746243Y-15577981D01*
X17741667Y-15572701D01*
X17740673Y-15565785D01*
X17743575Y-15559430D01*
X17747317Y-15556501D01*
X17753616Y-15553292D01*
X17753617Y-15553291D01*
X17761910Y-15547266D01*
X17761911Y-15547266D01*
X17692023Y-15477379D01*
X17696229Y-15476252D01*
X17708771Y-15469011D01*
X17719011Y-15458771D01*
X17726252Y-15446229D01*
X17727379Y-15442023D01*
X17797266Y-15511910D01*
X17797266Y-15511910D01*
X17803291Y-15503617D01*
X17803292Y-15503616D01*
X17814010Y-15482580D01*
X17821307Y-15460125D01*
X17825000Y-15436805D01*
X17825000Y-15413195D01*
X17821307Y-15389875D01*
X17814010Y-15367420D01*
X17803291Y-15346383D01*
X17797266Y-15338089D01*
X17797266Y-15338089D01*
X17727379Y-15407976D01*
X17726252Y-15403771D01*
X17719011Y-15391229D01*
X17708771Y-15380989D01*
X17696229Y-15373748D01*
X17692023Y-15372621D01*
X17761911Y-15302734D01*
X17761910Y-15302734D01*
X17753617Y-15296709D01*
X17732580Y-15285990D01*
X17710125Y-15278693D01*
X17710125Y-15278693D01*
X17686805Y-15275000D01*
X17663195Y-15275000D01*
X17639875Y-15278693D01*
X17617420Y-15285990D01*
X17596383Y-15296708D01*
X17588089Y-15302734D01*
X17657977Y-15372621D01*
X17653771Y-15373748D01*
X17641229Y-15380989D01*
X17630989Y-15391229D01*
X17623748Y-15403771D01*
X17622621Y-15407977D01*
X17552734Y-15338089D01*
X17546708Y-15346383D01*
X17535990Y-15367420D01*
X17528693Y-15389875D01*
X17525000Y-15413195D01*
X17525000Y-15436805D01*
X17528693Y-15460125D01*
X17535990Y-15482580D01*
X17546709Y-15503617D01*
X17552734Y-15511910D01*
X17552734Y-15511910D01*
X17622621Y-15442023D01*
X17623748Y-15446229D01*
X17630989Y-15458771D01*
X17641229Y-15469011D01*
X17653771Y-15476252D01*
X17657977Y-15477379D01*
X17588089Y-15547266D01*
X17596383Y-15553291D01*
X17602683Y-15556501D01*
X17607763Y-15561299D01*
X17609442Y-15568081D01*
X17607188Y-15574695D01*
X17601717Y-15579040D01*
X17597053Y-15579950D01*
X17403057Y-15579950D01*
X17396353Y-15577981D01*
X17391777Y-15572701D01*
X17390783Y-15565785D01*
X17393686Y-15559430D01*
X17397427Y-15556501D01*
X17403643Y-15553334D01*
X17422751Y-15539452D01*
X17439452Y-15522751D01*
X17453334Y-15503643D01*
X17464057Y-15482599D01*
X17471355Y-15460137D01*
X17473501Y-15446592D01*
X17475050Y-15436810D01*
X17475050Y-15413190D01*
X17471355Y-15389863D01*
X17464901Y-15370000D01*
X17464057Y-15367401D01*
X17464057Y-15367400D01*
X17464057Y-15367400D01*
X17457145Y-15353835D01*
X17453334Y-15346357D01*
X17439452Y-15327249D01*
X17422751Y-15310548D01*
X17403643Y-15296666D01*
X17382600Y-15285943D01*
X17360137Y-15278645D01*
X17336810Y-15274950D01*
X17336809Y-15274950D01*
X17313191Y-15274950D01*
X17313190Y-15274950D01*
X17289863Y-15278645D01*
X17267400Y-15285943D01*
X17246357Y-15296666D01*
X17238005Y-15302734D01*
X17227249Y-15310548D01*
X17227249Y-15310548D01*
X17227249Y-15310548D01*
X17210549Y-15327249D01*
X17210549Y-15327249D01*
X17210548Y-15327249D01*
X17207074Y-15332031D01*
X17196666Y-15346357D01*
X17185943Y-15367400D01*
X17178645Y-15389863D01*
X17174950Y-15413190D01*
X17174950Y-15436810D01*
X17178645Y-15460137D01*
X17185943Y-15482600D01*
X17192798Y-15496053D01*
X17196666Y-15503643D01*
X17210548Y-15522751D01*
X17227249Y-15539452D01*
X17246357Y-15553334D01*
X17252151Y-15556286D01*
X17252573Y-15556501D01*
X17257652Y-15561299D01*
X17259332Y-15568081D01*
X17257078Y-15574695D01*
X17251607Y-15579040D01*
X17246943Y-15579950D01*
X16952947Y-15579950D01*
X16946243Y-15577981D01*
X16941667Y-15572701D01*
X16940673Y-15565785D01*
X16943575Y-15559430D01*
X16947317Y-15556501D01*
X16953616Y-15553292D01*
X16953617Y-15553291D01*
X16961910Y-15547266D01*
X16961911Y-15547266D01*
X16892023Y-15477379D01*
X16896229Y-15476252D01*
X16908771Y-15469011D01*
X16919011Y-15458771D01*
X16926252Y-15446229D01*
X16927379Y-15442023D01*
X16997266Y-15511910D01*
X16997266Y-15511910D01*
X17003291Y-15503617D01*
X17003292Y-15503616D01*
X17014010Y-15482580D01*
X17021307Y-15460125D01*
X17025000Y-15436805D01*
X17025000Y-15413195D01*
X17021307Y-15389875D01*
X17014010Y-15367420D01*
X17003291Y-15346383D01*
X16997266Y-15338089D01*
X16997266Y-15338089D01*
X16927379Y-15407976D01*
X16926252Y-15403771D01*
X16919011Y-15391229D01*
X16908771Y-15380989D01*
X16896229Y-15373748D01*
X16892023Y-15372621D01*
X16961911Y-15302734D01*
X16961910Y-15302734D01*
X16953617Y-15296709D01*
X16932580Y-15285990D01*
X16910125Y-15278693D01*
X16910125Y-15278693D01*
X16886805Y-15275000D01*
X16863195Y-15275000D01*
X16839875Y-15278693D01*
X16817420Y-15285990D01*
X16796383Y-15296708D01*
X16788089Y-15302734D01*
X16857977Y-15372621D01*
X16853771Y-15373748D01*
X16841229Y-15380989D01*
X16830989Y-15391229D01*
X16823748Y-15403771D01*
X16822621Y-15407977D01*
X16752734Y-15338089D01*
X16746708Y-15346383D01*
X16735990Y-15367420D01*
X16728693Y-15389875D01*
X16725000Y-15413195D01*
X16725000Y-15436805D01*
X16728693Y-15460125D01*
X16735990Y-15482580D01*
X16746709Y-15503617D01*
X16752734Y-15511910D01*
X16752734Y-15511910D01*
X16822621Y-15442023D01*
X16823748Y-15446229D01*
X16830989Y-15458771D01*
X16841229Y-15469011D01*
X16853771Y-15476252D01*
X16857977Y-15477379D01*
X16788089Y-15547266D01*
X16796383Y-15553291D01*
X16802683Y-15556501D01*
X16807763Y-15561299D01*
X16809442Y-15568081D01*
X16807188Y-15574695D01*
X16801717Y-15579040D01*
X16797053Y-15579950D01*
X16603057Y-15579950D01*
X16596353Y-15577981D01*
X16591777Y-15572701D01*
X16590783Y-15565785D01*
X16593685Y-15559430D01*
X16597427Y-15556501D01*
X16603643Y-15553334D01*
X16622751Y-15539452D01*
X16639452Y-15522751D01*
X16653334Y-15503643D01*
X16664057Y-15482599D01*
X16671355Y-15460137D01*
X16673500Y-15446592D01*
X16675050Y-15436810D01*
X16675050Y-15413190D01*
X16671355Y-15389863D01*
X16664901Y-15370000D01*
X16664057Y-15367401D01*
X16664057Y-15367400D01*
X16664057Y-15367400D01*
X16657145Y-15353835D01*
X16653334Y-15346357D01*
X16639452Y-15327249D01*
X16622751Y-15310548D01*
X16603643Y-15296666D01*
X16582600Y-15285943D01*
X16560137Y-15278645D01*
X16536810Y-15274950D01*
X16536809Y-15274950D01*
X16513191Y-15274950D01*
X16513190Y-15274950D01*
X16489863Y-15278645D01*
X16467400Y-15285943D01*
X16446357Y-15296666D01*
X16438005Y-15302734D01*
X16427249Y-15310548D01*
X16427249Y-15310548D01*
X16427249Y-15310548D01*
X16410548Y-15327249D01*
X16410548Y-15327249D01*
X16410548Y-15327249D01*
X16407074Y-15332031D01*
X16396666Y-15346357D01*
X16385943Y-15367400D01*
X16378645Y-15389863D01*
X16374950Y-15413190D01*
X16374950Y-15436810D01*
X16378645Y-15460137D01*
X16385943Y-15482600D01*
X16392798Y-15496053D01*
X16396666Y-15503643D01*
X16410548Y-15522751D01*
X16427249Y-15539452D01*
X16446357Y-15553334D01*
X16452150Y-15556286D01*
X16452573Y-15556501D01*
X16457652Y-15561299D01*
X16459332Y-15568081D01*
X16457078Y-15574695D01*
X16451607Y-15579040D01*
X16446943Y-15579950D01*
X16152947Y-15579950D01*
X16146243Y-15577981D01*
X16141667Y-15572701D01*
X16140673Y-15565785D01*
X16143575Y-15559430D01*
X16147317Y-15556501D01*
X16153616Y-15553292D01*
X16153617Y-15553291D01*
X16161910Y-15547266D01*
X16161910Y-15547266D01*
X16092023Y-15477379D01*
X16096229Y-15476252D01*
X16108771Y-15469011D01*
X16119011Y-15458771D01*
X16126252Y-15446229D01*
X16127379Y-15442023D01*
X16197266Y-15511910D01*
X16197266Y-15511910D01*
X16203291Y-15503617D01*
X16203292Y-15503616D01*
X16214010Y-15482580D01*
X16221306Y-15460125D01*
X16225000Y-15436805D01*
X16225000Y-15413195D01*
X16221306Y-15389875D01*
X16214010Y-15367420D01*
X16203291Y-15346383D01*
X16197266Y-15338089D01*
X16197266Y-15338089D01*
X16127379Y-15407976D01*
X16126252Y-15403771D01*
X16119011Y-15391229D01*
X16108771Y-15380989D01*
X16096229Y-15373748D01*
X16092023Y-15372621D01*
X16161910Y-15302734D01*
X16161910Y-15302734D01*
X16153617Y-15296709D01*
X16132580Y-15285990D01*
X16110125Y-15278693D01*
X16110125Y-15278693D01*
X16086805Y-15275000D01*
X16063195Y-15275000D01*
X16039875Y-15278693D01*
X16017420Y-15285990D01*
X15996383Y-15296708D01*
X15988089Y-15302734D01*
X16057977Y-15372621D01*
X16053771Y-15373748D01*
X16041229Y-15380989D01*
X16030989Y-15391229D01*
X16023748Y-15403771D01*
X16022621Y-15407977D01*
X15952734Y-15338089D01*
X15946708Y-15346383D01*
X15935990Y-15367420D01*
X15928693Y-15389875D01*
X15925000Y-15413195D01*
X15925000Y-15436805D01*
X15928693Y-15460125D01*
X15935990Y-15482580D01*
X15946709Y-15503617D01*
X15952734Y-15511910D01*
X15952734Y-15511910D01*
X16022621Y-15442023D01*
X16023748Y-15446229D01*
X16030989Y-15458771D01*
X16041229Y-15469011D01*
X16053771Y-15476252D01*
X16057976Y-15477379D01*
X15988089Y-15547266D01*
X15996383Y-15553291D01*
X16002683Y-15556501D01*
X16007762Y-15561299D01*
X16009442Y-15568081D01*
X16007188Y-15574695D01*
X16001717Y-15579040D01*
X15997053Y-15579950D01*
X15803057Y-15579950D01*
X15796353Y-15577981D01*
X15791777Y-15572701D01*
X15790783Y-15565785D01*
X15793685Y-15559430D01*
X15797427Y-15556501D01*
X15803643Y-15553334D01*
X15822751Y-15539452D01*
X15839452Y-15522751D01*
X15853334Y-15503643D01*
X15864057Y-15482599D01*
X15871355Y-15460137D01*
X15873500Y-15446592D01*
X15875050Y-15436810D01*
X15875050Y-15413190D01*
X15871355Y-15389863D01*
X15864901Y-15370000D01*
X15864057Y-15367401D01*
X15864057Y-15367400D01*
X15864057Y-15367400D01*
X15857145Y-15353835D01*
X15853334Y-15346357D01*
X15839452Y-15327249D01*
X15822751Y-15310548D01*
X15803643Y-15296666D01*
X15782600Y-15285943D01*
X15760137Y-15278645D01*
X15736810Y-15274950D01*
X15736809Y-15274950D01*
X15713191Y-15274950D01*
X15713190Y-15274950D01*
X15689863Y-15278645D01*
X15667400Y-15285943D01*
X15646357Y-15296666D01*
X15638005Y-15302734D01*
X15627249Y-15310548D01*
X15627249Y-15310548D01*
X15627249Y-15310548D01*
X15610548Y-15327249D01*
X15610548Y-15327249D01*
X15610548Y-15327249D01*
X15607074Y-15332031D01*
X15596666Y-15346357D01*
X15585943Y-15367400D01*
X15578645Y-15389863D01*
X15574950Y-15413190D01*
X15574950Y-15436810D01*
X15578645Y-15460137D01*
X15585943Y-15482600D01*
X15592798Y-15496053D01*
X15596666Y-15503643D01*
X15610548Y-15522751D01*
X15627249Y-15539452D01*
X15646357Y-15553334D01*
X15652150Y-15556286D01*
X15652573Y-15556501D01*
X15657652Y-15561299D01*
X15659332Y-15568081D01*
X15657078Y-15574695D01*
X15651607Y-15579040D01*
X15646943Y-15579950D01*
X15352947Y-15579950D01*
X15346243Y-15577981D01*
X15341667Y-15572701D01*
X15340673Y-15565785D01*
X15343575Y-15559430D01*
X15347317Y-15556501D01*
X15353616Y-15553292D01*
X15353617Y-15553291D01*
X15361910Y-15547266D01*
X15361910Y-15547266D01*
X15292023Y-15477379D01*
X15296229Y-15476252D01*
X15308771Y-15469011D01*
X15319011Y-15458771D01*
X15326252Y-15446229D01*
X15327379Y-15442023D01*
X15397266Y-15511910D01*
X15397266Y-15511910D01*
X15403291Y-15503617D01*
X15403292Y-15503616D01*
X15414010Y-15482580D01*
X15421306Y-15460125D01*
X15425000Y-15436805D01*
X15425000Y-15413195D01*
X15421306Y-15389875D01*
X15414010Y-15367420D01*
X15403291Y-15346383D01*
X15397266Y-15338089D01*
X15397266Y-15338089D01*
X15327379Y-15407976D01*
X15326252Y-15403771D01*
X15319011Y-15391229D01*
X15308771Y-15380989D01*
X15296229Y-15373748D01*
X15292023Y-15372621D01*
X15361910Y-15302734D01*
X15361910Y-15302734D01*
X15353617Y-15296709D01*
X15332580Y-15285990D01*
X15310125Y-15278693D01*
X15310125Y-15278693D01*
X15286805Y-15275000D01*
X15263195Y-15275000D01*
X15239875Y-15278693D01*
X15217420Y-15285990D01*
X15196383Y-15296708D01*
X15188089Y-15302734D01*
X15257977Y-15372621D01*
X15253771Y-15373748D01*
X15241229Y-15380989D01*
X15230989Y-15391229D01*
X15223748Y-15403771D01*
X15222621Y-15407977D01*
X15152734Y-15338089D01*
X15146708Y-15346383D01*
X15135990Y-15367420D01*
X15128693Y-15389875D01*
X15125000Y-15413195D01*
X15125000Y-15436805D01*
X15128693Y-15460125D01*
X15135990Y-15482580D01*
X15146709Y-15503617D01*
X15152734Y-15511910D01*
X15152734Y-15511910D01*
X15222621Y-15442023D01*
X15223748Y-15446229D01*
X15230989Y-15458771D01*
X15241229Y-15469011D01*
X15253771Y-15476252D01*
X15257976Y-15477379D01*
X15188089Y-15547266D01*
X15196383Y-15553291D01*
X15202683Y-15556501D01*
X15207762Y-15561299D01*
X15209442Y-15568081D01*
X15207188Y-15574695D01*
X15201717Y-15579040D01*
X15197053Y-15579950D01*
X15003057Y-15579950D01*
X14996353Y-15577981D01*
X14991777Y-15572701D01*
X14990783Y-15565785D01*
X14993685Y-15559430D01*
X14997427Y-15556501D01*
X15003643Y-15553334D01*
X15022751Y-15539452D01*
X15039452Y-15522751D01*
X15053334Y-15503643D01*
X15064057Y-15482599D01*
X15071355Y-15460137D01*
X15073500Y-15446592D01*
X15075050Y-15436810D01*
X15075050Y-15413190D01*
X15071355Y-15389863D01*
X15064901Y-15370000D01*
X15064057Y-15367401D01*
X15064057Y-15367400D01*
X15064057Y-15367400D01*
X15057145Y-15353835D01*
X15053334Y-15346357D01*
X15053333Y-15346355D01*
X15053080Y-15345942D01*
X15053098Y-15345931D01*
X15052276Y-15344550D01*
X15044003Y-15327249D01*
X14991263Y-15216949D01*
X14990050Y-15211600D01*
X14990050Y-14988400D01*
X14991263Y-14983051D01*
X14997503Y-14970000D01*
X15052275Y-14855450D01*
X15053097Y-14854070D01*
X15053079Y-14854059D01*
X15053334Y-14853644D01*
X15053334Y-14853644D01*
X15053334Y-14853643D01*
X15064057Y-14832599D01*
X15071355Y-14810137D01*
X15072814Y-14800926D01*
X15075050Y-14786810D01*
X15075050Y-14763195D01*
X15125000Y-14763195D01*
X15125000Y-14786805D01*
X15128693Y-14810125D01*
X15135990Y-14832580D01*
X15146709Y-14853617D01*
X15152734Y-14861910D01*
X15152734Y-14861910D01*
X15222621Y-14792023D01*
X15223748Y-14796229D01*
X15230989Y-14808771D01*
X15241229Y-14819011D01*
X15253771Y-14826252D01*
X15257976Y-14827379D01*
X15188089Y-14897266D01*
X15196383Y-14903291D01*
X15217420Y-14914010D01*
X15239875Y-14921306D01*
X15239875Y-14921306D01*
X15263195Y-14925000D01*
X15286805Y-14925000D01*
X15310125Y-14921306D01*
X15332580Y-14914010D01*
X15353616Y-14903292D01*
X15353617Y-14903291D01*
X15361910Y-14897266D01*
X15361910Y-14897266D01*
X15292023Y-14827379D01*
X15296229Y-14826252D01*
X15308771Y-14819011D01*
X15319011Y-14808771D01*
X15326252Y-14796229D01*
X15327379Y-14792023D01*
X15397266Y-14861910D01*
X15397266Y-14861910D01*
X15403291Y-14853617D01*
X15403292Y-14853616D01*
X15414010Y-14832580D01*
X15421306Y-14810125D01*
X15425000Y-14786805D01*
X15425000Y-14763195D01*
X15424999Y-14763190D01*
X15574950Y-14763190D01*
X15574950Y-14786810D01*
X15578645Y-14810137D01*
X15585943Y-14832600D01*
X15594185Y-14848774D01*
X15596666Y-14853643D01*
X15610548Y-14872751D01*
X15627249Y-14889452D01*
X15646357Y-14903334D01*
X15652084Y-14906252D01*
X15667400Y-14914057D01*
X15667400Y-14914057D01*
X15667401Y-14914057D01*
X15689863Y-14921355D01*
X15690231Y-14921414D01*
X15692022Y-14921835D01*
X15829837Y-14965326D01*
X15834874Y-14968383D01*
X15855742Y-14989252D01*
X15869208Y-14997026D01*
X15884226Y-15001050D01*
X15884226Y-15001050D01*
X18184774Y-15001050D01*
X18184774Y-15001050D01*
X18196619Y-14997876D01*
X18199793Y-14997026D01*
X18213258Y-14989252D01*
X18325252Y-14877257D01*
X18333026Y-14863792D01*
X18333444Y-14862230D01*
X18337050Y-14848774D01*
X18337050Y-14675226D01*
X18333026Y-14660208D01*
X18333026Y-14660207D01*
X18333026Y-14660207D01*
X18325252Y-14646743D01*
X18325252Y-14646742D01*
X18023304Y-14344795D01*
X18020911Y-14341429D01*
X18018093Y-14335608D01*
X18004869Y-14308290D01*
X18004808Y-14308175D01*
X18004508Y-14307450D01*
X18004127Y-14306880D01*
X18003293Y-14305295D01*
X18003216Y-14305158D01*
X18003215Y-14305158D01*
X18003215Y-14305157D01*
X17997924Y-14297507D01*
X17997463Y-14296906D01*
X17996296Y-14295159D01*
X17996295Y-14295159D01*
X17996295Y-14295158D01*
X17985842Y-14284705D01*
X17985842Y-14284705D01*
X17985841Y-14284705D01*
X17973550Y-14276492D01*
X17973549Y-14276491D01*
X17959892Y-14270834D01*
X17959891Y-14270834D01*
X17945392Y-14267950D01*
X17945392Y-14267950D01*
X17930608Y-14267950D01*
X17930608Y-14267950D01*
X17916109Y-14270834D01*
X17916108Y-14270834D01*
X17902451Y-14276491D01*
X17902450Y-14276492D01*
X17890158Y-14284705D01*
X17890158Y-14284705D01*
X17879705Y-14295158D01*
X17879705Y-14295158D01*
X17871492Y-14307450D01*
X17871491Y-14307451D01*
X17865834Y-14321108D01*
X17865834Y-14321109D01*
X17862950Y-14335608D01*
X17862950Y-14335608D01*
X17862950Y-14350392D01*
X17862950Y-14350392D01*
X17862950Y-14350392D01*
X17865834Y-14364891D01*
X17865834Y-14364892D01*
X17871491Y-14378549D01*
X17871492Y-14378550D01*
X17879705Y-14390841D01*
X17879705Y-14390842D01*
X17890158Y-14401295D01*
X17890159Y-14401295D01*
X17902449Y-14409508D01*
X17902450Y-14409508D01*
X17902451Y-14409508D01*
X17902773Y-14409642D01*
X17903429Y-14409936D01*
X17936429Y-14425911D01*
X17939795Y-14428304D01*
X18116053Y-14604563D01*
X18119402Y-14610695D01*
X18118903Y-14617664D01*
X18114716Y-14623257D01*
X18109225Y-14625578D01*
X18089863Y-14628645D01*
X18067400Y-14635943D01*
X18046357Y-14646666D01*
X18038005Y-14652734D01*
X18027249Y-14660548D01*
X18027249Y-14660548D01*
X18027249Y-14660548D01*
X18010549Y-14677249D01*
X18010549Y-14677249D01*
X18010548Y-14677249D01*
X18005175Y-14684645D01*
X17996666Y-14696357D01*
X17985943Y-14717400D01*
X17978645Y-14739863D01*
X17974950Y-14763190D01*
X17974950Y-14786810D01*
X17978645Y-14810137D01*
X17985943Y-14832600D01*
X17994185Y-14848774D01*
X17996666Y-14853643D01*
X18002904Y-14862230D01*
X18003654Y-14863261D01*
X18006002Y-14869842D01*
X18004419Y-14876647D01*
X17999409Y-14881517D01*
X17993622Y-14882950D01*
X17806316Y-14882950D01*
X17799612Y-14880981D01*
X17795037Y-14875701D01*
X17794043Y-14868785D01*
X17796285Y-14863261D01*
X17803291Y-14853617D01*
X17814010Y-14832580D01*
X17821307Y-14810125D01*
X17825000Y-14786805D01*
X17825000Y-14763195D01*
X17821307Y-14739875D01*
X17814010Y-14717420D01*
X17803291Y-14696383D01*
X17797266Y-14688089D01*
X17797266Y-14688089D01*
X17727379Y-14757976D01*
X17726252Y-14753771D01*
X17719011Y-14741229D01*
X17708771Y-14730989D01*
X17696229Y-14723748D01*
X17692023Y-14722621D01*
X17761911Y-14652734D01*
X17761910Y-14652734D01*
X17753617Y-14646709D01*
X17732580Y-14635990D01*
X17710125Y-14628693D01*
X17710125Y-14628693D01*
X17686805Y-14625000D01*
X17663195Y-14625000D01*
X17639875Y-14628693D01*
X17617420Y-14635990D01*
X17596383Y-14646708D01*
X17588089Y-14652734D01*
X17657977Y-14722621D01*
X17653771Y-14723748D01*
X17641229Y-14730989D01*
X17630989Y-14741229D01*
X17623748Y-14753771D01*
X17622621Y-14757977D01*
X17552734Y-14688089D01*
X17546708Y-14696383D01*
X17535990Y-14717420D01*
X17528693Y-14739875D01*
X17525000Y-14763195D01*
X17525000Y-14786805D01*
X17528693Y-14810125D01*
X17535990Y-14832580D01*
X17546709Y-14853617D01*
X17553716Y-14863261D01*
X17556064Y-14869842D01*
X17554481Y-14876647D01*
X17549470Y-14881517D01*
X17543684Y-14882950D01*
X17456378Y-14882950D01*
X17449674Y-14880981D01*
X17445099Y-14875701D01*
X17444104Y-14868785D01*
X17446346Y-14863261D01*
X17447096Y-14862230D01*
X17453334Y-14853643D01*
X17464057Y-14832599D01*
X17471355Y-14810137D01*
X17472814Y-14800926D01*
X17475050Y-14786810D01*
X17475050Y-14763190D01*
X17471355Y-14739863D01*
X17466119Y-14723748D01*
X17464057Y-14717401D01*
X17464057Y-14717400D01*
X17464057Y-14717400D01*
X17456976Y-14703504D01*
X17453334Y-14696357D01*
X17439452Y-14677249D01*
X17422751Y-14660548D01*
X17403643Y-14646666D01*
X17382600Y-14635943D01*
X17360137Y-14628645D01*
X17336810Y-14624950D01*
X17336809Y-14624950D01*
X17313191Y-14624950D01*
X17313190Y-14624950D01*
X17289863Y-14628645D01*
X17267400Y-14635943D01*
X17246357Y-14646666D01*
X17238005Y-14652734D01*
X17227249Y-14660548D01*
X17227249Y-14660548D01*
X17227249Y-14660548D01*
X17210549Y-14677249D01*
X17210549Y-14677249D01*
X17210548Y-14677249D01*
X17205175Y-14684645D01*
X17196666Y-14696357D01*
X17185943Y-14717400D01*
X17178645Y-14739863D01*
X17174950Y-14763190D01*
X17174950Y-14786810D01*
X17178645Y-14810137D01*
X17185943Y-14832600D01*
X17194185Y-14848774D01*
X17196666Y-14853643D01*
X17202904Y-14862230D01*
X17203654Y-14863261D01*
X17206002Y-14869842D01*
X17204419Y-14876647D01*
X17199409Y-14881517D01*
X17193622Y-14882950D01*
X17006316Y-14882950D01*
X16999612Y-14880981D01*
X16995037Y-14875701D01*
X16994043Y-14868785D01*
X16996285Y-14863261D01*
X17003291Y-14853617D01*
X17014010Y-14832580D01*
X17021307Y-14810125D01*
X17025000Y-14786805D01*
X17025000Y-14763195D01*
X17021307Y-14739875D01*
X17014010Y-14717420D01*
X17003291Y-14696383D01*
X16997266Y-14688089D01*
X16997266Y-14688089D01*
X16927379Y-14757976D01*
X16926252Y-14753771D01*
X16919011Y-14741229D01*
X16908771Y-14730989D01*
X16896229Y-14723748D01*
X16892023Y-14722621D01*
X16961911Y-14652734D01*
X16961910Y-14652734D01*
X16953617Y-14646709D01*
X16932580Y-14635990D01*
X16910125Y-14628693D01*
X16910125Y-14628693D01*
X16886805Y-14625000D01*
X16863195Y-14625000D01*
X16839875Y-14628693D01*
X16817420Y-14635990D01*
X16796383Y-14646708D01*
X16788089Y-14652734D01*
X16857977Y-14722621D01*
X16853771Y-14723748D01*
X16841229Y-14730989D01*
X16830989Y-14741229D01*
X16823748Y-14753771D01*
X16822621Y-14757977D01*
X16752734Y-14688089D01*
X16746708Y-14696383D01*
X16735990Y-14717420D01*
X16728693Y-14739875D01*
X16725000Y-14763195D01*
X16725000Y-14786805D01*
X16728693Y-14810125D01*
X16735990Y-14832580D01*
X16746709Y-14853617D01*
X16753715Y-14863261D01*
X16756063Y-14869842D01*
X16754481Y-14876647D01*
X16749470Y-14881517D01*
X16743684Y-14882950D01*
X16656378Y-14882950D01*
X16649674Y-14880981D01*
X16645099Y-14875701D01*
X16644104Y-14868785D01*
X16646346Y-14863261D01*
X16647095Y-14862230D01*
X16653334Y-14853643D01*
X16664057Y-14832599D01*
X16671355Y-14810137D01*
X16672814Y-14800926D01*
X16675050Y-14786810D01*
X16675050Y-14763190D01*
X16671355Y-14739863D01*
X16666119Y-14723748D01*
X16664057Y-14717401D01*
X16664057Y-14717400D01*
X16664057Y-14717400D01*
X16656976Y-14703504D01*
X16653334Y-14696357D01*
X16639452Y-14677249D01*
X16622751Y-14660548D01*
X16603643Y-14646666D01*
X16582600Y-14635943D01*
X16560137Y-14628645D01*
X16536810Y-14624950D01*
X16536809Y-14624950D01*
X16513191Y-14624950D01*
X16513190Y-14624950D01*
X16489863Y-14628645D01*
X16467400Y-14635943D01*
X16446357Y-14646666D01*
X16438005Y-14652734D01*
X16427249Y-14660548D01*
X16427249Y-14660548D01*
X16427249Y-14660548D01*
X16410548Y-14677249D01*
X16410548Y-14677249D01*
X16410548Y-14677249D01*
X16405175Y-14684645D01*
X16396666Y-14696357D01*
X16385943Y-14717400D01*
X16378645Y-14739863D01*
X16374950Y-14763190D01*
X16374950Y-14786810D01*
X16378645Y-14810137D01*
X16385943Y-14832600D01*
X16394185Y-14848774D01*
X16396666Y-14853643D01*
X16402904Y-14862230D01*
X16403654Y-14863261D01*
X16406002Y-14869842D01*
X16404419Y-14876647D01*
X16399409Y-14881517D01*
X16393622Y-14882950D01*
X16206316Y-14882950D01*
X16199612Y-14880981D01*
X16195037Y-14875701D01*
X16194042Y-14868785D01*
X16196284Y-14863261D01*
X16203291Y-14853617D01*
X16214010Y-14832580D01*
X16221306Y-14810125D01*
X16225000Y-14786805D01*
X16225000Y-14763195D01*
X16221306Y-14739875D01*
X16214010Y-14717420D01*
X16203291Y-14696383D01*
X16197266Y-14688089D01*
X16197266Y-14688089D01*
X16127379Y-14757976D01*
X16126252Y-14753771D01*
X16119011Y-14741229D01*
X16108771Y-14730989D01*
X16096229Y-14723748D01*
X16092023Y-14722621D01*
X16161910Y-14652734D01*
X16161910Y-14652734D01*
X16153617Y-14646709D01*
X16132580Y-14635990D01*
X16110125Y-14628693D01*
X16110125Y-14628693D01*
X16086805Y-14625000D01*
X16063195Y-14625000D01*
X16039875Y-14628693D01*
X16017420Y-14635990D01*
X15996383Y-14646708D01*
X15988089Y-14652734D01*
X16057977Y-14722621D01*
X16053771Y-14723748D01*
X16041229Y-14730989D01*
X16030989Y-14741229D01*
X16023748Y-14753771D01*
X16022621Y-14757977D01*
X15952734Y-14688089D01*
X15946708Y-14696383D01*
X15935990Y-14717420D01*
X15928693Y-14739875D01*
X15925000Y-14763195D01*
X15925000Y-14786805D01*
X15928693Y-14810125D01*
X15935990Y-14832580D01*
X15946709Y-14853617D01*
X15953715Y-14863261D01*
X15956063Y-14869842D01*
X15954481Y-14876647D01*
X15949470Y-14881517D01*
X15943684Y-14882950D01*
X15925398Y-14882950D01*
X15918694Y-14880981D01*
X15914118Y-14875701D01*
X15913573Y-14874282D01*
X15911711Y-14868383D01*
X15871836Y-14742023D01*
X15871414Y-14740231D01*
X15871355Y-14739864D01*
X15871355Y-14739863D01*
X15866119Y-14723748D01*
X15864057Y-14717401D01*
X15864057Y-14717400D01*
X15864057Y-14717400D01*
X15856976Y-14703504D01*
X15853334Y-14696357D01*
X15839452Y-14677249D01*
X15822751Y-14660548D01*
X15803643Y-14646666D01*
X15782600Y-14635943D01*
X15760137Y-14628645D01*
X15736810Y-14624950D01*
X15736809Y-14624950D01*
X15713191Y-14624950D01*
X15713190Y-14624950D01*
X15689863Y-14628645D01*
X15667400Y-14635943D01*
X15646357Y-14646666D01*
X15638005Y-14652734D01*
X15627249Y-14660548D01*
X15627249Y-14660548D01*
X15627249Y-14660548D01*
X15610548Y-14677249D01*
X15610548Y-14677249D01*
X15610548Y-14677249D01*
X15605175Y-14684645D01*
X15596666Y-14696357D01*
X15585943Y-14717400D01*
X15578645Y-14739863D01*
X15574950Y-14763190D01*
X15424999Y-14763190D01*
X15421306Y-14739875D01*
X15414010Y-14717420D01*
X15403291Y-14696383D01*
X15397266Y-14688089D01*
X15397266Y-14688089D01*
X15327379Y-14757976D01*
X15326252Y-14753771D01*
X15319011Y-14741229D01*
X15308771Y-14730989D01*
X15296229Y-14723748D01*
X15292023Y-14722621D01*
X15361910Y-14652734D01*
X15361910Y-14652734D01*
X15353617Y-14646709D01*
X15332580Y-14635990D01*
X15310125Y-14628693D01*
X15310125Y-14628693D01*
X15286805Y-14625000D01*
X15263195Y-14625000D01*
X15239875Y-14628693D01*
X15217420Y-14635990D01*
X15196383Y-14646708D01*
X15188089Y-14652734D01*
X15257977Y-14722621D01*
X15253771Y-14723748D01*
X15241229Y-14730989D01*
X15230989Y-14741229D01*
X15223748Y-14753771D01*
X15222621Y-14757977D01*
X15152734Y-14688089D01*
X15146708Y-14696383D01*
X15135990Y-14717420D01*
X15128693Y-14739875D01*
X15125000Y-14763195D01*
X15075050Y-14763195D01*
X15075050Y-14763190D01*
X15071355Y-14739863D01*
X15066119Y-14723748D01*
X15064057Y-14717401D01*
X15064057Y-14717400D01*
X15064057Y-14717400D01*
X15056976Y-14703504D01*
X15053334Y-14696357D01*
X15053333Y-14696355D01*
X15053080Y-14695942D01*
X15053098Y-14695931D01*
X15052276Y-14694550D01*
X15037099Y-14662809D01*
X15036018Y-14660548D01*
X15005797Y-14597345D01*
X14991263Y-14566949D01*
X14990050Y-14561600D01*
X14990050Y-14259450D01*
X14990849Y-14255071D01*
X14993351Y-14248443D01*
X15003327Y-14222015D01*
X15003492Y-14221517D01*
X15004166Y-14219891D01*
X15004364Y-14218892D01*
X15004606Y-14218164D01*
X15004658Y-14217984D01*
X15006416Y-14208690D01*
X15006416Y-14208689D01*
X15006450Y-14208511D01*
X15006474Y-14208287D01*
X15007050Y-14205392D01*
X15007050Y-14202911D01*
X15007120Y-14202253D01*
X15008213Y-14199611D01*
X15009018Y-14196870D01*
X15009532Y-14196425D01*
X15009792Y-14195797D01*
X15012139Y-14194165D01*
X15014299Y-14192294D01*
X15014971Y-14192198D01*
X15015529Y-14191810D01*
X15018386Y-14191707D01*
X15021215Y-14191300D01*
X15021868Y-14191412D01*
X15035130Y-14194050D01*
X15035131Y-14194050D01*
X15035131Y-14194050D01*
X15644869Y-14194050D01*
X15644869Y-14194050D01*
X15662267Y-14190589D01*
X15670461Y-14187195D01*
X15678655Y-14183801D01*
X15687496Y-14177894D01*
X15693404Y-14173946D01*
X16013668Y-13853682D01*
X16019800Y-13850333D01*
X16022436Y-13850050D01*
X16295868Y-13850050D01*
X16302572Y-13852018D01*
X16307148Y-13857299D01*
X16307324Y-13857705D01*
X16311336Y-13867391D01*
X16311337Y-13867392D01*
X16322286Y-13883778D01*
X16322286Y-13883778D01*
X16336221Y-13897714D01*
X16336222Y-13897714D01*
X16352608Y-13908663D01*
X16352609Y-13908663D01*
X16370816Y-13916205D01*
X16370816Y-13916205D01*
X16370817Y-13916205D01*
X16370817Y-13916205D01*
X16390146Y-13920050D01*
X16390146Y-13920050D01*
X16409854Y-13920050D01*
X16422858Y-13917463D01*
X16429183Y-13916205D01*
X16447391Y-13908663D01*
X16463778Y-13897714D01*
X16477714Y-13883778D01*
X16488663Y-13867391D01*
X16496205Y-13849183D01*
X16500050Y-13829854D01*
X16500050Y-13481371D01*
X16964950Y-13481371D01*
X16964950Y-13502629D01*
X16968208Y-13523200D01*
X16968275Y-13523624D01*
X16974378Y-13542405D01*
X16974844Y-13543841D01*
X16984495Y-13562782D01*
X16996989Y-13579979D01*
X17012021Y-13595011D01*
X17029218Y-13607505D01*
X17030095Y-13607952D01*
X17035174Y-13612749D01*
X17036854Y-13619531D01*
X17034600Y-13626145D01*
X17030095Y-13630048D01*
X17029218Y-13630495D01*
X17012021Y-13642989D01*
X16996989Y-13658021D01*
X16984495Y-13675218D01*
X16974844Y-13694158D01*
X16968275Y-13714376D01*
X16966093Y-13728157D01*
X16964950Y-13735371D01*
X16964950Y-13756629D01*
X16965309Y-13758892D01*
X16968210Y-13777209D01*
X16968275Y-13777624D01*
X16971338Y-13787050D01*
X16974844Y-13797841D01*
X16984495Y-13816782D01*
X16996989Y-13833979D01*
X17008343Y-13845333D01*
X17011692Y-13851465D01*
X17011193Y-13858434D01*
X17007006Y-13864027D01*
X17003908Y-13865719D01*
X16990767Y-13870620D01*
X16990766Y-13870621D01*
X16979246Y-13879245D01*
X16979245Y-13879245D01*
X16970621Y-13890766D01*
X16970620Y-13890767D01*
X16965591Y-13904252D01*
X16964950Y-13910212D01*
X16964950Y-13910212D01*
X16964950Y-13910213D01*
X16964950Y-14089787D01*
X16964950Y-14089788D01*
X16965591Y-14095748D01*
X16970620Y-14109233D01*
X16970621Y-14109233D01*
X16979245Y-14120754D01*
X16979246Y-14120755D01*
X16990766Y-14129379D01*
X16990767Y-14129380D01*
X17004252Y-14134409D01*
X17004252Y-14134409D01*
X17004944Y-14134483D01*
X17010213Y-14135050D01*
X17189787Y-14135050D01*
X17195748Y-14134409D01*
X17209233Y-14129380D01*
X17220755Y-14120755D01*
X17229380Y-14109233D01*
X17234409Y-14095748D01*
X17235050Y-14089787D01*
X17235050Y-13910213D01*
X17234409Y-13904252D01*
X17233794Y-13902601D01*
X17229380Y-13890767D01*
X17229379Y-13890766D01*
X17220755Y-13879245D01*
X17220754Y-13879245D01*
X17209234Y-13870621D01*
X17209233Y-13870620D01*
X17196092Y-13865719D01*
X17190498Y-13861532D01*
X17188057Y-13854985D01*
X17189542Y-13848158D01*
X17191656Y-13845333D01*
X17203010Y-13833979D01*
X17206008Y-13829854D01*
X17215505Y-13816782D01*
X17215505Y-13816782D01*
X17215505Y-13816782D01*
X17225156Y-13797841D01*
X17231725Y-13777624D01*
X17235050Y-13756629D01*
X17235050Y-13735371D01*
X17231725Y-13714376D01*
X17225156Y-13694159D01*
X17215505Y-13675218D01*
X17215505Y-13675218D01*
X17215505Y-13675218D01*
X17205143Y-13660955D01*
X17203011Y-13658021D01*
X17203011Y-13658021D01*
X17187979Y-13642989D01*
X17170782Y-13630495D01*
X17170712Y-13630459D01*
X17169905Y-13630048D01*
X17169612Y-13629771D01*
X17169220Y-13629672D01*
X17167093Y-13627392D01*
X17164826Y-13625251D01*
X17164729Y-13624859D01*
X17164453Y-13624564D01*
X17163896Y-13621496D01*
X17163146Y-13618469D01*
X17163277Y-13618087D01*
X17163204Y-13617689D01*
X17164394Y-13614807D01*
X17165400Y-13611856D01*
X17165761Y-13611497D01*
X17165870Y-13611231D01*
X17166735Y-13610528D01*
X17168451Y-13608823D01*
X17169148Y-13608337D01*
X17170782Y-13607505D01*
X17171477Y-13607000D01*
X17537514Y-13607000D01*
X17617801Y-13607000D01*
X17616080Y-13607994D01*
X17610494Y-13613579D01*
X17606544Y-13620420D01*
X17604500Y-13628050D01*
X17604500Y-13635950D01*
X17606544Y-13643580D01*
X17610494Y-13650420D01*
X17616080Y-13656006D01*
X17617801Y-13657000D01*
X17537514Y-13657000D01*
X17538343Y-13661169D01*
X17538343Y-13661169D01*
X17545881Y-13679367D01*
X17545881Y-13679368D01*
X17556825Y-13695746D01*
X17556825Y-13695747D01*
X17570753Y-13709675D01*
X17570754Y-13709675D01*
X17587132Y-13720618D01*
X17587133Y-13720619D01*
X17605331Y-13728157D01*
X17605332Y-13728157D01*
X17624650Y-13732000D01*
X17624651Y-13732000D01*
X17664500Y-13732000D01*
X17664500Y-13662000D01*
X17714500Y-13662000D01*
X17714500Y-13732000D01*
X17754349Y-13732000D01*
X17754350Y-13732000D01*
X17773668Y-13728157D01*
X17773669Y-13728157D01*
X17791867Y-13720619D01*
X17791868Y-13720618D01*
X17808246Y-13709675D01*
X17808247Y-13709675D01*
X17822175Y-13695747D01*
X17822175Y-13695746D01*
X17833119Y-13679368D01*
X17833119Y-13679367D01*
X17840657Y-13661169D01*
X17840657Y-13661169D01*
X17841486Y-13657000D01*
X17761199Y-13657000D01*
X17762921Y-13656006D01*
X17768506Y-13650420D01*
X17772456Y-13643580D01*
X17774500Y-13635950D01*
X17774500Y-13628050D01*
X17772456Y-13620420D01*
X17768506Y-13613579D01*
X17762921Y-13607994D01*
X17761199Y-13607000D01*
X17841486Y-13607000D01*
X17980514Y-13607000D01*
X18060801Y-13607000D01*
X18059080Y-13607994D01*
X18053494Y-13613579D01*
X18049544Y-13620420D01*
X18047500Y-13628050D01*
X18047500Y-13635950D01*
X18049544Y-13643580D01*
X18053494Y-13650420D01*
X18059080Y-13656006D01*
X18060801Y-13657000D01*
X17980514Y-13657000D01*
X17981343Y-13661169D01*
X17981343Y-13661169D01*
X17988881Y-13679367D01*
X17988881Y-13679368D01*
X17999825Y-13695746D01*
X17999825Y-13695747D01*
X18013753Y-13709675D01*
X18013754Y-13709675D01*
X18030132Y-13720618D01*
X18030133Y-13720619D01*
X18048331Y-13728157D01*
X18048332Y-13728157D01*
X18067650Y-13732000D01*
X18067651Y-13732000D01*
X18082500Y-13732000D01*
X18082500Y-13662000D01*
X18132500Y-13662000D01*
X18132500Y-13732000D01*
X18147349Y-13732000D01*
X18147350Y-13732000D01*
X18166668Y-13728157D01*
X18166669Y-13728157D01*
X18184867Y-13720619D01*
X18184868Y-13720618D01*
X18201246Y-13709675D01*
X18201247Y-13709675D01*
X18215175Y-13695747D01*
X18215175Y-13695746D01*
X18226119Y-13679368D01*
X18226119Y-13679367D01*
X18233657Y-13661169D01*
X18233657Y-13661169D01*
X18234486Y-13657000D01*
X18154199Y-13657000D01*
X18155921Y-13656006D01*
X18161506Y-13650420D01*
X18165456Y-13643580D01*
X18167500Y-13635950D01*
X18167500Y-13628050D01*
X18165456Y-13620420D01*
X18161506Y-13613579D01*
X18155921Y-13607994D01*
X18154199Y-13607000D01*
X18234486Y-13607000D01*
X18233657Y-13602831D01*
X18233657Y-13602831D01*
X18226119Y-13584633D01*
X18226119Y-13584631D01*
X18215175Y-13568254D01*
X18215175Y-13568253D01*
X18201247Y-13554325D01*
X18201246Y-13554325D01*
X18184868Y-13543381D01*
X18184867Y-13543381D01*
X18166669Y-13535843D01*
X18166668Y-13535843D01*
X18147350Y-13532000D01*
X18132500Y-13532000D01*
X18132500Y-13602000D01*
X18082500Y-13602000D01*
X18082500Y-13532000D01*
X18067650Y-13532000D01*
X18048332Y-13535843D01*
X18048331Y-13535843D01*
X18030133Y-13543381D01*
X18030132Y-13543381D01*
X18013754Y-13554325D01*
X18013753Y-13554325D01*
X17999825Y-13568253D01*
X17999825Y-13568254D01*
X17988881Y-13584631D01*
X17988881Y-13584633D01*
X17981343Y-13602831D01*
X17981343Y-13602831D01*
X17980514Y-13607000D01*
X17841486Y-13607000D01*
X17840657Y-13602831D01*
X17840657Y-13602831D01*
X17833119Y-13584633D01*
X17833119Y-13584631D01*
X17822175Y-13568254D01*
X17822175Y-13568253D01*
X17808247Y-13554325D01*
X17808246Y-13554325D01*
X17791868Y-13543381D01*
X17791867Y-13543381D01*
X17786080Y-13540984D01*
X17780640Y-13536600D01*
X17778433Y-13529970D01*
X17780161Y-13523200D01*
X17781123Y-13521963D01*
X17781056Y-13521911D01*
X17781550Y-13521267D01*
X17781551Y-13521266D01*
X17788469Y-13509284D01*
X17792050Y-13495918D01*
X17792050Y-13482082D01*
X17788469Y-13468716D01*
X17783951Y-13460891D01*
X17781551Y-13456734D01*
X17781550Y-13456733D01*
X17771767Y-13446950D01*
X17771766Y-13446949D01*
X17759784Y-13440031D01*
X17759784Y-13440031D01*
X17759784Y-13440031D01*
X17746418Y-13436450D01*
X17732582Y-13436450D01*
X17719216Y-13440031D01*
X17719216Y-13440031D01*
X17707234Y-13446949D01*
X17707233Y-13446950D01*
X17697450Y-13456733D01*
X17697449Y-13456734D01*
X17690531Y-13468716D01*
X17690531Y-13468716D01*
X17686950Y-13482082D01*
X17686950Y-13495918D01*
X17688748Y-13502629D01*
X17690531Y-13509283D01*
X17690531Y-13509284D01*
X17697449Y-13521266D01*
X17697449Y-13521266D01*
X17697450Y-13521266D01*
X17707234Y-13531050D01*
X17707234Y-13531051D01*
X17707234Y-13531051D01*
X17708300Y-13531666D01*
X17713121Y-13536722D01*
X17714500Y-13542405D01*
X17714500Y-13602000D01*
X17664500Y-13602000D01*
X17664500Y-13532000D01*
X17624650Y-13532000D01*
X17605332Y-13535843D01*
X17605331Y-13535843D01*
X17587133Y-13543381D01*
X17587132Y-13543381D01*
X17570754Y-13554325D01*
X17570753Y-13554325D01*
X17556825Y-13568253D01*
X17556825Y-13568254D01*
X17545881Y-13584631D01*
X17545881Y-13584633D01*
X17538343Y-13602831D01*
X17538343Y-13602831D01*
X17537514Y-13607000D01*
X17171477Y-13607000D01*
X17187979Y-13595010D01*
X17203010Y-13579979D01*
X17203011Y-13579979D01*
X17203011Y-13579979D01*
X17215505Y-13562782D01*
X17215505Y-13562782D01*
X17215505Y-13562782D01*
X17225156Y-13543841D01*
X17231725Y-13523624D01*
X17235050Y-13502629D01*
X17235050Y-13481371D01*
X17231725Y-13460376D01*
X17227181Y-13446392D01*
X17329950Y-13446392D01*
X17332834Y-13460891D01*
X17332834Y-13460892D01*
X17338491Y-13474549D01*
X17338491Y-13474549D01*
X17338492Y-13474549D01*
X17338492Y-13474549D01*
X17341483Y-13479026D01*
X17346705Y-13486842D01*
X17352472Y-13492609D01*
X17355781Y-13495918D01*
X17358159Y-13498295D01*
X17370450Y-13506508D01*
X17370451Y-13506509D01*
X17380851Y-13510816D01*
X17382762Y-13511608D01*
X17384109Y-13512166D01*
X17384109Y-13512166D01*
X17384109Y-13512166D01*
X17398608Y-13515050D01*
X17398608Y-13515050D01*
X17413392Y-13515050D01*
X17423146Y-13513110D01*
X17427891Y-13512166D01*
X17441550Y-13506508D01*
X17453842Y-13498295D01*
X17464295Y-13487842D01*
X17472508Y-13475549D01*
X17478166Y-13461891D01*
X17479192Y-13456733D01*
X17481050Y-13447392D01*
X17481050Y-13432608D01*
X17480288Y-13428779D01*
X17480050Y-13426360D01*
X17480050Y-13036608D01*
X17477166Y-13022109D01*
X17477166Y-13022109D01*
X17477166Y-13022109D01*
X17474111Y-13014734D01*
X17471509Y-13008451D01*
X17471508Y-13008450D01*
X17463295Y-12996158D01*
X17463295Y-12996158D01*
X17452842Y-12985705D01*
X17452842Y-12985705D01*
X17440550Y-12977492D01*
X17440549Y-12977491D01*
X17426892Y-12971834D01*
X17426891Y-12971834D01*
X17412392Y-12968950D01*
X17412392Y-12968950D01*
X17397608Y-12968950D01*
X17397608Y-12968950D01*
X17383109Y-12971834D01*
X17383108Y-12971834D01*
X17369451Y-12977491D01*
X17369450Y-12977492D01*
X17357158Y-12985705D01*
X17357158Y-12985705D01*
X17346705Y-12996158D01*
X17346705Y-12996158D01*
X17338492Y-13008450D01*
X17338491Y-13008451D01*
X17332834Y-13022108D01*
X17332834Y-13022109D01*
X17329950Y-13036608D01*
X17329950Y-13036608D01*
X17329950Y-13446392D01*
X17329950Y-13446392D01*
X17329950Y-13446392D01*
X17227181Y-13446392D01*
X17225156Y-13440159D01*
X17215505Y-13421218D01*
X17215505Y-13421218D01*
X17215505Y-13421218D01*
X17203011Y-13404021D01*
X17187979Y-13388989D01*
X17170782Y-13376495D01*
X17151841Y-13366844D01*
X17151841Y-13366844D01*
X17151841Y-13366844D01*
X17131624Y-13360275D01*
X17131624Y-13360275D01*
X17131624Y-13360275D01*
X17115496Y-13357721D01*
X17110629Y-13356950D01*
X17089371Y-13356950D01*
X17084504Y-13357721D01*
X17068376Y-13360275D01*
X17048159Y-13366844D01*
X17029218Y-13376495D01*
X17012021Y-13388989D01*
X16996989Y-13404021D01*
X16984495Y-13421218D01*
X16974844Y-13440158D01*
X16968275Y-13460376D01*
X16964950Y-13481371D01*
X16500050Y-13481371D01*
X16500050Y-13410146D01*
X16500050Y-13310146D01*
X16500050Y-12946578D01*
X16502018Y-12939874D01*
X16503682Y-12937810D01*
X16546991Y-12894501D01*
X16660593Y-12780899D01*
X16698492Y-12743000D01*
X17537514Y-12743000D01*
X17617801Y-12743000D01*
X17616080Y-12743994D01*
X17610494Y-12749579D01*
X17606544Y-12756420D01*
X17604500Y-12764050D01*
X17604500Y-12771950D01*
X17606544Y-12779580D01*
X17610494Y-12786420D01*
X17616080Y-12792006D01*
X17617801Y-12793000D01*
X17537514Y-12793000D01*
X17538343Y-12797169D01*
X17538343Y-12797169D01*
X17545881Y-12815367D01*
X17545881Y-12815368D01*
X17556825Y-12831746D01*
X17556825Y-12831747D01*
X17570753Y-12845675D01*
X17570754Y-12845675D01*
X17587132Y-12856618D01*
X17587133Y-12856619D01*
X17605331Y-12864157D01*
X17605332Y-12864157D01*
X17624650Y-12868000D01*
X17624651Y-12868000D01*
X17664500Y-12868000D01*
X17664500Y-12798000D01*
X17714500Y-12798000D01*
X17714500Y-12857595D01*
X17712532Y-12864299D01*
X17708300Y-12868334D01*
X17707234Y-12868949D01*
X17697450Y-12878733D01*
X17697449Y-12878734D01*
X17690531Y-12890716D01*
X17690531Y-12890716D01*
X17686950Y-12904082D01*
X17686950Y-12917918D01*
X17688381Y-12923257D01*
X17690531Y-12931283D01*
X17690531Y-12931284D01*
X17697449Y-12943266D01*
X17697449Y-12943266D01*
X17697450Y-12943266D01*
X17707234Y-12953050D01*
X17719216Y-12959969D01*
X17732582Y-12963550D01*
X17732582Y-12963550D01*
X17746418Y-12963550D01*
X17746418Y-12963550D01*
X17759784Y-12959969D01*
X17771767Y-12953050D01*
X17781551Y-12943266D01*
X17788469Y-12931284D01*
X17792050Y-12917918D01*
X17792050Y-12904082D01*
X17788469Y-12890716D01*
X17783408Y-12881950D01*
X17781551Y-12878734D01*
X17781056Y-12878089D01*
X17781319Y-12877887D01*
X17778709Y-12873108D01*
X17779207Y-12866139D01*
X17783394Y-12860545D01*
X17786080Y-12859016D01*
X17791867Y-12856619D01*
X17791868Y-12856618D01*
X17808246Y-12845675D01*
X17808247Y-12845675D01*
X17822175Y-12831747D01*
X17822175Y-12831746D01*
X17833119Y-12815368D01*
X17833119Y-12815367D01*
X17840657Y-12797169D01*
X17840657Y-12797169D01*
X17841486Y-12793000D01*
X17761199Y-12793000D01*
X17762921Y-12792006D01*
X17768506Y-12786420D01*
X17772456Y-12779580D01*
X17774500Y-12771950D01*
X17774500Y-12764050D01*
X17772456Y-12756420D01*
X17768506Y-12749579D01*
X17762921Y-12743994D01*
X17761199Y-12743000D01*
X17841486Y-12743000D01*
X17980514Y-12743000D01*
X18060801Y-12743000D01*
X18059080Y-12743994D01*
X18053494Y-12749579D01*
X18049544Y-12756420D01*
X18047500Y-12764050D01*
X18047500Y-12771950D01*
X18049544Y-12779580D01*
X18053494Y-12786420D01*
X18059080Y-12792006D01*
X18060801Y-12793000D01*
X17980514Y-12793000D01*
X17981343Y-12797169D01*
X17981343Y-12797169D01*
X17988881Y-12815367D01*
X17988881Y-12815368D01*
X17999825Y-12831746D01*
X17999825Y-12831747D01*
X18013753Y-12845675D01*
X18013754Y-12845675D01*
X18030132Y-12856618D01*
X18030133Y-12856619D01*
X18048331Y-12864157D01*
X18048332Y-12864157D01*
X18067650Y-12868000D01*
X18067651Y-12868000D01*
X18082500Y-12868000D01*
X18082500Y-12798000D01*
X18132500Y-12798000D01*
X18132500Y-12868000D01*
X18147349Y-12868000D01*
X18147350Y-12868000D01*
X18166668Y-12864157D01*
X18166669Y-12864157D01*
X18184867Y-12856619D01*
X18184868Y-12856618D01*
X18201246Y-12845675D01*
X18201247Y-12845675D01*
X18215175Y-12831747D01*
X18215175Y-12831746D01*
X18226119Y-12815368D01*
X18226119Y-12815367D01*
X18233657Y-12797169D01*
X18233657Y-12797169D01*
X18234486Y-12793000D01*
X18154199Y-12793000D01*
X18155921Y-12792006D01*
X18161506Y-12786420D01*
X18165456Y-12779580D01*
X18167500Y-12771950D01*
X18167500Y-12764050D01*
X18165456Y-12756420D01*
X18161506Y-12749579D01*
X18155921Y-12743994D01*
X18154199Y-12743000D01*
X18234486Y-12743000D01*
X18233657Y-12738831D01*
X18233657Y-12738831D01*
X18226119Y-12720633D01*
X18226119Y-12720631D01*
X18215175Y-12704254D01*
X18215175Y-12704253D01*
X18201247Y-12690325D01*
X18201246Y-12690325D01*
X18184868Y-12679381D01*
X18184867Y-12679381D01*
X18166669Y-12671843D01*
X18166668Y-12671843D01*
X18147350Y-12668000D01*
X18132500Y-12668000D01*
X18132500Y-12738000D01*
X18082500Y-12738000D01*
X18082500Y-12668000D01*
X18067650Y-12668000D01*
X18048332Y-12671843D01*
X18048331Y-12671843D01*
X18030133Y-12679381D01*
X18030132Y-12679381D01*
X18013754Y-12690325D01*
X18013753Y-12690325D01*
X17999825Y-12704253D01*
X17999825Y-12704254D01*
X17988881Y-12720631D01*
X17988881Y-12720633D01*
X17981343Y-12738831D01*
X17981343Y-12738831D01*
X17980514Y-12743000D01*
X17841486Y-12743000D01*
X17840657Y-12738831D01*
X17840657Y-12738831D01*
X17833119Y-12720633D01*
X17833119Y-12720631D01*
X17822175Y-12704254D01*
X17822175Y-12704253D01*
X17808247Y-12690325D01*
X17808246Y-12690325D01*
X17791868Y-12679381D01*
X17791867Y-12679381D01*
X17773669Y-12671843D01*
X17773668Y-12671843D01*
X17754350Y-12668000D01*
X17714500Y-12668000D01*
X17714500Y-12738000D01*
X17664500Y-12738000D01*
X17664500Y-12668000D01*
X17624650Y-12668000D01*
X17605332Y-12671843D01*
X17605331Y-12671843D01*
X17587133Y-12679381D01*
X17587132Y-12679381D01*
X17570754Y-12690325D01*
X17570753Y-12690325D01*
X17556825Y-12704253D01*
X17556825Y-12704254D01*
X17545881Y-12720631D01*
X17545881Y-12720633D01*
X17538343Y-12738831D01*
X17538343Y-12738831D01*
X17537514Y-12743000D01*
X16698492Y-12743000D01*
X16737810Y-12703682D01*
X16743942Y-12700333D01*
X16746578Y-12700050D01*
X16809854Y-12700050D01*
X16822858Y-12697463D01*
X16829184Y-12696205D01*
X16847391Y-12688663D01*
X16863778Y-12677714D01*
X16877714Y-12663778D01*
X16888663Y-12647391D01*
X16896205Y-12629183D01*
X16897768Y-12621328D01*
X16900050Y-12609854D01*
X16900050Y-12590146D01*
X16896205Y-12570817D01*
X16896205Y-12570817D01*
X16896205Y-12570816D01*
X16896205Y-12570816D01*
X16888664Y-12552609D01*
X16888663Y-12552608D01*
X16877714Y-12536222D01*
X16877714Y-12536221D01*
X16863779Y-12522286D01*
X16863778Y-12522286D01*
X16847392Y-12511337D01*
X16847391Y-12511336D01*
X16829184Y-12503795D01*
X16829183Y-12503795D01*
X16809854Y-12499950D01*
X16809854Y-12499950D01*
X16802450Y-12499950D01*
X16795746Y-12497981D01*
X16791171Y-12492701D01*
X16790050Y-12487550D01*
X16790050Y-11911131D01*
X16790050Y-11911130D01*
X16790025Y-11911004D01*
X16789947Y-11910611D01*
X16789645Y-11909095D01*
X16789645Y-11909095D01*
X16787566Y-11898641D01*
X16786590Y-11893733D01*
X16782813Y-11884617D01*
X16779801Y-11877345D01*
X16773506Y-11867924D01*
X16769946Y-11862596D01*
X16769946Y-11862596D01*
X16517564Y-11610213D01*
X17664950Y-11610213D01*
X17664950Y-11789787D01*
X17664950Y-11789788D01*
X17665591Y-11795748D01*
X17670620Y-11809233D01*
X17670621Y-11809233D01*
X17679245Y-11820754D01*
X17679246Y-11820755D01*
X17690766Y-11829379D01*
X17690767Y-11829380D01*
X17704252Y-11834409D01*
X17704252Y-11834409D01*
X17704944Y-11834483D01*
X17710213Y-11835050D01*
X17889787Y-11835050D01*
X17895748Y-11834409D01*
X17909233Y-11829380D01*
X17920755Y-11820755D01*
X17929380Y-11809233D01*
X17934409Y-11795748D01*
X17935050Y-11789787D01*
X17935050Y-11787398D01*
X17935333Y-11786096D01*
X17936394Y-11784152D01*
X17937018Y-11782027D01*
X17938680Y-11779964D01*
X17938681Y-11779964D01*
X17938681Y-11779963D01*
X17938682Y-11779963D01*
X18005704Y-11712941D01*
X18007408Y-11719299D01*
X18013990Y-11730701D01*
X18023299Y-11740010D01*
X18034701Y-11746592D01*
X18041059Y-11748296D01*
X17977828Y-11811527D01*
X17977828Y-11811527D01*
X17983245Y-11815462D01*
X18002178Y-11825109D01*
X18022387Y-11831676D01*
X18043375Y-11835000D01*
X18064625Y-11835000D01*
X18085613Y-11831676D01*
X18085613Y-11831676D01*
X18105822Y-11825109D01*
X18124755Y-11815462D01*
X18130172Y-11811527D01*
X18130172Y-11811527D01*
X18066941Y-11748296D01*
X18073299Y-11746592D01*
X18084701Y-11740010D01*
X18094010Y-11730701D01*
X18100593Y-11719299D01*
X18102296Y-11712941D01*
X18165527Y-11776172D01*
X18165527Y-11776172D01*
X18169462Y-11770755D01*
X18179110Y-11751822D01*
X18185676Y-11731613D01*
X18185676Y-11731613D01*
X18189000Y-11710625D01*
X18189000Y-11689375D01*
X18185676Y-11668387D01*
X18185676Y-11668387D01*
X18179110Y-11648178D01*
X18169462Y-11629245D01*
X18165527Y-11623828D01*
X18165527Y-11623828D01*
X18102296Y-11687059D01*
X18100593Y-11680701D01*
X18094010Y-11669299D01*
X18084701Y-11659990D01*
X18073299Y-11653407D01*
X18066941Y-11651704D01*
X18130172Y-11588473D01*
X18124755Y-11584537D01*
X18105822Y-11574890D01*
X18085613Y-11568324D01*
X18064625Y-11565000D01*
X18043375Y-11565000D01*
X18022387Y-11568324D01*
X18022387Y-11568324D01*
X18002178Y-11574890D01*
X17983244Y-11584538D01*
X17977828Y-11588473D01*
X17977828Y-11588473D01*
X18041059Y-11651704D01*
X18034701Y-11653407D01*
X18023299Y-11659990D01*
X18013990Y-11669299D01*
X18007408Y-11680701D01*
X18005704Y-11687059D01*
X17938682Y-11620037D01*
X17935333Y-11613905D01*
X17935333Y-11613904D01*
X17935050Y-11612601D01*
X17935050Y-11610213D01*
X17934409Y-11604252D01*
X17931593Y-11596700D01*
X17929380Y-11590767D01*
X17929379Y-11590766D01*
X17920755Y-11579245D01*
X17920754Y-11579245D01*
X17909234Y-11570621D01*
X17909233Y-11570620D01*
X17895748Y-11565591D01*
X17895748Y-11565591D01*
X17889788Y-11564950D01*
X17889788Y-11564950D01*
X17889787Y-11564950D01*
X17889786Y-11564950D01*
X17710213Y-11564950D01*
X17710212Y-11564950D01*
X17704252Y-11565591D01*
X17690767Y-11570620D01*
X17690766Y-11570621D01*
X17679246Y-11579245D01*
X17679245Y-11579245D01*
X17670621Y-11590766D01*
X17670620Y-11590767D01*
X17665591Y-11604252D01*
X17664950Y-11610212D01*
X17664950Y-11610213D01*
X16517564Y-11610213D01*
X16417404Y-11510054D01*
X16408326Y-11503988D01*
X16402654Y-11500198D01*
X16402654Y-11500198D01*
X16394461Y-11496805D01*
X16394461Y-11496805D01*
X16386267Y-11493410D01*
X16386266Y-11493410D01*
X16368870Y-11489950D01*
X16368869Y-11489950D01*
X16368869Y-11489950D01*
X14862436Y-11489950D01*
X14855732Y-11487981D01*
X14853668Y-11486318D01*
X14608568Y-11241218D01*
X14605220Y-11235086D01*
X14605718Y-11228117D01*
X14609905Y-11222523D01*
X14616452Y-11220082D01*
X14617336Y-11220050D01*
X18196012Y-11220050D01*
X18199652Y-11220050D01*
X18200347Y-11220069D01*
G37*
%TD.AperFunction*%
%TA.AperFunction,Conductor*%
G36*
X13549368Y-11222018D02*
G01*
X13553943Y-11227299D01*
X13554938Y-11234215D01*
X13552035Y-11240570D01*
X13551432Y-11241218D01*
X13186332Y-11606318D01*
X13180200Y-11609667D01*
X13177564Y-11609950D01*
X12731131Y-11609950D01*
X12713734Y-11613410D01*
X12713733Y-11613411D01*
X12697346Y-11620198D01*
X12697345Y-11620199D01*
X12682596Y-11630053D01*
X12682596Y-11630054D01*
X12670054Y-11642596D01*
X12670053Y-11642596D01*
X12660199Y-11657345D01*
X12660198Y-11657346D01*
X12653411Y-11673733D01*
X12653410Y-11673734D01*
X12649950Y-11691130D01*
X12649950Y-11708869D01*
X12653410Y-11726266D01*
X12653411Y-11726267D01*
X12660198Y-11742654D01*
X12660199Y-11742655D01*
X12670053Y-11757403D01*
X12670054Y-11757404D01*
X12682596Y-11769946D01*
X12682596Y-11769946D01*
X12697345Y-11779801D01*
X12697346Y-11779802D01*
X12708187Y-11784292D01*
X12713733Y-11786589D01*
X12713734Y-11786589D01*
X12713734Y-11786590D01*
X12731130Y-11790050D01*
X12731131Y-11790050D01*
X12731131Y-11790050D01*
X13228869Y-11790050D01*
X13228869Y-11790050D01*
X13246267Y-11786589D01*
X13254910Y-11783009D01*
X13262655Y-11779801D01*
X13274082Y-11772166D01*
X13277404Y-11769946D01*
X13673668Y-11373682D01*
X13679800Y-11370333D01*
X13682436Y-11370050D01*
X14477564Y-11370050D01*
X14484268Y-11372018D01*
X14486332Y-11373682D01*
X14750054Y-11637403D01*
X14758749Y-11646099D01*
X14762098Y-11652232D01*
X14761599Y-11659201D01*
X14760292Y-11661756D01*
X14758491Y-11664451D01*
X14752834Y-11678108D01*
X14752834Y-11678109D01*
X14749950Y-11692608D01*
X14749950Y-11692608D01*
X14749950Y-11707392D01*
X14749950Y-11707392D01*
X14749950Y-11707392D01*
X14752834Y-11721891D01*
X14752834Y-11721891D01*
X14752966Y-11722210D01*
X14753223Y-11722884D01*
X14758578Y-11738290D01*
X14764685Y-11755855D01*
X14765262Y-11757516D01*
X14765950Y-11761588D01*
X14765950Y-11874274D01*
X14766977Y-11878109D01*
X14767491Y-11880024D01*
X14769974Y-11889293D01*
X14769974Y-11889293D01*
X14777748Y-11902757D01*
X14777748Y-11902758D01*
X14878739Y-12003749D01*
X14882088Y-12009881D01*
X14881589Y-12016850D01*
X14877402Y-12022443D01*
X14870856Y-12024885D01*
X14865226Y-12023973D01*
X14864891Y-12023834D01*
X14864891Y-12023834D01*
X14864891Y-12023834D01*
X14850392Y-12020950D01*
X14850392Y-12020950D01*
X14835608Y-12020950D01*
X14835608Y-12020950D01*
X14821109Y-12023834D01*
X14821107Y-12023835D01*
X14820784Y-12023968D01*
X14820113Y-12024224D01*
X14797722Y-12032008D01*
X14785484Y-12036262D01*
X14781412Y-12036950D01*
X14127295Y-12036950D01*
X14120592Y-12034981D01*
X14116016Y-12029701D01*
X14115022Y-12022785D01*
X14117924Y-12016430D01*
X14118527Y-12015782D01*
X14134309Y-12000000D01*
X14198206Y-11936103D01*
X14201570Y-11933711D01*
X14234709Y-11917669D01*
X14234825Y-11917608D01*
X14235549Y-11917308D01*
X14236120Y-11916927D01*
X14237705Y-11916093D01*
X14237841Y-11916015D01*
X14245087Y-11911004D01*
X14245088Y-11911004D01*
X14245497Y-11910721D01*
X14246094Y-11910263D01*
X14247842Y-11909095D01*
X14258295Y-11898642D01*
X14266508Y-11886349D01*
X14272166Y-11872691D01*
X14273805Y-11864451D01*
X14275050Y-11858192D01*
X14275050Y-11843408D01*
X14272166Y-11828909D01*
X14272166Y-11828909D01*
X14272166Y-11828909D01*
X14271721Y-11827834D01*
X14266509Y-11815251D01*
X14266508Y-11815250D01*
X14258295Y-11802958D01*
X14258295Y-11802958D01*
X14247842Y-11792505D01*
X14247841Y-11792505D01*
X14235550Y-11784292D01*
X14235549Y-11784291D01*
X14221892Y-11778634D01*
X14221891Y-11778634D01*
X14207392Y-11775750D01*
X14207392Y-11775750D01*
X14192608Y-11775750D01*
X14192608Y-11775750D01*
X14178109Y-11778634D01*
X14178108Y-11778634D01*
X14164451Y-11784291D01*
X14164450Y-11784292D01*
X14152158Y-11792505D01*
X14152158Y-11792505D01*
X14141705Y-11802958D01*
X14133492Y-11815250D01*
X14133491Y-11815250D01*
X14133358Y-11815572D01*
X14133064Y-11816228D01*
X14117089Y-11849229D01*
X14114696Y-11852595D01*
X13979973Y-11987318D01*
X13973840Y-11990667D01*
X13971204Y-11990950D01*
X13658344Y-11990950D01*
X13646500Y-11994124D01*
X13646500Y-11994124D01*
X13644913Y-11994549D01*
X13643326Y-11994974D01*
X13629861Y-12002748D01*
X13629861Y-12002748D01*
X13091291Y-12541318D01*
X13085159Y-12544667D01*
X13082523Y-12544950D01*
X12995832Y-12544950D01*
X12989128Y-12542981D01*
X12989073Y-12542946D01*
X12971410Y-12531462D01*
X12971409Y-12531461D01*
X12968638Y-12529849D01*
X12967079Y-12528942D01*
X12967079Y-12528942D01*
X12967079Y-12528942D01*
X12966822Y-12528824D01*
X12965111Y-12527867D01*
X12964549Y-12527492D01*
X12964549Y-12527491D01*
X12950892Y-12521834D01*
X12950891Y-12521834D01*
X12936392Y-12518950D01*
X12936392Y-12518950D01*
X12921608Y-12518950D01*
X12921608Y-12518950D01*
X12907109Y-12521834D01*
X12907108Y-12521834D01*
X12893451Y-12527491D01*
X12893450Y-12527492D01*
X12881158Y-12535705D01*
X12881158Y-12535705D01*
X12870705Y-12546158D01*
X12870705Y-12546158D01*
X12862492Y-12558450D01*
X12862491Y-12558451D01*
X12856834Y-12572108D01*
X12856834Y-12572109D01*
X12853950Y-12586608D01*
X12853950Y-12586608D01*
X12853950Y-12601392D01*
X12853950Y-12601392D01*
X12853950Y-12601392D01*
X12856953Y-12616489D01*
X12856810Y-12616517D01*
X12856866Y-12622777D01*
X12853706Y-12628158D01*
X12850705Y-12631159D01*
X12842492Y-12643450D01*
X12842491Y-12643451D01*
X12836834Y-12657108D01*
X12836834Y-12657109D01*
X12833950Y-12671608D01*
X12833950Y-12671608D01*
X12833950Y-12686392D01*
X12833950Y-12686392D01*
X12833950Y-12686392D01*
X12836834Y-12700891D01*
X12836834Y-12700892D01*
X12842491Y-12714549D01*
X12842492Y-12714550D01*
X12850705Y-12726841D01*
X12850705Y-12726842D01*
X12861158Y-12737295D01*
X12861158Y-12737295D01*
X12873450Y-12745508D01*
X12873451Y-12745509D01*
X12886318Y-12750838D01*
X12887109Y-12751166D01*
X12887109Y-12751166D01*
X12887109Y-12751166D01*
X12901608Y-12754050D01*
X12901608Y-12754050D01*
X12916392Y-12754050D01*
X12922223Y-12752890D01*
X12930891Y-12751166D01*
X12931214Y-12751032D01*
X12931882Y-12750778D01*
X12962757Y-12740044D01*
X12966516Y-12738738D01*
X12970588Y-12738050D01*
X13098774Y-12738050D01*
X13098774Y-12738050D01*
X13110619Y-12734876D01*
X13113792Y-12734026D01*
X13127257Y-12726252D01*
X13363832Y-12489677D01*
X13369964Y-12486329D01*
X13376933Y-12486827D01*
X13382527Y-12491014D01*
X13384968Y-12497561D01*
X13385000Y-12498445D01*
X13385000Y-12509051D01*
X13387832Y-12526929D01*
X13393425Y-12544144D01*
X13393425Y-12544145D01*
X13401643Y-12560273D01*
X13402791Y-12561853D01*
X13402791Y-12561853D01*
X13460000Y-12504645D01*
X13460000Y-12505266D01*
X13462726Y-12515439D01*
X13467992Y-12524561D01*
X13475439Y-12532008D01*
X13484561Y-12537274D01*
X13494734Y-12540000D01*
X13495355Y-12540000D01*
X13438146Y-12597209D01*
X13438290Y-12599027D01*
X13438290Y-12600973D01*
X13438146Y-12602791D01*
X13495355Y-12660000D01*
X13494734Y-12660000D01*
X13484561Y-12662726D01*
X13475439Y-12667992D01*
X13467992Y-12675439D01*
X13462726Y-12684561D01*
X13460000Y-12694734D01*
X13460000Y-12695355D01*
X13402791Y-12638147D01*
X13402791Y-12638147D01*
X13401643Y-12639727D01*
X13393425Y-12655855D01*
X13393425Y-12655855D01*
X13387832Y-12673071D01*
X13385000Y-12690949D01*
X13385000Y-12709051D01*
X13387832Y-12726929D01*
X13393425Y-12744144D01*
X13393425Y-12744145D01*
X13401643Y-12760273D01*
X13402791Y-12761853D01*
X13402791Y-12761853D01*
X13460000Y-12704645D01*
X13460000Y-12705266D01*
X13462726Y-12715439D01*
X13467992Y-12724561D01*
X13475439Y-12732008D01*
X13484561Y-12737274D01*
X13494734Y-12740000D01*
X13495355Y-12740000D01*
X13438146Y-12797209D01*
X13438290Y-12799027D01*
X13438290Y-12800973D01*
X13438146Y-12802791D01*
X13495355Y-12860000D01*
X13494734Y-12860000D01*
X13484561Y-12862726D01*
X13475439Y-12867992D01*
X13467992Y-12875439D01*
X13462726Y-12884561D01*
X13460000Y-12894734D01*
X13460000Y-12895355D01*
X13402791Y-12838147D01*
X13402791Y-12838147D01*
X13401643Y-12839727D01*
X13393425Y-12855855D01*
X13393425Y-12855855D01*
X13387832Y-12873071D01*
X13385000Y-12890949D01*
X13385000Y-12909051D01*
X13387832Y-12926929D01*
X13393425Y-12944144D01*
X13393425Y-12944145D01*
X13401643Y-12960273D01*
X13402791Y-12961853D01*
X13402791Y-12961853D01*
X13460000Y-12904645D01*
X13460000Y-12905266D01*
X13462726Y-12915439D01*
X13467992Y-12924561D01*
X13475439Y-12932008D01*
X13484561Y-12937274D01*
X13494734Y-12940000D01*
X13495355Y-12940000D01*
X13438147Y-12997208D01*
X13438147Y-12997209D01*
X13439727Y-12998357D01*
X13439727Y-12998357D01*
X13455855Y-13006575D01*
X13455855Y-13006575D01*
X13473071Y-13012168D01*
X13490949Y-13015000D01*
X13509051Y-13015000D01*
X13526929Y-13012168D01*
X13544144Y-13006575D01*
X13544145Y-13006574D01*
X13560273Y-12998357D01*
X13561853Y-12997208D01*
X13561853Y-12997208D01*
X13504645Y-12940000D01*
X13505266Y-12940000D01*
X13515439Y-12937274D01*
X13524561Y-12932008D01*
X13532008Y-12924561D01*
X13537274Y-12915439D01*
X13540000Y-12905266D01*
X13540000Y-12904645D01*
X13597208Y-12961853D01*
X13599027Y-12961710D01*
X13600973Y-12961710D01*
X13602791Y-12961853D01*
X13660000Y-12904645D01*
X13660000Y-12905266D01*
X13662726Y-12915439D01*
X13667992Y-12924561D01*
X13675439Y-12932008D01*
X13684561Y-12937274D01*
X13694734Y-12940000D01*
X13695355Y-12940000D01*
X13638147Y-12997208D01*
X13638147Y-12997209D01*
X13639727Y-12998357D01*
X13639727Y-12998357D01*
X13655855Y-13006575D01*
X13655855Y-13006575D01*
X13673071Y-13012168D01*
X13690949Y-13015000D01*
X13709051Y-13015000D01*
X13726929Y-13012168D01*
X13744144Y-13006575D01*
X13744145Y-13006574D01*
X13760273Y-12998357D01*
X13761853Y-12997208D01*
X13761853Y-12997208D01*
X13704645Y-12940000D01*
X13705266Y-12940000D01*
X13715439Y-12937274D01*
X13724561Y-12932008D01*
X13732008Y-12924561D01*
X13737274Y-12915439D01*
X13740000Y-12905266D01*
X13740000Y-12904645D01*
X13797208Y-12961853D01*
X13799027Y-12961710D01*
X13800973Y-12961710D01*
X13802791Y-12961853D01*
X13860000Y-12904645D01*
X13860000Y-12905266D01*
X13862726Y-12915439D01*
X13867992Y-12924561D01*
X13875439Y-12932008D01*
X13884561Y-12937274D01*
X13894734Y-12940000D01*
X13895355Y-12940000D01*
X13838147Y-12997208D01*
X13838147Y-12997209D01*
X13839727Y-12998357D01*
X13839727Y-12998357D01*
X13855855Y-13006575D01*
X13855855Y-13006575D01*
X13873071Y-13012168D01*
X13890949Y-13015000D01*
X13909051Y-13015000D01*
X13926929Y-13012168D01*
X13944144Y-13006575D01*
X13944145Y-13006574D01*
X13960273Y-12998357D01*
X13961853Y-12997208D01*
X13961853Y-12997208D01*
X13904645Y-12940000D01*
X13905266Y-12940000D01*
X13915439Y-12937274D01*
X13924561Y-12932008D01*
X13932008Y-12924561D01*
X13937274Y-12915439D01*
X13940000Y-12905266D01*
X13940000Y-12904645D01*
X13997208Y-12961853D01*
X13998357Y-12960273D01*
X14006574Y-12944145D01*
X14006575Y-12944144D01*
X14012168Y-12926929D01*
X14015000Y-12909051D01*
X14015000Y-12890949D01*
X14012168Y-12873071D01*
X14006575Y-12855855D01*
X14006575Y-12855855D01*
X13998357Y-12839727D01*
X13998357Y-12839727D01*
X13997208Y-12838147D01*
X13940000Y-12895355D01*
X13940000Y-12894734D01*
X13937274Y-12884561D01*
X13932008Y-12875439D01*
X13924561Y-12867992D01*
X13915439Y-12862726D01*
X13905266Y-12860000D01*
X13904645Y-12860000D01*
X13961853Y-12802791D01*
X13961710Y-12800973D01*
X13961710Y-12799027D01*
X13961853Y-12797208D01*
X13904645Y-12740000D01*
X13905266Y-12740000D01*
X13915439Y-12737274D01*
X13924561Y-12732008D01*
X13932008Y-12724561D01*
X13937274Y-12715439D01*
X13940000Y-12705266D01*
X13940000Y-12704645D01*
X13997208Y-12761853D01*
X13998357Y-12760273D01*
X14006574Y-12744145D01*
X14006575Y-12744144D01*
X14012168Y-12726929D01*
X14015000Y-12709051D01*
X14015000Y-12690949D01*
X14012168Y-12673071D01*
X14006575Y-12655855D01*
X14006575Y-12655855D01*
X13998357Y-12639727D01*
X13998357Y-12639727D01*
X13997208Y-12638147D01*
X13940000Y-12695355D01*
X13940000Y-12694734D01*
X13937274Y-12684561D01*
X13932008Y-12675439D01*
X13924561Y-12667992D01*
X13915439Y-12662726D01*
X13905266Y-12660000D01*
X13904645Y-12660000D01*
X13961853Y-12602791D01*
X13961710Y-12600973D01*
X13961710Y-12599027D01*
X13961853Y-12597208D01*
X13904645Y-12540000D01*
X13905266Y-12540000D01*
X13915439Y-12537274D01*
X13924561Y-12532008D01*
X13932008Y-12524561D01*
X13937274Y-12515439D01*
X13940000Y-12505266D01*
X13940000Y-12504645D01*
X13997208Y-12561853D01*
X13998357Y-12560273D01*
X14006574Y-12544145D01*
X14006575Y-12544144D01*
X14012168Y-12526929D01*
X14015000Y-12509051D01*
X14015000Y-12490949D01*
X14012168Y-12473071D01*
X14006575Y-12455855D01*
X14006575Y-12455855D01*
X13998357Y-12439727D01*
X13998357Y-12439727D01*
X13997208Y-12438147D01*
X13940000Y-12495355D01*
X13940000Y-12494734D01*
X13937274Y-12484561D01*
X13932008Y-12475439D01*
X13924561Y-12467992D01*
X13915439Y-12462726D01*
X13905266Y-12460000D01*
X13904645Y-12460000D01*
X13961853Y-12402791D01*
X13960273Y-12401643D01*
X13944145Y-12393425D01*
X13944144Y-12393425D01*
X13926929Y-12387832D01*
X13909051Y-12385000D01*
X13890949Y-12385000D01*
X13873071Y-12387832D01*
X13855855Y-12393425D01*
X13855855Y-12393425D01*
X13839727Y-12401643D01*
X13838147Y-12402791D01*
X13838147Y-12402791D01*
X13895355Y-12460000D01*
X13894734Y-12460000D01*
X13884561Y-12462726D01*
X13875439Y-12467992D01*
X13867992Y-12475439D01*
X13862726Y-12484561D01*
X13860000Y-12494734D01*
X13860000Y-12495355D01*
X13802791Y-12438146D01*
X13800973Y-12438290D01*
X13799027Y-12438290D01*
X13797209Y-12438146D01*
X13740000Y-12495355D01*
X13740000Y-12494734D01*
X13737274Y-12484561D01*
X13732008Y-12475439D01*
X13724561Y-12467992D01*
X13715439Y-12462726D01*
X13705266Y-12460000D01*
X13704645Y-12460000D01*
X13761853Y-12402791D01*
X13760273Y-12401643D01*
X13744145Y-12393425D01*
X13744144Y-12393425D01*
X13726929Y-12387832D01*
X13709051Y-12385000D01*
X13690949Y-12385000D01*
X13673071Y-12387832D01*
X13655855Y-12393425D01*
X13655855Y-12393425D01*
X13639727Y-12401643D01*
X13638147Y-12402791D01*
X13638147Y-12402791D01*
X13695355Y-12460000D01*
X13694734Y-12460000D01*
X13684561Y-12462726D01*
X13675439Y-12467992D01*
X13667992Y-12475439D01*
X13662726Y-12484561D01*
X13660000Y-12494734D01*
X13660000Y-12495355D01*
X13602791Y-12438146D01*
X13600973Y-12438290D01*
X13599027Y-12438290D01*
X13597209Y-12438146D01*
X13540000Y-12495355D01*
X13540000Y-12494734D01*
X13537274Y-12484561D01*
X13532008Y-12475439D01*
X13524561Y-12467992D01*
X13515439Y-12462726D01*
X13505266Y-12460000D01*
X13504645Y-12460000D01*
X13561853Y-12402791D01*
X13560273Y-12401643D01*
X13544145Y-12393425D01*
X13544144Y-12393425D01*
X13526929Y-12387832D01*
X13509051Y-12385000D01*
X13498445Y-12385000D01*
X13491741Y-12383031D01*
X13487166Y-12377751D01*
X13486172Y-12370835D01*
X13489074Y-12364480D01*
X13489676Y-12363833D01*
X13694827Y-12158682D01*
X13700960Y-12155333D01*
X13703595Y-12155050D01*
X14715504Y-12155050D01*
X14722208Y-12157018D01*
X14726784Y-12162299D01*
X14727778Y-12169215D01*
X14724876Y-12175570D01*
X14724273Y-12176218D01*
X14460184Y-12440306D01*
X14454052Y-12443655D01*
X14447083Y-12443157D01*
X14441489Y-12438969D01*
X14439438Y-12434748D01*
X14439026Y-12433208D01*
X14439026Y-12433207D01*
X14433716Y-12424011D01*
X14431252Y-12419743D01*
X14431252Y-12419742D01*
X14354258Y-12342748D01*
X14354257Y-12342748D01*
X14340793Y-12334974D01*
X14340792Y-12334974D01*
X14337619Y-12334124D01*
X14331696Y-12332537D01*
X14325774Y-12330950D01*
X14325774Y-12330950D01*
X14303473Y-12330950D01*
X14296769Y-12328981D01*
X14296584Y-12328860D01*
X14288550Y-12323492D01*
X14288549Y-12323491D01*
X14274892Y-12317834D01*
X14274891Y-12317834D01*
X14260392Y-12314950D01*
X14260392Y-12314950D01*
X14245608Y-12314950D01*
X14245608Y-12314950D01*
X14231109Y-12317834D01*
X14231108Y-12317834D01*
X14228195Y-12319041D01*
X14221248Y-12319788D01*
X14215000Y-12316660D01*
X14211435Y-12310651D01*
X14211050Y-12307585D01*
X14211050Y-12292608D01*
X14208166Y-12278109D01*
X14208166Y-12278109D01*
X14208166Y-12278109D01*
X14208166Y-12278108D01*
X14202509Y-12264451D01*
X14202508Y-12264450D01*
X14194295Y-12252158D01*
X14194295Y-12252158D01*
X14183842Y-12241705D01*
X14183841Y-12241705D01*
X14171550Y-12233492D01*
X14171549Y-12233491D01*
X14157892Y-12227834D01*
X14157891Y-12227834D01*
X14143392Y-12224950D01*
X14143392Y-12224950D01*
X14128608Y-12224950D01*
X14128608Y-12224950D01*
X14114109Y-12227834D01*
X14114108Y-12227834D01*
X14100451Y-12233491D01*
X14100450Y-12233492D01*
X14088158Y-12241705D01*
X14088158Y-12241705D01*
X14077705Y-12252158D01*
X14077705Y-12252158D01*
X14069492Y-12264450D01*
X14069491Y-12264451D01*
X14063834Y-12278108D01*
X14063834Y-12278109D01*
X14060950Y-12292608D01*
X14060950Y-12292608D01*
X14060950Y-12307392D01*
X14060950Y-12307392D01*
X14060950Y-12307392D01*
X14063834Y-12321891D01*
X14063834Y-12321892D01*
X14069491Y-12335549D01*
X14069492Y-12335550D01*
X14073860Y-12342088D01*
X14075948Y-12348755D01*
X14075950Y-12348977D01*
X14075950Y-12421774D01*
X14078803Y-12432421D01*
X14078803Y-12432421D01*
X14078803Y-12432421D01*
X14079577Y-12435312D01*
X14079974Y-12436793D01*
X14087748Y-12450257D01*
X14087748Y-12450258D01*
X14138318Y-12500827D01*
X14141667Y-12506960D01*
X14141950Y-12509595D01*
X14141950Y-12987404D01*
X14139981Y-12994108D01*
X14138318Y-12996173D01*
X14034173Y-13100318D01*
X14028040Y-13103667D01*
X14025404Y-13103950D01*
X13360595Y-13103950D01*
X13353892Y-13101981D01*
X13351827Y-13100318D01*
X13275258Y-13023748D01*
X13275257Y-13023748D01*
X13261793Y-13015974D01*
X13261793Y-13015974D01*
X13259479Y-13015354D01*
X13257165Y-13014734D01*
X13257164Y-13014734D01*
X13252773Y-13013557D01*
X13246774Y-13011950D01*
X13011226Y-13011950D01*
X13000835Y-13014734D01*
X13000835Y-13014734D01*
X12996207Y-13015974D01*
X12996207Y-13015974D01*
X12982743Y-13023748D01*
X12982742Y-13023748D01*
X12780648Y-13225842D01*
X12780648Y-13225843D01*
X12772874Y-13239307D01*
X12772874Y-13239307D01*
X12772646Y-13240158D01*
X12772245Y-13241655D01*
X12768850Y-13254326D01*
X12768850Y-14703504D01*
X12766881Y-14710208D01*
X12765218Y-14712273D01*
X12398668Y-15078823D01*
X12392536Y-15082171D01*
X12385567Y-15081673D01*
X12379973Y-15077485D01*
X12377532Y-15070939D01*
X12377500Y-15070054D01*
X12377500Y-11232450D01*
X12379468Y-11225746D01*
X12384749Y-11221171D01*
X12389900Y-11220050D01*
X13542664Y-11220050D01*
X13549368Y-11222018D01*
G37*
%TD.AperFunction*%
%TA.AperFunction,Conductor*%
G36*
X15260000Y-13925266D02*
G01*
X15262726Y-13935439D01*
X15267992Y-13944561D01*
X15275439Y-13952008D01*
X15284561Y-13957274D01*
X15294734Y-13960000D01*
X15295355Y-13960000D01*
X15245037Y-14010318D01*
X15238905Y-14013667D01*
X15236269Y-14013950D01*
X15163731Y-14013950D01*
X15157027Y-14011981D01*
X15154963Y-14010318D01*
X15104645Y-13960000D01*
X15105266Y-13960000D01*
X15115439Y-13957274D01*
X15124561Y-13952008D01*
X15132008Y-13944561D01*
X15137274Y-13935439D01*
X15140000Y-13925266D01*
X15140000Y-13924645D01*
X15197208Y-13981853D01*
X15199027Y-13981710D01*
X15200973Y-13981710D01*
X15202791Y-13981853D01*
X15260000Y-13924645D01*
X15260000Y-13925266D01*
G37*
%TD.AperFunction*%
%TA.AperFunction,Conductor*%
G36*
X16050693Y-11670229D02*
G01*
X16051319Y-11670112D01*
X16054005Y-11671202D01*
X16056786Y-11672018D01*
X16057203Y-11672500D01*
X16057793Y-11672739D01*
X16059464Y-11675109D01*
X16061361Y-11677299D01*
X16061452Y-11677929D01*
X16061819Y-11678450D01*
X16061943Y-11681346D01*
X16062356Y-11684215D01*
X16062091Y-11684794D01*
X16062118Y-11685431D01*
X16060658Y-11687933D01*
X16059453Y-11690570D01*
X16058837Y-11691053D01*
X16058596Y-11691465D01*
X16055712Y-11693498D01*
X16039727Y-11701643D01*
X16038147Y-11702791D01*
X16038147Y-11702791D01*
X16095355Y-11760000D01*
X16094734Y-11760000D01*
X16084561Y-11762726D01*
X16075439Y-11767992D01*
X16067992Y-11775439D01*
X16062726Y-11784561D01*
X16060000Y-11794734D01*
X16060000Y-11795355D01*
X16002791Y-11738147D01*
X16002791Y-11738147D01*
X16001643Y-11739727D01*
X15993425Y-11755855D01*
X15993425Y-11755855D01*
X15987832Y-11773071D01*
X15985000Y-11790949D01*
X15985000Y-11809051D01*
X15987832Y-11826929D01*
X15993425Y-11844144D01*
X15993425Y-11844145D01*
X16001643Y-11860273D01*
X16002791Y-11861853D01*
X16002791Y-11861853D01*
X16060000Y-11804645D01*
X16060000Y-11805266D01*
X16062726Y-11815439D01*
X16067992Y-11824561D01*
X16075439Y-11832008D01*
X16084561Y-11837274D01*
X16094734Y-11840000D01*
X16095355Y-11840000D01*
X16038146Y-11897209D01*
X16038290Y-11899027D01*
X16038290Y-11900973D01*
X16038146Y-11902791D01*
X16095355Y-11960000D01*
X16094734Y-11960000D01*
X16084561Y-11962726D01*
X16075439Y-11967992D01*
X16067992Y-11975439D01*
X16062726Y-11984561D01*
X16060000Y-11994734D01*
X16060000Y-11995355D01*
X16002791Y-11938147D01*
X16002791Y-11938147D01*
X16001643Y-11939727D01*
X15993425Y-11955855D01*
X15993425Y-11955855D01*
X15987832Y-11973071D01*
X15985000Y-11990949D01*
X15985000Y-12009051D01*
X15987832Y-12026929D01*
X15993425Y-12044144D01*
X15993425Y-12044145D01*
X16001643Y-12060273D01*
X16002791Y-12061853D01*
X16002791Y-12061853D01*
X16060000Y-12004645D01*
X16060000Y-12005266D01*
X16062726Y-12015439D01*
X16067992Y-12024561D01*
X16075439Y-12032008D01*
X16084561Y-12037274D01*
X16094734Y-12040000D01*
X16095355Y-12040000D01*
X16038147Y-12097208D01*
X16038147Y-12097209D01*
X16039727Y-12098357D01*
X16039727Y-12098357D01*
X16055855Y-12106575D01*
X16055855Y-12106575D01*
X16073071Y-12112168D01*
X16090949Y-12115000D01*
X16109051Y-12115000D01*
X16126929Y-12112168D01*
X16144144Y-12106575D01*
X16144145Y-12106574D01*
X16160273Y-12098357D01*
X16161853Y-12097208D01*
X16161853Y-12097208D01*
X16104645Y-12040000D01*
X16105266Y-12040000D01*
X16115439Y-12037274D01*
X16124561Y-12032008D01*
X16132008Y-12024561D01*
X16137274Y-12015439D01*
X16140000Y-12005266D01*
X16140000Y-12004645D01*
X16197208Y-12061853D01*
X16199027Y-12061710D01*
X16200973Y-12061710D01*
X16202791Y-12061853D01*
X16260000Y-12004645D01*
X16260000Y-12005266D01*
X16262726Y-12015439D01*
X16267992Y-12024561D01*
X16275439Y-12032008D01*
X16284561Y-12037274D01*
X16294734Y-12040000D01*
X16295355Y-12040000D01*
X16238147Y-12097208D01*
X16238147Y-12097209D01*
X16239727Y-12098357D01*
X16239727Y-12098357D01*
X16255855Y-12106575D01*
X16255855Y-12106575D01*
X16273071Y-12112168D01*
X16290949Y-12115000D01*
X16309051Y-12115000D01*
X16326929Y-12112168D01*
X16344144Y-12106575D01*
X16344145Y-12106574D01*
X16360273Y-12098357D01*
X16361853Y-12097208D01*
X16361853Y-12097208D01*
X16304645Y-12040000D01*
X16305266Y-12040000D01*
X16315439Y-12037274D01*
X16324561Y-12032008D01*
X16332008Y-12024561D01*
X16337274Y-12015439D01*
X16340000Y-12005266D01*
X16340000Y-12004645D01*
X16397208Y-12061853D01*
X16398357Y-12060273D01*
X16406574Y-12044145D01*
X16406575Y-12044144D01*
X16412168Y-12026929D01*
X16415000Y-12009051D01*
X16415000Y-11990949D01*
X16412168Y-11973071D01*
X16406575Y-11955855D01*
X16406575Y-11955855D01*
X16398357Y-11939727D01*
X16398357Y-11939727D01*
X16397208Y-11938147D01*
X16340000Y-11995355D01*
X16340000Y-11994734D01*
X16337274Y-11984561D01*
X16332008Y-11975439D01*
X16324561Y-11967992D01*
X16315439Y-11962726D01*
X16305266Y-11960000D01*
X16304645Y-11960000D01*
X16361853Y-11902791D01*
X16361710Y-11900973D01*
X16361710Y-11899027D01*
X16361853Y-11897208D01*
X16304645Y-11840000D01*
X16305266Y-11840000D01*
X16315439Y-11837274D01*
X16324561Y-11832008D01*
X16332008Y-11824561D01*
X16337274Y-11815439D01*
X16340000Y-11805266D01*
X16340000Y-11804645D01*
X16397208Y-11861853D01*
X16398357Y-11860273D01*
X16406574Y-11844145D01*
X16406575Y-11844144D01*
X16412168Y-11826929D01*
X16415000Y-11809051D01*
X16415000Y-11792286D01*
X16416968Y-11785582D01*
X16422249Y-11781007D01*
X16429165Y-11780012D01*
X16435520Y-11782915D01*
X16436168Y-11783518D01*
X16606318Y-11953668D01*
X16609667Y-11959800D01*
X16609950Y-11962436D01*
X16609950Y-12543422D01*
X16607981Y-12550126D01*
X16606318Y-12552190D01*
X16336222Y-12822286D01*
X16336222Y-12822286D01*
X16329332Y-12829176D01*
X16322286Y-12836222D01*
X16311337Y-12852608D01*
X16311337Y-12852609D01*
X16308486Y-12859492D01*
X16308485Y-12859493D01*
X16308293Y-12859958D01*
X16303795Y-12870816D01*
X16302242Y-12878625D01*
X16302103Y-12879324D01*
X16302102Y-12879325D01*
X16299950Y-12890146D01*
X16299950Y-13613422D01*
X16297981Y-13620126D01*
X16296318Y-13622189D01*
X16291116Y-13627392D01*
X16282286Y-13636222D01*
X16271337Y-13652608D01*
X16271337Y-13652609D01*
X16267324Y-13662295D01*
X16262940Y-13667736D01*
X16256311Y-13669942D01*
X16255868Y-13669950D01*
X15971130Y-13669950D01*
X15953734Y-13673410D01*
X15953733Y-13673410D01*
X15946155Y-13676549D01*
X15946155Y-13676549D01*
X15937346Y-13680198D01*
X15937346Y-13680198D01*
X15924410Y-13688842D01*
X15924410Y-13688842D01*
X15922597Y-13690053D01*
X15922596Y-13690054D01*
X15602332Y-14010318D01*
X15596200Y-14013667D01*
X15593564Y-14013950D01*
X15363731Y-14013950D01*
X15357027Y-14011981D01*
X15354963Y-14010318D01*
X15304645Y-13960000D01*
X15305266Y-13960000D01*
X15315439Y-13957274D01*
X15324561Y-13952008D01*
X15332008Y-13944561D01*
X15337274Y-13935439D01*
X15340000Y-13925266D01*
X15340000Y-13924645D01*
X15397208Y-13981853D01*
X15398357Y-13980273D01*
X15406574Y-13964145D01*
X15406575Y-13964144D01*
X15412168Y-13946929D01*
X15415000Y-13929051D01*
X15415000Y-13910949D01*
X15412168Y-13893071D01*
X15406575Y-13875855D01*
X15406575Y-13875855D01*
X15398357Y-13859727D01*
X15398357Y-13859727D01*
X15397208Y-13858147D01*
X15340000Y-13915355D01*
X15340000Y-13914734D01*
X15337274Y-13904561D01*
X15332008Y-13895439D01*
X15324561Y-13887992D01*
X15315439Y-13882726D01*
X15305266Y-13880000D01*
X15304645Y-13880000D01*
X15361853Y-13822791D01*
X15360273Y-13821643D01*
X15344145Y-13813425D01*
X15344144Y-13813425D01*
X15339121Y-13811793D01*
X15333354Y-13807849D01*
X15330634Y-13801414D01*
X15331825Y-13794529D01*
X15336550Y-13789381D01*
X15339121Y-13788207D01*
X15344144Y-13786575D01*
X15344145Y-13786574D01*
X15360273Y-13778357D01*
X15361853Y-13777208D01*
X15361853Y-13777208D01*
X15304645Y-13720000D01*
X15305266Y-13720000D01*
X15315439Y-13717274D01*
X15324561Y-13712008D01*
X15332008Y-13704561D01*
X15337274Y-13695439D01*
X15340000Y-13685266D01*
X15340000Y-13684645D01*
X15397208Y-13741853D01*
X15398357Y-13740273D01*
X15406574Y-13724145D01*
X15406575Y-13724144D01*
X15412168Y-13706929D01*
X15415000Y-13689051D01*
X15415000Y-13670949D01*
X15412168Y-13653071D01*
X15406575Y-13635855D01*
X15406575Y-13635855D01*
X15398357Y-13619727D01*
X15398357Y-13619727D01*
X15397208Y-13618147D01*
X15340000Y-13675355D01*
X15340000Y-13674734D01*
X15337274Y-13664561D01*
X15332008Y-13655439D01*
X15324561Y-13647992D01*
X15315439Y-13642726D01*
X15305266Y-13640000D01*
X15304645Y-13640000D01*
X15361853Y-13582791D01*
X15360273Y-13581643D01*
X15344145Y-13573425D01*
X15344144Y-13573425D01*
X15326929Y-13567832D01*
X15309051Y-13565000D01*
X15290949Y-13565000D01*
X15273071Y-13567832D01*
X15255855Y-13573425D01*
X15255855Y-13573425D01*
X15239727Y-13581643D01*
X15238147Y-13582791D01*
X15238147Y-13582791D01*
X15295355Y-13640000D01*
X15294734Y-13640000D01*
X15284561Y-13642726D01*
X15275439Y-13647992D01*
X15267992Y-13655439D01*
X15262726Y-13664561D01*
X15260000Y-13674734D01*
X15260000Y-13675355D01*
X15202791Y-13618146D01*
X15200973Y-13618290D01*
X15199027Y-13618290D01*
X15197209Y-13618146D01*
X15140000Y-13675355D01*
X15140000Y-13674734D01*
X15137274Y-13664561D01*
X15132008Y-13655439D01*
X15124561Y-13647992D01*
X15115439Y-13642726D01*
X15105266Y-13640000D01*
X15104645Y-13640000D01*
X15161853Y-13582791D01*
X15160273Y-13581643D01*
X15144145Y-13573425D01*
X15144144Y-13573425D01*
X15126929Y-13567832D01*
X15109051Y-13565000D01*
X15090949Y-13565000D01*
X15073071Y-13567832D01*
X15055855Y-13573425D01*
X15055855Y-13573425D01*
X15039727Y-13581643D01*
X15038147Y-13582791D01*
X15038147Y-13582791D01*
X15095355Y-13640000D01*
X15094734Y-13640000D01*
X15084561Y-13642726D01*
X15075439Y-13647992D01*
X15067992Y-13655439D01*
X15062726Y-13664561D01*
X15060000Y-13674734D01*
X15060000Y-13675355D01*
X15002791Y-13618147D01*
X15002791Y-13618147D01*
X15001643Y-13619727D01*
X14993425Y-13635855D01*
X14993425Y-13635855D01*
X14987832Y-13653071D01*
X14985000Y-13670949D01*
X14985000Y-13689051D01*
X14987832Y-13706929D01*
X14993425Y-13724144D01*
X14993425Y-13724145D01*
X15001643Y-13740273D01*
X15002791Y-13741853D01*
X15002791Y-13741853D01*
X15060000Y-13684645D01*
X15060000Y-13685266D01*
X15062726Y-13695439D01*
X15067992Y-13704561D01*
X15075439Y-13712008D01*
X15084561Y-13717274D01*
X15094734Y-13720000D01*
X15095355Y-13720000D01*
X15038147Y-13777208D01*
X15038147Y-13777209D01*
X15039727Y-13778357D01*
X15039727Y-13778357D01*
X15055855Y-13786575D01*
X15055855Y-13786575D01*
X15060879Y-13788207D01*
X15066646Y-13792151D01*
X15069366Y-13798586D01*
X15068174Y-13805471D01*
X15063450Y-13810619D01*
X15060879Y-13811793D01*
X15055855Y-13813425D01*
X15055855Y-13813425D01*
X15039727Y-13821643D01*
X15038147Y-13822791D01*
X15038147Y-13822791D01*
X15095355Y-13880000D01*
X15094734Y-13880000D01*
X15084561Y-13882726D01*
X15075439Y-13887992D01*
X15067992Y-13895439D01*
X15062726Y-13904561D01*
X15060000Y-13914734D01*
X15060000Y-13915355D01*
X15002791Y-13858147D01*
X15002791Y-13858147D01*
X15001643Y-13859727D01*
X14993425Y-13875855D01*
X14993425Y-13875855D01*
X14987832Y-13893071D01*
X14987718Y-13893544D01*
X14987514Y-13893495D01*
X14984892Y-13899017D01*
X14978959Y-13902706D01*
X14971973Y-13902601D01*
X14966875Y-13899525D01*
X14736562Y-13669212D01*
X14733874Y-13665189D01*
X14730994Y-13658235D01*
X14730050Y-13653490D01*
X14730050Y-13402450D01*
X14732018Y-13395746D01*
X14737299Y-13391171D01*
X14742450Y-13390050D01*
X15148869Y-13390050D01*
X15148869Y-13390050D01*
X15155273Y-13388776D01*
X15166266Y-13386590D01*
X15166266Y-13386589D01*
X15166267Y-13386589D01*
X15182655Y-13379801D01*
X15197403Y-13369946D01*
X15209946Y-13357403D01*
X15219801Y-13342655D01*
X15226589Y-13326267D01*
X15226752Y-13325451D01*
X15230050Y-13308869D01*
X15230050Y-13308869D01*
X15230050Y-13291131D01*
X15230050Y-13291130D01*
X15226590Y-13273734D01*
X15226589Y-13273733D01*
X15219802Y-13257346D01*
X15219801Y-13257345D01*
X15209946Y-13242596D01*
X15209946Y-13242596D01*
X15197404Y-13230054D01*
X15197403Y-13230053D01*
X15182655Y-13220199D01*
X15182654Y-13220198D01*
X15166267Y-13213411D01*
X15166266Y-13213410D01*
X15148869Y-13209950D01*
X15148869Y-13209950D01*
X14742450Y-13209950D01*
X14735746Y-13207981D01*
X14731171Y-13202701D01*
X14730050Y-13197550D01*
X14730050Y-12884080D01*
X14731491Y-12878278D01*
X14731698Y-12877887D01*
X14769271Y-12806915D01*
X14769300Y-12806839D01*
X14769380Y-12806733D01*
X14770888Y-12802687D01*
X14773651Y-12795466D01*
X14773651Y-12795465D01*
X14773764Y-12795106D01*
X14773769Y-12795108D01*
X14774035Y-12794251D01*
X14774281Y-12793590D01*
X14778469Y-12787997D01*
X14785016Y-12785556D01*
X14791843Y-12787042D01*
X14794667Y-12789157D01*
X14806021Y-12800511D01*
X14823218Y-12813005D01*
X14823218Y-12813005D01*
X14823218Y-12813005D01*
X14842159Y-12822656D01*
X14862376Y-12829225D01*
X14883371Y-12832550D01*
X14883371Y-12832550D01*
X14904629Y-12832550D01*
X14904629Y-12832550D01*
X14925624Y-12829225D01*
X14945841Y-12822656D01*
X14964782Y-12813005D01*
X14970257Y-12809027D01*
X14981979Y-12800511D01*
X14981979Y-12800511D01*
X14981979Y-12800510D01*
X14997010Y-12785479D01*
X14997011Y-12785479D01*
X14997011Y-12785479D01*
X15009505Y-12768282D01*
X15009505Y-12768282D01*
X15009505Y-12768282D01*
X15009951Y-12767405D01*
X15014749Y-12762326D01*
X15021531Y-12760646D01*
X15028144Y-12762900D01*
X15032049Y-12767406D01*
X15032495Y-12768282D01*
X15044989Y-12785479D01*
X15060021Y-12800511D01*
X15077218Y-12813005D01*
X15077218Y-12813005D01*
X15077218Y-12813005D01*
X15096159Y-12822656D01*
X15116376Y-12829225D01*
X15137371Y-12832550D01*
X15137371Y-12832550D01*
X15158629Y-12832550D01*
X15158629Y-12832550D01*
X15179624Y-12829225D01*
X15199841Y-12822656D01*
X15218782Y-12813005D01*
X15224257Y-12809027D01*
X15235979Y-12800511D01*
X15235979Y-12800511D01*
X15235979Y-12800510D01*
X15251010Y-12785479D01*
X15251011Y-12785479D01*
X15251011Y-12785479D01*
X15258318Y-12775421D01*
X15263505Y-12768282D01*
X15263979Y-12767351D01*
X15268776Y-12762271D01*
X15275558Y-12760591D01*
X15282172Y-12762844D01*
X15286076Y-12767350D01*
X15286537Y-12768255D01*
X15290473Y-12773672D01*
X15353704Y-12710441D01*
X15355407Y-12716799D01*
X15361990Y-12728201D01*
X15371299Y-12737510D01*
X15382701Y-12744092D01*
X15389059Y-12745796D01*
X15325828Y-12809027D01*
X15325828Y-12809027D01*
X15331245Y-12812962D01*
X15350178Y-12822609D01*
X15370387Y-12829176D01*
X15391375Y-12832500D01*
X15412625Y-12832500D01*
X15433613Y-12829176D01*
X15433613Y-12829176D01*
X15453822Y-12822609D01*
X15472755Y-12812962D01*
X15478172Y-12809027D01*
X15478172Y-12809027D01*
X15414941Y-12745796D01*
X15421299Y-12744092D01*
X15432701Y-12737510D01*
X15442010Y-12728201D01*
X15448592Y-12716799D01*
X15450296Y-12710441D01*
X15513527Y-12773672D01*
X15513527Y-12773672D01*
X15517462Y-12768255D01*
X15517923Y-12767351D01*
X15518642Y-12766589D01*
X15519003Y-12765605D01*
X15521000Y-12764092D01*
X15522720Y-12762271D01*
X15523737Y-12762019D01*
X15524572Y-12761386D01*
X15527071Y-12761193D01*
X15529502Y-12760591D01*
X15530494Y-12760929D01*
X15531539Y-12760848D01*
X15533745Y-12762037D01*
X15536116Y-12762845D01*
X15536931Y-12763753D01*
X15537690Y-12764162D01*
X15539417Y-12766524D01*
X15539821Y-12766975D01*
X15539924Y-12767162D01*
X15540495Y-12768282D01*
X15540701Y-12768566D01*
X15541071Y-12769233D01*
X15541089Y-12769313D01*
X15541272Y-12769612D01*
X15564566Y-12815367D01*
X15595149Y-12875439D01*
X15595600Y-12876325D01*
X15596950Y-12881950D01*
X15596950Y-12894774D01*
X15598873Y-12901950D01*
X15599659Y-12904884D01*
X15599659Y-12904884D01*
X15600974Y-12909792D01*
X15608748Y-12923257D01*
X15608748Y-12923258D01*
X15716196Y-13030705D01*
X15718589Y-13034070D01*
X15734485Y-13066910D01*
X15734487Y-13066913D01*
X15734631Y-13067209D01*
X15734692Y-13067326D01*
X15734992Y-13068049D01*
X15735372Y-13068620D01*
X15735673Y-13069192D01*
X15735685Y-13069213D01*
X15736206Y-13070204D01*
X15736284Y-13070342D01*
X15741577Y-13077995D01*
X15742037Y-13078595D01*
X15743204Y-13080341D01*
X15743205Y-13080342D01*
X15753658Y-13090795D01*
X15753658Y-13090795D01*
X15765950Y-13099008D01*
X15765951Y-13099009D01*
X15777196Y-13103667D01*
X15779609Y-13104666D01*
X15779609Y-13104666D01*
X15779609Y-13104666D01*
X15794108Y-13107550D01*
X15794108Y-13107550D01*
X15808892Y-13107550D01*
X15818646Y-13105610D01*
X15823391Y-13104666D01*
X15837049Y-13099008D01*
X15849342Y-13090795D01*
X15859795Y-13080342D01*
X15868008Y-13068049D01*
X15873666Y-13054391D01*
X15876550Y-13039892D01*
X15876550Y-13025108D01*
X15876550Y-13025108D01*
X15873666Y-13010609D01*
X15873666Y-13010609D01*
X15873666Y-13010609D01*
X15872772Y-13008451D01*
X15868009Y-12996951D01*
X15868008Y-12996950D01*
X15859795Y-12984658D01*
X15859795Y-12984658D01*
X15849342Y-12974205D01*
X15845793Y-12971834D01*
X15837049Y-12965992D01*
X15836729Y-12965859D01*
X15836072Y-12965564D01*
X15803070Y-12949589D01*
X15799705Y-12947196D01*
X15726963Y-12874453D01*
X15723614Y-12868321D01*
X15724113Y-12861352D01*
X15724680Y-12860059D01*
X15724732Y-12859958D01*
X15770730Y-12769608D01*
X15770934Y-12769224D01*
X15771301Y-12768562D01*
X15771505Y-12768282D01*
X15772050Y-12767212D01*
X15772156Y-12767020D01*
X15774493Y-12764714D01*
X15776749Y-12762326D01*
X15776968Y-12762271D01*
X15777129Y-12762113D01*
X15780343Y-12761436D01*
X15783531Y-12760646D01*
X15783745Y-12760719D01*
X15783966Y-12760673D01*
X15787036Y-12761841D01*
X15790144Y-12762900D01*
X15790304Y-12763084D01*
X15790496Y-12763158D01*
X15791239Y-12764163D01*
X15794048Y-12767405D01*
X15794495Y-12768282D01*
X15806989Y-12785479D01*
X15822021Y-12800511D01*
X15839218Y-12813005D01*
X15839218Y-12813005D01*
X15839218Y-12813005D01*
X15858159Y-12822656D01*
X15878376Y-12829225D01*
X15899371Y-12832550D01*
X15899371Y-12832550D01*
X15920629Y-12832550D01*
X15920629Y-12832550D01*
X15941624Y-12829225D01*
X15961841Y-12822656D01*
X15980782Y-12813005D01*
X15986257Y-12809027D01*
X15997979Y-12800511D01*
X15997979Y-12800511D01*
X15997979Y-12800510D01*
X16013010Y-12785479D01*
X16013011Y-12785479D01*
X16013011Y-12785479D01*
X16025505Y-12768282D01*
X16025505Y-12768282D01*
X16025505Y-12768282D01*
X16025951Y-12767405D01*
X16030749Y-12762326D01*
X16037531Y-12760646D01*
X16044144Y-12762900D01*
X16048049Y-12767406D01*
X16048495Y-12768282D01*
X16060989Y-12785479D01*
X16076021Y-12800511D01*
X16093218Y-12813005D01*
X16093218Y-12813005D01*
X16093218Y-12813005D01*
X16112159Y-12822656D01*
X16132376Y-12829225D01*
X16153371Y-12832550D01*
X16153371Y-12832550D01*
X16174629Y-12832550D01*
X16174629Y-12832550D01*
X16195624Y-12829225D01*
X16215841Y-12822656D01*
X16234782Y-12813005D01*
X16240257Y-12809027D01*
X16251979Y-12800511D01*
X16251979Y-12800511D01*
X16251979Y-12800510D01*
X16267010Y-12785479D01*
X16267011Y-12785479D01*
X16267011Y-12785479D01*
X16279505Y-12768282D01*
X16279505Y-12768282D01*
X16279505Y-12768282D01*
X16289156Y-12749341D01*
X16295725Y-12729124D01*
X16299050Y-12708129D01*
X16299050Y-12686871D01*
X16295725Y-12665876D01*
X16289156Y-12645659D01*
X16279505Y-12626718D01*
X16279505Y-12626718D01*
X16279505Y-12626718D01*
X16267011Y-12609521D01*
X16251979Y-12594489D01*
X16234782Y-12581995D01*
X16215841Y-12572344D01*
X16215841Y-12572344D01*
X16215841Y-12572344D01*
X16195624Y-12565775D01*
X16195624Y-12565775D01*
X16195624Y-12565775D01*
X16179496Y-12563221D01*
X16174629Y-12562450D01*
X16153371Y-12562450D01*
X16148504Y-12563221D01*
X16132376Y-12565775D01*
X16112158Y-12572344D01*
X16093218Y-12581995D01*
X16076021Y-12594489D01*
X16060989Y-12609521D01*
X16048495Y-12626718D01*
X16048048Y-12627595D01*
X16043251Y-12632674D01*
X16036469Y-12634354D01*
X16029855Y-12632100D01*
X16025952Y-12627595D01*
X16025505Y-12626718D01*
X16013011Y-12609521D01*
X15997979Y-12594489D01*
X15980782Y-12581995D01*
X15961841Y-12572344D01*
X15961841Y-12572344D01*
X15961841Y-12572344D01*
X15941624Y-12565775D01*
X15941624Y-12565775D01*
X15941624Y-12565775D01*
X15925496Y-12563221D01*
X15920629Y-12562450D01*
X15899371Y-12562450D01*
X15894504Y-12563221D01*
X15878376Y-12565775D01*
X15858158Y-12572344D01*
X15839218Y-12581995D01*
X15822021Y-12594489D01*
X15806989Y-12609521D01*
X15794495Y-12626718D01*
X15794048Y-12627595D01*
X15789251Y-12632674D01*
X15782469Y-12634354D01*
X15775855Y-12632100D01*
X15771952Y-12627595D01*
X15771505Y-12626718D01*
X15759011Y-12609521D01*
X15743979Y-12594489D01*
X15726782Y-12581995D01*
X15707842Y-12572344D01*
X15687624Y-12565775D01*
X15687151Y-12565662D01*
X15687159Y-12565630D01*
X15686134Y-12565384D01*
X15572261Y-12528343D01*
X15567328Y-12525319D01*
X15148401Y-12106392D01*
X15312950Y-12106392D01*
X15315834Y-12120891D01*
X15315834Y-12120892D01*
X15321491Y-12134549D01*
X15321492Y-12134550D01*
X15329705Y-12146841D01*
X15329705Y-12146842D01*
X15340158Y-12157295D01*
X15340158Y-12157295D01*
X15352450Y-12165508D01*
X15352451Y-12165509D01*
X15365791Y-12171034D01*
X15366109Y-12171166D01*
X15366109Y-12171166D01*
X15366109Y-12171166D01*
X15380608Y-12174050D01*
X15380608Y-12174050D01*
X15395392Y-12174050D01*
X15401223Y-12172890D01*
X15409891Y-12171166D01*
X15410214Y-12171032D01*
X15410882Y-12170778D01*
X15437909Y-12161382D01*
X15445516Y-12158738D01*
X15449588Y-12158050D01*
X15526412Y-12158050D01*
X15530484Y-12158738D01*
X15538703Y-12161595D01*
X15565259Y-12170827D01*
X15565385Y-12170866D01*
X15566109Y-12171166D01*
X15566781Y-12171299D01*
X15567892Y-12171644D01*
X15568493Y-12171831D01*
X15568493Y-12171831D01*
X15568495Y-12171832D01*
X15568646Y-12171873D01*
X15577303Y-12173452D01*
X15577303Y-12173452D01*
X15577782Y-12173539D01*
X15578545Y-12173640D01*
X15580127Y-12173954D01*
X15580608Y-12174050D01*
X15580608Y-12174050D01*
X15595392Y-12174050D01*
X15606335Y-12171873D01*
X15609891Y-12171166D01*
X15623549Y-12165508D01*
X15635842Y-12157295D01*
X15646295Y-12146842D01*
X15654508Y-12134549D01*
X15660166Y-12120891D01*
X15663014Y-12106575D01*
X15663050Y-12106392D01*
X15663050Y-12091608D01*
X15660166Y-12077109D01*
X15660166Y-12077109D01*
X15660166Y-12077109D01*
X15655907Y-12066827D01*
X15654509Y-12063451D01*
X15654508Y-12063450D01*
X15646295Y-12051158D01*
X15646295Y-12051158D01*
X15635842Y-12040705D01*
X15635841Y-12040705D01*
X15623550Y-12032492D01*
X15623549Y-12032491D01*
X15609892Y-12026834D01*
X15609891Y-12026834D01*
X15595392Y-12023950D01*
X15595392Y-12023950D01*
X15580608Y-12023950D01*
X15580608Y-12023950D01*
X15566109Y-12026834D01*
X15566107Y-12026835D01*
X15565784Y-12026968D01*
X15565113Y-12027224D01*
X15541723Y-12035355D01*
X15530484Y-12039262D01*
X15526412Y-12039950D01*
X15449588Y-12039950D01*
X15445516Y-12039262D01*
X15436887Y-12036262D01*
X15411056Y-12027282D01*
X15411051Y-12027281D01*
X15410740Y-12027173D01*
X15410614Y-12027133D01*
X15409891Y-12026834D01*
X15409217Y-12026700D01*
X15408577Y-12026501D01*
X15407488Y-12026164D01*
X15407338Y-12026122D01*
X15407338Y-12026122D01*
X15398218Y-12024461D01*
X15397455Y-12024360D01*
X15395392Y-12023950D01*
X15380608Y-12023950D01*
X15380608Y-12023950D01*
X15366109Y-12026834D01*
X15366108Y-12026834D01*
X15352451Y-12032491D01*
X15352450Y-12032492D01*
X15340158Y-12040705D01*
X15340158Y-12040705D01*
X15329705Y-12051158D01*
X15329705Y-12051158D01*
X15321492Y-12063450D01*
X15321491Y-12063451D01*
X15315834Y-12077108D01*
X15315834Y-12077109D01*
X15312950Y-12091608D01*
X15312950Y-12091608D01*
X15312950Y-12106392D01*
X15312950Y-12106392D01*
X15312950Y-12106392D01*
X15148401Y-12106392D01*
X15032957Y-11990947D01*
X15029608Y-11984815D01*
X15030106Y-11977846D01*
X15034294Y-11972252D01*
X15037652Y-11970467D01*
X15062088Y-11961972D01*
X15068516Y-11959738D01*
X15072588Y-11959050D01*
X15705009Y-11959050D01*
X15706523Y-11959143D01*
X15706679Y-11959162D01*
X15709549Y-11959515D01*
X15732345Y-11959050D01*
X15741774Y-11959050D01*
X15742551Y-11958842D01*
X15755018Y-11958587D01*
X15755213Y-11958575D01*
X15756000Y-11958550D01*
X15757891Y-11958550D01*
X15757892Y-11958550D01*
X15758233Y-11958482D01*
X15759333Y-11958314D01*
X15759365Y-11958311D01*
X15759368Y-11958311D01*
X15759567Y-11958289D01*
X15762023Y-11957783D01*
X15769842Y-11956173D01*
X15769843Y-11956180D01*
X15769925Y-11956156D01*
X15772391Y-11955666D01*
X15786049Y-11950008D01*
X15798342Y-11941795D01*
X15808795Y-11931342D01*
X15817008Y-11919049D01*
X15822666Y-11905391D01*
X15825550Y-11890892D01*
X15825550Y-11876108D01*
X15825550Y-11876108D01*
X15822666Y-11861609D01*
X15822666Y-11861609D01*
X15822666Y-11861609D01*
X15818319Y-11851114D01*
X15817009Y-11847951D01*
X15817008Y-11847950D01*
X15808795Y-11835658D01*
X15808795Y-11835658D01*
X15798342Y-11825205D01*
X15798341Y-11825205D01*
X15786050Y-11816992D01*
X15786049Y-11816991D01*
X15772392Y-11811334D01*
X15772391Y-11811334D01*
X15757892Y-11808450D01*
X15757892Y-11808450D01*
X15743108Y-11808450D01*
X15743108Y-11808450D01*
X15728609Y-11811334D01*
X15728608Y-11811334D01*
X15714951Y-11816991D01*
X15714950Y-11816992D01*
X15702658Y-11825205D01*
X15702658Y-11825205D01*
X15701191Y-11826672D01*
X15701025Y-11826835D01*
X15700606Y-11827238D01*
X15700489Y-11827323D01*
X15689972Y-11837481D01*
X15686887Y-11839091D01*
X15683795Y-11840711D01*
X15683781Y-11840712D01*
X15683778Y-11840714D01*
X15683769Y-11840713D01*
X15681370Y-11840950D01*
X15072588Y-11840950D01*
X15068516Y-11840262D01*
X15055273Y-11835658D01*
X15033884Y-11828223D01*
X15033213Y-11827967D01*
X15032891Y-11827834D01*
X15032891Y-11827834D01*
X15032853Y-11827826D01*
X15031598Y-11827508D01*
X15030488Y-11827164D01*
X15030338Y-11827122D01*
X15030338Y-11827122D01*
X15021218Y-11825461D01*
X15020455Y-11825360D01*
X15018392Y-11824950D01*
X15003608Y-11824950D01*
X15003608Y-11824950D01*
X14989109Y-11827834D01*
X14989108Y-11827834D01*
X14975451Y-11833491D01*
X14975450Y-11833492D01*
X14963158Y-11841705D01*
X14963158Y-11841705D01*
X14952705Y-11852158D01*
X14952705Y-11852158D01*
X14944492Y-11864450D01*
X14944491Y-11864451D01*
X14940454Y-11874198D01*
X14936070Y-11879638D01*
X14929441Y-11881845D01*
X14922671Y-11880117D01*
X14920230Y-11878221D01*
X14887682Y-11845673D01*
X14884333Y-11839540D01*
X14884050Y-11836904D01*
X14884050Y-11761588D01*
X14884738Y-11757516D01*
X14887350Y-11750000D01*
X14896827Y-11722741D01*
X14896866Y-11722615D01*
X14897166Y-11721891D01*
X14897300Y-11721218D01*
X14897832Y-11719505D01*
X14897873Y-11719353D01*
X14899452Y-11710697D01*
X14899452Y-11710696D01*
X14899539Y-11710217D01*
X14899640Y-11709453D01*
X14900050Y-11707392D01*
X14900050Y-11707392D01*
X14900050Y-11692608D01*
X14900050Y-11692608D01*
X14898511Y-11684869D01*
X14899133Y-11677910D01*
X14903419Y-11672392D01*
X14910008Y-11670068D01*
X14910672Y-11670050D01*
X16050082Y-11670050D01*
X16050693Y-11670229D01*
G37*
%TD.AperFunction*%
%TA.AperFunction,Conductor*%
G36*
X15260000Y-13685266D02*
G01*
X15262726Y-13695439D01*
X15267992Y-13704561D01*
X15275439Y-13712008D01*
X15284561Y-13717274D01*
X15294734Y-13720000D01*
X15295355Y-13720000D01*
X15238147Y-13777208D01*
X15238147Y-13777209D01*
X15239727Y-13778357D01*
X15239727Y-13778357D01*
X15255855Y-13786575D01*
X15255855Y-13786575D01*
X15260879Y-13788207D01*
X15266646Y-13792151D01*
X15269366Y-13798586D01*
X15268174Y-13805471D01*
X15263450Y-13810619D01*
X15260879Y-13811793D01*
X15255855Y-13813425D01*
X15255855Y-13813425D01*
X15239727Y-13821643D01*
X15238147Y-13822791D01*
X15238147Y-13822791D01*
X15295355Y-13880000D01*
X15294734Y-13880000D01*
X15284561Y-13882726D01*
X15275439Y-13887992D01*
X15267992Y-13895439D01*
X15262726Y-13904561D01*
X15260000Y-13914734D01*
X15260000Y-13915355D01*
X15202791Y-13858146D01*
X15200973Y-13858290D01*
X15199027Y-13858290D01*
X15197209Y-13858146D01*
X15140000Y-13915355D01*
X15140000Y-13914734D01*
X15137274Y-13904561D01*
X15132008Y-13895439D01*
X15124561Y-13887992D01*
X15115439Y-13882726D01*
X15105266Y-13880000D01*
X15104645Y-13880000D01*
X15161853Y-13822791D01*
X15160273Y-13821643D01*
X15144145Y-13813425D01*
X15144144Y-13813425D01*
X15139121Y-13811793D01*
X15133354Y-13807849D01*
X15130634Y-13801414D01*
X15131825Y-13794529D01*
X15136550Y-13789381D01*
X15139121Y-13788207D01*
X15144144Y-13786575D01*
X15144145Y-13786574D01*
X15160273Y-13778357D01*
X15161853Y-13777208D01*
X15161853Y-13777208D01*
X15104645Y-13720000D01*
X15105266Y-13720000D01*
X15115439Y-13717274D01*
X15124561Y-13712008D01*
X15132008Y-13704561D01*
X15137274Y-13695439D01*
X15140000Y-13685266D01*
X15140000Y-13684645D01*
X15197208Y-13741853D01*
X15199027Y-13741710D01*
X15200973Y-13741710D01*
X15202791Y-13741853D01*
X15260000Y-13684645D01*
X15260000Y-13685266D01*
G37*
%TD.AperFunction*%
%TA.AperFunction,Conductor*%
G36*
X13660000Y-12705266D02*
G01*
X13662726Y-12715439D01*
X13667992Y-12724561D01*
X13675439Y-12732008D01*
X13684561Y-12737274D01*
X13694734Y-12740000D01*
X13695355Y-12740000D01*
X13638146Y-12797209D01*
X13638290Y-12799027D01*
X13638290Y-12800973D01*
X13638146Y-12802791D01*
X13695355Y-12860000D01*
X13694734Y-12860000D01*
X13684561Y-12862726D01*
X13675439Y-12867992D01*
X13667992Y-12875439D01*
X13662726Y-12884561D01*
X13660000Y-12894734D01*
X13660000Y-12895355D01*
X13602791Y-12838146D01*
X13600973Y-12838290D01*
X13599027Y-12838290D01*
X13597209Y-12838146D01*
X13540000Y-12895355D01*
X13540000Y-12894734D01*
X13537274Y-12884561D01*
X13532008Y-12875439D01*
X13524561Y-12867992D01*
X13515439Y-12862726D01*
X13505266Y-12860000D01*
X13504645Y-12860000D01*
X13561853Y-12802791D01*
X13561710Y-12800973D01*
X13561710Y-12799027D01*
X13561853Y-12797208D01*
X13504645Y-12740000D01*
X13505266Y-12740000D01*
X13515439Y-12737274D01*
X13524561Y-12732008D01*
X13532008Y-12724561D01*
X13537274Y-12715439D01*
X13540000Y-12705266D01*
X13540000Y-12704645D01*
X13597208Y-12761853D01*
X13599027Y-12761710D01*
X13600973Y-12761710D01*
X13602791Y-12761853D01*
X13660000Y-12704645D01*
X13660000Y-12705266D01*
G37*
%TD.AperFunction*%
%TA.AperFunction,Conductor*%
G36*
X13860000Y-12705266D02*
G01*
X13862726Y-12715439D01*
X13867992Y-12724561D01*
X13875439Y-12732008D01*
X13884561Y-12737274D01*
X13894734Y-12740000D01*
X13895355Y-12740000D01*
X13838146Y-12797209D01*
X13838290Y-12799027D01*
X13838290Y-12800973D01*
X13838146Y-12802791D01*
X13895355Y-12860000D01*
X13894734Y-12860000D01*
X13884561Y-12862726D01*
X13875439Y-12867992D01*
X13867992Y-12875439D01*
X13862726Y-12884561D01*
X13860000Y-12894734D01*
X13860000Y-12895355D01*
X13802791Y-12838146D01*
X13800973Y-12838290D01*
X13799027Y-12838290D01*
X13797209Y-12838146D01*
X13740000Y-12895355D01*
X13740000Y-12894734D01*
X13737274Y-12884561D01*
X13732008Y-12875439D01*
X13724561Y-12867992D01*
X13715439Y-12862726D01*
X13705266Y-12860000D01*
X13704645Y-12860000D01*
X13761853Y-12802791D01*
X13761710Y-12800973D01*
X13761710Y-12799027D01*
X13761853Y-12797208D01*
X13704645Y-12740000D01*
X13705266Y-12740000D01*
X13715439Y-12737274D01*
X13724561Y-12732008D01*
X13732008Y-12724561D01*
X13737274Y-12715439D01*
X13740000Y-12705266D01*
X13740000Y-12704645D01*
X13797208Y-12761853D01*
X13799027Y-12761710D01*
X13800973Y-12761710D01*
X13802791Y-12761853D01*
X13860000Y-12704645D01*
X13860000Y-12705266D01*
G37*
%TD.AperFunction*%
%TA.AperFunction,Conductor*%
G36*
X13660000Y-12505266D02*
G01*
X13662726Y-12515439D01*
X13667992Y-12524561D01*
X13675439Y-12532008D01*
X13684561Y-12537274D01*
X13694734Y-12540000D01*
X13695355Y-12540000D01*
X13638146Y-12597209D01*
X13638290Y-12599027D01*
X13638290Y-12600973D01*
X13638146Y-12602791D01*
X13695355Y-12660000D01*
X13694734Y-12660000D01*
X13684561Y-12662726D01*
X13675439Y-12667992D01*
X13667992Y-12675439D01*
X13662726Y-12684561D01*
X13660000Y-12694734D01*
X13660000Y-12695355D01*
X13602791Y-12638146D01*
X13600973Y-12638290D01*
X13599027Y-12638290D01*
X13597209Y-12638146D01*
X13540000Y-12695355D01*
X13540000Y-12694734D01*
X13537274Y-12684561D01*
X13532008Y-12675439D01*
X13524561Y-12667992D01*
X13515439Y-12662726D01*
X13505266Y-12660000D01*
X13504645Y-12660000D01*
X13561853Y-12602791D01*
X13561710Y-12600973D01*
X13561710Y-12599027D01*
X13561853Y-12597208D01*
X13504645Y-12540000D01*
X13505266Y-12540000D01*
X13515439Y-12537274D01*
X13524561Y-12532008D01*
X13532008Y-12524561D01*
X13537274Y-12515439D01*
X13540000Y-12505266D01*
X13540000Y-12504645D01*
X13597208Y-12561853D01*
X13599027Y-12561710D01*
X13600973Y-12561710D01*
X13602791Y-12561853D01*
X13660000Y-12504645D01*
X13660000Y-12505266D01*
G37*
%TD.AperFunction*%
%TA.AperFunction,Conductor*%
G36*
X13860000Y-12505266D02*
G01*
X13862726Y-12515439D01*
X13867992Y-12524561D01*
X13875439Y-12532008D01*
X13884561Y-12537274D01*
X13894734Y-12540000D01*
X13895355Y-12540000D01*
X13838146Y-12597209D01*
X13838290Y-12599027D01*
X13838290Y-12600973D01*
X13838146Y-12602791D01*
X13895355Y-12660000D01*
X13894734Y-12660000D01*
X13884561Y-12662726D01*
X13875439Y-12667992D01*
X13867992Y-12675439D01*
X13862726Y-12684561D01*
X13860000Y-12694734D01*
X13860000Y-12695355D01*
X13802791Y-12638146D01*
X13800973Y-12638290D01*
X13799027Y-12638290D01*
X13797209Y-12638146D01*
X13740000Y-12695355D01*
X13740000Y-12694734D01*
X13737274Y-12684561D01*
X13732008Y-12675439D01*
X13724561Y-12667992D01*
X13715439Y-12662726D01*
X13705266Y-12660000D01*
X13704645Y-12660000D01*
X13761853Y-12602791D01*
X13761710Y-12600973D01*
X13761710Y-12599027D01*
X13761853Y-12597208D01*
X13704645Y-12540000D01*
X13705266Y-12540000D01*
X13715439Y-12537274D01*
X13724561Y-12532008D01*
X13732008Y-12524561D01*
X13737274Y-12515439D01*
X13740000Y-12505266D01*
X13740000Y-12504645D01*
X13797208Y-12561853D01*
X13799027Y-12561710D01*
X13800973Y-12561710D01*
X13802791Y-12561853D01*
X13860000Y-12504645D01*
X13860000Y-12505266D01*
G37*
%TD.AperFunction*%
%TA.AperFunction,Conductor*%
G36*
X14930399Y-12057263D02*
G01*
X14935251Y-12060261D01*
X15416323Y-12541332D01*
X15419671Y-12547464D01*
X15419173Y-12554433D01*
X15414985Y-12560027D01*
X15408439Y-12562468D01*
X15407554Y-12562500D01*
X15391375Y-12562500D01*
X15370387Y-12565824D01*
X15370387Y-12565824D01*
X15350178Y-12572390D01*
X15331244Y-12582038D01*
X15325828Y-12585973D01*
X15325828Y-12585973D01*
X15389059Y-12649204D01*
X15382701Y-12650907D01*
X15371299Y-12657490D01*
X15361990Y-12666799D01*
X15355407Y-12678201D01*
X15353704Y-12684559D01*
X15290473Y-12621328D01*
X15290473Y-12621328D01*
X15286538Y-12626744D01*
X15286538Y-12626745D01*
X15286076Y-12627650D01*
X15281278Y-12632730D01*
X15274496Y-12634409D01*
X15267883Y-12632154D01*
X15263979Y-12627649D01*
X15263505Y-12626718D01*
X15263505Y-12626718D01*
X15263505Y-12626718D01*
X15251011Y-12609521D01*
X15235979Y-12594489D01*
X15218782Y-12581995D01*
X15199841Y-12572344D01*
X15199841Y-12572344D01*
X15199841Y-12572344D01*
X15179624Y-12565775D01*
X15179624Y-12565775D01*
X15179624Y-12565775D01*
X15163496Y-12563221D01*
X15158629Y-12562450D01*
X15137371Y-12562450D01*
X15132504Y-12563221D01*
X15116376Y-12565775D01*
X15096158Y-12572344D01*
X15077218Y-12581995D01*
X15060021Y-12594489D01*
X15044989Y-12609521D01*
X15032495Y-12626718D01*
X15032048Y-12627595D01*
X15031333Y-12628352D01*
X15030975Y-12629331D01*
X15028975Y-12630849D01*
X15027250Y-12632674D01*
X15026239Y-12632925D01*
X15025409Y-12633554D01*
X15022906Y-12633750D01*
X15020468Y-12634354D01*
X15019482Y-12634017D01*
X15018444Y-12634099D01*
X15016232Y-12632909D01*
X15013855Y-12632099D01*
X15013043Y-12631196D01*
X15012289Y-12630790D01*
X15010571Y-12628441D01*
X15010156Y-12627979D01*
X15010051Y-12627789D01*
X15009505Y-12626718D01*
X15009301Y-12626438D01*
X15008934Y-12625776D01*
X15008916Y-12625695D01*
X15008729Y-12625389D01*
X14954399Y-12518675D01*
X14953050Y-12513049D01*
X14953050Y-12494588D01*
X14953738Y-12490516D01*
X14954783Y-12487510D01*
X14965827Y-12455741D01*
X14965866Y-12455615D01*
X14966166Y-12454891D01*
X14966300Y-12454218D01*
X14966832Y-12452505D01*
X14966873Y-12452353D01*
X14968452Y-12443697D01*
X14968452Y-12443696D01*
X14968539Y-12443217D01*
X14968640Y-12442453D01*
X14969050Y-12440392D01*
X14969050Y-12440392D01*
X14969050Y-12425608D01*
X14969050Y-12425608D01*
X14966166Y-12411109D01*
X14966166Y-12411109D01*
X14966166Y-12411109D01*
X14964598Y-12407323D01*
X14960509Y-12397451D01*
X14960508Y-12397450D01*
X14952295Y-12385158D01*
X14952295Y-12385158D01*
X14941842Y-12374705D01*
X14941841Y-12374705D01*
X14929550Y-12366492D01*
X14929549Y-12366491D01*
X14915892Y-12360834D01*
X14915891Y-12360834D01*
X14901392Y-12357950D01*
X14901392Y-12357950D01*
X14886608Y-12357950D01*
X14886608Y-12357950D01*
X14872109Y-12360834D01*
X14872108Y-12360834D01*
X14858451Y-12366491D01*
X14858450Y-12366492D01*
X14846158Y-12374705D01*
X14846158Y-12374705D01*
X14835705Y-12385158D01*
X14835705Y-12385158D01*
X14827492Y-12397450D01*
X14827491Y-12397451D01*
X14821834Y-12411108D01*
X14821834Y-12411109D01*
X14818950Y-12425608D01*
X14818950Y-12425608D01*
X14818950Y-12440392D01*
X14818950Y-12440392D01*
X14818950Y-12440392D01*
X14821834Y-12454891D01*
X14821834Y-12454891D01*
X14821966Y-12455210D01*
X14822223Y-12455884D01*
X14829324Y-12476310D01*
X14833971Y-12489677D01*
X14834262Y-12490516D01*
X14834329Y-12490909D01*
X14834448Y-12491094D01*
X14834950Y-12494588D01*
X14834950Y-12513049D01*
X14833600Y-12518675D01*
X14794403Y-12595666D01*
X14789608Y-12600747D01*
X14782826Y-12602429D01*
X14776212Y-12600177D01*
X14771886Y-12594760D01*
X14771054Y-12592738D01*
X14770907Y-12592363D01*
X14769380Y-12588267D01*
X14764266Y-12581436D01*
X14763868Y-12580872D01*
X14763200Y-12579867D01*
X14761946Y-12577982D01*
X14720840Y-12532008D01*
X14708713Y-12518444D01*
X14708101Y-12517159D01*
X14707091Y-12516155D01*
X14706630Y-12514066D01*
X14705712Y-12512135D01*
X14705863Y-12510590D01*
X14705586Y-12509332D01*
X14706324Y-12505888D01*
X14706325Y-12505881D01*
X14712454Y-12489320D01*
X14712521Y-12489115D01*
X14712602Y-12488894D01*
X14712622Y-12488867D01*
X14712778Y-12488446D01*
X14713166Y-12487510D01*
X14713208Y-12487296D01*
X14713583Y-12485863D01*
X14713664Y-12485615D01*
X14713714Y-12485442D01*
X14715425Y-12476310D01*
X14715425Y-12476310D01*
X14715550Y-12475646D01*
X14715598Y-12475284D01*
X14716050Y-12473010D01*
X14716050Y-12458226D01*
X14713166Y-12443728D01*
X14713166Y-12443728D01*
X14713166Y-12443727D01*
X14711784Y-12440392D01*
X14707509Y-12430070D01*
X14707508Y-12430068D01*
X14699295Y-12417777D01*
X14699295Y-12417776D01*
X14688842Y-12407324D01*
X14688841Y-12407323D01*
X14684227Y-12404240D01*
X14679746Y-12398878D01*
X14678875Y-12391946D01*
X14681891Y-12385643D01*
X14682346Y-12385163D01*
X14890252Y-12177257D01*
X14898026Y-12163792D01*
X14901845Y-12149540D01*
X14902443Y-12147822D01*
X14909224Y-12132170D01*
X14909416Y-12131773D01*
X14909508Y-12131550D01*
X14909508Y-12131549D01*
X14909891Y-12130626D01*
X14909918Y-12130561D01*
X14910082Y-12130176D01*
X14910082Y-12130176D01*
X14910193Y-12129913D01*
X14910260Y-12129733D01*
X14915166Y-12117891D01*
X14916304Y-12112168D01*
X14918050Y-12103392D01*
X14918050Y-12088608D01*
X14915166Y-12074109D01*
X14915166Y-12074108D01*
X14915027Y-12073774D01*
X14915007Y-12073585D01*
X14914989Y-12073526D01*
X14915000Y-12073522D01*
X14914280Y-12066827D01*
X14917407Y-12060579D01*
X14923416Y-12057014D01*
X14930399Y-12057263D01*
G37*
%TD.AperFunction*%
%TA.AperFunction,Conductor*%
G36*
X16260000Y-11805266D02*
G01*
X16262726Y-11815439D01*
X16267992Y-11824561D01*
X16275439Y-11832008D01*
X16284561Y-11837274D01*
X16294734Y-11840000D01*
X16295355Y-11840000D01*
X16238146Y-11897209D01*
X16238290Y-11899027D01*
X16238290Y-11900973D01*
X16238146Y-11902791D01*
X16295355Y-11960000D01*
X16294734Y-11960000D01*
X16284561Y-11962726D01*
X16275439Y-11967992D01*
X16267992Y-11975439D01*
X16262726Y-11984561D01*
X16260000Y-11994734D01*
X16260000Y-11995355D01*
X16202791Y-11938146D01*
X16200973Y-11938290D01*
X16199027Y-11938290D01*
X16197209Y-11938146D01*
X16140000Y-11995355D01*
X16140000Y-11994734D01*
X16137274Y-11984561D01*
X16132008Y-11975439D01*
X16124561Y-11967992D01*
X16115439Y-11962726D01*
X16105266Y-11960000D01*
X16104645Y-11960000D01*
X16161853Y-11902791D01*
X16161710Y-11900973D01*
X16161710Y-11899027D01*
X16161853Y-11897208D01*
X16104645Y-11840000D01*
X16105266Y-11840000D01*
X16115439Y-11837274D01*
X16124561Y-11832008D01*
X16132008Y-11824561D01*
X16137274Y-11815439D01*
X16140000Y-11805266D01*
X16140000Y-11804645D01*
X16197208Y-11861853D01*
X16199027Y-11861710D01*
X16200973Y-11861710D01*
X16202791Y-11861853D01*
X16260000Y-11804645D01*
X16260000Y-11805266D01*
G37*
%TD.AperFunction*%
%TA.AperFunction,Conductor*%
G36*
X16256786Y-11672018D02*
G01*
X16261361Y-11677299D01*
X16262356Y-11684215D01*
X16259453Y-11690570D01*
X16255712Y-11693498D01*
X16239727Y-11701643D01*
X16238147Y-11702791D01*
X16238147Y-11702791D01*
X16295355Y-11760000D01*
X16294734Y-11760000D01*
X16284561Y-11762726D01*
X16275439Y-11767992D01*
X16267992Y-11775439D01*
X16262726Y-11784561D01*
X16260000Y-11794734D01*
X16260000Y-11795355D01*
X16202791Y-11738146D01*
X16200973Y-11738290D01*
X16199027Y-11738290D01*
X16197209Y-11738146D01*
X16140000Y-11795355D01*
X16140000Y-11794734D01*
X16137274Y-11784561D01*
X16132008Y-11775439D01*
X16124561Y-11767992D01*
X16115439Y-11762726D01*
X16105266Y-11760000D01*
X16104645Y-11760000D01*
X16161853Y-11702791D01*
X16160273Y-11701643D01*
X16144288Y-11693498D01*
X16139209Y-11688701D01*
X16137529Y-11681919D01*
X16139783Y-11675305D01*
X16145255Y-11670960D01*
X16149918Y-11670050D01*
X16250082Y-11670050D01*
X16256786Y-11672018D01*
G37*
%TD.AperFunction*%
%TD*%
%TA.AperFunction,Conductor*%
%TO.N,/CHIP_PU*%
G36*
X14180193Y-11837572D02*
G01*
X14180328Y-11837649D01*
X14192706Y-11845850D01*
X14199873Y-11850598D01*
X14200202Y-11850927D01*
X14213150Y-11870471D01*
X14213321Y-11871349D01*
X14212821Y-11872092D01*
X14212684Y-11872170D01*
X14172097Y-11891817D01*
X14171203Y-11891869D01*
X14170760Y-11891591D01*
X14159209Y-11880040D01*
X14158866Y-11879213D01*
X14158983Y-11878703D01*
X14178630Y-11838115D01*
X14179299Y-11837520D01*
X14180193Y-11837572D01*
G37*
%TD.AperFunction*%
%TD*%
%TA.AperFunction,Conductor*%
%TO.N,/GPIO16*%
G36*
X14221784Y-13311941D02*
G01*
X14222351Y-13312634D01*
X14222378Y-13312740D01*
X14227053Y-13335767D01*
X14227053Y-13336233D01*
X14222400Y-13359154D01*
X14221899Y-13359897D01*
X14221020Y-13360068D01*
X14220826Y-13360011D01*
X14178223Y-13343291D01*
X14177578Y-13342670D01*
X14177480Y-13342202D01*
X14177480Y-13325868D01*
X14177823Y-13325041D01*
X14178311Y-13324748D01*
X14220893Y-13311853D01*
X14221784Y-13311941D01*
G37*
%TD.AperFunction*%
%TD*%
%TA.AperFunction,Conductor*%
%TO.N,/CHIP_PU*%
G36*
X15543992Y-12572304D02*
G01*
X15671595Y-12613812D01*
X15672276Y-12614394D01*
X15672381Y-12615152D01*
X15656223Y-12696802D01*
X15655726Y-12697547D01*
X15655302Y-12697723D01*
X15573652Y-12713881D01*
X15572774Y-12713706D01*
X15572312Y-12713095D01*
X15567312Y-12697723D01*
X15530805Y-12585492D01*
X15530874Y-12584600D01*
X15531090Y-12584304D01*
X15542804Y-12572590D01*
X15543631Y-12572247D01*
X15543992Y-12572304D01*
G37*
%TD.AperFunction*%
%TD*%
%TA.AperFunction,Conductor*%
%TO.N,/SPIWP*%
G36*
X14432995Y-13076823D02*
G01*
X14433273Y-13077266D01*
X14448080Y-13119858D01*
X14448028Y-13120752D01*
X14447359Y-13121347D01*
X14447208Y-13121389D01*
X14424233Y-13126053D01*
X14423767Y-13126053D01*
X14406456Y-13122539D01*
X14400792Y-13121389D01*
X14400050Y-13120889D01*
X14399878Y-13120010D01*
X14399919Y-13119859D01*
X14414727Y-13077266D01*
X14415322Y-13076597D01*
X14415832Y-13076480D01*
X14432168Y-13076480D01*
X14432995Y-13076823D01*
G37*
%TD.AperFunction*%
%TD*%
%TA.AperFunction,Conductor*%
%TO.N,/SPICS0*%
G36*
X14542995Y-13076823D02*
G01*
X14543273Y-13077266D01*
X14558080Y-13119858D01*
X14558028Y-13120752D01*
X14557359Y-13121347D01*
X14557208Y-13121389D01*
X14534233Y-13126053D01*
X14533767Y-13126053D01*
X14516456Y-13122539D01*
X14510792Y-13121389D01*
X14510050Y-13120889D01*
X14509878Y-13120010D01*
X14509919Y-13119859D01*
X14524727Y-13077266D01*
X14525322Y-13076597D01*
X14525832Y-13076480D01*
X14542168Y-13076480D01*
X14542995Y-13076823D01*
G37*
%TD.AperFunction*%
%TD*%
%TA.AperFunction,Conductor*%
%TO.N,/GPIO17*%
G36*
X13712141Y-13398920D02*
G01*
X13754734Y-13413727D01*
X13755403Y-13414322D01*
X13755520Y-13414832D01*
X13755520Y-13431168D01*
X13755177Y-13431995D01*
X13754734Y-13432273D01*
X13712142Y-13447080D01*
X13711248Y-13447028D01*
X13710652Y-13446359D01*
X13710611Y-13446209D01*
X13705947Y-13423232D01*
X13705947Y-13422767D01*
X13710611Y-13399792D01*
X13711111Y-13399050D01*
X13711990Y-13398878D01*
X13712141Y-13398920D01*
G37*
%TD.AperFunction*%
%TD*%
%TA.AperFunction,Conductor*%
%TO.N,/~{DTR}*%
G36*
X15582752Y-12074972D02*
G01*
X15583347Y-12075641D01*
X15583389Y-12075792D01*
X15588053Y-12098767D01*
X15588053Y-12099233D01*
X15583389Y-12122208D01*
X15582889Y-12122950D01*
X15582010Y-12123121D01*
X15581858Y-12123080D01*
X15539266Y-12108273D01*
X15538597Y-12107678D01*
X15538480Y-12107168D01*
X15538480Y-12090832D01*
X15538823Y-12090005D01*
X15539266Y-12089727D01*
X15581858Y-12074920D01*
X15582752Y-12074972D01*
G37*
%TD.AperFunction*%
%TD*%
%TA.AperFunction,Conductor*%
%TO.N,/GPIO18*%
G36*
X13730141Y-13494920D02*
G01*
X13772734Y-13509727D01*
X13773403Y-13510322D01*
X13773520Y-13510832D01*
X13773520Y-13527168D01*
X13773177Y-13527995D01*
X13772734Y-13528273D01*
X13730142Y-13543080D01*
X13729248Y-13543028D01*
X13728652Y-13542359D01*
X13728611Y-13542209D01*
X13723947Y-13519232D01*
X13723947Y-13518767D01*
X13728611Y-13495792D01*
X13729111Y-13495050D01*
X13729990Y-13494878D01*
X13730141Y-13494920D01*
G37*
%TD.AperFunction*%
%TD*%
%TA.AperFunction,Conductor*%
%TO.N,/GPIO0*%
G36*
X17959292Y-14330179D02*
G01*
X17959370Y-14330316D01*
X17979017Y-14370903D01*
X17979069Y-14371797D01*
X17978791Y-14372240D01*
X17967240Y-14383791D01*
X17966413Y-14384134D01*
X17965903Y-14384017D01*
X17965436Y-14383791D01*
X17954986Y-14378732D01*
X17925316Y-14364370D01*
X17924720Y-14363701D01*
X17924772Y-14362807D01*
X17924849Y-14362672D01*
X17937798Y-14343127D01*
X17938127Y-14342798D01*
X17957671Y-14329850D01*
X17958550Y-14329679D01*
X17959292Y-14330179D01*
G37*
%TD.AperFunction*%
%TD*%
%TA.AperFunction,Conductor*%
%TO.N,VCC*%
G36*
X14640827Y-12698228D02*
G01*
X14708020Y-12765500D01*
X14724390Y-12781889D01*
X14724732Y-12782716D01*
X14724596Y-12783263D01*
X14680330Y-12866877D01*
X14679640Y-12867448D01*
X14679296Y-12867500D01*
X14600704Y-12867500D01*
X14599877Y-12867157D01*
X14599670Y-12866877D01*
X14555404Y-12783263D01*
X14555320Y-12782372D01*
X14555610Y-12781889D01*
X14639172Y-12698229D01*
X14639999Y-12697885D01*
X14640827Y-12698228D01*
G37*
%TD.AperFunction*%
%TD*%
%TA.AperFunction,Conductor*%
%TO.N,/GPIO0*%
G36*
X12915141Y-12654920D02*
G01*
X12957734Y-12669727D01*
X12958403Y-12670322D01*
X12958520Y-12670832D01*
X12958520Y-12687168D01*
X12958177Y-12687995D01*
X12957734Y-12688273D01*
X12915142Y-12703080D01*
X12914248Y-12703028D01*
X12913652Y-12702359D01*
X12913611Y-12702209D01*
X12908947Y-12679232D01*
X12908947Y-12678767D01*
X12913611Y-12655792D01*
X12914111Y-12655050D01*
X12914990Y-12654878D01*
X12915141Y-12654920D01*
G37*
%TD.AperFunction*%
%TD*%
%TA.AperFunction,Conductor*%
%TO.N,/CHIP_PU*%
G36*
X14940090Y-15227264D02*
G01*
X14940318Y-15227587D01*
X15007710Y-15368529D01*
X15007758Y-15369423D01*
X15007305Y-15370006D01*
X14925651Y-15424664D01*
X14924773Y-15424840D01*
X14924349Y-15424664D01*
X14842694Y-15370006D01*
X14842198Y-15369261D01*
X14842290Y-15368529D01*
X14909682Y-15227587D01*
X14910348Y-15226988D01*
X14910737Y-15226921D01*
X14939263Y-15226921D01*
X14940090Y-15227264D01*
G37*
%TD.AperFunction*%
%TD*%
%TA.AperFunction,Conductor*%
%TO.N,VCC*%
G36*
X14649304Y-12527843D02*
G01*
X14649349Y-12527890D01*
X14724263Y-12611676D01*
X14724559Y-12612521D01*
X14724218Y-12613282D01*
X14640828Y-12696771D01*
X14640001Y-12697114D01*
X14639173Y-12696772D01*
X14639172Y-12696771D01*
X14555781Y-12613282D01*
X14555439Y-12612455D01*
X14555737Y-12611676D01*
X14630651Y-12527890D01*
X14631458Y-12527502D01*
X14631523Y-12527500D01*
X14648477Y-12527500D01*
X14649304Y-12527843D01*
G37*
%TD.AperFunction*%
%TD*%
%TA.AperFunction,Conductor*%
%TO.N,/SPIQ*%
G36*
X14489242Y-13163763D02*
G01*
X14510205Y-13184536D01*
X14510552Y-13185361D01*
X14510356Y-13186015D01*
X14497271Y-13205693D01*
X14496527Y-13206192D01*
X14496520Y-13206193D01*
X14473828Y-13210615D01*
X14472950Y-13210437D01*
X14472456Y-13209690D01*
X14472435Y-13209505D01*
X14470940Y-13164633D01*
X14471255Y-13163795D01*
X14472071Y-13163425D01*
X14472110Y-13163424D01*
X14488418Y-13163424D01*
X14489242Y-13163763D01*
G37*
%TD.AperFunction*%
%TD*%
%TA.AperFunction,Conductor*%
%TO.N,/CHIP_PU*%
G36*
X12943855Y-12573841D02*
G01*
X12975865Y-12594654D01*
X12976372Y-12595392D01*
X12976398Y-12595635D01*
X12976398Y-12611972D01*
X12976055Y-12612799D01*
X12975378Y-12613132D01*
X12934958Y-12618379D01*
X12934093Y-12618146D01*
X12933660Y-12617452D01*
X12932757Y-12613000D01*
X12928997Y-12594480D01*
X12929168Y-12593601D01*
X12942246Y-12574168D01*
X12942992Y-12573674D01*
X12943855Y-12573841D01*
G37*
%TD.AperFunction*%
%TD*%
%TA.AperFunction,Conductor*%
%TO.N,/CHIP_PU*%
G36*
X14940090Y-14577264D02*
G01*
X14940318Y-14577587D01*
X15007710Y-14718529D01*
X15007758Y-14719423D01*
X15007305Y-14720006D01*
X14925651Y-14774664D01*
X14924773Y-14774840D01*
X14924349Y-14774664D01*
X14842694Y-14720006D01*
X14842198Y-14719261D01*
X14842290Y-14718529D01*
X14909682Y-14577587D01*
X14910348Y-14576988D01*
X14910737Y-14576921D01*
X14939263Y-14576921D01*
X14940090Y-14577264D01*
G37*
%TD.AperFunction*%
%TD*%
%TA.AperFunction,Conductor*%
%TO.N,/CHIP_PU*%
G36*
X15656651Y-12697836D02*
G01*
X15725812Y-12744146D01*
X15726309Y-12744891D01*
X15726204Y-12745649D01*
X15665325Y-12865227D01*
X15664645Y-12865809D01*
X15664283Y-12865867D01*
X15647717Y-12865867D01*
X15646890Y-12865524D01*
X15646675Y-12865227D01*
X15585796Y-12745649D01*
X15585726Y-12744756D01*
X15586187Y-12744146D01*
X15655349Y-12697836D01*
X15656227Y-12697660D01*
X15656651Y-12697836D01*
G37*
%TD.AperFunction*%
%TD*%
%TA.AperFunction,Conductor*%
%TO.N,/GPIO0*%
G36*
X14837752Y-12071972D02*
G01*
X14838347Y-12072641D01*
X14838389Y-12072792D01*
X14843053Y-12095767D01*
X14843053Y-12096233D01*
X14838389Y-12119208D01*
X14837889Y-12119950D01*
X14837010Y-12120121D01*
X14836858Y-12120080D01*
X14794266Y-12105273D01*
X14793597Y-12104678D01*
X14793480Y-12104168D01*
X14793480Y-12087832D01*
X14793823Y-12087005D01*
X14794266Y-12086727D01*
X14836858Y-12071920D01*
X14837752Y-12071972D01*
G37*
%TD.AperFunction*%
%TD*%
%TA.AperFunction,Conductor*%
%TO.N,/MTMS*%
G36*
X14917208Y-12437611D02*
G01*
X14917950Y-12438111D01*
X14918121Y-12438990D01*
X14918080Y-12439142D01*
X14903273Y-12481734D01*
X14902678Y-12482403D01*
X14902168Y-12482520D01*
X14885832Y-12482520D01*
X14885005Y-12482177D01*
X14884727Y-12481734D01*
X14869920Y-12439141D01*
X14869972Y-12438248D01*
X14870641Y-12437652D01*
X14870790Y-12437611D01*
X14893767Y-12432947D01*
X14894232Y-12432947D01*
X14917208Y-12437611D01*
G37*
%TD.AperFunction*%
%TD*%
%TA.AperFunction,Conductor*%
%TO.N,/GPIO0*%
G36*
X14843470Y-12096198D02*
G01*
X14862980Y-12109346D01*
X14863475Y-12110092D01*
X14863400Y-12110781D01*
X14846852Y-12148981D01*
X14846209Y-12149604D01*
X14845313Y-12149589D01*
X14844951Y-12149343D01*
X14833608Y-12138000D01*
X14833351Y-12137612D01*
X14819010Y-12102185D01*
X14819017Y-12101290D01*
X14819655Y-12100661D01*
X14819863Y-12100599D01*
X14842591Y-12096026D01*
X14843470Y-12096198D01*
G37*
%TD.AperFunction*%
%TD*%
%TA.AperFunction,Conductor*%
%TO.N,/GPIO5*%
G36*
X13270208Y-13648111D02*
G01*
X13270950Y-13648611D01*
X13271121Y-13649490D01*
X13271080Y-13649642D01*
X13256273Y-13692234D01*
X13255678Y-13692903D01*
X13255168Y-13693020D01*
X13238832Y-13693020D01*
X13238005Y-13692677D01*
X13237727Y-13692234D01*
X13222920Y-13649641D01*
X13222972Y-13648748D01*
X13223641Y-13648152D01*
X13223790Y-13648111D01*
X13246767Y-13643447D01*
X13247232Y-13643447D01*
X13270208Y-13648111D01*
G37*
%TD.AperFunction*%
%TD*%
%TA.AperFunction,Conductor*%
%TO.N,/GPIO3*%
G36*
X13155192Y-13645608D02*
G01*
X13155934Y-13646108D01*
X13156105Y-13646987D01*
X13156059Y-13647152D01*
X13140689Y-13689720D01*
X13140679Y-13689747D01*
X13140076Y-13690409D01*
X13139578Y-13690520D01*
X13123243Y-13690520D01*
X13122415Y-13690177D01*
X13122133Y-13689720D01*
X13107900Y-13647132D01*
X13107962Y-13646238D01*
X13108638Y-13645651D01*
X13108775Y-13645614D01*
X13131767Y-13640947D01*
X13132232Y-13640947D01*
X13155192Y-13645608D01*
G37*
%TD.AperFunction*%
%TD*%
%TA.AperFunction,Conductor*%
%TO.N,/U0TXD*%
G36*
X15737261Y-11863712D02*
G01*
X15737390Y-11863871D01*
X15750468Y-11883303D01*
X15750645Y-11883733D01*
X15755111Y-11906654D01*
X15754933Y-11907532D01*
X15754187Y-11908026D01*
X15753987Y-11908048D01*
X15708518Y-11908976D01*
X15707684Y-11908650D01*
X15707324Y-11907830D01*
X15707324Y-11907806D01*
X15707324Y-11891496D01*
X15707667Y-11890669D01*
X15707676Y-11890659D01*
X15735607Y-11863683D01*
X15736440Y-11863355D01*
X15737261Y-11863712D01*
G37*
%TD.AperFunction*%
%TD*%
%TA.AperFunction,Conductor*%
%TO.N,/GPIO10*%
G36*
X13090997Y-13269786D02*
G01*
X13091186Y-13269888D01*
X13110673Y-13282798D01*
X13111002Y-13283127D01*
X13123912Y-13302614D01*
X13124083Y-13303493D01*
X13123583Y-13304235D01*
X13123394Y-13304337D01*
X13084233Y-13320975D01*
X13084224Y-13320979D01*
X13081074Y-13322284D01*
X13080178Y-13322284D01*
X13079799Y-13322030D01*
X13071746Y-13313978D01*
X13071404Y-13313150D01*
X13071497Y-13312693D01*
X13089463Y-13270405D01*
X13090102Y-13269778D01*
X13090997Y-13269786D01*
G37*
%TD.AperFunction*%
%TD*%
%TA.AperFunction,Conductor*%
%TO.N,/SPIWP*%
G36*
X14447208Y-12982827D02*
G01*
X14447950Y-12983327D01*
X14448121Y-12984206D01*
X14448080Y-12984358D01*
X14433273Y-13026950D01*
X14432678Y-13027619D01*
X14432168Y-13027736D01*
X14415832Y-13027736D01*
X14415005Y-13027393D01*
X14414727Y-13026950D01*
X14399920Y-12984358D01*
X14399972Y-12983464D01*
X14400641Y-12982869D01*
X14400790Y-12982827D01*
X14423767Y-12978163D01*
X14424232Y-12978163D01*
X14447208Y-12982827D01*
G37*
%TD.AperFunction*%
%TD*%
%TA.AperFunction,Conductor*%
%TO.N,/GPIO3*%
G36*
X13140395Y-14000823D02*
G01*
X13140673Y-14001266D01*
X13155480Y-14043858D01*
X13155428Y-14044752D01*
X13154759Y-14045347D01*
X13154608Y-14045389D01*
X13131633Y-14050053D01*
X13131167Y-14050053D01*
X13113856Y-14046539D01*
X13108192Y-14045389D01*
X13107450Y-14044889D01*
X13107278Y-14044010D01*
X13107319Y-14043859D01*
X13122127Y-14001266D01*
X13122722Y-14000597D01*
X13123232Y-14000480D01*
X13139568Y-14000480D01*
X13140395Y-14000823D01*
G37*
%TD.AperFunction*%
%TD*%
%TA.AperFunction,Conductor*%
%TO.N,/MTMS*%
G36*
X14903110Y-12529476D02*
G01*
X14903325Y-12529772D01*
X14964204Y-12649351D01*
X14964274Y-12650244D01*
X14963812Y-12650854D01*
X14894651Y-12697164D01*
X14893773Y-12697339D01*
X14893349Y-12697164D01*
X14845204Y-12664926D01*
X14824188Y-12650854D01*
X14823691Y-12650109D01*
X14823796Y-12649351D01*
X14884675Y-12529772D01*
X14885355Y-12529191D01*
X14885717Y-12529133D01*
X14902283Y-12529133D01*
X14903110Y-12529476D01*
G37*
%TD.AperFunction*%
%TD*%
%TA.AperFunction,Conductor*%
%TO.N,/GPIO4*%
G36*
X13216205Y-13586610D02*
G01*
X13216947Y-13587111D01*
X13217119Y-13587990D01*
X13217076Y-13588143D01*
X13202174Y-13630736D01*
X13201577Y-13631404D01*
X13201070Y-13631520D01*
X13184734Y-13631520D01*
X13183906Y-13631177D01*
X13183628Y-13630732D01*
X13168916Y-13588140D01*
X13168970Y-13587246D01*
X13169640Y-13586652D01*
X13169789Y-13586612D01*
X13192767Y-13581947D01*
X13193232Y-13581947D01*
X13216205Y-13586610D01*
G37*
%TD.AperFunction*%
%TD*%
%TA.AperFunction,Conductor*%
%TO.N,/GPIO0*%
G36*
X15822929Y-14755870D02*
G01*
X15823394Y-14756490D01*
X15871213Y-14908021D01*
X15871135Y-14908914D01*
X15870924Y-14909201D01*
X15859201Y-14920924D01*
X15858374Y-14921267D01*
X15858021Y-14921213D01*
X15706490Y-14873394D01*
X15705804Y-14872818D01*
X15705694Y-14872051D01*
X15724777Y-14775697D01*
X15725274Y-14774952D01*
X15725697Y-14774777D01*
X15822051Y-14755694D01*
X15822929Y-14755870D01*
G37*
%TD.AperFunction*%
%TD*%
%TA.AperFunction,Conductor*%
%TO.N,/CHIP_PU*%
G36*
X14925651Y-14775335D02*
G01*
X15007305Y-14829994D01*
X15007802Y-14830739D01*
X15007710Y-14831471D01*
X14940318Y-14972413D01*
X14939652Y-14973012D01*
X14939263Y-14973078D01*
X14910737Y-14973078D01*
X14909910Y-14972736D01*
X14909682Y-14972413D01*
X14842290Y-14831471D01*
X14842242Y-14830576D01*
X14842694Y-14829994D01*
X14924349Y-14775335D01*
X14925227Y-14775160D01*
X14925651Y-14775335D01*
G37*
%TD.AperFunction*%
%TD*%
%TA.AperFunction,Conductor*%
%TO.N,/GPIO5*%
G36*
X13255995Y-13702323D02*
G01*
X13256273Y-13702766D01*
X13271080Y-13745358D01*
X13271028Y-13746252D01*
X13270359Y-13746847D01*
X13270208Y-13746889D01*
X13247233Y-13751553D01*
X13246767Y-13751553D01*
X13229456Y-13748039D01*
X13223792Y-13746889D01*
X13223050Y-13746389D01*
X13222878Y-13745510D01*
X13222919Y-13745359D01*
X13237727Y-13702766D01*
X13238322Y-13702097D01*
X13238832Y-13701980D01*
X13255168Y-13701980D01*
X13255995Y-13702323D01*
G37*
%TD.AperFunction*%
%TD*%
%TA.AperFunction,Conductor*%
%TO.N,/~{DTR}*%
G36*
X15394141Y-12074920D02*
G01*
X15436734Y-12089727D01*
X15437403Y-12090322D01*
X15437520Y-12090832D01*
X15437520Y-12107168D01*
X15437177Y-12107995D01*
X15436734Y-12108273D01*
X15394142Y-12123080D01*
X15393248Y-12123028D01*
X15392652Y-12122359D01*
X15392611Y-12122209D01*
X15387947Y-12099232D01*
X15387947Y-12098767D01*
X15392611Y-12075792D01*
X15393111Y-12075050D01*
X15393990Y-12074878D01*
X15394141Y-12074920D01*
G37*
%TD.AperFunction*%
%TD*%
%TA.AperFunction,Conductor*%
%TO.N,/GPIO7*%
G36*
X13116982Y-13163007D02*
G01*
X13159588Y-13180204D01*
X13160226Y-13180832D01*
X13160320Y-13181289D01*
X13160320Y-13192711D01*
X13159977Y-13193538D01*
X13159587Y-13193795D01*
X13116982Y-13210993D01*
X13116086Y-13210985D01*
X13115459Y-13210346D01*
X13115397Y-13210141D01*
X13112027Y-13193538D01*
X13110747Y-13187232D01*
X13110747Y-13186767D01*
X13115397Y-13163859D01*
X13115898Y-13163116D01*
X13116777Y-13162945D01*
X13116982Y-13163007D01*
G37*
%TD.AperFunction*%
%TD*%
%TA.AperFunction,Conductor*%
%TO.N,/GPIO0*%
G36*
X14369300Y-13372214D02*
G01*
X14395941Y-13390560D01*
X14396428Y-13391312D01*
X14396252Y-13392172D01*
X14383271Y-13411693D01*
X14382527Y-13412192D01*
X14382520Y-13412193D01*
X14359660Y-13416647D01*
X14358783Y-13416469D01*
X14358288Y-13415723D01*
X14358283Y-13415697D01*
X14351227Y-13373370D01*
X14351429Y-13372497D01*
X14352189Y-13372023D01*
X14352381Y-13372007D01*
X14368636Y-13372007D01*
X14369300Y-13372214D01*
G37*
%TD.AperFunction*%
%TD*%
%TA.AperFunction,Conductor*%
%TO.N,/GPIO12*%
G36*
X13385470Y-13370198D02*
G01*
X13392413Y-13374877D01*
X13404842Y-13383252D01*
X13405336Y-13383999D01*
X13405175Y-13384851D01*
X13382941Y-13419804D01*
X13382207Y-13420318D01*
X13381325Y-13420163D01*
X13381126Y-13420003D01*
X13373159Y-13412036D01*
X13372878Y-13411583D01*
X13360906Y-13376136D01*
X13360966Y-13375243D01*
X13361640Y-13374654D01*
X13361783Y-13374615D01*
X13384591Y-13370026D01*
X13385470Y-13370198D01*
G37*
%TD.AperFunction*%
%TD*%
%TA.AperFunction,Conductor*%
%TO.N,/GPIO18*%
G36*
X14334752Y-13494972D02*
G01*
X14335347Y-13495641D01*
X14335389Y-13495792D01*
X14340053Y-13518767D01*
X14340053Y-13519233D01*
X14335389Y-13542208D01*
X14334889Y-13542950D01*
X14334010Y-13543121D01*
X14333858Y-13543080D01*
X14291266Y-13528273D01*
X14290597Y-13527678D01*
X14290480Y-13527168D01*
X14290480Y-13510832D01*
X14290823Y-13510005D01*
X14291266Y-13509727D01*
X14333858Y-13494920D01*
X14334752Y-13494972D01*
G37*
%TD.AperFunction*%
%TD*%
%TA.AperFunction,Conductor*%
%TO.N,/GPIO8*%
G36*
X13183800Y-13283381D02*
G01*
X13206590Y-13287835D01*
X13207336Y-13288330D01*
X13207341Y-13288337D01*
X13220308Y-13307909D01*
X13220479Y-13308788D01*
X13220077Y-13309457D01*
X13190219Y-13334116D01*
X13189363Y-13334379D01*
X13188647Y-13334041D01*
X13180575Y-13325970D01*
X13180233Y-13325142D01*
X13180234Y-13325083D01*
X13182408Y-13284466D01*
X13182795Y-13283659D01*
X13183639Y-13283361D01*
X13183800Y-13283381D01*
G37*
%TD.AperFunction*%
%TD*%
%TA.AperFunction,Conductor*%
%TO.N,/GPIO4*%
G36*
X13201948Y-14051823D02*
G01*
X13202200Y-14052199D01*
X13216417Y-14086225D01*
X13216419Y-14087120D01*
X13215990Y-14087647D01*
X13196406Y-14100827D01*
X13195528Y-14101004D01*
X13195520Y-14101002D01*
X13172711Y-14096373D01*
X13171969Y-14095872D01*
X13171798Y-14094993D01*
X13171817Y-14094912D01*
X13173838Y-14087647D01*
X13183662Y-14052337D01*
X13184214Y-14051632D01*
X13184789Y-14051480D01*
X13201121Y-14051480D01*
X13201948Y-14051823D01*
G37*
%TD.AperFunction*%
%TD*%
%TA.AperFunction,Conductor*%
%TO.N,/SPIQ*%
G36*
X14436408Y-12799295D02*
G01*
X14436486Y-12799432D01*
X14456133Y-12840019D01*
X14456185Y-12840913D01*
X14455907Y-12841356D01*
X14444356Y-12852907D01*
X14443529Y-12853250D01*
X14443019Y-12853133D01*
X14442552Y-12852907D01*
X14432102Y-12847849D01*
X14402432Y-12833486D01*
X14401836Y-12832817D01*
X14401888Y-12831923D01*
X14401965Y-12831788D01*
X14414914Y-12812243D01*
X14415243Y-12811914D01*
X14434787Y-12798966D01*
X14435666Y-12798795D01*
X14436408Y-12799295D01*
G37*
%TD.AperFunction*%
%TD*%
%TA.AperFunction,Conductor*%
%TO.N,/CHIP_PU*%
G36*
X14848208Y-11704611D02*
G01*
X14848950Y-11705111D01*
X14849121Y-11705990D01*
X14849080Y-11706142D01*
X14834273Y-11748734D01*
X14833678Y-11749403D01*
X14833168Y-11749520D01*
X14816832Y-11749520D01*
X14816005Y-11749177D01*
X14815727Y-11748734D01*
X14800920Y-11706141D01*
X14800972Y-11705248D01*
X14801641Y-11704652D01*
X14801790Y-11704611D01*
X14824767Y-11699947D01*
X14825232Y-11699947D01*
X14848208Y-11704611D01*
G37*
%TD.AperFunction*%
%TD*%
%TA.AperFunction,Conductor*%
%TO.N,/GPIO16*%
G36*
X13700141Y-13309920D02*
G01*
X13742734Y-13324727D01*
X13743403Y-13325322D01*
X13743520Y-13325832D01*
X13743520Y-13342168D01*
X13743177Y-13342995D01*
X13742734Y-13343273D01*
X13700142Y-13358080D01*
X13699248Y-13358028D01*
X13698652Y-13357359D01*
X13698611Y-13357209D01*
X13693947Y-13334232D01*
X13693947Y-13333767D01*
X13698611Y-13310792D01*
X13699111Y-13310050D01*
X13699990Y-13309878D01*
X13700141Y-13309920D01*
G37*
%TD.AperFunction*%
%TD*%
%TA.AperFunction,Conductor*%
%TO.N,/CHIP_PU*%
G36*
X15773597Y-12991483D02*
G01*
X15800689Y-13004597D01*
X15814184Y-13011130D01*
X15814780Y-13011799D01*
X15814728Y-13012693D01*
X15814650Y-13012829D01*
X15801702Y-13032373D01*
X15801373Y-13032702D01*
X15781829Y-13045650D01*
X15780950Y-13045821D01*
X15780208Y-13045321D01*
X15780130Y-13045184D01*
X15778509Y-13041836D01*
X15760483Y-13004597D01*
X15760431Y-13003703D01*
X15760708Y-13003260D01*
X15772260Y-12991708D01*
X15773087Y-12991366D01*
X15773597Y-12991483D01*
G37*
%TD.AperFunction*%
%TD*%
%TA.AperFunction,Conductor*%
%TO.N,/CHIP_PU*%
G36*
X14955172Y-14202604D02*
G01*
X14955915Y-14203104D01*
X14956086Y-14203983D01*
X14956034Y-14204163D01*
X14943708Y-14236818D01*
X14940416Y-14245538D01*
X14940286Y-14245883D01*
X14939673Y-14246536D01*
X14939191Y-14246640D01*
X14911105Y-14246640D01*
X14910277Y-14246298D01*
X14909936Y-14245538D01*
X14907539Y-14203889D01*
X14907833Y-14203044D01*
X14908474Y-14202676D01*
X14931767Y-14197947D01*
X14932232Y-14197947D01*
X14955172Y-14202604D01*
G37*
%TD.AperFunction*%
%TD*%
%TA.AperFunction,Conductor*%
%TO.N,VCC*%
G36*
X14664181Y-12470224D02*
G01*
X14664924Y-12470724D01*
X14665095Y-12471603D01*
X14665046Y-12471777D01*
X14649283Y-12514374D01*
X14648674Y-12515031D01*
X14648185Y-12515138D01*
X14631850Y-12515138D01*
X14631022Y-12514795D01*
X14630737Y-12514330D01*
X14624986Y-12496646D01*
X14616886Y-12471743D01*
X14616956Y-12470850D01*
X14617637Y-12470269D01*
X14617765Y-12470235D01*
X14640767Y-12465566D01*
X14641232Y-12465566D01*
X14664181Y-12470224D01*
G37*
%TD.AperFunction*%
%TD*%
%TA.AperFunction,Conductor*%
%TO.N,/GPIO17*%
G36*
X14269768Y-13399956D02*
G01*
X14270350Y-13400637D01*
X14270384Y-13400766D01*
X14275053Y-13423767D01*
X14275053Y-13424233D01*
X14270394Y-13447181D01*
X14269894Y-13447924D01*
X14269015Y-13448095D01*
X14268842Y-13448046D01*
X14226244Y-13432283D01*
X14225587Y-13431674D01*
X14225480Y-13431185D01*
X14225480Y-13414850D01*
X14225823Y-13414022D01*
X14226288Y-13413737D01*
X14268875Y-13399886D01*
X14269768Y-13399956D01*
G37*
%TD.AperFunction*%
%TD*%
%TA.AperFunction,Conductor*%
%TO.N,/U0TXD*%
G36*
X15017141Y-11875920D02*
G01*
X15059734Y-11890727D01*
X15060403Y-11891322D01*
X15060520Y-11891832D01*
X15060520Y-11908168D01*
X15060177Y-11908995D01*
X15059734Y-11909273D01*
X15017142Y-11924080D01*
X15016248Y-11924028D01*
X15015652Y-11923359D01*
X15015611Y-11923209D01*
X15010947Y-11900232D01*
X15010947Y-11899767D01*
X15015611Y-11876792D01*
X15016111Y-11876050D01*
X15016990Y-11875878D01*
X15017141Y-11875920D01*
G37*
%TD.AperFunction*%
%TD*%
%TA.AperFunction,Conductor*%
%TO.N,/SPICS0*%
G36*
X14557208Y-12981611D02*
G01*
X14557950Y-12982111D01*
X14558121Y-12982990D01*
X14558080Y-12983142D01*
X14543273Y-13025734D01*
X14542678Y-13026403D01*
X14542168Y-13026520D01*
X14525832Y-13026520D01*
X14525005Y-13026177D01*
X14524727Y-13025734D01*
X14509920Y-12983141D01*
X14509972Y-12982248D01*
X14510641Y-12981652D01*
X14510790Y-12981611D01*
X14533767Y-12976947D01*
X14534232Y-12976947D01*
X14557208Y-12981611D01*
G37*
%TD.AperFunction*%
%TD*%
%TA.AperFunction,Conductor*%
%TO.N,/GPIO13*%
G36*
X13272713Y-13393699D02*
G01*
X13273341Y-13394338D01*
X13273402Y-13394543D01*
X13278053Y-13417451D01*
X13278053Y-13417917D01*
X13273402Y-13440825D01*
X13272902Y-13441567D01*
X13272023Y-13441738D01*
X13271818Y-13441677D01*
X13229212Y-13424479D01*
X13228574Y-13423852D01*
X13228480Y-13423394D01*
X13228480Y-13411973D01*
X13228823Y-13411146D01*
X13229212Y-13410888D01*
X13271818Y-13393691D01*
X13272713Y-13393699D01*
G37*
%TD.AperFunction*%
%TD*%
D26*
X12000000Y-15600000D02*
G75*
G02*
X11700000Y-15300000I0J300000D01*
G01*
X18200000Y-15600000D02*
X12000000Y-15600000D01*
X18200000Y-11200000D02*
G75*
G02*
X18500000Y-11500000I0J-300000D01*
G01*
X18500000Y-15300000D02*
G75*
G02*
X18200000Y-15600000I-300000J0D01*
G01*
X11700000Y-15300000D02*
X11700000Y-11500000D01*
X12000000Y-11200000D02*
X18200000Y-11200000D01*
X11700000Y-11500000D02*
G75*
G02*
X12000000Y-11200000I300000J0D01*
G01*
X18500000Y-11500000D02*
X18500000Y-15300000D01*
M02*
