%TF.GenerationSoftware,KiCad,Pcbnew,9.0.1*%
%TF.CreationDate,2025-07-09T23:34:26+08:00*%
%TF.ProjectId,IMU,494d552e-6b69-4636-9164-5f7063625858,rev?*%
%TF.SameCoordinates,Original*%
%TF.FileFunction,Legend,Top*%
%TF.FilePolarity,Positive*%
%FSLAX45Y45*%
G04 Gerber Fmt 4.5, Leading zero omitted, Abs format (unit mm)*
G04 Created by KiCad (PCBNEW 9.0.1) date 2025-07-09 23:34:26*
%MOMM*%
%LPD*%
G01*
G04 APERTURE LIST*
%ADD10C,0.150000*%
%ADD11C,0.100000*%
%ADD12C,0.002500*%
%ADD13C,0.120000*%
%ADD14C,0.200000*%
%TA.AperFunction,Profile*%
%ADD15C,0.050000*%
%TD*%
G04 APERTURE END LIST*
D10*
X17612011Y-11417601D02*
X17626297Y-11422363D01*
X17626297Y-11422363D02*
X17631059Y-11427125D01*
X17631059Y-11427125D02*
X17635821Y-11436648D01*
X17635821Y-11436648D02*
X17635821Y-11450934D01*
X17635821Y-11450934D02*
X17631059Y-11460458D01*
X17631059Y-11460458D02*
X17626297Y-11465220D01*
X17626297Y-11465220D02*
X17616773Y-11469982D01*
X17616773Y-11469982D02*
X17578678Y-11469982D01*
X17578678Y-11469982D02*
X17578678Y-11369982D01*
X17578678Y-11369982D02*
X17612011Y-11369982D01*
X17612011Y-11369982D02*
X17621535Y-11374744D01*
X17621535Y-11374744D02*
X17626297Y-11379506D01*
X17626297Y-11379506D02*
X17631059Y-11389029D01*
X17631059Y-11389029D02*
X17631059Y-11398553D01*
X17631059Y-11398553D02*
X17626297Y-11408077D01*
X17626297Y-11408077D02*
X17621535Y-11412839D01*
X17621535Y-11412839D02*
X17612011Y-11417601D01*
X17612011Y-11417601D02*
X17578678Y-11417601D01*
X17673916Y-11441410D02*
X17721535Y-11441410D01*
X17664392Y-11469982D02*
X17697726Y-11369982D01*
X17697726Y-11369982D02*
X17731059Y-11469982D01*
X17750107Y-11369982D02*
X17807249Y-11369982D01*
X17778678Y-11469982D02*
X17778678Y-11369982D01*
X17840583Y-11431887D02*
X17916773Y-11431887D01*
X17878678Y-11469982D02*
X17878678Y-11393791D01*
X15422916Y-15564429D02*
X15422916Y-15484429D01*
X15476249Y-15484429D02*
X15491487Y-15484429D01*
X15491487Y-15484429D02*
X15499106Y-15488239D01*
X15499106Y-15488239D02*
X15506725Y-15495858D01*
X15506725Y-15495858D02*
X15510535Y-15511096D01*
X15510535Y-15511096D02*
X15510535Y-15537763D01*
X15510535Y-15537763D02*
X15506725Y-15553001D01*
X15506725Y-15553001D02*
X15499106Y-15560620D01*
X15499106Y-15560620D02*
X15491487Y-15564429D01*
X15491487Y-15564429D02*
X15476249Y-15564429D01*
X15476249Y-15564429D02*
X15468630Y-15560620D01*
X15468630Y-15560620D02*
X15461011Y-15553001D01*
X15461011Y-15553001D02*
X15457202Y-15537763D01*
X15457202Y-15537763D02*
X15457202Y-15511096D01*
X15457202Y-15511096D02*
X15461011Y-15495858D01*
X15461011Y-15495858D02*
X15468630Y-15488239D01*
X15468630Y-15488239D02*
X15476249Y-15484429D01*
X15560059Y-15484429D02*
X15567678Y-15484429D01*
X15567678Y-15484429D02*
X15575297Y-15488239D01*
X15575297Y-15488239D02*
X15579106Y-15492048D01*
X15579106Y-15492048D02*
X15582916Y-15499668D01*
X15582916Y-15499668D02*
X15586725Y-15514906D01*
X15586725Y-15514906D02*
X15586725Y-15533953D01*
X15586725Y-15533953D02*
X15582916Y-15549191D01*
X15582916Y-15549191D02*
X15579106Y-15556810D01*
X15579106Y-15556810D02*
X15575297Y-15560620D01*
X15575297Y-15560620D02*
X15567678Y-15564429D01*
X15567678Y-15564429D02*
X15560059Y-15564429D01*
X15560059Y-15564429D02*
X15552440Y-15560620D01*
X15552440Y-15560620D02*
X15548630Y-15556810D01*
X15548630Y-15556810D02*
X15544821Y-15549191D01*
X15544821Y-15549191D02*
X15541011Y-15533953D01*
X15541011Y-15533953D02*
X15541011Y-15514906D01*
X15541011Y-15514906D02*
X15544821Y-15499668D01*
X15544821Y-15499668D02*
X15548630Y-15492048D01*
X15548630Y-15492048D02*
X15552440Y-15488239D01*
X15552440Y-15488239D02*
X15560059Y-15484429D01*
X15366821Y-12890139D02*
X15359202Y-12886329D01*
X15359202Y-12886329D02*
X15347773Y-12886329D01*
X15347773Y-12886329D02*
X15336344Y-12890139D01*
X15336344Y-12890139D02*
X15328725Y-12897758D01*
X15328725Y-12897758D02*
X15324916Y-12905377D01*
X15324916Y-12905377D02*
X15321106Y-12920615D01*
X15321106Y-12920615D02*
X15321106Y-12932044D01*
X15321106Y-12932044D02*
X15324916Y-12947282D01*
X15324916Y-12947282D02*
X15328725Y-12954901D01*
X15328725Y-12954901D02*
X15336344Y-12962520D01*
X15336344Y-12962520D02*
X15347773Y-12966329D01*
X15347773Y-12966329D02*
X15355392Y-12966329D01*
X15355392Y-12966329D02*
X15366821Y-12962520D01*
X15366821Y-12962520D02*
X15370630Y-12958710D01*
X15370630Y-12958710D02*
X15370630Y-12932044D01*
X15370630Y-12932044D02*
X15355392Y-12932044D01*
X15404916Y-12966329D02*
X15404916Y-12886329D01*
X15404916Y-12886329D02*
X15450630Y-12966329D01*
X15450630Y-12966329D02*
X15450630Y-12886329D01*
X15488725Y-12966329D02*
X15488725Y-12886329D01*
X15488725Y-12886329D02*
X15507773Y-12886329D01*
X15507773Y-12886329D02*
X15519202Y-12890139D01*
X15519202Y-12890139D02*
X15526821Y-12897758D01*
X15526821Y-12897758D02*
X15530630Y-12905377D01*
X15530630Y-12905377D02*
X15534440Y-12920615D01*
X15534440Y-12920615D02*
X15534440Y-12932044D01*
X15534440Y-12932044D02*
X15530630Y-12947282D01*
X15530630Y-12947282D02*
X15526821Y-12954901D01*
X15526821Y-12954901D02*
X15519202Y-12962520D01*
X15519202Y-12962520D02*
X15507773Y-12966329D01*
X15507773Y-12966329D02*
X15488725Y-12966329D01*
X16196487Y-15495858D02*
X16226964Y-15495858D01*
X16211725Y-15495858D02*
X16223154Y-15522525D01*
X16211725Y-15492048D02*
X16200297Y-15537763D01*
X16215535Y-15473001D02*
X16215535Y-15564429D01*
X16226964Y-15541572D02*
X16295535Y-15541572D01*
X16230773Y-15484429D02*
X16295535Y-15484429D01*
X16238392Y-15526334D02*
X16287916Y-15526334D01*
X16238392Y-15511096D02*
X16287916Y-15511096D01*
X16238392Y-15499668D02*
X16238392Y-15526334D01*
X16249821Y-15473001D02*
X16249821Y-15492048D01*
X16276487Y-15473001D02*
X16276487Y-15492048D01*
X16238392Y-15499668D02*
X16287916Y-15499668D01*
X16287916Y-15499668D02*
X16287916Y-15526334D01*
X16261249Y-15537763D02*
X16276487Y-15556810D01*
X16276487Y-15556810D02*
X16295535Y-15564429D01*
X16261249Y-15526334D02*
X16253630Y-15549191D01*
X16253630Y-15549191D02*
X16246011Y-15556810D01*
X16246011Y-15556810D02*
X16226964Y-15564429D01*
X16314583Y-15495858D02*
X16413630Y-15495858D01*
X16318392Y-15518715D02*
X16367916Y-15518715D01*
X16341249Y-15518715D02*
X16341249Y-15556810D01*
X16367916Y-15549191D02*
X16314583Y-15560620D01*
X16390773Y-15476810D02*
X16402202Y-15488239D01*
X16379344Y-15476810D02*
X16379344Y-15503477D01*
X16379344Y-15503477D02*
X16386964Y-15556810D01*
X16386964Y-15556810D02*
X16409821Y-15564429D01*
X16409821Y-15564429D02*
X16413630Y-15549191D01*
X14233239Y-15442179D02*
X14229429Y-15449798D01*
X14229429Y-15449798D02*
X14229429Y-15461227D01*
X14229429Y-15461227D02*
X14233239Y-15472655D01*
X14233239Y-15472655D02*
X14240858Y-15480274D01*
X14240858Y-15480274D02*
X14248477Y-15484084D01*
X14248477Y-15484084D02*
X14263715Y-15487893D01*
X14263715Y-15487893D02*
X14275144Y-15487893D01*
X14275144Y-15487893D02*
X14290382Y-15484084D01*
X14290382Y-15484084D02*
X14298001Y-15480274D01*
X14298001Y-15480274D02*
X14305620Y-15472655D01*
X14305620Y-15472655D02*
X14309429Y-15461227D01*
X14309429Y-15461227D02*
X14309429Y-15453608D01*
X14309429Y-15453608D02*
X14305620Y-15442179D01*
X14305620Y-15442179D02*
X14301810Y-15438370D01*
X14301810Y-15438370D02*
X14275144Y-15438370D01*
X14275144Y-15438370D02*
X14275144Y-15453608D01*
X14309429Y-15404084D02*
X14229429Y-15404084D01*
X14229429Y-15404084D02*
X14309429Y-15358370D01*
X14309429Y-15358370D02*
X14229429Y-15358370D01*
X14309429Y-15320274D02*
X14229429Y-15320274D01*
X14229429Y-15320274D02*
X14229429Y-15301227D01*
X14229429Y-15301227D02*
X14233239Y-15289798D01*
X14233239Y-15289798D02*
X14240858Y-15282179D01*
X14240858Y-15282179D02*
X14248477Y-15278370D01*
X14248477Y-15278370D02*
X14263715Y-15274560D01*
X14263715Y-15274560D02*
X14275144Y-15274560D01*
X14275144Y-15274560D02*
X14290382Y-15278370D01*
X14290382Y-15278370D02*
X14298001Y-15282179D01*
X14298001Y-15282179D02*
X14305620Y-15289798D01*
X14305620Y-15289798D02*
X14309429Y-15301227D01*
X14309429Y-15301227D02*
X14309429Y-15320274D01*
X16075487Y-12886329D02*
X16121202Y-12886329D01*
X16098344Y-12966329D02*
X16098344Y-12886329D01*
X16147868Y-12966329D02*
X16147868Y-12886329D01*
X16147868Y-12886329D02*
X16166916Y-12886329D01*
X16166916Y-12886329D02*
X16178345Y-12890139D01*
X16178345Y-12890139D02*
X16185964Y-12897758D01*
X16185964Y-12897758D02*
X16189773Y-12905377D01*
X16189773Y-12905377D02*
X16193583Y-12920615D01*
X16193583Y-12920615D02*
X16193583Y-12932044D01*
X16193583Y-12932044D02*
X16189773Y-12947282D01*
X16189773Y-12947282D02*
X16185964Y-12954901D01*
X16185964Y-12954901D02*
X16178345Y-12962520D01*
X16178345Y-12962520D02*
X16166916Y-12966329D01*
X16166916Y-12966329D02*
X16147868Y-12966329D01*
X16243106Y-12886329D02*
X16258345Y-12886329D01*
X16258345Y-12886329D02*
X16265964Y-12890139D01*
X16265964Y-12890139D02*
X16273583Y-12897758D01*
X16273583Y-12897758D02*
X16277392Y-12912996D01*
X16277392Y-12912996D02*
X16277392Y-12939663D01*
X16277392Y-12939663D02*
X16273583Y-12954901D01*
X16273583Y-12954901D02*
X16265964Y-12962520D01*
X16265964Y-12962520D02*
X16258345Y-12966329D01*
X16258345Y-12966329D02*
X16243106Y-12966329D01*
X16243106Y-12966329D02*
X16235487Y-12962520D01*
X16235487Y-12962520D02*
X16227868Y-12954901D01*
X16227868Y-12954901D02*
X16224059Y-12939663D01*
X16224059Y-12939663D02*
X16224059Y-12912996D01*
X16224059Y-12912996D02*
X16227868Y-12897758D01*
X16227868Y-12897758D02*
X16235487Y-12890139D01*
X16235487Y-12890139D02*
X16243106Y-12886329D01*
X15624630Y-12966329D02*
X15597964Y-12928234D01*
X15578916Y-12966329D02*
X15578916Y-12886329D01*
X15578916Y-12886329D02*
X15609392Y-12886329D01*
X15609392Y-12886329D02*
X15617011Y-12890139D01*
X15617011Y-12890139D02*
X15620821Y-12893948D01*
X15620821Y-12893948D02*
X15624630Y-12901568D01*
X15624630Y-12901568D02*
X15624630Y-12912996D01*
X15624630Y-12912996D02*
X15620821Y-12920615D01*
X15620821Y-12920615D02*
X15617011Y-12924425D01*
X15617011Y-12924425D02*
X15609392Y-12928234D01*
X15609392Y-12928234D02*
X15578916Y-12928234D01*
X15655106Y-12962520D02*
X15666535Y-12966329D01*
X15666535Y-12966329D02*
X15685583Y-12966329D01*
X15685583Y-12966329D02*
X15693202Y-12962520D01*
X15693202Y-12962520D02*
X15697011Y-12958710D01*
X15697011Y-12958710D02*
X15700821Y-12951091D01*
X15700821Y-12951091D02*
X15700821Y-12943472D01*
X15700821Y-12943472D02*
X15697011Y-12935853D01*
X15697011Y-12935853D02*
X15693202Y-12932044D01*
X15693202Y-12932044D02*
X15685583Y-12928234D01*
X15685583Y-12928234D02*
X15670344Y-12924425D01*
X15670344Y-12924425D02*
X15662725Y-12920615D01*
X15662725Y-12920615D02*
X15658916Y-12916806D01*
X15658916Y-12916806D02*
X15655106Y-12909187D01*
X15655106Y-12909187D02*
X15655106Y-12901568D01*
X15655106Y-12901568D02*
X15658916Y-12893948D01*
X15658916Y-12893948D02*
X15662725Y-12890139D01*
X15662725Y-12890139D02*
X15670344Y-12886329D01*
X15670344Y-12886329D02*
X15689392Y-12886329D01*
X15689392Y-12886329D02*
X15700821Y-12890139D01*
X15723678Y-12886329D02*
X15769392Y-12886329D01*
X15746535Y-12966329D02*
X15746535Y-12886329D01*
X13004678Y-13450982D02*
X13004678Y-13350982D01*
X13004678Y-13398601D02*
X13061821Y-13398601D01*
X13061821Y-13450982D02*
X13061821Y-13350982D01*
X13109440Y-13450982D02*
X13109440Y-13350982D01*
X13109440Y-13350982D02*
X13142773Y-13422410D01*
X13142773Y-13422410D02*
X13176106Y-13350982D01*
X13176106Y-13350982D02*
X13176106Y-13450982D01*
X13280868Y-13441458D02*
X13276106Y-13446220D01*
X13276106Y-13446220D02*
X13261821Y-13450982D01*
X13261821Y-13450982D02*
X13252297Y-13450982D01*
X13252297Y-13450982D02*
X13238011Y-13446220D01*
X13238011Y-13446220D02*
X13228487Y-13436696D01*
X13228487Y-13436696D02*
X13223725Y-13427172D01*
X13223725Y-13427172D02*
X13218964Y-13408125D01*
X13218964Y-13408125D02*
X13218964Y-13393839D01*
X13218964Y-13393839D02*
X13223725Y-13374791D01*
X13223725Y-13374791D02*
X13228487Y-13365268D01*
X13228487Y-13365268D02*
X13238011Y-13355744D01*
X13238011Y-13355744D02*
X13252297Y-13350982D01*
X13252297Y-13350982D02*
X13261821Y-13350982D01*
X13261821Y-13350982D02*
X13276106Y-13355744D01*
X13276106Y-13355744D02*
X13280868Y-13360506D01*
X13371344Y-13350982D02*
X13323725Y-13350982D01*
X13323725Y-13350982D02*
X13318964Y-13398601D01*
X13318964Y-13398601D02*
X13323725Y-13393839D01*
X13323725Y-13393839D02*
X13333249Y-13389077D01*
X13333249Y-13389077D02*
X13357059Y-13389077D01*
X13357059Y-13389077D02*
X13366583Y-13393839D01*
X13366583Y-13393839D02*
X13371344Y-13398601D01*
X13371344Y-13398601D02*
X13376106Y-13408125D01*
X13376106Y-13408125D02*
X13376106Y-13431934D01*
X13376106Y-13431934D02*
X13371344Y-13441458D01*
X13371344Y-13441458D02*
X13366583Y-13446220D01*
X13366583Y-13446220D02*
X13357059Y-13450982D01*
X13357059Y-13450982D02*
X13333249Y-13450982D01*
X13333249Y-13450982D02*
X13323725Y-13446220D01*
X13323725Y-13446220D02*
X13318964Y-13441458D01*
X13433249Y-13393839D02*
X13423725Y-13389077D01*
X13423725Y-13389077D02*
X13418964Y-13384315D01*
X13418964Y-13384315D02*
X13414202Y-13374791D01*
X13414202Y-13374791D02*
X13414202Y-13370029D01*
X13414202Y-13370029D02*
X13418964Y-13360506D01*
X13418964Y-13360506D02*
X13423725Y-13355744D01*
X13423725Y-13355744D02*
X13433249Y-13350982D01*
X13433249Y-13350982D02*
X13452297Y-13350982D01*
X13452297Y-13350982D02*
X13461821Y-13355744D01*
X13461821Y-13355744D02*
X13466583Y-13360506D01*
X13466583Y-13360506D02*
X13471344Y-13370029D01*
X13471344Y-13370029D02*
X13471344Y-13374791D01*
X13471344Y-13374791D02*
X13466583Y-13384315D01*
X13466583Y-13384315D02*
X13461821Y-13389077D01*
X13461821Y-13389077D02*
X13452297Y-13393839D01*
X13452297Y-13393839D02*
X13433249Y-13393839D01*
X13433249Y-13393839D02*
X13423725Y-13398601D01*
X13423725Y-13398601D02*
X13418964Y-13403363D01*
X13418964Y-13403363D02*
X13414202Y-13412887D01*
X13414202Y-13412887D02*
X13414202Y-13431934D01*
X13414202Y-13431934D02*
X13418964Y-13441458D01*
X13418964Y-13441458D02*
X13423725Y-13446220D01*
X13423725Y-13446220D02*
X13433249Y-13450982D01*
X13433249Y-13450982D02*
X13452297Y-13450982D01*
X13452297Y-13450982D02*
X13461821Y-13446220D01*
X13461821Y-13446220D02*
X13466583Y-13441458D01*
X13466583Y-13441458D02*
X13471344Y-13431934D01*
X13471344Y-13431934D02*
X13471344Y-13412887D01*
X13471344Y-13412887D02*
X13466583Y-13403363D01*
X13466583Y-13403363D02*
X13461821Y-13398601D01*
X13461821Y-13398601D02*
X13452297Y-13393839D01*
X13528487Y-13393839D02*
X13518964Y-13389077D01*
X13518964Y-13389077D02*
X13514202Y-13384315D01*
X13514202Y-13384315D02*
X13509440Y-13374791D01*
X13509440Y-13374791D02*
X13509440Y-13370029D01*
X13509440Y-13370029D02*
X13514202Y-13360506D01*
X13514202Y-13360506D02*
X13518964Y-13355744D01*
X13518964Y-13355744D02*
X13528487Y-13350982D01*
X13528487Y-13350982D02*
X13547535Y-13350982D01*
X13547535Y-13350982D02*
X13557059Y-13355744D01*
X13557059Y-13355744D02*
X13561821Y-13360506D01*
X13561821Y-13360506D02*
X13566583Y-13370029D01*
X13566583Y-13370029D02*
X13566583Y-13374791D01*
X13566583Y-13374791D02*
X13561821Y-13384315D01*
X13561821Y-13384315D02*
X13557059Y-13389077D01*
X13557059Y-13389077D02*
X13547535Y-13393839D01*
X13547535Y-13393839D02*
X13528487Y-13393839D01*
X13528487Y-13393839D02*
X13518964Y-13398601D01*
X13518964Y-13398601D02*
X13514202Y-13403363D01*
X13514202Y-13403363D02*
X13509440Y-13412887D01*
X13509440Y-13412887D02*
X13509440Y-13431934D01*
X13509440Y-13431934D02*
X13514202Y-13441458D01*
X13514202Y-13441458D02*
X13518964Y-13446220D01*
X13518964Y-13446220D02*
X13528487Y-13450982D01*
X13528487Y-13450982D02*
X13547535Y-13450982D01*
X13547535Y-13450982D02*
X13557059Y-13446220D01*
X13557059Y-13446220D02*
X13561821Y-13441458D01*
X13561821Y-13441458D02*
X13566583Y-13431934D01*
X13566583Y-13431934D02*
X13566583Y-13412887D01*
X13566583Y-13412887D02*
X13561821Y-13403363D01*
X13561821Y-13403363D02*
X13557059Y-13398601D01*
X13557059Y-13398601D02*
X13547535Y-13393839D01*
X13599916Y-13350982D02*
X13661821Y-13350982D01*
X13661821Y-13350982D02*
X13628487Y-13389077D01*
X13628487Y-13389077D02*
X13642773Y-13389077D01*
X13642773Y-13389077D02*
X13652297Y-13393839D01*
X13652297Y-13393839D02*
X13657059Y-13398601D01*
X13657059Y-13398601D02*
X13661821Y-13408125D01*
X13661821Y-13408125D02*
X13661821Y-13431934D01*
X13661821Y-13431934D02*
X13657059Y-13441458D01*
X13657059Y-13441458D02*
X13652297Y-13446220D01*
X13652297Y-13446220D02*
X13642773Y-13450982D01*
X13642773Y-13450982D02*
X13614202Y-13450982D01*
X13614202Y-13450982D02*
X13604678Y-13446220D01*
X13604678Y-13446220D02*
X13599916Y-13441458D01*
X13752297Y-13450982D02*
X13704678Y-13450982D01*
X13704678Y-13450982D02*
X13704678Y-13350982D01*
X14805487Y-12886329D02*
X14851202Y-12886329D01*
X14828344Y-12966329D02*
X14828344Y-12886329D01*
X14877868Y-12966329D02*
X14877868Y-12886329D01*
X14877868Y-12886329D02*
X14904535Y-12943472D01*
X14904535Y-12943472D02*
X14931202Y-12886329D01*
X14931202Y-12886329D02*
X14931202Y-12966329D01*
X14965487Y-12962520D02*
X14976916Y-12966329D01*
X14976916Y-12966329D02*
X14995964Y-12966329D01*
X14995964Y-12966329D02*
X15003583Y-12962520D01*
X15003583Y-12962520D02*
X15007392Y-12958710D01*
X15007392Y-12958710D02*
X15011202Y-12951091D01*
X15011202Y-12951091D02*
X15011202Y-12943472D01*
X15011202Y-12943472D02*
X15007392Y-12935853D01*
X15007392Y-12935853D02*
X15003583Y-12932044D01*
X15003583Y-12932044D02*
X14995964Y-12928234D01*
X14995964Y-12928234D02*
X14980725Y-12924425D01*
X14980725Y-12924425D02*
X14973106Y-12920615D01*
X14973106Y-12920615D02*
X14969297Y-12916806D01*
X14969297Y-12916806D02*
X14965487Y-12909187D01*
X14965487Y-12909187D02*
X14965487Y-12901568D01*
X14965487Y-12901568D02*
X14969297Y-12893948D01*
X14969297Y-12893948D02*
X14973106Y-12890139D01*
X14973106Y-12890139D02*
X14980725Y-12886329D01*
X14980725Y-12886329D02*
X14999773Y-12886329D01*
X14999773Y-12886329D02*
X15011202Y-12890139D01*
X13010630Y-15243429D02*
X12983964Y-15205334D01*
X12964916Y-15243429D02*
X12964916Y-15163429D01*
X12964916Y-15163429D02*
X12995392Y-15163429D01*
X12995392Y-15163429D02*
X13003011Y-15167239D01*
X13003011Y-15167239D02*
X13006821Y-15171048D01*
X13006821Y-15171048D02*
X13010630Y-15178668D01*
X13010630Y-15178668D02*
X13010630Y-15190096D01*
X13010630Y-15190096D02*
X13006821Y-15197715D01*
X13006821Y-15197715D02*
X13003011Y-15201525D01*
X13003011Y-15201525D02*
X12995392Y-15205334D01*
X12995392Y-15205334D02*
X12964916Y-15205334D01*
X13044916Y-15201525D02*
X13071583Y-15201525D01*
X13083011Y-15243429D02*
X13044916Y-15243429D01*
X13044916Y-15243429D02*
X13044916Y-15163429D01*
X13044916Y-15163429D02*
X13083011Y-15163429D01*
X13113487Y-15239620D02*
X13124916Y-15243429D01*
X13124916Y-15243429D02*
X13143964Y-15243429D01*
X13143964Y-15243429D02*
X13151583Y-15239620D01*
X13151583Y-15239620D02*
X13155392Y-15235810D01*
X13155392Y-15235810D02*
X13159202Y-15228191D01*
X13159202Y-15228191D02*
X13159202Y-15220572D01*
X13159202Y-15220572D02*
X13155392Y-15212953D01*
X13155392Y-15212953D02*
X13151583Y-15209144D01*
X13151583Y-15209144D02*
X13143964Y-15205334D01*
X13143964Y-15205334D02*
X13128725Y-15201525D01*
X13128725Y-15201525D02*
X13121106Y-15197715D01*
X13121106Y-15197715D02*
X13117297Y-15193906D01*
X13117297Y-15193906D02*
X13113487Y-15186287D01*
X13113487Y-15186287D02*
X13113487Y-15178668D01*
X13113487Y-15178668D02*
X13117297Y-15171048D01*
X13117297Y-15171048D02*
X13121106Y-15167239D01*
X13121106Y-15167239D02*
X13128725Y-15163429D01*
X13128725Y-15163429D02*
X13147773Y-15163429D01*
X13147773Y-15163429D02*
X13159202Y-15167239D01*
X18080059Y-11374744D02*
X18070535Y-11369982D01*
X18070535Y-11369982D02*
X18056249Y-11369982D01*
X18056249Y-11369982D02*
X18041964Y-11374744D01*
X18041964Y-11374744D02*
X18032440Y-11384268D01*
X18032440Y-11384268D02*
X18027678Y-11393791D01*
X18027678Y-11393791D02*
X18022916Y-11412839D01*
X18022916Y-11412839D02*
X18022916Y-11427125D01*
X18022916Y-11427125D02*
X18027678Y-11446172D01*
X18027678Y-11446172D02*
X18032440Y-11455696D01*
X18032440Y-11455696D02*
X18041964Y-11465220D01*
X18041964Y-11465220D02*
X18056249Y-11469982D01*
X18056249Y-11469982D02*
X18065773Y-11469982D01*
X18065773Y-11469982D02*
X18080059Y-11465220D01*
X18080059Y-11465220D02*
X18084821Y-11460458D01*
X18084821Y-11460458D02*
X18084821Y-11427125D01*
X18084821Y-11427125D02*
X18065773Y-11427125D01*
X18127678Y-11469982D02*
X18127678Y-11369982D01*
X18127678Y-11369982D02*
X18184821Y-11469982D01*
X18184821Y-11469982D02*
X18184821Y-11369982D01*
X18232440Y-11469982D02*
X18232440Y-11369982D01*
X18232440Y-11369982D02*
X18256249Y-11369982D01*
X18256249Y-11369982D02*
X18270535Y-11374744D01*
X18270535Y-11374744D02*
X18280059Y-11384268D01*
X18280059Y-11384268D02*
X18284821Y-11393791D01*
X18284821Y-11393791D02*
X18289583Y-11412839D01*
X18289583Y-11412839D02*
X18289583Y-11427125D01*
X18289583Y-11427125D02*
X18284821Y-11446172D01*
X18284821Y-11446172D02*
X18280059Y-11455696D01*
X18280059Y-11455696D02*
X18270535Y-11465220D01*
X18270535Y-11465220D02*
X18256249Y-11469982D01*
X18256249Y-11469982D02*
X18232440Y-11469982D01*
X16423773Y-12723429D02*
X16423773Y-12780572D01*
X16423773Y-12780572D02*
X16419964Y-12792001D01*
X16419964Y-12792001D02*
X16412344Y-12799620D01*
X16412344Y-12799620D02*
X16400916Y-12803429D01*
X16400916Y-12803429D02*
X16393297Y-12803429D01*
X16450440Y-12723429D02*
X16496154Y-12723429D01*
X16473297Y-12803429D02*
X16473297Y-12723429D01*
X16519011Y-12780572D02*
X16557106Y-12780572D01*
X16511392Y-12803429D02*
X16538059Y-12723429D01*
X16538059Y-12723429D02*
X16564725Y-12803429D01*
X16633297Y-12727239D02*
X16625678Y-12723429D01*
X16625678Y-12723429D02*
X16614249Y-12723429D01*
X16614249Y-12723429D02*
X16602821Y-12727239D01*
X16602821Y-12727239D02*
X16595202Y-12734858D01*
X16595202Y-12734858D02*
X16591392Y-12742477D01*
X16591392Y-12742477D02*
X16587583Y-12757715D01*
X16587583Y-12757715D02*
X16587583Y-12769144D01*
X16587583Y-12769144D02*
X16591392Y-12784382D01*
X16591392Y-12784382D02*
X16595202Y-12792001D01*
X16595202Y-12792001D02*
X16602821Y-12799620D01*
X16602821Y-12799620D02*
X16614249Y-12803429D01*
X16614249Y-12803429D02*
X16621868Y-12803429D01*
X16621868Y-12803429D02*
X16633297Y-12799620D01*
X16633297Y-12799620D02*
X16637106Y-12795810D01*
X16637106Y-12795810D02*
X16637106Y-12769144D01*
X16637106Y-12769144D02*
X16621868Y-12769144D01*
X14551487Y-12886329D02*
X14578154Y-12966329D01*
X14578154Y-12966329D02*
X14604821Y-12886329D01*
X14677202Y-12958710D02*
X14673392Y-12962520D01*
X14673392Y-12962520D02*
X14661964Y-12966329D01*
X14661964Y-12966329D02*
X14654344Y-12966329D01*
X14654344Y-12966329D02*
X14642916Y-12962520D01*
X14642916Y-12962520D02*
X14635297Y-12954901D01*
X14635297Y-12954901D02*
X14631487Y-12947282D01*
X14631487Y-12947282D02*
X14627678Y-12932044D01*
X14627678Y-12932044D02*
X14627678Y-12920615D01*
X14627678Y-12920615D02*
X14631487Y-12905377D01*
X14631487Y-12905377D02*
X14635297Y-12897758D01*
X14635297Y-12897758D02*
X14642916Y-12890139D01*
X14642916Y-12890139D02*
X14654344Y-12886329D01*
X14654344Y-12886329D02*
X14661964Y-12886329D01*
X14661964Y-12886329D02*
X14673392Y-12890139D01*
X14673392Y-12890139D02*
X14677202Y-12893948D01*
X14757202Y-12958710D02*
X14753392Y-12962520D01*
X14753392Y-12962520D02*
X14741964Y-12966329D01*
X14741964Y-12966329D02*
X14734344Y-12966329D01*
X14734344Y-12966329D02*
X14722916Y-12962520D01*
X14722916Y-12962520D02*
X14715297Y-12954901D01*
X14715297Y-12954901D02*
X14711487Y-12947282D01*
X14711487Y-12947282D02*
X14707678Y-12932044D01*
X14707678Y-12932044D02*
X14707678Y-12920615D01*
X14707678Y-12920615D02*
X14711487Y-12905377D01*
X14711487Y-12905377D02*
X14715297Y-12897758D01*
X14715297Y-12897758D02*
X14722916Y-12890139D01*
X14722916Y-12890139D02*
X14734344Y-12886329D01*
X14734344Y-12886329D02*
X14741964Y-12886329D01*
X14741964Y-12886329D02*
X14753392Y-12890139D01*
X14753392Y-12890139D02*
X14757202Y-12893948D01*
X12479011Y-12357429D02*
X12440916Y-12357429D01*
X12440916Y-12357429D02*
X12437106Y-12395525D01*
X12437106Y-12395525D02*
X12440916Y-12391715D01*
X12440916Y-12391715D02*
X12448535Y-12387906D01*
X12448535Y-12387906D02*
X12467583Y-12387906D01*
X12467583Y-12387906D02*
X12475202Y-12391715D01*
X12475202Y-12391715D02*
X12479011Y-12395525D01*
X12479011Y-12395525D02*
X12482821Y-12403144D01*
X12482821Y-12403144D02*
X12482821Y-12422191D01*
X12482821Y-12422191D02*
X12479011Y-12429810D01*
X12479011Y-12429810D02*
X12475202Y-12433620D01*
X12475202Y-12433620D02*
X12467583Y-12437429D01*
X12467583Y-12437429D02*
X12448535Y-12437429D01*
X12448535Y-12437429D02*
X12440916Y-12433620D01*
X12440916Y-12433620D02*
X12437106Y-12429810D01*
X12532345Y-12357429D02*
X12539964Y-12357429D01*
X12539964Y-12357429D02*
X12547583Y-12361239D01*
X12547583Y-12361239D02*
X12551392Y-12365048D01*
X12551392Y-12365048D02*
X12555202Y-12372668D01*
X12555202Y-12372668D02*
X12559011Y-12387906D01*
X12559011Y-12387906D02*
X12559011Y-12406953D01*
X12559011Y-12406953D02*
X12555202Y-12422191D01*
X12555202Y-12422191D02*
X12551392Y-12429810D01*
X12551392Y-12429810D02*
X12547583Y-12433620D01*
X12547583Y-12433620D02*
X12539964Y-12437429D01*
X12539964Y-12437429D02*
X12532345Y-12437429D01*
X12532345Y-12437429D02*
X12524725Y-12433620D01*
X12524725Y-12433620D02*
X12520916Y-12429810D01*
X12520916Y-12429810D02*
X12517106Y-12422191D01*
X12517106Y-12422191D02*
X12513297Y-12406953D01*
X12513297Y-12406953D02*
X12513297Y-12387906D01*
X12513297Y-12387906D02*
X12517106Y-12372668D01*
X12517106Y-12372668D02*
X12520916Y-12365048D01*
X12520916Y-12365048D02*
X12524725Y-12361239D01*
X12524725Y-12361239D02*
X12532345Y-12357429D01*
X12589487Y-12437429D02*
X12608535Y-12437429D01*
X12608535Y-12437429D02*
X12608535Y-12422191D01*
X12608535Y-12422191D02*
X12600916Y-12418382D01*
X12600916Y-12418382D02*
X12593297Y-12410763D01*
X12593297Y-12410763D02*
X12589487Y-12399334D01*
X12589487Y-12399334D02*
X12589487Y-12380287D01*
X12589487Y-12380287D02*
X12593297Y-12368858D01*
X12593297Y-12368858D02*
X12600916Y-12361239D01*
X12600916Y-12361239D02*
X12612345Y-12357429D01*
X12612345Y-12357429D02*
X12627583Y-12357429D01*
X12627583Y-12357429D02*
X12639011Y-12361239D01*
X12639011Y-12361239D02*
X12646630Y-12368858D01*
X12646630Y-12368858D02*
X12650440Y-12380287D01*
X12650440Y-12380287D02*
X12650440Y-12399334D01*
X12650440Y-12399334D02*
X12646630Y-12410763D01*
X12646630Y-12410763D02*
X12639011Y-12418382D01*
X12639011Y-12418382D02*
X12631392Y-12422191D01*
X12631392Y-12422191D02*
X12631392Y-12437429D01*
X12631392Y-12437429D02*
X12650440Y-12437429D01*
X12673297Y-12353620D02*
X12673297Y-12437429D01*
X12699964Y-12433620D02*
X12772345Y-12433620D01*
X12715202Y-12406953D02*
X12760916Y-12406953D01*
X12715202Y-12380287D02*
X12760916Y-12380287D01*
X12715202Y-12353620D02*
X12715202Y-12433620D01*
X12673297Y-12353620D02*
X12699964Y-12353620D01*
X12699964Y-12353620D02*
X12688535Y-12380287D01*
X12715202Y-12353620D02*
X12760916Y-12353620D01*
X12760916Y-12353620D02*
X12760916Y-12433620D01*
X12688535Y-12380287D02*
X12699964Y-12399334D01*
X12699964Y-12399334D02*
X12699964Y-12410763D01*
X12699964Y-12410763D02*
X12684726Y-12410763D01*
X12791392Y-12368858D02*
X12825678Y-12368858D01*
X12795202Y-12437429D02*
X12810440Y-12437429D01*
X12810440Y-12346001D02*
X12810440Y-12437429D01*
X12825678Y-12395525D02*
X12791392Y-12403144D01*
X12829487Y-12365048D02*
X12886630Y-12365048D01*
X12856154Y-12346001D02*
X12856154Y-12361239D01*
X12840916Y-12380287D02*
X12840916Y-12406953D01*
X12840916Y-12406953D02*
X12837106Y-12426001D01*
X12840916Y-12380287D02*
X12871392Y-12380287D01*
X12871392Y-12380287D02*
X12875202Y-12437429D01*
X12875202Y-12437429D02*
X12886630Y-12437429D01*
X12886630Y-12437429D02*
X12894249Y-12422191D01*
X16994487Y-15477620D02*
X17009726Y-15492858D01*
X17009726Y-15523334D02*
X16994487Y-15557620D01*
X17021154Y-15485239D02*
X17093535Y-15485239D01*
X17028773Y-15519525D02*
X17089726Y-15519525D01*
X17036392Y-15534763D02*
X17028773Y-15550001D01*
X17044011Y-15561429D02*
X17059249Y-15561429D01*
X17047821Y-15477620D02*
X17028773Y-15519525D01*
X17063059Y-15500477D02*
X17063059Y-15561429D01*
X17078297Y-15534763D02*
X17089726Y-15546191D01*
X17131630Y-15473810D02*
X17116392Y-15504287D01*
X17139249Y-15504287D02*
X17112583Y-15530953D01*
X17146868Y-15546191D02*
X17112583Y-15550001D01*
X17146868Y-15527144D02*
X17112583Y-15530953D01*
X17154487Y-15485239D02*
X17211630Y-15485239D01*
X17158297Y-15511906D02*
X17211630Y-15511906D01*
X17162106Y-15557620D02*
X17207821Y-15557620D01*
X17162106Y-15527144D02*
X17162106Y-15561429D01*
X17184964Y-15470001D02*
X17184964Y-15511906D01*
X17143059Y-15496668D02*
X17139249Y-15508096D01*
X17139249Y-15508096D02*
X17112583Y-15508096D01*
X17162106Y-15527144D02*
X17207821Y-15527144D01*
X17207821Y-15527144D02*
X17207821Y-15561429D01*
X13440916Y-15244429D02*
X13440916Y-15164429D01*
X13440916Y-15164429D02*
X13459964Y-15164429D01*
X13459964Y-15164429D02*
X13471392Y-15168239D01*
X13471392Y-15168239D02*
X13479011Y-15175858D01*
X13479011Y-15175858D02*
X13482821Y-15183477D01*
X13482821Y-15183477D02*
X13486630Y-15198715D01*
X13486630Y-15198715D02*
X13486630Y-15210144D01*
X13486630Y-15210144D02*
X13482821Y-15225382D01*
X13482821Y-15225382D02*
X13479011Y-15233001D01*
X13479011Y-15233001D02*
X13471392Y-15240620D01*
X13471392Y-15240620D02*
X13459964Y-15244429D01*
X13459964Y-15244429D02*
X13440916Y-15244429D01*
X13536154Y-15164429D02*
X13543773Y-15164429D01*
X13543773Y-15164429D02*
X13551392Y-15168239D01*
X13551392Y-15168239D02*
X13555202Y-15172048D01*
X13555202Y-15172048D02*
X13559011Y-15179668D01*
X13559011Y-15179668D02*
X13562821Y-15194906D01*
X13562821Y-15194906D02*
X13562821Y-15213953D01*
X13562821Y-15213953D02*
X13559011Y-15229191D01*
X13559011Y-15229191D02*
X13555202Y-15236810D01*
X13555202Y-15236810D02*
X13551392Y-15240620D01*
X13551392Y-15240620D02*
X13543773Y-15244429D01*
X13543773Y-15244429D02*
X13536154Y-15244429D01*
X13536154Y-15244429D02*
X13528535Y-15240620D01*
X13528535Y-15240620D02*
X13524725Y-15236810D01*
X13524725Y-15236810D02*
X13520916Y-15229191D01*
X13520916Y-15229191D02*
X13517106Y-15213953D01*
X13517106Y-15213953D02*
X13517106Y-15194906D01*
X13517106Y-15194906D02*
X13520916Y-15179668D01*
X13520916Y-15179668D02*
X13524725Y-15172048D01*
X13524725Y-15172048D02*
X13528535Y-15168239D01*
X13528535Y-15168239D02*
X13536154Y-15164429D01*
X18369763Y-11916512D02*
X18369763Y-11828893D01*
X18346906Y-11916512D02*
X18346906Y-11828893D01*
X18396430Y-11870798D02*
X18396430Y-11821274D01*
X18305001Y-11870798D02*
X18396430Y-11870798D01*
X18377382Y-11817465D02*
X18396430Y-11821274D01*
X18373572Y-11916512D02*
X18320239Y-11916512D01*
X18320239Y-11916512D02*
X18320239Y-11828893D01*
X18320239Y-11828893D02*
X18373572Y-11828893D01*
X18335477Y-11798417D02*
X18343096Y-11779370D01*
X18308810Y-11790798D02*
X18316430Y-11771751D01*
X18362144Y-11775560D02*
X18388810Y-11786989D01*
X18305001Y-11733655D02*
X18377382Y-11733655D01*
X18316430Y-11756512D02*
X18396430Y-11756512D01*
X18396430Y-11756512D02*
X18396430Y-11703179D01*
X18396430Y-11703179D02*
X18381191Y-11699370D01*
X18346906Y-11771751D02*
X18327858Y-11706989D01*
X18327858Y-11706989D02*
X18362144Y-11706989D01*
X18362144Y-11706989D02*
X18373572Y-11706989D01*
X18373572Y-11706989D02*
X18373572Y-11718417D01*
X18320239Y-11680322D02*
X18320239Y-11634608D01*
X18350715Y-11676513D02*
X18350715Y-11634608D01*
X18312620Y-11657465D02*
X18350715Y-11676513D01*
X18335477Y-11653655D02*
X18396430Y-11653655D01*
X18369763Y-11642227D02*
X18377382Y-11680322D01*
X18305001Y-11615560D02*
X18343096Y-11626989D01*
X18377382Y-11615560D02*
X18396430Y-11634608D01*
X18358334Y-11611751D02*
X18385001Y-11623179D01*
X18339287Y-11607941D02*
X18373572Y-11611751D01*
X18346906Y-11607941D02*
X18381191Y-11596513D01*
X18358334Y-11604132D02*
X18388810Y-11592703D01*
X18381191Y-11596513D02*
X18396430Y-11581274D01*
X18324049Y-11619370D02*
X18324049Y-11581274D01*
X18324049Y-11581274D02*
X18346906Y-11585084D01*
X18362144Y-11546989D02*
X18362144Y-11505084D01*
X18396430Y-11543179D02*
X18396430Y-11466989D01*
X18324049Y-11543179D02*
X18343096Y-11562227D01*
X18362144Y-11543179D02*
X18396430Y-11543179D01*
X18305001Y-11535560D02*
X18331668Y-11546989D01*
X18373572Y-11497465D02*
X18373572Y-11478417D01*
X18381191Y-11463179D02*
X18396430Y-11466989D01*
X18335477Y-11546989D02*
X18335477Y-11505084D01*
X18335477Y-11505084D02*
X18362144Y-11505084D01*
X18320239Y-11539370D02*
X18320239Y-11470798D01*
X18320239Y-11470798D02*
X18350715Y-11470798D01*
X18350715Y-11470798D02*
X18373572Y-11474608D01*
X12176916Y-15234429D02*
X12176916Y-15154429D01*
X12176916Y-15154429D02*
X12195964Y-15154429D01*
X12195964Y-15154429D02*
X12207392Y-15158239D01*
X12207392Y-15158239D02*
X12215011Y-15165858D01*
X12215011Y-15165858D02*
X12218821Y-15173477D01*
X12218821Y-15173477D02*
X12222630Y-15188715D01*
X12222630Y-15188715D02*
X12222630Y-15200144D01*
X12222630Y-15200144D02*
X12218821Y-15215382D01*
X12218821Y-15215382D02*
X12215011Y-15223001D01*
X12215011Y-15223001D02*
X12207392Y-15230620D01*
X12207392Y-15230620D02*
X12195964Y-15234429D01*
X12195964Y-15234429D02*
X12176916Y-15234429D01*
X12302630Y-15226810D02*
X12298821Y-15230620D01*
X12298821Y-15230620D02*
X12287392Y-15234429D01*
X12287392Y-15234429D02*
X12279773Y-15234429D01*
X12279773Y-15234429D02*
X12268344Y-15230620D01*
X12268344Y-15230620D02*
X12260725Y-15223001D01*
X12260725Y-15223001D02*
X12256916Y-15215382D01*
X12256916Y-15215382D02*
X12253106Y-15200144D01*
X12253106Y-15200144D02*
X12253106Y-15188715D01*
X12253106Y-15188715D02*
X12256916Y-15173477D01*
X12256916Y-15173477D02*
X12260725Y-15165858D01*
X12260725Y-15165858D02*
X12268344Y-15158239D01*
X12268344Y-15158239D02*
X12279773Y-15154429D01*
X12279773Y-15154429D02*
X12287392Y-15154429D01*
X12287392Y-15154429D02*
X12298821Y-15158239D01*
X12298821Y-15158239D02*
X12302630Y-15162048D01*
X16867572Y-13785893D02*
X16867572Y-13747798D01*
X16890430Y-13793512D02*
X16810430Y-13766846D01*
X16810430Y-13766846D02*
X16890430Y-13740179D01*
X16890430Y-13713512D02*
X16810430Y-13713512D01*
X16810430Y-13713512D02*
X16867572Y-13686846D01*
X16867572Y-13686846D02*
X16810430Y-13660179D01*
X16810430Y-13660179D02*
X16890430Y-13660179D01*
X16886620Y-13625893D02*
X16890430Y-13614465D01*
X16890430Y-13614465D02*
X16890430Y-13595417D01*
X16890430Y-13595417D02*
X16886620Y-13587798D01*
X16886620Y-13587798D02*
X16882810Y-13583989D01*
X16882810Y-13583989D02*
X16875191Y-13580179D01*
X16875191Y-13580179D02*
X16867572Y-13580179D01*
X16867572Y-13580179D02*
X16859953Y-13583989D01*
X16859953Y-13583989D02*
X16856144Y-13587798D01*
X16856144Y-13587798D02*
X16852334Y-13595417D01*
X16852334Y-13595417D02*
X16848525Y-13610655D01*
X16848525Y-13610655D02*
X16844715Y-13618274D01*
X16844715Y-13618274D02*
X16840906Y-13622084D01*
X16840906Y-13622084D02*
X16833287Y-13625893D01*
X16833287Y-13625893D02*
X16825668Y-13625893D01*
X16825668Y-13625893D02*
X16818049Y-13622084D01*
X16818049Y-13622084D02*
X16814239Y-13618274D01*
X16814239Y-13618274D02*
X16810430Y-13610655D01*
X16810430Y-13610655D02*
X16810430Y-13591608D01*
X16810430Y-13591608D02*
X16814239Y-13580179D01*
X16890430Y-13503989D02*
X16890430Y-13549703D01*
X16890430Y-13526846D02*
X16810430Y-13526846D01*
X16810430Y-13526846D02*
X16821858Y-13534465D01*
X16821858Y-13534465D02*
X16829477Y-13542084D01*
X16829477Y-13542084D02*
X16833287Y-13549703D01*
X16890430Y-13427798D02*
X16890430Y-13473512D01*
X16890430Y-13450655D02*
X16810430Y-13450655D01*
X16810430Y-13450655D02*
X16821858Y-13458274D01*
X16821858Y-13458274D02*
X16829477Y-13465893D01*
X16829477Y-13465893D02*
X16833287Y-13473512D01*
X16890430Y-13351608D02*
X16890430Y-13397322D01*
X16890430Y-13374465D02*
X16810430Y-13374465D01*
X16810430Y-13374465D02*
X16821858Y-13382084D01*
X16821858Y-13382084D02*
X16829477Y-13389703D01*
X16829477Y-13389703D02*
X16833287Y-13397322D01*
X16810430Y-13324941D02*
X16810430Y-13271608D01*
X16810430Y-13271608D02*
X16890430Y-13305893D01*
X13604487Y-15165429D02*
X13631154Y-15245429D01*
X13631154Y-15245429D02*
X13657821Y-15165429D01*
X13730202Y-15237810D02*
X13726392Y-15241620D01*
X13726392Y-15241620D02*
X13714964Y-15245429D01*
X13714964Y-15245429D02*
X13707344Y-15245429D01*
X13707344Y-15245429D02*
X13695916Y-15241620D01*
X13695916Y-15241620D02*
X13688297Y-15234001D01*
X13688297Y-15234001D02*
X13684487Y-15226382D01*
X13684487Y-15226382D02*
X13680678Y-15211144D01*
X13680678Y-15211144D02*
X13680678Y-15199715D01*
X13680678Y-15199715D02*
X13684487Y-15184477D01*
X13684487Y-15184477D02*
X13688297Y-15176858D01*
X13688297Y-15176858D02*
X13695916Y-15169239D01*
X13695916Y-15169239D02*
X13707344Y-15165429D01*
X13707344Y-15165429D02*
X13714964Y-15165429D01*
X13714964Y-15165429D02*
X13726392Y-15169239D01*
X13726392Y-15169239D02*
X13730202Y-15173048D01*
X13810202Y-15237810D02*
X13806392Y-15241620D01*
X13806392Y-15241620D02*
X13794964Y-15245429D01*
X13794964Y-15245429D02*
X13787344Y-15245429D01*
X13787344Y-15245429D02*
X13775916Y-15241620D01*
X13775916Y-15241620D02*
X13768297Y-15234001D01*
X13768297Y-15234001D02*
X13764487Y-15226382D01*
X13764487Y-15226382D02*
X13760678Y-15211144D01*
X13760678Y-15211144D02*
X13760678Y-15199715D01*
X13760678Y-15199715D02*
X13764487Y-15184477D01*
X13764487Y-15184477D02*
X13768297Y-15176858D01*
X13768297Y-15176858D02*
X13775916Y-15169239D01*
X13775916Y-15169239D02*
X13787344Y-15165429D01*
X13787344Y-15165429D02*
X13794964Y-15165429D01*
X13794964Y-15165429D02*
X13806392Y-15169239D01*
X13806392Y-15169239D02*
X13810202Y-15173048D01*
X17814535Y-15486048D02*
X17814535Y-15558429D01*
X17825964Y-15520334D02*
X17890726Y-15520334D01*
X17833583Y-15501287D02*
X17886916Y-15501287D01*
X17833583Y-15474620D02*
X17833583Y-15501287D01*
X17860249Y-15501287D02*
X17860249Y-15558429D01*
X17864059Y-15527953D02*
X17890726Y-15550810D01*
X17822154Y-15470810D02*
X17814535Y-15489858D01*
X17814535Y-15489858D02*
X17795487Y-15508906D01*
X17833583Y-15474620D02*
X17886916Y-15474620D01*
X17886916Y-15474620D02*
X17886916Y-15501287D01*
X17860249Y-15524144D02*
X17852630Y-15527953D01*
X17852630Y-15527953D02*
X17829773Y-15550810D01*
X17928821Y-15554620D02*
X18005011Y-15554620D01*
X17928821Y-15535572D02*
X18005011Y-15535572D01*
X17928821Y-15520334D02*
X17928821Y-15558429D01*
X17944059Y-15489858D02*
X17959297Y-15505096D01*
X17955487Y-15501287D02*
X17913583Y-15508906D01*
X17966916Y-15520334D02*
X17966916Y-15554620D01*
X17928821Y-15520334D02*
X18005011Y-15520334D01*
X18005011Y-15520334D02*
X18005011Y-15558429D01*
X17959297Y-15470810D02*
X17925011Y-15474620D01*
X17925011Y-15474620D02*
X17925011Y-15505096D01*
X17985964Y-15474620D02*
X17978345Y-15497477D01*
X17978345Y-15497477D02*
X17966916Y-15512715D01*
X17970726Y-15474620D02*
X18012630Y-15474620D01*
X18012630Y-15474620D02*
X18008821Y-15512715D01*
X18008821Y-15512715D02*
X17993583Y-15512715D01*
X12024630Y-15226810D02*
X12020821Y-15230620D01*
X12020821Y-15230620D02*
X12009392Y-15234429D01*
X12009392Y-15234429D02*
X12001773Y-15234429D01*
X12001773Y-15234429D02*
X11990344Y-15230620D01*
X11990344Y-15230620D02*
X11982725Y-15223001D01*
X11982725Y-15223001D02*
X11978916Y-15215382D01*
X11978916Y-15215382D02*
X11975106Y-15200144D01*
X11975106Y-15200144D02*
X11975106Y-15188715D01*
X11975106Y-15188715D02*
X11978916Y-15173477D01*
X11978916Y-15173477D02*
X11982725Y-15165858D01*
X11982725Y-15165858D02*
X11990344Y-15158239D01*
X11990344Y-15158239D02*
X12001773Y-15154429D01*
X12001773Y-15154429D02*
X12009392Y-15154429D01*
X12009392Y-15154429D02*
X12020821Y-15158239D01*
X12020821Y-15158239D02*
X12024630Y-15162048D01*
X12055106Y-15230620D02*
X12066535Y-15234429D01*
X12066535Y-15234429D02*
X12085583Y-15234429D01*
X12085583Y-15234429D02*
X12093202Y-15230620D01*
X12093202Y-15230620D02*
X12097011Y-15226810D01*
X12097011Y-15226810D02*
X12100821Y-15219191D01*
X12100821Y-15219191D02*
X12100821Y-15211572D01*
X12100821Y-15211572D02*
X12097011Y-15203953D01*
X12097011Y-15203953D02*
X12093202Y-15200144D01*
X12093202Y-15200144D02*
X12085583Y-15196334D01*
X12085583Y-15196334D02*
X12070344Y-15192525D01*
X12070344Y-15192525D02*
X12062725Y-15188715D01*
X12062725Y-15188715D02*
X12058916Y-15184906D01*
X12058916Y-15184906D02*
X12055106Y-15177287D01*
X12055106Y-15177287D02*
X12055106Y-15169668D01*
X12055106Y-15169668D02*
X12058916Y-15162048D01*
X12058916Y-15162048D02*
X12062725Y-15158239D01*
X12062725Y-15158239D02*
X12070344Y-15154429D01*
X12070344Y-15154429D02*
X12089392Y-15154429D01*
X12089392Y-15154429D02*
X12100821Y-15158239D01*
X15821487Y-12886329D02*
X15867202Y-12886329D01*
X15844344Y-12966329D02*
X15844344Y-12886329D01*
X15893868Y-12966329D02*
X15893868Y-12886329D01*
X15893868Y-12886329D02*
X15912916Y-12886329D01*
X15912916Y-12886329D02*
X15924345Y-12890139D01*
X15924345Y-12890139D02*
X15931964Y-12897758D01*
X15931964Y-12897758D02*
X15935773Y-12905377D01*
X15935773Y-12905377D02*
X15939583Y-12920615D01*
X15939583Y-12920615D02*
X15939583Y-12932044D01*
X15939583Y-12932044D02*
X15935773Y-12947282D01*
X15935773Y-12947282D02*
X15931964Y-12954901D01*
X15931964Y-12954901D02*
X15924345Y-12962520D01*
X15924345Y-12962520D02*
X15912916Y-12966329D01*
X15912916Y-12966329D02*
X15893868Y-12966329D01*
X15973868Y-12966329D02*
X15973868Y-12886329D01*
X13219916Y-15242429D02*
X13219916Y-15162429D01*
X13219916Y-15162429D02*
X13238964Y-15162429D01*
X13238964Y-15162429D02*
X13250392Y-15166239D01*
X13250392Y-15166239D02*
X13258011Y-15173858D01*
X13258011Y-15173858D02*
X13261821Y-15181477D01*
X13261821Y-15181477D02*
X13265630Y-15196715D01*
X13265630Y-15196715D02*
X13265630Y-15208144D01*
X13265630Y-15208144D02*
X13261821Y-15223382D01*
X13261821Y-15223382D02*
X13258011Y-15231001D01*
X13258011Y-15231001D02*
X13250392Y-15238620D01*
X13250392Y-15238620D02*
X13238964Y-15242429D01*
X13238964Y-15242429D02*
X13219916Y-15242429D01*
X13341821Y-15242429D02*
X13296106Y-15242429D01*
X13318964Y-15242429D02*
X13318964Y-15162429D01*
X13318964Y-15162429D02*
X13311344Y-15173858D01*
X13311344Y-15173858D02*
X13303725Y-15181477D01*
X13303725Y-15181477D02*
X13296106Y-15185287D01*
X11825583Y-15192525D02*
X11837011Y-15196334D01*
X11837011Y-15196334D02*
X11840821Y-15200144D01*
X11840821Y-15200144D02*
X11844630Y-15207763D01*
X11844630Y-15207763D02*
X11844630Y-15219191D01*
X11844630Y-15219191D02*
X11840821Y-15226810D01*
X11840821Y-15226810D02*
X11837011Y-15230620D01*
X11837011Y-15230620D02*
X11829392Y-15234429D01*
X11829392Y-15234429D02*
X11798916Y-15234429D01*
X11798916Y-15234429D02*
X11798916Y-15154429D01*
X11798916Y-15154429D02*
X11825583Y-15154429D01*
X11825583Y-15154429D02*
X11833202Y-15158239D01*
X11833202Y-15158239D02*
X11837011Y-15162048D01*
X11837011Y-15162048D02*
X11840821Y-15169668D01*
X11840821Y-15169668D02*
X11840821Y-15177287D01*
X11840821Y-15177287D02*
X11837011Y-15184906D01*
X11837011Y-15184906D02*
X11833202Y-15188715D01*
X11833202Y-15188715D02*
X11825583Y-15192525D01*
X11825583Y-15192525D02*
X11798916Y-15192525D01*
X11917011Y-15234429D02*
X11878916Y-15234429D01*
X11878916Y-15234429D02*
X11878916Y-15154429D01*
X16149821Y-11421458D02*
X16145059Y-11426220D01*
X16145059Y-11426220D02*
X16130773Y-11430982D01*
X16130773Y-11430982D02*
X16121249Y-11430982D01*
X16121249Y-11430982D02*
X16106964Y-11426220D01*
X16106964Y-11426220D02*
X16097440Y-11416696D01*
X16097440Y-11416696D02*
X16092678Y-11407172D01*
X16092678Y-11407172D02*
X16087916Y-11388125D01*
X16087916Y-11388125D02*
X16087916Y-11373839D01*
X16087916Y-11373839D02*
X16092678Y-11354791D01*
X16092678Y-11354791D02*
X16097440Y-11345268D01*
X16097440Y-11345268D02*
X16106964Y-11335744D01*
X16106964Y-11335744D02*
X16121249Y-11330982D01*
X16121249Y-11330982D02*
X16130773Y-11330982D01*
X16130773Y-11330982D02*
X16145059Y-11335744D01*
X16145059Y-11335744D02*
X16149821Y-11340506D01*
X16192678Y-11430982D02*
X16192678Y-11330982D01*
X16192678Y-11330982D02*
X16230773Y-11330982D01*
X16230773Y-11330982D02*
X16240297Y-11335744D01*
X16240297Y-11335744D02*
X16245059Y-11340506D01*
X16245059Y-11340506D02*
X16249821Y-11350029D01*
X16249821Y-11350029D02*
X16249821Y-11364315D01*
X16249821Y-11364315D02*
X16245059Y-11373839D01*
X16245059Y-11373839D02*
X16240297Y-11378601D01*
X16240297Y-11378601D02*
X16230773Y-11383363D01*
X16230773Y-11383363D02*
X16192678Y-11383363D01*
X16287916Y-11340506D02*
X16292678Y-11335744D01*
X16292678Y-11335744D02*
X16302202Y-11330982D01*
X16302202Y-11330982D02*
X16326011Y-11330982D01*
X16326011Y-11330982D02*
X16335535Y-11335744D01*
X16335535Y-11335744D02*
X16340297Y-11340506D01*
X16340297Y-11340506D02*
X16345059Y-11350029D01*
X16345059Y-11350029D02*
X16345059Y-11359553D01*
X16345059Y-11359553D02*
X16340297Y-11373839D01*
X16340297Y-11373839D02*
X16283154Y-11430982D01*
X16283154Y-11430982D02*
X16345059Y-11430982D01*
X16440297Y-11430982D02*
X16383154Y-11430982D01*
X16411725Y-11430982D02*
X16411725Y-11330982D01*
X16411725Y-11330982D02*
X16402202Y-11345268D01*
X16402202Y-11345268D02*
X16392678Y-11354791D01*
X16392678Y-11354791D02*
X16383154Y-11359553D01*
X16502202Y-11330982D02*
X16511725Y-11330982D01*
X16511725Y-11330982D02*
X16521249Y-11335744D01*
X16521249Y-11335744D02*
X16526011Y-11340506D01*
X16526011Y-11340506D02*
X16530773Y-11350029D01*
X16530773Y-11350029D02*
X16535535Y-11369077D01*
X16535535Y-11369077D02*
X16535535Y-11392887D01*
X16535535Y-11392887D02*
X16530773Y-11411934D01*
X16530773Y-11411934D02*
X16526011Y-11421458D01*
X16526011Y-11421458D02*
X16521249Y-11426220D01*
X16521249Y-11426220D02*
X16511725Y-11430982D01*
X16511725Y-11430982D02*
X16502202Y-11430982D01*
X16502202Y-11430982D02*
X16492678Y-11426220D01*
X16492678Y-11426220D02*
X16487916Y-11421458D01*
X16487916Y-11421458D02*
X16483154Y-11411934D01*
X16483154Y-11411934D02*
X16478392Y-11392887D01*
X16478392Y-11392887D02*
X16478392Y-11369077D01*
X16478392Y-11369077D02*
X16483154Y-11350029D01*
X16483154Y-11350029D02*
X16487916Y-11340506D01*
X16487916Y-11340506D02*
X16492678Y-11335744D01*
X16492678Y-11335744D02*
X16502202Y-11330982D01*
X16573630Y-11340506D02*
X16578392Y-11335744D01*
X16578392Y-11335744D02*
X16587916Y-11330982D01*
X16587916Y-11330982D02*
X16611725Y-11330982D01*
X16611725Y-11330982D02*
X16621249Y-11335744D01*
X16621249Y-11335744D02*
X16626011Y-11340506D01*
X16626011Y-11340506D02*
X16630773Y-11350029D01*
X16630773Y-11350029D02*
X16630773Y-11359553D01*
X16630773Y-11359553D02*
X16626011Y-11373839D01*
X16626011Y-11373839D02*
X16568868Y-11430982D01*
X16568868Y-11430982D02*
X16630773Y-11430982D01*
X16673630Y-11430982D02*
X16673630Y-11330982D01*
X16673630Y-11330982D02*
X16730773Y-11430982D01*
X16730773Y-11430982D02*
X16730773Y-11330982D01*
X13026678Y-14427982D02*
X13026678Y-14327982D01*
X13026678Y-14327982D02*
X13060011Y-14399410D01*
X13060011Y-14399410D02*
X13093344Y-14327982D01*
X13093344Y-14327982D02*
X13093344Y-14427982D01*
X13140964Y-14427982D02*
X13140964Y-14327982D01*
X13140964Y-14327982D02*
X13179059Y-14327982D01*
X13179059Y-14327982D02*
X13188583Y-14332744D01*
X13188583Y-14332744D02*
X13193344Y-14337506D01*
X13193344Y-14337506D02*
X13198106Y-14347029D01*
X13198106Y-14347029D02*
X13198106Y-14361315D01*
X13198106Y-14361315D02*
X13193344Y-14370839D01*
X13193344Y-14370839D02*
X13188583Y-14375601D01*
X13188583Y-14375601D02*
X13179059Y-14380363D01*
X13179059Y-14380363D02*
X13140964Y-14380363D01*
X13240964Y-14327982D02*
X13240964Y-14408934D01*
X13240964Y-14408934D02*
X13245725Y-14418458D01*
X13245725Y-14418458D02*
X13250487Y-14423220D01*
X13250487Y-14423220D02*
X13260011Y-14427982D01*
X13260011Y-14427982D02*
X13279059Y-14427982D01*
X13279059Y-14427982D02*
X13288583Y-14423220D01*
X13288583Y-14423220D02*
X13293344Y-14418458D01*
X13293344Y-14418458D02*
X13298106Y-14408934D01*
X13298106Y-14408934D02*
X13298106Y-14327982D01*
X13388583Y-14327982D02*
X13369535Y-14327982D01*
X13369535Y-14327982D02*
X13360011Y-14332744D01*
X13360011Y-14332744D02*
X13355249Y-14337506D01*
X13355249Y-14337506D02*
X13345725Y-14351791D01*
X13345725Y-14351791D02*
X13340964Y-14370839D01*
X13340964Y-14370839D02*
X13340964Y-14408934D01*
X13340964Y-14408934D02*
X13345725Y-14418458D01*
X13345725Y-14418458D02*
X13350487Y-14423220D01*
X13350487Y-14423220D02*
X13360011Y-14427982D01*
X13360011Y-14427982D02*
X13379059Y-14427982D01*
X13379059Y-14427982D02*
X13388583Y-14423220D01*
X13388583Y-14423220D02*
X13393344Y-14418458D01*
X13393344Y-14418458D02*
X13398106Y-14408934D01*
X13398106Y-14408934D02*
X13398106Y-14385125D01*
X13398106Y-14385125D02*
X13393344Y-14375601D01*
X13393344Y-14375601D02*
X13388583Y-14370839D01*
X13388583Y-14370839D02*
X13379059Y-14366077D01*
X13379059Y-14366077D02*
X13360011Y-14366077D01*
X13360011Y-14366077D02*
X13350487Y-14370839D01*
X13350487Y-14370839D02*
X13345725Y-14375601D01*
X13345725Y-14375601D02*
X13340964Y-14385125D01*
X13460011Y-14327982D02*
X13469535Y-14327982D01*
X13469535Y-14327982D02*
X13479059Y-14332744D01*
X13479059Y-14332744D02*
X13483821Y-14337506D01*
X13483821Y-14337506D02*
X13488583Y-14347029D01*
X13488583Y-14347029D02*
X13493344Y-14366077D01*
X13493344Y-14366077D02*
X13493344Y-14389887D01*
X13493344Y-14389887D02*
X13488583Y-14408934D01*
X13488583Y-14408934D02*
X13483821Y-14418458D01*
X13483821Y-14418458D02*
X13479059Y-14423220D01*
X13479059Y-14423220D02*
X13469535Y-14427982D01*
X13469535Y-14427982D02*
X13460011Y-14427982D01*
X13460011Y-14427982D02*
X13450487Y-14423220D01*
X13450487Y-14423220D02*
X13445725Y-14418458D01*
X13445725Y-14418458D02*
X13440964Y-14408934D01*
X13440964Y-14408934D02*
X13436202Y-14389887D01*
X13436202Y-14389887D02*
X13436202Y-14366077D01*
X13436202Y-14366077D02*
X13440964Y-14347029D01*
X13440964Y-14347029D02*
X13445725Y-14337506D01*
X13445725Y-14337506D02*
X13450487Y-14332744D01*
X13450487Y-14332744D02*
X13460011Y-14327982D01*
X13583821Y-14327982D02*
X13536202Y-14327982D01*
X13536202Y-14327982D02*
X13531440Y-14375601D01*
X13531440Y-14375601D02*
X13536202Y-14370839D01*
X13536202Y-14370839D02*
X13545725Y-14366077D01*
X13545725Y-14366077D02*
X13569535Y-14366077D01*
X13569535Y-14366077D02*
X13579059Y-14370839D01*
X13579059Y-14370839D02*
X13583821Y-14375601D01*
X13583821Y-14375601D02*
X13588583Y-14385125D01*
X13588583Y-14385125D02*
X13588583Y-14408934D01*
X13588583Y-14408934D02*
X13583821Y-14418458D01*
X13583821Y-14418458D02*
X13579059Y-14423220D01*
X13579059Y-14423220D02*
X13569535Y-14427982D01*
X13569535Y-14427982D02*
X13545725Y-14427982D01*
X13545725Y-14427982D02*
X13536202Y-14423220D01*
X13536202Y-14423220D02*
X13531440Y-14418458D01*
X13650487Y-14327982D02*
X13660011Y-14327982D01*
X13660011Y-14327982D02*
X13669535Y-14332744D01*
X13669535Y-14332744D02*
X13674297Y-14337506D01*
X13674297Y-14337506D02*
X13679059Y-14347029D01*
X13679059Y-14347029D02*
X13683821Y-14366077D01*
X13683821Y-14366077D02*
X13683821Y-14389887D01*
X13683821Y-14389887D02*
X13679059Y-14408934D01*
X13679059Y-14408934D02*
X13674297Y-14418458D01*
X13674297Y-14418458D02*
X13669535Y-14423220D01*
X13669535Y-14423220D02*
X13660011Y-14427982D01*
X13660011Y-14427982D02*
X13650487Y-14427982D01*
X13650487Y-14427982D02*
X13640964Y-14423220D01*
X13640964Y-14423220D02*
X13636202Y-14418458D01*
X13636202Y-14418458D02*
X13631440Y-14408934D01*
X13631440Y-14408934D02*
X13626678Y-14389887D01*
X13626678Y-14389887D02*
X13626678Y-14366077D01*
X13626678Y-14366077D02*
X13631440Y-14347029D01*
X13631440Y-14347029D02*
X13636202Y-14337506D01*
X13636202Y-14337506D02*
X13640964Y-14332744D01*
X13640964Y-14332744D02*
X13650487Y-14327982D01*
X14669630Y-15564429D02*
X14642964Y-15526334D01*
X14623916Y-15564429D02*
X14623916Y-15484429D01*
X14623916Y-15484429D02*
X14654392Y-15484429D01*
X14654392Y-15484429D02*
X14662011Y-15488239D01*
X14662011Y-15488239D02*
X14665821Y-15492048D01*
X14665821Y-15492048D02*
X14669630Y-15499668D01*
X14669630Y-15499668D02*
X14669630Y-15511096D01*
X14669630Y-15511096D02*
X14665821Y-15518715D01*
X14665821Y-15518715D02*
X14662011Y-15522525D01*
X14662011Y-15522525D02*
X14654392Y-15526334D01*
X14654392Y-15526334D02*
X14623916Y-15526334D01*
X14703916Y-15522525D02*
X14730583Y-15522525D01*
X14742011Y-15564429D02*
X14703916Y-15564429D01*
X14703916Y-15564429D02*
X14703916Y-15484429D01*
X14703916Y-15484429D02*
X14742011Y-15484429D01*
X14764868Y-15484429D02*
X14810583Y-15484429D01*
X14787725Y-15564429D02*
X14787725Y-15484429D01*
X15059487Y-12886329D02*
X15105202Y-12886329D01*
X15082344Y-12966329D02*
X15082344Y-12886329D01*
X15177583Y-12958710D02*
X15173773Y-12962520D01*
X15173773Y-12962520D02*
X15162345Y-12966329D01*
X15162345Y-12966329D02*
X15154725Y-12966329D01*
X15154725Y-12966329D02*
X15143297Y-12962520D01*
X15143297Y-12962520D02*
X15135678Y-12954901D01*
X15135678Y-12954901D02*
X15131868Y-12947282D01*
X15131868Y-12947282D02*
X15128059Y-12932044D01*
X15128059Y-12932044D02*
X15128059Y-12920615D01*
X15128059Y-12920615D02*
X15131868Y-12905377D01*
X15131868Y-12905377D02*
X15135678Y-12897758D01*
X15135678Y-12897758D02*
X15143297Y-12890139D01*
X15143297Y-12890139D02*
X15154725Y-12886329D01*
X15154725Y-12886329D02*
X15162345Y-12886329D01*
X15162345Y-12886329D02*
X15173773Y-12890139D01*
X15173773Y-12890139D02*
X15177583Y-12893948D01*
X15211868Y-12966329D02*
X15211868Y-12886329D01*
X15257583Y-12966329D02*
X15223297Y-12920615D01*
X15257583Y-12886329D02*
X15211868Y-12932044D01*
X15835620Y-13839893D02*
X15839429Y-13828465D01*
X15839429Y-13828465D02*
X15839429Y-13809417D01*
X15839429Y-13809417D02*
X15835620Y-13801798D01*
X15835620Y-13801798D02*
X15831810Y-13797989D01*
X15831810Y-13797989D02*
X15824191Y-13794179D01*
X15824191Y-13794179D02*
X15816572Y-13794179D01*
X15816572Y-13794179D02*
X15808953Y-13797989D01*
X15808953Y-13797989D02*
X15805144Y-13801798D01*
X15805144Y-13801798D02*
X15801334Y-13809417D01*
X15801334Y-13809417D02*
X15797525Y-13824655D01*
X15797525Y-13824655D02*
X15793715Y-13832274D01*
X15793715Y-13832274D02*
X15789906Y-13836084D01*
X15789906Y-13836084D02*
X15782287Y-13839893D01*
X15782287Y-13839893D02*
X15774668Y-13839893D01*
X15774668Y-13839893D02*
X15767048Y-13836084D01*
X15767048Y-13836084D02*
X15763239Y-13832274D01*
X15763239Y-13832274D02*
X15759429Y-13824655D01*
X15759429Y-13824655D02*
X15759429Y-13805608D01*
X15759429Y-13805608D02*
X15763239Y-13794179D01*
X15839429Y-13759893D02*
X15759429Y-13759893D01*
X15759429Y-13759893D02*
X15759429Y-13729417D01*
X15759429Y-13729417D02*
X15763239Y-13721798D01*
X15763239Y-13721798D02*
X15767048Y-13717989D01*
X15767048Y-13717989D02*
X15774668Y-13714179D01*
X15774668Y-13714179D02*
X15786096Y-13714179D01*
X15786096Y-13714179D02*
X15793715Y-13717989D01*
X15793715Y-13717989D02*
X15797525Y-13721798D01*
X15797525Y-13721798D02*
X15801334Y-13729417D01*
X15801334Y-13729417D02*
X15801334Y-13759893D01*
X15839429Y-13679893D02*
X15759429Y-13679893D01*
X15797525Y-13554179D02*
X15797525Y-13580846D01*
X15839429Y-13580846D02*
X15759429Y-13580846D01*
X15759429Y-13580846D02*
X15759429Y-13542751D01*
X15839429Y-13474179D02*
X15839429Y-13512274D01*
X15839429Y-13512274D02*
X15759429Y-13512274D01*
X15816572Y-13451322D02*
X15816572Y-13413227D01*
X15839429Y-13458941D02*
X15759429Y-13432274D01*
X15759429Y-13432274D02*
X15839429Y-13405608D01*
X15835620Y-13382751D02*
X15839429Y-13371322D01*
X15839429Y-13371322D02*
X15839429Y-13352274D01*
X15839429Y-13352274D02*
X15835620Y-13344655D01*
X15835620Y-13344655D02*
X15831810Y-13340846D01*
X15831810Y-13340846D02*
X15824191Y-13337036D01*
X15824191Y-13337036D02*
X15816572Y-13337036D01*
X15816572Y-13337036D02*
X15808953Y-13340846D01*
X15808953Y-13340846D02*
X15805144Y-13344655D01*
X15805144Y-13344655D02*
X15801334Y-13352274D01*
X15801334Y-13352274D02*
X15797525Y-13367513D01*
X15797525Y-13367513D02*
X15793715Y-13375132D01*
X15793715Y-13375132D02*
X15789906Y-13378941D01*
X15789906Y-13378941D02*
X15782287Y-13382751D01*
X15782287Y-13382751D02*
X15774668Y-13382751D01*
X15774668Y-13382751D02*
X15767048Y-13378941D01*
X15767048Y-13378941D02*
X15763239Y-13375132D01*
X15763239Y-13375132D02*
X15759429Y-13367513D01*
X15759429Y-13367513D02*
X15759429Y-13348465D01*
X15759429Y-13348465D02*
X15763239Y-13337036D01*
X15839429Y-13302751D02*
X15759429Y-13302751D01*
X15797525Y-13302751D02*
X15797525Y-13257036D01*
X15839429Y-13257036D02*
X15759429Y-13257036D01*
X14062178Y-12273601D02*
X14095511Y-12273601D01*
X14109797Y-12325982D02*
X14062178Y-12325982D01*
X14062178Y-12325982D02*
X14062178Y-12225982D01*
X14062178Y-12225982D02*
X14109797Y-12225982D01*
X14147892Y-12321220D02*
X14162178Y-12325982D01*
X14162178Y-12325982D02*
X14185987Y-12325982D01*
X14185987Y-12325982D02*
X14195511Y-12321220D01*
X14195511Y-12321220D02*
X14200273Y-12316458D01*
X14200273Y-12316458D02*
X14205035Y-12306934D01*
X14205035Y-12306934D02*
X14205035Y-12297410D01*
X14205035Y-12297410D02*
X14200273Y-12287887D01*
X14200273Y-12287887D02*
X14195511Y-12283125D01*
X14195511Y-12283125D02*
X14185987Y-12278363D01*
X14185987Y-12278363D02*
X14166940Y-12273601D01*
X14166940Y-12273601D02*
X14157416Y-12268839D01*
X14157416Y-12268839D02*
X14152654Y-12264077D01*
X14152654Y-12264077D02*
X14147892Y-12254553D01*
X14147892Y-12254553D02*
X14147892Y-12245029D01*
X14147892Y-12245029D02*
X14152654Y-12235506D01*
X14152654Y-12235506D02*
X14157416Y-12230744D01*
X14157416Y-12230744D02*
X14166940Y-12225982D01*
X14166940Y-12225982D02*
X14190749Y-12225982D01*
X14190749Y-12225982D02*
X14205035Y-12230744D01*
X14247892Y-12325982D02*
X14247892Y-12225982D01*
X14247892Y-12225982D02*
X14285987Y-12225982D01*
X14285987Y-12225982D02*
X14295511Y-12230744D01*
X14295511Y-12230744D02*
X14300273Y-12235506D01*
X14300273Y-12235506D02*
X14305035Y-12245029D01*
X14305035Y-12245029D02*
X14305035Y-12259315D01*
X14305035Y-12259315D02*
X14300273Y-12268839D01*
X14300273Y-12268839D02*
X14295511Y-12273601D01*
X14295511Y-12273601D02*
X14285987Y-12278363D01*
X14285987Y-12278363D02*
X14247892Y-12278363D01*
X14338368Y-12225982D02*
X14400273Y-12225982D01*
X14400273Y-12225982D02*
X14366940Y-12264077D01*
X14366940Y-12264077D02*
X14381225Y-12264077D01*
X14381225Y-12264077D02*
X14390749Y-12268839D01*
X14390749Y-12268839D02*
X14395511Y-12273601D01*
X14395511Y-12273601D02*
X14400273Y-12283125D01*
X14400273Y-12283125D02*
X14400273Y-12306934D01*
X14400273Y-12306934D02*
X14395511Y-12316458D01*
X14395511Y-12316458D02*
X14390749Y-12321220D01*
X14390749Y-12321220D02*
X14381225Y-12325982D01*
X14381225Y-12325982D02*
X14352654Y-12325982D01*
X14352654Y-12325982D02*
X14343130Y-12321220D01*
X14343130Y-12321220D02*
X14338368Y-12316458D01*
X14438368Y-12235506D02*
X14443130Y-12230744D01*
X14443130Y-12230744D02*
X14452654Y-12225982D01*
X14452654Y-12225982D02*
X14476464Y-12225982D01*
X14476464Y-12225982D02*
X14485987Y-12230744D01*
X14485987Y-12230744D02*
X14490749Y-12235506D01*
X14490749Y-12235506D02*
X14495511Y-12245029D01*
X14495511Y-12245029D02*
X14495511Y-12254553D01*
X14495511Y-12254553D02*
X14490749Y-12268839D01*
X14490749Y-12268839D02*
X14433606Y-12325982D01*
X14433606Y-12325982D02*
X14495511Y-12325982D01*
X14538368Y-12287887D02*
X14614559Y-12287887D01*
X14657416Y-12321220D02*
X14671702Y-12325982D01*
X14671702Y-12325982D02*
X14695511Y-12325982D01*
X14695511Y-12325982D02*
X14705035Y-12321220D01*
X14705035Y-12321220D02*
X14709797Y-12316458D01*
X14709797Y-12316458D02*
X14714559Y-12306934D01*
X14714559Y-12306934D02*
X14714559Y-12297410D01*
X14714559Y-12297410D02*
X14709797Y-12287887D01*
X14709797Y-12287887D02*
X14705035Y-12283125D01*
X14705035Y-12283125D02*
X14695511Y-12278363D01*
X14695511Y-12278363D02*
X14676464Y-12273601D01*
X14676464Y-12273601D02*
X14666940Y-12268839D01*
X14666940Y-12268839D02*
X14662178Y-12264077D01*
X14662178Y-12264077D02*
X14657416Y-12254553D01*
X14657416Y-12254553D02*
X14657416Y-12245029D01*
X14657416Y-12245029D02*
X14662178Y-12235506D01*
X14662178Y-12235506D02*
X14666940Y-12230744D01*
X14666940Y-12230744D02*
X14676464Y-12225982D01*
X14676464Y-12225982D02*
X14700273Y-12225982D01*
X14700273Y-12225982D02*
X14714559Y-12230744D01*
X14747892Y-12225982D02*
X14809797Y-12225982D01*
X14809797Y-12225982D02*
X14776464Y-12264077D01*
X14776464Y-12264077D02*
X14790749Y-12264077D01*
X14790749Y-12264077D02*
X14800273Y-12268839D01*
X14800273Y-12268839D02*
X14805035Y-12273601D01*
X14805035Y-12273601D02*
X14809797Y-12283125D01*
X14809797Y-12283125D02*
X14809797Y-12306934D01*
X14809797Y-12306934D02*
X14805035Y-12316458D01*
X14805035Y-12316458D02*
X14800273Y-12321220D01*
X14800273Y-12321220D02*
X14790749Y-12325982D01*
X14790749Y-12325982D02*
X14762178Y-12325982D01*
X14762178Y-12325982D02*
X14752654Y-12321220D01*
X14752654Y-12321220D02*
X14747892Y-12316458D01*
X11808106Y-15030620D02*
X11819535Y-15034429D01*
X11819535Y-15034429D02*
X11838583Y-15034429D01*
X11838583Y-15034429D02*
X11846202Y-15030620D01*
X11846202Y-15030620D02*
X11850011Y-15026810D01*
X11850011Y-15026810D02*
X11853821Y-15019191D01*
X11853821Y-15019191D02*
X11853821Y-15011572D01*
X11853821Y-15011572D02*
X11850011Y-15003953D01*
X11850011Y-15003953D02*
X11846202Y-15000144D01*
X11846202Y-15000144D02*
X11838583Y-14996334D01*
X11838583Y-14996334D02*
X11823344Y-14992525D01*
X11823344Y-14992525D02*
X11815725Y-14988715D01*
X11815725Y-14988715D02*
X11811916Y-14984906D01*
X11811916Y-14984906D02*
X11808106Y-14977287D01*
X11808106Y-14977287D02*
X11808106Y-14969668D01*
X11808106Y-14969668D02*
X11811916Y-14962048D01*
X11811916Y-14962048D02*
X11815725Y-14958239D01*
X11815725Y-14958239D02*
X11823344Y-14954429D01*
X11823344Y-14954429D02*
X11842392Y-14954429D01*
X11842392Y-14954429D02*
X11853821Y-14958239D01*
X11888106Y-15034429D02*
X11888106Y-14954429D01*
X11888106Y-14954429D02*
X11918583Y-14954429D01*
X11918583Y-14954429D02*
X11926202Y-14958239D01*
X11926202Y-14958239D02*
X11930011Y-14962048D01*
X11930011Y-14962048D02*
X11933821Y-14969668D01*
X11933821Y-14969668D02*
X11933821Y-14981096D01*
X11933821Y-14981096D02*
X11930011Y-14988715D01*
X11930011Y-14988715D02*
X11926202Y-14992525D01*
X11926202Y-14992525D02*
X11918583Y-14996334D01*
X11918583Y-14996334D02*
X11888106Y-14996334D01*
X11968106Y-15034429D02*
X11968106Y-14954429D01*
X11987154Y-15042048D02*
X12048106Y-15042048D01*
X12082392Y-14954429D02*
X12097630Y-14954429D01*
X12097630Y-14954429D02*
X12105249Y-14958239D01*
X12105249Y-14958239D02*
X12112868Y-14965858D01*
X12112868Y-14965858D02*
X12116678Y-14981096D01*
X12116678Y-14981096D02*
X12116678Y-15007763D01*
X12116678Y-15007763D02*
X12112868Y-15023001D01*
X12112868Y-15023001D02*
X12105249Y-15030620D01*
X12105249Y-15030620D02*
X12097630Y-15034429D01*
X12097630Y-15034429D02*
X12082392Y-15034429D01*
X12082392Y-15034429D02*
X12074773Y-15030620D01*
X12074773Y-15030620D02*
X12067154Y-15023001D01*
X12067154Y-15023001D02*
X12063344Y-15007763D01*
X12063344Y-15007763D02*
X12063344Y-14981096D01*
X12063344Y-14981096D02*
X12067154Y-14965858D01*
X12067154Y-14965858D02*
X12074773Y-14958239D01*
X12074773Y-14958239D02*
X12082392Y-14954429D01*
X12189059Y-15034429D02*
X12150964Y-15034429D01*
X12150964Y-15034429D02*
X12150964Y-14954429D01*
X12215725Y-14992525D02*
X12242392Y-14992525D01*
X12253821Y-15034429D02*
X12215725Y-15034429D01*
X12215725Y-15034429D02*
X12215725Y-14954429D01*
X12215725Y-14954429D02*
X12253821Y-14954429D01*
X12288106Y-15034429D02*
X12288106Y-14954429D01*
X12288106Y-14954429D02*
X12307154Y-14954429D01*
X12307154Y-14954429D02*
X12318583Y-14958239D01*
X12318583Y-14958239D02*
X12326202Y-14965858D01*
X12326202Y-14965858D02*
X12330011Y-14973477D01*
X12330011Y-14973477D02*
X12333821Y-14988715D01*
X12333821Y-14988715D02*
X12333821Y-15000144D01*
X12333821Y-15000144D02*
X12330011Y-15015382D01*
X12330011Y-15015382D02*
X12326202Y-15023001D01*
X12326202Y-15023001D02*
X12318583Y-15030620D01*
X12318583Y-15030620D02*
X12307154Y-15034429D01*
X12307154Y-15034429D02*
X12288106Y-15034429D01*
X18363815Y-13428571D02*
X18430482Y-13428571D01*
X18325720Y-13452381D02*
X18397149Y-13476190D01*
X18397149Y-13476190D02*
X18397149Y-13414286D01*
X18363815Y-13333333D02*
X18430482Y-13333333D01*
X18325720Y-13357143D02*
X18397149Y-13380952D01*
X18397149Y-13380952D02*
X18397149Y-13319048D01*
D11*
X18550000Y-11200000D02*
X18558642Y-11200000D01*
X18550000Y-15600000D02*
X18558642Y-15600000D01*
X18500000Y-11200000D02*
X18500000Y-15600000D01*
X18500000Y-11200000D02*
X18558642Y-11312650D01*
X18500000Y-11200000D02*
X18441358Y-11312650D01*
X18500000Y-15600000D02*
X18441358Y-15487350D01*
X18500000Y-15600000D02*
X18558642Y-15487350D01*
D10*
X15071428Y-11030482D02*
X15052381Y-11030482D01*
X15052381Y-11030482D02*
X15042857Y-11035244D01*
X15042857Y-11035244D02*
X15038095Y-11040006D01*
X15038095Y-11040006D02*
X15028571Y-11054291D01*
X15028571Y-11054291D02*
X15023809Y-11073339D01*
X15023809Y-11073339D02*
X15023809Y-11111434D01*
X15023809Y-11111434D02*
X15028571Y-11120958D01*
X15028571Y-11120958D02*
X15033333Y-11125720D01*
X15033333Y-11125720D02*
X15042857Y-11130482D01*
X15042857Y-11130482D02*
X15061905Y-11130482D01*
X15061905Y-11130482D02*
X15071428Y-11125720D01*
X15071428Y-11125720D02*
X15076190Y-11120958D01*
X15076190Y-11120958D02*
X15080952Y-11111434D01*
X15080952Y-11111434D02*
X15080952Y-11087625D01*
X15080952Y-11087625D02*
X15076190Y-11078101D01*
X15076190Y-11078101D02*
X15071428Y-11073339D01*
X15071428Y-11073339D02*
X15061905Y-11068577D01*
X15061905Y-11068577D02*
X15042857Y-11068577D01*
X15042857Y-11068577D02*
X15033333Y-11073339D01*
X15033333Y-11073339D02*
X15028571Y-11078101D01*
X15028571Y-11078101D02*
X15023809Y-11087625D01*
X15138095Y-11073339D02*
X15128571Y-11068577D01*
X15128571Y-11068577D02*
X15123809Y-11063815D01*
X15123809Y-11063815D02*
X15119048Y-11054291D01*
X15119048Y-11054291D02*
X15119048Y-11049530D01*
X15119048Y-11049530D02*
X15123809Y-11040006D01*
X15123809Y-11040006D02*
X15128571Y-11035244D01*
X15128571Y-11035244D02*
X15138095Y-11030482D01*
X15138095Y-11030482D02*
X15157143Y-11030482D01*
X15157143Y-11030482D02*
X15166667Y-11035244D01*
X15166667Y-11035244D02*
X15171428Y-11040006D01*
X15171428Y-11040006D02*
X15176190Y-11049530D01*
X15176190Y-11049530D02*
X15176190Y-11054291D01*
X15176190Y-11054291D02*
X15171428Y-11063815D01*
X15171428Y-11063815D02*
X15166667Y-11068577D01*
X15166667Y-11068577D02*
X15157143Y-11073339D01*
X15157143Y-11073339D02*
X15138095Y-11073339D01*
X15138095Y-11073339D02*
X15128571Y-11078101D01*
X15128571Y-11078101D02*
X15123809Y-11082863D01*
X15123809Y-11082863D02*
X15119048Y-11092387D01*
X15119048Y-11092387D02*
X15119048Y-11111434D01*
X15119048Y-11111434D02*
X15123809Y-11120958D01*
X15123809Y-11120958D02*
X15128571Y-11125720D01*
X15128571Y-11125720D02*
X15138095Y-11130482D01*
X15138095Y-11130482D02*
X15157143Y-11130482D01*
X15157143Y-11130482D02*
X15166667Y-11125720D01*
X15166667Y-11125720D02*
X15171428Y-11120958D01*
X15171428Y-11120958D02*
X15176190Y-11111434D01*
X15176190Y-11111434D02*
X15176190Y-11092387D01*
X15176190Y-11092387D02*
X15171428Y-11082863D01*
X15171428Y-11082863D02*
X15166667Y-11078101D01*
X15166667Y-11078101D02*
X15157143Y-11073339D01*
D11*
X11700000Y-11150000D02*
X11700000Y-11141358D01*
X18500000Y-11150000D02*
X18500000Y-11141358D01*
X11700000Y-11200000D02*
X18500000Y-11200000D01*
X11700000Y-11200000D02*
X11812650Y-11141358D01*
X11700000Y-11200000D02*
X11812650Y-11258642D01*
X18500000Y-11200000D02*
X18387350Y-11258642D01*
X18500000Y-11200000D02*
X18387350Y-11141358D01*
X16636714Y-14338870D02*
X16631952Y-14342680D01*
X16631952Y-14342680D02*
X16617667Y-14346489D01*
X16617667Y-14346489D02*
X16608143Y-14346489D01*
X16608143Y-14346489D02*
X16593857Y-14342680D01*
X16593857Y-14342680D02*
X16584333Y-14335061D01*
X16584333Y-14335061D02*
X16579571Y-14327442D01*
X16579571Y-14327442D02*
X16574809Y-14312204D01*
X16574809Y-14312204D02*
X16574809Y-14300775D01*
X16574809Y-14300775D02*
X16579571Y-14285537D01*
X16579571Y-14285537D02*
X16584333Y-14277918D01*
X16584333Y-14277918D02*
X16593857Y-14270299D01*
X16593857Y-14270299D02*
X16608143Y-14266489D01*
X16608143Y-14266489D02*
X16617667Y-14266489D01*
X16617667Y-14266489D02*
X16631952Y-14270299D01*
X16631952Y-14270299D02*
X16636714Y-14274108D01*
X16674809Y-14274108D02*
X16679571Y-14270299D01*
X16679571Y-14270299D02*
X16689095Y-14266489D01*
X16689095Y-14266489D02*
X16712905Y-14266489D01*
X16712905Y-14266489D02*
X16722428Y-14270299D01*
X16722428Y-14270299D02*
X16727190Y-14274108D01*
X16727190Y-14274108D02*
X16731952Y-14281728D01*
X16731952Y-14281728D02*
X16731952Y-14289347D01*
X16731952Y-14289347D02*
X16727190Y-14300775D01*
X16727190Y-14300775D02*
X16670048Y-14346489D01*
X16670048Y-14346489D02*
X16731952Y-14346489D01*
X16770048Y-14274108D02*
X16774809Y-14270299D01*
X16774809Y-14270299D02*
X16784333Y-14266489D01*
X16784333Y-14266489D02*
X16808143Y-14266489D01*
X16808143Y-14266489D02*
X16817667Y-14270299D01*
X16817667Y-14270299D02*
X16822429Y-14274108D01*
X16822429Y-14274108D02*
X16827190Y-14281728D01*
X16827190Y-14281728D02*
X16827190Y-14289347D01*
X16827190Y-14289347D02*
X16822429Y-14300775D01*
X16822429Y-14300775D02*
X16765286Y-14346489D01*
X16765286Y-14346489D02*
X16827190Y-14346489D01*
X12728870Y-11994286D02*
X12732680Y-11999048D01*
X12732680Y-11999048D02*
X12736490Y-12013333D01*
X12736490Y-12013333D02*
X12736490Y-12022857D01*
X12736490Y-12022857D02*
X12732680Y-12037143D01*
X12732680Y-12037143D02*
X12725061Y-12046667D01*
X12725061Y-12046667D02*
X12717442Y-12051428D01*
X12717442Y-12051428D02*
X12702204Y-12056190D01*
X12702204Y-12056190D02*
X12690775Y-12056190D01*
X12690775Y-12056190D02*
X12675537Y-12051428D01*
X12675537Y-12051428D02*
X12667918Y-12046667D01*
X12667918Y-12046667D02*
X12660299Y-12037143D01*
X12660299Y-12037143D02*
X12656490Y-12022857D01*
X12656490Y-12022857D02*
X12656490Y-12013333D01*
X12656490Y-12013333D02*
X12660299Y-11999048D01*
X12660299Y-11999048D02*
X12664109Y-11994286D01*
X12664109Y-11956190D02*
X12660299Y-11951428D01*
X12660299Y-11951428D02*
X12656490Y-11941905D01*
X12656490Y-11941905D02*
X12656490Y-11918095D01*
X12656490Y-11918095D02*
X12660299Y-11908571D01*
X12660299Y-11908571D02*
X12664109Y-11903809D01*
X12664109Y-11903809D02*
X12671728Y-11899048D01*
X12671728Y-11899048D02*
X12679347Y-11899048D01*
X12679347Y-11899048D02*
X12690775Y-11903809D01*
X12690775Y-11903809D02*
X12736490Y-11960952D01*
X12736490Y-11960952D02*
X12736490Y-11899048D01*
X12690775Y-11841905D02*
X12686966Y-11851428D01*
X12686966Y-11851428D02*
X12683156Y-11856190D01*
X12683156Y-11856190D02*
X12675537Y-11860952D01*
X12675537Y-11860952D02*
X12671728Y-11860952D01*
X12671728Y-11860952D02*
X12664109Y-11856190D01*
X12664109Y-11856190D02*
X12660299Y-11851428D01*
X12660299Y-11851428D02*
X12656490Y-11841905D01*
X12656490Y-11841905D02*
X12656490Y-11822857D01*
X12656490Y-11822857D02*
X12660299Y-11813333D01*
X12660299Y-11813333D02*
X12664109Y-11808571D01*
X12664109Y-11808571D02*
X12671728Y-11803809D01*
X12671728Y-11803809D02*
X12675537Y-11803809D01*
X12675537Y-11803809D02*
X12683156Y-11808571D01*
X12683156Y-11808571D02*
X12686966Y-11813333D01*
X12686966Y-11813333D02*
X12690775Y-11822857D01*
X12690775Y-11822857D02*
X12690775Y-11841905D01*
X12690775Y-11841905D02*
X12694585Y-11851428D01*
X12694585Y-11851428D02*
X12698394Y-11856190D01*
X12698394Y-11856190D02*
X12706013Y-11860952D01*
X12706013Y-11860952D02*
X12721251Y-11860952D01*
X12721251Y-11860952D02*
X12728870Y-11856190D01*
X12728870Y-11856190D02*
X12732680Y-11851428D01*
X12732680Y-11851428D02*
X12736490Y-11841905D01*
X12736490Y-11841905D02*
X12736490Y-11822857D01*
X12736490Y-11822857D02*
X12732680Y-11813333D01*
X12732680Y-11813333D02*
X12728870Y-11808571D01*
X12728870Y-11808571D02*
X12721251Y-11803809D01*
X12721251Y-11803809D02*
X12706013Y-11803809D01*
X12706013Y-11803809D02*
X12698394Y-11808571D01*
X12698394Y-11808571D02*
X12694585Y-11813333D01*
X12694585Y-11813333D02*
X12690775Y-11822857D01*
X14256714Y-13628870D02*
X14251952Y-13632680D01*
X14251952Y-13632680D02*
X14237667Y-13636489D01*
X14237667Y-13636489D02*
X14228143Y-13636489D01*
X14228143Y-13636489D02*
X14213857Y-13632680D01*
X14213857Y-13632680D02*
X14204333Y-13625061D01*
X14204333Y-13625061D02*
X14199571Y-13617442D01*
X14199571Y-13617442D02*
X14194809Y-13602204D01*
X14194809Y-13602204D02*
X14194809Y-13590775D01*
X14194809Y-13590775D02*
X14199571Y-13575537D01*
X14199571Y-13575537D02*
X14204333Y-13567918D01*
X14204333Y-13567918D02*
X14213857Y-13560299D01*
X14213857Y-13560299D02*
X14228143Y-13556489D01*
X14228143Y-13556489D02*
X14237667Y-13556489D01*
X14237667Y-13556489D02*
X14251952Y-13560299D01*
X14251952Y-13560299D02*
X14256714Y-13564108D01*
X14294809Y-13564108D02*
X14299571Y-13560299D01*
X14299571Y-13560299D02*
X14309095Y-13556489D01*
X14309095Y-13556489D02*
X14332905Y-13556489D01*
X14332905Y-13556489D02*
X14342428Y-13560299D01*
X14342428Y-13560299D02*
X14347190Y-13564108D01*
X14347190Y-13564108D02*
X14351952Y-13571728D01*
X14351952Y-13571728D02*
X14351952Y-13579347D01*
X14351952Y-13579347D02*
X14347190Y-13590775D01*
X14347190Y-13590775D02*
X14290048Y-13636489D01*
X14290048Y-13636489D02*
X14351952Y-13636489D01*
X14437667Y-13583156D02*
X14437667Y-13636489D01*
X14413857Y-13552680D02*
X14390048Y-13609823D01*
X14390048Y-13609823D02*
X14451952Y-13609823D01*
X15436489Y-12192667D02*
X15398394Y-12226000D01*
X15436489Y-12249809D02*
X15356489Y-12249809D01*
X15356489Y-12249809D02*
X15356489Y-12211714D01*
X15356489Y-12211714D02*
X15360299Y-12202190D01*
X15360299Y-12202190D02*
X15364108Y-12197428D01*
X15364108Y-12197428D02*
X15371728Y-12192667D01*
X15371728Y-12192667D02*
X15383156Y-12192667D01*
X15383156Y-12192667D02*
X15390775Y-12197428D01*
X15390775Y-12197428D02*
X15394585Y-12202190D01*
X15394585Y-12202190D02*
X15398394Y-12211714D01*
X15398394Y-12211714D02*
X15398394Y-12249809D01*
X15390775Y-12135524D02*
X15386966Y-12145047D01*
X15386966Y-12145047D02*
X15383156Y-12149809D01*
X15383156Y-12149809D02*
X15375537Y-12154571D01*
X15375537Y-12154571D02*
X15371728Y-12154571D01*
X15371728Y-12154571D02*
X15364108Y-12149809D01*
X15364108Y-12149809D02*
X15360299Y-12145047D01*
X15360299Y-12145047D02*
X15356489Y-12135524D01*
X15356489Y-12135524D02*
X15356489Y-12116476D01*
X15356489Y-12116476D02*
X15360299Y-12106952D01*
X15360299Y-12106952D02*
X15364108Y-12102190D01*
X15364108Y-12102190D02*
X15371728Y-12097428D01*
X15371728Y-12097428D02*
X15375537Y-12097428D01*
X15375537Y-12097428D02*
X15383156Y-12102190D01*
X15383156Y-12102190D02*
X15386966Y-12106952D01*
X15386966Y-12106952D02*
X15390775Y-12116476D01*
X15390775Y-12116476D02*
X15390775Y-12135524D01*
X15390775Y-12135524D02*
X15394585Y-12145047D01*
X15394585Y-12145047D02*
X15398394Y-12149809D01*
X15398394Y-12149809D02*
X15406013Y-12154571D01*
X15406013Y-12154571D02*
X15421251Y-12154571D01*
X15421251Y-12154571D02*
X15428870Y-12149809D01*
X15428870Y-12149809D02*
X15432680Y-12145047D01*
X15432680Y-12145047D02*
X15436489Y-12135524D01*
X15436489Y-12135524D02*
X15436489Y-12116476D01*
X15436489Y-12116476D02*
X15432680Y-12106952D01*
X15432680Y-12106952D02*
X15428870Y-12102190D01*
X15428870Y-12102190D02*
X15421251Y-12097428D01*
X15421251Y-12097428D02*
X15406013Y-12097428D01*
X15406013Y-12097428D02*
X15398394Y-12102190D01*
X15398394Y-12102190D02*
X15394585Y-12106952D01*
X15394585Y-12106952D02*
X15390775Y-12116476D01*
X15636489Y-12192667D02*
X15598394Y-12226000D01*
X15636489Y-12249809D02*
X15556489Y-12249809D01*
X15556489Y-12249809D02*
X15556489Y-12211714D01*
X15556489Y-12211714D02*
X15560299Y-12202190D01*
X15560299Y-12202190D02*
X15564108Y-12197428D01*
X15564108Y-12197428D02*
X15571728Y-12192667D01*
X15571728Y-12192667D02*
X15583156Y-12192667D01*
X15583156Y-12192667D02*
X15590775Y-12197428D01*
X15590775Y-12197428D02*
X15594585Y-12202190D01*
X15594585Y-12202190D02*
X15598394Y-12211714D01*
X15598394Y-12211714D02*
X15598394Y-12249809D01*
X15636489Y-12145047D02*
X15636489Y-12126000D01*
X15636489Y-12126000D02*
X15632680Y-12116476D01*
X15632680Y-12116476D02*
X15628870Y-12111714D01*
X15628870Y-12111714D02*
X15617442Y-12102190D01*
X15617442Y-12102190D02*
X15602204Y-12097428D01*
X15602204Y-12097428D02*
X15571728Y-12097428D01*
X15571728Y-12097428D02*
X15564108Y-12102190D01*
X15564108Y-12102190D02*
X15560299Y-12106952D01*
X15560299Y-12106952D02*
X15556489Y-12116476D01*
X15556489Y-12116476D02*
X15556489Y-12135524D01*
X15556489Y-12135524D02*
X15560299Y-12145047D01*
X15560299Y-12145047D02*
X15564108Y-12149809D01*
X15564108Y-12149809D02*
X15571728Y-12154571D01*
X15571728Y-12154571D02*
X15590775Y-12154571D01*
X15590775Y-12154571D02*
X15598394Y-12149809D01*
X15598394Y-12149809D02*
X15602204Y-12145047D01*
X15602204Y-12145047D02*
X15606013Y-12135524D01*
X15606013Y-12135524D02*
X15606013Y-12116476D01*
X15606013Y-12116476D02*
X15602204Y-12106952D01*
X15602204Y-12106952D02*
X15598394Y-12102190D01*
X15598394Y-12102190D02*
X15590775Y-12097428D01*
X13703870Y-11994286D02*
X13707680Y-11999048D01*
X13707680Y-11999048D02*
X13711490Y-12013333D01*
X13711490Y-12013333D02*
X13711490Y-12022857D01*
X13711490Y-12022857D02*
X13707680Y-12037143D01*
X13707680Y-12037143D02*
X13700061Y-12046667D01*
X13700061Y-12046667D02*
X13692442Y-12051428D01*
X13692442Y-12051428D02*
X13677204Y-12056190D01*
X13677204Y-12056190D02*
X13665775Y-12056190D01*
X13665775Y-12056190D02*
X13650537Y-12051428D01*
X13650537Y-12051428D02*
X13642918Y-12046667D01*
X13642918Y-12046667D02*
X13635299Y-12037143D01*
X13635299Y-12037143D02*
X13631490Y-12022857D01*
X13631490Y-12022857D02*
X13631490Y-12013333D01*
X13631490Y-12013333D02*
X13635299Y-11999048D01*
X13635299Y-11999048D02*
X13639109Y-11994286D01*
X13711490Y-11899048D02*
X13711490Y-11956190D01*
X13711490Y-11927619D02*
X13631490Y-11927619D01*
X13631490Y-11927619D02*
X13642918Y-11937143D01*
X13642918Y-11937143D02*
X13650537Y-11946667D01*
X13650537Y-11946667D02*
X13654347Y-11956190D01*
X13631490Y-11837143D02*
X13631490Y-11827619D01*
X13631490Y-11827619D02*
X13635299Y-11818095D01*
X13635299Y-11818095D02*
X13639109Y-11813333D01*
X13639109Y-11813333D02*
X13646728Y-11808571D01*
X13646728Y-11808571D02*
X13661966Y-11803809D01*
X13661966Y-11803809D02*
X13681013Y-11803809D01*
X13681013Y-11803809D02*
X13696251Y-11808571D01*
X13696251Y-11808571D02*
X13703870Y-11813333D01*
X13703870Y-11813333D02*
X13707680Y-11818095D01*
X13707680Y-11818095D02*
X13711490Y-11827619D01*
X13711490Y-11827619D02*
X13711490Y-11837143D01*
X13711490Y-11837143D02*
X13707680Y-11846667D01*
X13707680Y-11846667D02*
X13703870Y-11851428D01*
X13703870Y-11851428D02*
X13696251Y-11856190D01*
X13696251Y-11856190D02*
X13681013Y-11860952D01*
X13681013Y-11860952D02*
X13661966Y-11860952D01*
X13661966Y-11860952D02*
X13646728Y-11856190D01*
X13646728Y-11856190D02*
X13639109Y-11851428D01*
X13639109Y-11851428D02*
X13635299Y-11846667D01*
X13635299Y-11846667D02*
X13631490Y-11837143D01*
X13323809Y-13856489D02*
X13323809Y-13921251D01*
X13323809Y-13921251D02*
X13328571Y-13928870D01*
X13328571Y-13928870D02*
X13333333Y-13932680D01*
X13333333Y-13932680D02*
X13342857Y-13936489D01*
X13342857Y-13936489D02*
X13361905Y-13936489D01*
X13361905Y-13936489D02*
X13371428Y-13932680D01*
X13371428Y-13932680D02*
X13376190Y-13928870D01*
X13376190Y-13928870D02*
X13380952Y-13921251D01*
X13380952Y-13921251D02*
X13380952Y-13856489D01*
X13480952Y-13936489D02*
X13423809Y-13936489D01*
X13452381Y-13936489D02*
X13452381Y-13856489D01*
X13452381Y-13856489D02*
X13442857Y-13867918D01*
X13442857Y-13867918D02*
X13433333Y-13875537D01*
X13433333Y-13875537D02*
X13423809Y-13879347D01*
X15858714Y-14318870D02*
X15853952Y-14322680D01*
X15853952Y-14322680D02*
X15839667Y-14326489D01*
X15839667Y-14326489D02*
X15830143Y-14326489D01*
X15830143Y-14326489D02*
X15815857Y-14322680D01*
X15815857Y-14322680D02*
X15806333Y-14315061D01*
X15806333Y-14315061D02*
X15801571Y-14307442D01*
X15801571Y-14307442D02*
X15796809Y-14292204D01*
X15796809Y-14292204D02*
X15796809Y-14280775D01*
X15796809Y-14280775D02*
X15801571Y-14265537D01*
X15801571Y-14265537D02*
X15806333Y-14257918D01*
X15806333Y-14257918D02*
X15815857Y-14250299D01*
X15815857Y-14250299D02*
X15830143Y-14246489D01*
X15830143Y-14246489D02*
X15839667Y-14246489D01*
X15839667Y-14246489D02*
X15853952Y-14250299D01*
X15853952Y-14250299D02*
X15858714Y-14254108D01*
X15896809Y-14254108D02*
X15901571Y-14250299D01*
X15901571Y-14250299D02*
X15911095Y-14246489D01*
X15911095Y-14246489D02*
X15934905Y-14246489D01*
X15934905Y-14246489D02*
X15944428Y-14250299D01*
X15944428Y-14250299D02*
X15949190Y-14254108D01*
X15949190Y-14254108D02*
X15953952Y-14261728D01*
X15953952Y-14261728D02*
X15953952Y-14269347D01*
X15953952Y-14269347D02*
X15949190Y-14280775D01*
X15949190Y-14280775D02*
X15892048Y-14326489D01*
X15892048Y-14326489D02*
X15953952Y-14326489D01*
X15987286Y-14246489D02*
X16049190Y-14246489D01*
X16049190Y-14246489D02*
X16015857Y-14276966D01*
X16015857Y-14276966D02*
X16030143Y-14276966D01*
X16030143Y-14276966D02*
X16039667Y-14280775D01*
X16039667Y-14280775D02*
X16044428Y-14284585D01*
X16044428Y-14284585D02*
X16049190Y-14292204D01*
X16049190Y-14292204D02*
X16049190Y-14311251D01*
X16049190Y-14311251D02*
X16044428Y-14318870D01*
X16044428Y-14318870D02*
X16039667Y-14322680D01*
X16039667Y-14322680D02*
X16030143Y-14326489D01*
X16030143Y-14326489D02*
X16001571Y-14326489D01*
X16001571Y-14326489D02*
X15992048Y-14322680D01*
X15992048Y-14322680D02*
X15987286Y-14318870D01*
X14668714Y-12112489D02*
X14635381Y-12074394D01*
X14611571Y-12112489D02*
X14611571Y-12032489D01*
X14611571Y-12032489D02*
X14649667Y-12032489D01*
X14649667Y-12032489D02*
X14659190Y-12036299D01*
X14659190Y-12036299D02*
X14663952Y-12040108D01*
X14663952Y-12040108D02*
X14668714Y-12047728D01*
X14668714Y-12047728D02*
X14668714Y-12059156D01*
X14668714Y-12059156D02*
X14663952Y-12066775D01*
X14663952Y-12066775D02*
X14659190Y-12070585D01*
X14659190Y-12070585D02*
X14649667Y-12074394D01*
X14649667Y-12074394D02*
X14611571Y-12074394D01*
X14763952Y-12112489D02*
X14706809Y-12112489D01*
X14735381Y-12112489D02*
X14735381Y-12032489D01*
X14735381Y-12032489D02*
X14725857Y-12043918D01*
X14725857Y-12043918D02*
X14716333Y-12051537D01*
X14716333Y-12051537D02*
X14706809Y-12055347D01*
X14854428Y-12032489D02*
X14806809Y-12032489D01*
X14806809Y-12032489D02*
X14802048Y-12070585D01*
X14802048Y-12070585D02*
X14806809Y-12066775D01*
X14806809Y-12066775D02*
X14816333Y-12062966D01*
X14816333Y-12062966D02*
X14840143Y-12062966D01*
X14840143Y-12062966D02*
X14849667Y-12066775D01*
X14849667Y-12066775D02*
X14854428Y-12070585D01*
X14854428Y-12070585D02*
X14859190Y-12078204D01*
X14859190Y-12078204D02*
X14859190Y-12097251D01*
X14859190Y-12097251D02*
X14854428Y-12104870D01*
X14854428Y-12104870D02*
X14849667Y-12108680D01*
X14849667Y-12108680D02*
X14840143Y-12112489D01*
X14840143Y-12112489D02*
X14816333Y-12112489D01*
X14816333Y-12112489D02*
X14806809Y-12108680D01*
X14806809Y-12108680D02*
X14802048Y-12104870D01*
X15834489Y-12403190D02*
X15899251Y-12403190D01*
X15899251Y-12403190D02*
X15906870Y-12398428D01*
X15906870Y-12398428D02*
X15910680Y-12393667D01*
X15910680Y-12393667D02*
X15914489Y-12384143D01*
X15914489Y-12384143D02*
X15914489Y-12365095D01*
X15914489Y-12365095D02*
X15910680Y-12355571D01*
X15910680Y-12355571D02*
X15906870Y-12350809D01*
X15906870Y-12350809D02*
X15899251Y-12346048D01*
X15899251Y-12346048D02*
X15834489Y-12346048D01*
X15834489Y-12250809D02*
X15834489Y-12298428D01*
X15834489Y-12298428D02*
X15872585Y-12303190D01*
X15872585Y-12303190D02*
X15868775Y-12298428D01*
X15868775Y-12298428D02*
X15864966Y-12288905D01*
X15864966Y-12288905D02*
X15864966Y-12265095D01*
X15864966Y-12265095D02*
X15868775Y-12255571D01*
X15868775Y-12255571D02*
X15872585Y-12250809D01*
X15872585Y-12250809D02*
X15880204Y-12246048D01*
X15880204Y-12246048D02*
X15899251Y-12246048D01*
X15899251Y-12246048D02*
X15906870Y-12250809D01*
X15906870Y-12250809D02*
X15910680Y-12255571D01*
X15910680Y-12255571D02*
X15914489Y-12265095D01*
X15914489Y-12265095D02*
X15914489Y-12288905D01*
X15914489Y-12288905D02*
X15910680Y-12298428D01*
X15910680Y-12298428D02*
X15906870Y-12303190D01*
X14245333Y-14738489D02*
X14212000Y-14700394D01*
X14188190Y-14738489D02*
X14188190Y-14658489D01*
X14188190Y-14658489D02*
X14226286Y-14658489D01*
X14226286Y-14658489D02*
X14235809Y-14662299D01*
X14235809Y-14662299D02*
X14240571Y-14666108D01*
X14240571Y-14666108D02*
X14245333Y-14673728D01*
X14245333Y-14673728D02*
X14245333Y-14685156D01*
X14245333Y-14685156D02*
X14240571Y-14692775D01*
X14240571Y-14692775D02*
X14235809Y-14696585D01*
X14235809Y-14696585D02*
X14226286Y-14700394D01*
X14226286Y-14700394D02*
X14188190Y-14700394D01*
X14278667Y-14658489D02*
X14340571Y-14658489D01*
X14340571Y-14658489D02*
X14307238Y-14688966D01*
X14307238Y-14688966D02*
X14321524Y-14688966D01*
X14321524Y-14688966D02*
X14331048Y-14692775D01*
X14331048Y-14692775D02*
X14335809Y-14696585D01*
X14335809Y-14696585D02*
X14340571Y-14704204D01*
X14340571Y-14704204D02*
X14340571Y-14723251D01*
X14340571Y-14723251D02*
X14335809Y-14730870D01*
X14335809Y-14730870D02*
X14331048Y-14734680D01*
X14331048Y-14734680D02*
X14321524Y-14738489D01*
X14321524Y-14738489D02*
X14292952Y-14738489D01*
X14292952Y-14738489D02*
X14283429Y-14734680D01*
X14283429Y-14734680D02*
X14278667Y-14730870D01*
X12305714Y-12628870D02*
X12300952Y-12632680D01*
X12300952Y-12632680D02*
X12286667Y-12636489D01*
X12286667Y-12636489D02*
X12277143Y-12636489D01*
X12277143Y-12636489D02*
X12262857Y-12632680D01*
X12262857Y-12632680D02*
X12253333Y-12625061D01*
X12253333Y-12625061D02*
X12248571Y-12617442D01*
X12248571Y-12617442D02*
X12243809Y-12602204D01*
X12243809Y-12602204D02*
X12243809Y-12590775D01*
X12243809Y-12590775D02*
X12248571Y-12575537D01*
X12248571Y-12575537D02*
X12253333Y-12567918D01*
X12253333Y-12567918D02*
X12262857Y-12560299D01*
X12262857Y-12560299D02*
X12277143Y-12556489D01*
X12277143Y-12556489D02*
X12286667Y-12556489D01*
X12286667Y-12556489D02*
X12300952Y-12560299D01*
X12300952Y-12560299D02*
X12305714Y-12564108D01*
X12343809Y-12564108D02*
X12348571Y-12560299D01*
X12348571Y-12560299D02*
X12358095Y-12556489D01*
X12358095Y-12556489D02*
X12381905Y-12556489D01*
X12381905Y-12556489D02*
X12391428Y-12560299D01*
X12391428Y-12560299D02*
X12396190Y-12564108D01*
X12396190Y-12564108D02*
X12400952Y-12571728D01*
X12400952Y-12571728D02*
X12400952Y-12579347D01*
X12400952Y-12579347D02*
X12396190Y-12590775D01*
X12396190Y-12590775D02*
X12339048Y-12636489D01*
X12339048Y-12636489D02*
X12400952Y-12636489D01*
X12462857Y-12556489D02*
X12472381Y-12556489D01*
X12472381Y-12556489D02*
X12481905Y-12560299D01*
X12481905Y-12560299D02*
X12486667Y-12564108D01*
X12486667Y-12564108D02*
X12491428Y-12571728D01*
X12491428Y-12571728D02*
X12496190Y-12586966D01*
X12496190Y-12586966D02*
X12496190Y-12606013D01*
X12496190Y-12606013D02*
X12491428Y-12621251D01*
X12491428Y-12621251D02*
X12486667Y-12628870D01*
X12486667Y-12628870D02*
X12481905Y-12632680D01*
X12481905Y-12632680D02*
X12472381Y-12636489D01*
X12472381Y-12636489D02*
X12462857Y-12636489D01*
X12462857Y-12636489D02*
X12453333Y-12632680D01*
X12453333Y-12632680D02*
X12448571Y-12628870D01*
X12448571Y-12628870D02*
X12443809Y-12621251D01*
X12443809Y-12621251D02*
X12439048Y-12606013D01*
X12439048Y-12606013D02*
X12439048Y-12586966D01*
X12439048Y-12586966D02*
X12443809Y-12571728D01*
X12443809Y-12571728D02*
X12448571Y-12564108D01*
X12448571Y-12564108D02*
X12453333Y-12560299D01*
X12453333Y-12560299D02*
X12462857Y-12556489D01*
X18293191Y-12434489D02*
X18293191Y-12354489D01*
X18293191Y-12354489D02*
X18317000Y-12354489D01*
X18317000Y-12354489D02*
X18331286Y-12358299D01*
X18331286Y-12358299D02*
X18340810Y-12365918D01*
X18340810Y-12365918D02*
X18345571Y-12373537D01*
X18345571Y-12373537D02*
X18350333Y-12388775D01*
X18350333Y-12388775D02*
X18350333Y-12400204D01*
X18350333Y-12400204D02*
X18345571Y-12415442D01*
X18345571Y-12415442D02*
X18340810Y-12423061D01*
X18340810Y-12423061D02*
X18331286Y-12430680D01*
X18331286Y-12430680D02*
X18317000Y-12434489D01*
X18317000Y-12434489D02*
X18293191Y-12434489D01*
X18445571Y-12434489D02*
X18388429Y-12434489D01*
X18417000Y-12434489D02*
X18417000Y-12354489D01*
X18417000Y-12354489D02*
X18407476Y-12365918D01*
X18407476Y-12365918D02*
X18397952Y-12373537D01*
X18397952Y-12373537D02*
X18388429Y-12377347D01*
X14304333Y-14228870D02*
X14299571Y-14232680D01*
X14299571Y-14232680D02*
X14285286Y-14236489D01*
X14285286Y-14236489D02*
X14275762Y-14236489D01*
X14275762Y-14236489D02*
X14261476Y-14232680D01*
X14261476Y-14232680D02*
X14251952Y-14225061D01*
X14251952Y-14225061D02*
X14247190Y-14217442D01*
X14247190Y-14217442D02*
X14242429Y-14202204D01*
X14242429Y-14202204D02*
X14242429Y-14190775D01*
X14242429Y-14190775D02*
X14247190Y-14175537D01*
X14247190Y-14175537D02*
X14251952Y-14167918D01*
X14251952Y-14167918D02*
X14261476Y-14160299D01*
X14261476Y-14160299D02*
X14275762Y-14156489D01*
X14275762Y-14156489D02*
X14285286Y-14156489D01*
X14285286Y-14156489D02*
X14299571Y-14160299D01*
X14299571Y-14160299D02*
X14304333Y-14164108D01*
X14390048Y-14156489D02*
X14371000Y-14156489D01*
X14371000Y-14156489D02*
X14361476Y-14160299D01*
X14361476Y-14160299D02*
X14356714Y-14164108D01*
X14356714Y-14164108D02*
X14347190Y-14175537D01*
X14347190Y-14175537D02*
X14342429Y-14190775D01*
X14342429Y-14190775D02*
X14342429Y-14221251D01*
X14342429Y-14221251D02*
X14347190Y-14228870D01*
X14347190Y-14228870D02*
X14351952Y-14232680D01*
X14351952Y-14232680D02*
X14361476Y-14236489D01*
X14361476Y-14236489D02*
X14380524Y-14236489D01*
X14380524Y-14236489D02*
X14390048Y-14232680D01*
X14390048Y-14232680D02*
X14394809Y-14228870D01*
X14394809Y-14228870D02*
X14399571Y-14221251D01*
X14399571Y-14221251D02*
X14399571Y-14202204D01*
X14399571Y-14202204D02*
X14394809Y-14194585D01*
X14394809Y-14194585D02*
X14390048Y-14190775D01*
X14390048Y-14190775D02*
X14380524Y-14186966D01*
X14380524Y-14186966D02*
X14361476Y-14186966D01*
X14361476Y-14186966D02*
X14351952Y-14190775D01*
X14351952Y-14190775D02*
X14347190Y-14194585D01*
X14347190Y-14194585D02*
X14342429Y-14202204D01*
X16976667Y-14717680D02*
X16990952Y-14721489D01*
X16990952Y-14721489D02*
X17014762Y-14721489D01*
X17014762Y-14721489D02*
X17024286Y-14717680D01*
X17024286Y-14717680D02*
X17029048Y-14713870D01*
X17029048Y-14713870D02*
X17033810Y-14706251D01*
X17033810Y-14706251D02*
X17033810Y-14698632D01*
X17033810Y-14698632D02*
X17029048Y-14691013D01*
X17029048Y-14691013D02*
X17024286Y-14687204D01*
X17024286Y-14687204D02*
X17014762Y-14683394D01*
X17014762Y-14683394D02*
X16995714Y-14679585D01*
X16995714Y-14679585D02*
X16986191Y-14675775D01*
X16986191Y-14675775D02*
X16981429Y-14671966D01*
X16981429Y-14671966D02*
X16976667Y-14664347D01*
X16976667Y-14664347D02*
X16976667Y-14656728D01*
X16976667Y-14656728D02*
X16981429Y-14649108D01*
X16981429Y-14649108D02*
X16986191Y-14645299D01*
X16986191Y-14645299D02*
X16995714Y-14641489D01*
X16995714Y-14641489D02*
X17019524Y-14641489D01*
X17019524Y-14641489D02*
X17033810Y-14645299D01*
X17067143Y-14641489D02*
X17090952Y-14721489D01*
X17090952Y-14721489D02*
X17110000Y-14664347D01*
X17110000Y-14664347D02*
X17129048Y-14721489D01*
X17129048Y-14721489D02*
X17152857Y-14641489D01*
X17181429Y-14641489D02*
X17243333Y-14641489D01*
X17243333Y-14641489D02*
X17210000Y-14671966D01*
X17210000Y-14671966D02*
X17224286Y-14671966D01*
X17224286Y-14671966D02*
X17233810Y-14675775D01*
X17233810Y-14675775D02*
X17238571Y-14679585D01*
X17238571Y-14679585D02*
X17243333Y-14687204D01*
X17243333Y-14687204D02*
X17243333Y-14706251D01*
X17243333Y-14706251D02*
X17238571Y-14713870D01*
X17238571Y-14713870D02*
X17233810Y-14717680D01*
X17233810Y-14717680D02*
X17224286Y-14721489D01*
X17224286Y-14721489D02*
X17195714Y-14721489D01*
X17195714Y-14721489D02*
X17186191Y-14717680D01*
X17186191Y-14717680D02*
X17181429Y-14713870D01*
X14521714Y-14360870D02*
X14516952Y-14364680D01*
X14516952Y-14364680D02*
X14502667Y-14368489D01*
X14502667Y-14368489D02*
X14493143Y-14368489D01*
X14493143Y-14368489D02*
X14478857Y-14364680D01*
X14478857Y-14364680D02*
X14469333Y-14357061D01*
X14469333Y-14357061D02*
X14464571Y-14349442D01*
X14464571Y-14349442D02*
X14459809Y-14334204D01*
X14459809Y-14334204D02*
X14459809Y-14322775D01*
X14459809Y-14322775D02*
X14464571Y-14307537D01*
X14464571Y-14307537D02*
X14469333Y-14299918D01*
X14469333Y-14299918D02*
X14478857Y-14292299D01*
X14478857Y-14292299D02*
X14493143Y-14288489D01*
X14493143Y-14288489D02*
X14502667Y-14288489D01*
X14502667Y-14288489D02*
X14516952Y-14292299D01*
X14516952Y-14292299D02*
X14521714Y-14296108D01*
X14555048Y-14288489D02*
X14616952Y-14288489D01*
X14616952Y-14288489D02*
X14583619Y-14318966D01*
X14583619Y-14318966D02*
X14597905Y-14318966D01*
X14597905Y-14318966D02*
X14607428Y-14322775D01*
X14607428Y-14322775D02*
X14612190Y-14326585D01*
X14612190Y-14326585D02*
X14616952Y-14334204D01*
X14616952Y-14334204D02*
X14616952Y-14353251D01*
X14616952Y-14353251D02*
X14612190Y-14360870D01*
X14612190Y-14360870D02*
X14607428Y-14364680D01*
X14607428Y-14364680D02*
X14597905Y-14368489D01*
X14597905Y-14368489D02*
X14569333Y-14368489D01*
X14569333Y-14368489D02*
X14559809Y-14364680D01*
X14559809Y-14364680D02*
X14555048Y-14360870D01*
X14702667Y-14315156D02*
X14702667Y-14368489D01*
X14678857Y-14284680D02*
X14655048Y-14341823D01*
X14655048Y-14341823D02*
X14716952Y-14341823D01*
X15356489Y-12733333D02*
X15413632Y-12733333D01*
X15413632Y-12733333D02*
X15425061Y-12738095D01*
X15425061Y-12738095D02*
X15432680Y-12747619D01*
X15432680Y-12747619D02*
X15436489Y-12761905D01*
X15436489Y-12761905D02*
X15436489Y-12771428D01*
X15356489Y-12695238D02*
X15356489Y-12633333D01*
X15356489Y-12633333D02*
X15386966Y-12666667D01*
X15386966Y-12666667D02*
X15386966Y-12652381D01*
X15386966Y-12652381D02*
X15390775Y-12642857D01*
X15390775Y-12642857D02*
X15394585Y-12638095D01*
X15394585Y-12638095D02*
X15402204Y-12633333D01*
X15402204Y-12633333D02*
X15421251Y-12633333D01*
X15421251Y-12633333D02*
X15428870Y-12638095D01*
X15428870Y-12638095D02*
X15432680Y-12642857D01*
X15432680Y-12642857D02*
X15436489Y-12652381D01*
X15436489Y-12652381D02*
X15436489Y-12680952D01*
X15436489Y-12680952D02*
X15432680Y-12690476D01*
X15432680Y-12690476D02*
X15428870Y-12695238D01*
X12364333Y-14728870D02*
X12359571Y-14732680D01*
X12359571Y-14732680D02*
X12345286Y-14736489D01*
X12345286Y-14736489D02*
X12335762Y-14736489D01*
X12335762Y-14736489D02*
X12321476Y-14732680D01*
X12321476Y-14732680D02*
X12311952Y-14725061D01*
X12311952Y-14725061D02*
X12307190Y-14717442D01*
X12307190Y-14717442D02*
X12302429Y-14702204D01*
X12302429Y-14702204D02*
X12302429Y-14690775D01*
X12302429Y-14690775D02*
X12307190Y-14675537D01*
X12307190Y-14675537D02*
X12311952Y-14667918D01*
X12311952Y-14667918D02*
X12321476Y-14660299D01*
X12321476Y-14660299D02*
X12335762Y-14656489D01*
X12335762Y-14656489D02*
X12345286Y-14656489D01*
X12345286Y-14656489D02*
X12359571Y-14660299D01*
X12359571Y-14660299D02*
X12364333Y-14664108D01*
X12421476Y-14690775D02*
X12411952Y-14686966D01*
X12411952Y-14686966D02*
X12407190Y-14683156D01*
X12407190Y-14683156D02*
X12402429Y-14675537D01*
X12402429Y-14675537D02*
X12402429Y-14671728D01*
X12402429Y-14671728D02*
X12407190Y-14664108D01*
X12407190Y-14664108D02*
X12411952Y-14660299D01*
X12411952Y-14660299D02*
X12421476Y-14656489D01*
X12421476Y-14656489D02*
X12440524Y-14656489D01*
X12440524Y-14656489D02*
X12450048Y-14660299D01*
X12450048Y-14660299D02*
X12454809Y-14664108D01*
X12454809Y-14664108D02*
X12459571Y-14671728D01*
X12459571Y-14671728D02*
X12459571Y-14675537D01*
X12459571Y-14675537D02*
X12454809Y-14683156D01*
X12454809Y-14683156D02*
X12450048Y-14686966D01*
X12450048Y-14686966D02*
X12440524Y-14690775D01*
X12440524Y-14690775D02*
X12421476Y-14690775D01*
X12421476Y-14690775D02*
X12411952Y-14694585D01*
X12411952Y-14694585D02*
X12407190Y-14698394D01*
X12407190Y-14698394D02*
X12402429Y-14706013D01*
X12402429Y-14706013D02*
X12402429Y-14721251D01*
X12402429Y-14721251D02*
X12407190Y-14728870D01*
X12407190Y-14728870D02*
X12411952Y-14732680D01*
X12411952Y-14732680D02*
X12421476Y-14736489D01*
X12421476Y-14736489D02*
X12440524Y-14736489D01*
X12440524Y-14736489D02*
X12450048Y-14732680D01*
X12450048Y-14732680D02*
X12454809Y-14728870D01*
X12454809Y-14728870D02*
X12459571Y-14721251D01*
X12459571Y-14721251D02*
X12459571Y-14706013D01*
X12459571Y-14706013D02*
X12454809Y-14698394D01*
X12454809Y-14698394D02*
X12450048Y-14694585D01*
X12450048Y-14694585D02*
X12440524Y-14690775D01*
X14304333Y-14028870D02*
X14299571Y-14032680D01*
X14299571Y-14032680D02*
X14285286Y-14036489D01*
X14285286Y-14036489D02*
X14275762Y-14036489D01*
X14275762Y-14036489D02*
X14261476Y-14032680D01*
X14261476Y-14032680D02*
X14251952Y-14025061D01*
X14251952Y-14025061D02*
X14247190Y-14017442D01*
X14247190Y-14017442D02*
X14242429Y-14002204D01*
X14242429Y-14002204D02*
X14242429Y-13990775D01*
X14242429Y-13990775D02*
X14247190Y-13975537D01*
X14247190Y-13975537D02*
X14251952Y-13967918D01*
X14251952Y-13967918D02*
X14261476Y-13960299D01*
X14261476Y-13960299D02*
X14275762Y-13956489D01*
X14275762Y-13956489D02*
X14285286Y-13956489D01*
X14285286Y-13956489D02*
X14299571Y-13960299D01*
X14299571Y-13960299D02*
X14304333Y-13964108D01*
X14337667Y-13956489D02*
X14399571Y-13956489D01*
X14399571Y-13956489D02*
X14366238Y-13986966D01*
X14366238Y-13986966D02*
X14380524Y-13986966D01*
X14380524Y-13986966D02*
X14390048Y-13990775D01*
X14390048Y-13990775D02*
X14394809Y-13994585D01*
X14394809Y-13994585D02*
X14399571Y-14002204D01*
X14399571Y-14002204D02*
X14399571Y-14021251D01*
X14399571Y-14021251D02*
X14394809Y-14028870D01*
X14394809Y-14028870D02*
X14390048Y-14032680D01*
X14390048Y-14032680D02*
X14380524Y-14036489D01*
X14380524Y-14036489D02*
X14351952Y-14036489D01*
X14351952Y-14036489D02*
X14342429Y-14032680D01*
X14342429Y-14032680D02*
X14337667Y-14028870D01*
X17819714Y-14376870D02*
X17814952Y-14380680D01*
X17814952Y-14380680D02*
X17800667Y-14384489D01*
X17800667Y-14384489D02*
X17791143Y-14384489D01*
X17791143Y-14384489D02*
X17776857Y-14380680D01*
X17776857Y-14380680D02*
X17767333Y-14373061D01*
X17767333Y-14373061D02*
X17762571Y-14365442D01*
X17762571Y-14365442D02*
X17757810Y-14350204D01*
X17757810Y-14350204D02*
X17757810Y-14338775D01*
X17757810Y-14338775D02*
X17762571Y-14323537D01*
X17762571Y-14323537D02*
X17767333Y-14315918D01*
X17767333Y-14315918D02*
X17776857Y-14308299D01*
X17776857Y-14308299D02*
X17791143Y-14304489D01*
X17791143Y-14304489D02*
X17800667Y-14304489D01*
X17800667Y-14304489D02*
X17814952Y-14308299D01*
X17814952Y-14308299D02*
X17819714Y-14312108D01*
X17853048Y-14304489D02*
X17914952Y-14304489D01*
X17914952Y-14304489D02*
X17881619Y-14334966D01*
X17881619Y-14334966D02*
X17895905Y-14334966D01*
X17895905Y-14334966D02*
X17905429Y-14338775D01*
X17905429Y-14338775D02*
X17910190Y-14342585D01*
X17910190Y-14342585D02*
X17914952Y-14350204D01*
X17914952Y-14350204D02*
X17914952Y-14369251D01*
X17914952Y-14369251D02*
X17910190Y-14376870D01*
X17910190Y-14376870D02*
X17905429Y-14380680D01*
X17905429Y-14380680D02*
X17895905Y-14384489D01*
X17895905Y-14384489D02*
X17867333Y-14384489D01*
X17867333Y-14384489D02*
X17857810Y-14380680D01*
X17857810Y-14380680D02*
X17853048Y-14376870D01*
X18010190Y-14384489D02*
X17953048Y-14384489D01*
X17981619Y-14384489D02*
X17981619Y-14304489D01*
X17981619Y-14304489D02*
X17972095Y-14315918D01*
X17972095Y-14315918D02*
X17962571Y-14323537D01*
X17962571Y-14323537D02*
X17953048Y-14327347D01*
X18109714Y-12128870D02*
X18104952Y-12132680D01*
X18104952Y-12132680D02*
X18090667Y-12136489D01*
X18090667Y-12136489D02*
X18081143Y-12136489D01*
X18081143Y-12136489D02*
X18066857Y-12132680D01*
X18066857Y-12132680D02*
X18057333Y-12125061D01*
X18057333Y-12125061D02*
X18052571Y-12117442D01*
X18052571Y-12117442D02*
X18047810Y-12102204D01*
X18047810Y-12102204D02*
X18047810Y-12090775D01*
X18047810Y-12090775D02*
X18052571Y-12075537D01*
X18052571Y-12075537D02*
X18057333Y-12067918D01*
X18057333Y-12067918D02*
X18066857Y-12060299D01*
X18066857Y-12060299D02*
X18081143Y-12056489D01*
X18081143Y-12056489D02*
X18090667Y-12056489D01*
X18090667Y-12056489D02*
X18104952Y-12060299D01*
X18104952Y-12060299D02*
X18109714Y-12064108D01*
X18143048Y-12056489D02*
X18204952Y-12056489D01*
X18204952Y-12056489D02*
X18171619Y-12086966D01*
X18171619Y-12086966D02*
X18185905Y-12086966D01*
X18185905Y-12086966D02*
X18195429Y-12090775D01*
X18195429Y-12090775D02*
X18200190Y-12094585D01*
X18200190Y-12094585D02*
X18204952Y-12102204D01*
X18204952Y-12102204D02*
X18204952Y-12121251D01*
X18204952Y-12121251D02*
X18200190Y-12128870D01*
X18200190Y-12128870D02*
X18195429Y-12132680D01*
X18195429Y-12132680D02*
X18185905Y-12136489D01*
X18185905Y-12136489D02*
X18157333Y-12136489D01*
X18157333Y-12136489D02*
X18147810Y-12132680D01*
X18147810Y-12132680D02*
X18143048Y-12128870D01*
X18243048Y-12064108D02*
X18247810Y-12060299D01*
X18247810Y-12060299D02*
X18257333Y-12056489D01*
X18257333Y-12056489D02*
X18281143Y-12056489D01*
X18281143Y-12056489D02*
X18290667Y-12060299D01*
X18290667Y-12060299D02*
X18295429Y-12064108D01*
X18295429Y-12064108D02*
X18300190Y-12071728D01*
X18300190Y-12071728D02*
X18300190Y-12079347D01*
X18300190Y-12079347D02*
X18295429Y-12090775D01*
X18295429Y-12090775D02*
X18238286Y-12136489D01*
X18238286Y-12136489D02*
X18300190Y-12136489D01*
X12316714Y-13528870D02*
X12311952Y-13532680D01*
X12311952Y-13532680D02*
X12297667Y-13536489D01*
X12297667Y-13536489D02*
X12288143Y-13536489D01*
X12288143Y-13536489D02*
X12273857Y-13532680D01*
X12273857Y-13532680D02*
X12264333Y-13525061D01*
X12264333Y-13525061D02*
X12259571Y-13517442D01*
X12259571Y-13517442D02*
X12254809Y-13502204D01*
X12254809Y-13502204D02*
X12254809Y-13490775D01*
X12254809Y-13490775D02*
X12259571Y-13475537D01*
X12259571Y-13475537D02*
X12264333Y-13467918D01*
X12264333Y-13467918D02*
X12273857Y-13460299D01*
X12273857Y-13460299D02*
X12288143Y-13456489D01*
X12288143Y-13456489D02*
X12297667Y-13456489D01*
X12297667Y-13456489D02*
X12311952Y-13460299D01*
X12311952Y-13460299D02*
X12316714Y-13464108D01*
X12411952Y-13536489D02*
X12354809Y-13536489D01*
X12383381Y-13536489D02*
X12383381Y-13456489D01*
X12383381Y-13456489D02*
X12373857Y-13467918D01*
X12373857Y-13467918D02*
X12364333Y-13475537D01*
X12364333Y-13475537D02*
X12354809Y-13479347D01*
X12469095Y-13490775D02*
X12459571Y-13486966D01*
X12459571Y-13486966D02*
X12454809Y-13483156D01*
X12454809Y-13483156D02*
X12450048Y-13475537D01*
X12450048Y-13475537D02*
X12450048Y-13471728D01*
X12450048Y-13471728D02*
X12454809Y-13464108D01*
X12454809Y-13464108D02*
X12459571Y-13460299D01*
X12459571Y-13460299D02*
X12469095Y-13456489D01*
X12469095Y-13456489D02*
X12488143Y-13456489D01*
X12488143Y-13456489D02*
X12497667Y-13460299D01*
X12497667Y-13460299D02*
X12502428Y-13464108D01*
X12502428Y-13464108D02*
X12507190Y-13471728D01*
X12507190Y-13471728D02*
X12507190Y-13475537D01*
X12507190Y-13475537D02*
X12502428Y-13483156D01*
X12502428Y-13483156D02*
X12497667Y-13486966D01*
X12497667Y-13486966D02*
X12488143Y-13490775D01*
X12488143Y-13490775D02*
X12469095Y-13490775D01*
X12469095Y-13490775D02*
X12459571Y-13494585D01*
X12459571Y-13494585D02*
X12454809Y-13498394D01*
X12454809Y-13498394D02*
X12450048Y-13506013D01*
X12450048Y-13506013D02*
X12450048Y-13521251D01*
X12450048Y-13521251D02*
X12454809Y-13528870D01*
X12454809Y-13528870D02*
X12459571Y-13532680D01*
X12459571Y-13532680D02*
X12469095Y-13536489D01*
X12469095Y-13536489D02*
X12488143Y-13536489D01*
X12488143Y-13536489D02*
X12497667Y-13532680D01*
X12497667Y-13532680D02*
X12502428Y-13528870D01*
X12502428Y-13528870D02*
X12507190Y-13521251D01*
X12507190Y-13521251D02*
X12507190Y-13506013D01*
X12507190Y-13506013D02*
X12502428Y-13498394D01*
X12502428Y-13498394D02*
X12497667Y-13494585D01*
X12497667Y-13494585D02*
X12488143Y-13490775D01*
X13328870Y-11994286D02*
X13332680Y-11999048D01*
X13332680Y-11999048D02*
X13336490Y-12013333D01*
X13336490Y-12013333D02*
X13336490Y-12022857D01*
X13336490Y-12022857D02*
X13332680Y-12037143D01*
X13332680Y-12037143D02*
X13325061Y-12046667D01*
X13325061Y-12046667D02*
X13317442Y-12051428D01*
X13317442Y-12051428D02*
X13302204Y-12056190D01*
X13302204Y-12056190D02*
X13290775Y-12056190D01*
X13290775Y-12056190D02*
X13275537Y-12051428D01*
X13275537Y-12051428D02*
X13267918Y-12046667D01*
X13267918Y-12046667D02*
X13260299Y-12037143D01*
X13260299Y-12037143D02*
X13256490Y-12022857D01*
X13256490Y-12022857D02*
X13256490Y-12013333D01*
X13256490Y-12013333D02*
X13260299Y-11999048D01*
X13260299Y-11999048D02*
X13264109Y-11994286D01*
X13264109Y-11956190D02*
X13260299Y-11951428D01*
X13260299Y-11951428D02*
X13256490Y-11941905D01*
X13256490Y-11941905D02*
X13256490Y-11918095D01*
X13256490Y-11918095D02*
X13260299Y-11908571D01*
X13260299Y-11908571D02*
X13264109Y-11903809D01*
X13264109Y-11903809D02*
X13271728Y-11899048D01*
X13271728Y-11899048D02*
X13279347Y-11899048D01*
X13279347Y-11899048D02*
X13290775Y-11903809D01*
X13290775Y-11903809D02*
X13336490Y-11960952D01*
X13336490Y-11960952D02*
X13336490Y-11899048D01*
X13336490Y-11803809D02*
X13336490Y-11860952D01*
X13336490Y-11832381D02*
X13256490Y-11832381D01*
X13256490Y-11832381D02*
X13267918Y-11841905D01*
X13267918Y-11841905D02*
X13275537Y-11851428D01*
X13275537Y-11851428D02*
X13279347Y-11860952D01*
X12364333Y-14328870D02*
X12359571Y-14332680D01*
X12359571Y-14332680D02*
X12345286Y-14336489D01*
X12345286Y-14336489D02*
X12335762Y-14336489D01*
X12335762Y-14336489D02*
X12321476Y-14332680D01*
X12321476Y-14332680D02*
X12311952Y-14325061D01*
X12311952Y-14325061D02*
X12307190Y-14317442D01*
X12307190Y-14317442D02*
X12302429Y-14302204D01*
X12302429Y-14302204D02*
X12302429Y-14290775D01*
X12302429Y-14290775D02*
X12307190Y-14275537D01*
X12307190Y-14275537D02*
X12311952Y-14267918D01*
X12311952Y-14267918D02*
X12321476Y-14260299D01*
X12321476Y-14260299D02*
X12335762Y-14256489D01*
X12335762Y-14256489D02*
X12345286Y-14256489D01*
X12345286Y-14256489D02*
X12359571Y-14260299D01*
X12359571Y-14260299D02*
X12364333Y-14264108D01*
X12450048Y-14283156D02*
X12450048Y-14336489D01*
X12426238Y-14252680D02*
X12402429Y-14309823D01*
X12402429Y-14309823D02*
X12464333Y-14309823D01*
X12316714Y-13728870D02*
X12311952Y-13732680D01*
X12311952Y-13732680D02*
X12297667Y-13736489D01*
X12297667Y-13736489D02*
X12288143Y-13736489D01*
X12288143Y-13736489D02*
X12273857Y-13732680D01*
X12273857Y-13732680D02*
X12264333Y-13725061D01*
X12264333Y-13725061D02*
X12259571Y-13717442D01*
X12259571Y-13717442D02*
X12254809Y-13702204D01*
X12254809Y-13702204D02*
X12254809Y-13690775D01*
X12254809Y-13690775D02*
X12259571Y-13675537D01*
X12259571Y-13675537D02*
X12264333Y-13667918D01*
X12264333Y-13667918D02*
X12273857Y-13660299D01*
X12273857Y-13660299D02*
X12288143Y-13656489D01*
X12288143Y-13656489D02*
X12297667Y-13656489D01*
X12297667Y-13656489D02*
X12311952Y-13660299D01*
X12311952Y-13660299D02*
X12316714Y-13664108D01*
X12411952Y-13736489D02*
X12354809Y-13736489D01*
X12383381Y-13736489D02*
X12383381Y-13656489D01*
X12383381Y-13656489D02*
X12373857Y-13667918D01*
X12373857Y-13667918D02*
X12364333Y-13675537D01*
X12364333Y-13675537D02*
X12354809Y-13679347D01*
X12445286Y-13656489D02*
X12511952Y-13656489D01*
X12511952Y-13656489D02*
X12469095Y-13736489D01*
X16311809Y-12950489D02*
X16311809Y-13015251D01*
X16311809Y-13015251D02*
X16316571Y-13022870D01*
X16316571Y-13022870D02*
X16321333Y-13026680D01*
X16321333Y-13026680D02*
X16330857Y-13030489D01*
X16330857Y-13030489D02*
X16349905Y-13030489D01*
X16349905Y-13030489D02*
X16359428Y-13026680D01*
X16359428Y-13026680D02*
X16364190Y-13022870D01*
X16364190Y-13022870D02*
X16368952Y-13015251D01*
X16368952Y-13015251D02*
X16368952Y-12950489D01*
X16459428Y-12977156D02*
X16459428Y-13030489D01*
X16435619Y-12946680D02*
X16411809Y-13003823D01*
X16411809Y-13003823D02*
X16473714Y-13003823D01*
X17415333Y-13936489D02*
X17382000Y-13898394D01*
X17358191Y-13936489D02*
X17358191Y-13856489D01*
X17358191Y-13856489D02*
X17396286Y-13856489D01*
X17396286Y-13856489D02*
X17405810Y-13860299D01*
X17405810Y-13860299D02*
X17410571Y-13864108D01*
X17410571Y-13864108D02*
X17415333Y-13871728D01*
X17415333Y-13871728D02*
X17415333Y-13883156D01*
X17415333Y-13883156D02*
X17410571Y-13890775D01*
X17410571Y-13890775D02*
X17405810Y-13894585D01*
X17405810Y-13894585D02*
X17396286Y-13898394D01*
X17396286Y-13898394D02*
X17358191Y-13898394D01*
X17510571Y-13936489D02*
X17453429Y-13936489D01*
X17482000Y-13936489D02*
X17482000Y-13856489D01*
X17482000Y-13856489D02*
X17472476Y-13867918D01*
X17472476Y-13867918D02*
X17462952Y-13875537D01*
X17462952Y-13875537D02*
X17453429Y-13879347D01*
X17344095Y-14329489D02*
X17296476Y-14329489D01*
X17296476Y-14329489D02*
X17296476Y-14249489D01*
X17377429Y-14287585D02*
X17410762Y-14287585D01*
X17425048Y-14329489D02*
X17377429Y-14329489D01*
X17377429Y-14329489D02*
X17377429Y-14249489D01*
X17377429Y-14249489D02*
X17425048Y-14249489D01*
X17467905Y-14329489D02*
X17467905Y-14249489D01*
X17467905Y-14249489D02*
X17491714Y-14249489D01*
X17491714Y-14249489D02*
X17506000Y-14253299D01*
X17506000Y-14253299D02*
X17515524Y-14260918D01*
X17515524Y-14260918D02*
X17520286Y-14268537D01*
X17520286Y-14268537D02*
X17525048Y-14283775D01*
X17525048Y-14283775D02*
X17525048Y-14295204D01*
X17525048Y-14295204D02*
X17520286Y-14310442D01*
X17520286Y-14310442D02*
X17515524Y-14318061D01*
X17515524Y-14318061D02*
X17506000Y-14325680D01*
X17506000Y-14325680D02*
X17491714Y-14329489D01*
X17491714Y-14329489D02*
X17467905Y-14329489D01*
X17620286Y-14329489D02*
X17563143Y-14329489D01*
X17591714Y-14329489D02*
X17591714Y-14249489D01*
X17591714Y-14249489D02*
X17582191Y-14260918D01*
X17582191Y-14260918D02*
X17572667Y-14268537D01*
X17572667Y-14268537D02*
X17563143Y-14272347D01*
X12364333Y-13936489D02*
X12331000Y-13898394D01*
X12307190Y-13936489D02*
X12307190Y-13856489D01*
X12307190Y-13856489D02*
X12345286Y-13856489D01*
X12345286Y-13856489D02*
X12354809Y-13860299D01*
X12354809Y-13860299D02*
X12359571Y-13864108D01*
X12359571Y-13864108D02*
X12364333Y-13871728D01*
X12364333Y-13871728D02*
X12364333Y-13883156D01*
X12364333Y-13883156D02*
X12359571Y-13890775D01*
X12359571Y-13890775D02*
X12354809Y-13894585D01*
X12354809Y-13894585D02*
X12345286Y-13898394D01*
X12345286Y-13898394D02*
X12307190Y-13898394D01*
X12450048Y-13883156D02*
X12450048Y-13936489D01*
X12426238Y-13852680D02*
X12402429Y-13909823D01*
X12402429Y-13909823D02*
X12464333Y-13909823D01*
X15448571Y-13163870D02*
X15444762Y-13167680D01*
X15444762Y-13167680D02*
X15433333Y-13171489D01*
X15433333Y-13171489D02*
X15425714Y-13171489D01*
X15425714Y-13171489D02*
X15414286Y-13167680D01*
X15414286Y-13167680D02*
X15406667Y-13160061D01*
X15406667Y-13160061D02*
X15402857Y-13152442D01*
X15402857Y-13152442D02*
X15399047Y-13137204D01*
X15399047Y-13137204D02*
X15399047Y-13125775D01*
X15399047Y-13125775D02*
X15402857Y-13110537D01*
X15402857Y-13110537D02*
X15406667Y-13102918D01*
X15406667Y-13102918D02*
X15414286Y-13095299D01*
X15414286Y-13095299D02*
X15425714Y-13091489D01*
X15425714Y-13091489D02*
X15433333Y-13091489D01*
X15433333Y-13091489D02*
X15444762Y-13095299D01*
X15444762Y-13095299D02*
X15448571Y-13099108D01*
X15475238Y-13091489D02*
X15524762Y-13091489D01*
X15524762Y-13091489D02*
X15498095Y-13121966D01*
X15498095Y-13121966D02*
X15509524Y-13121966D01*
X15509524Y-13121966D02*
X15517143Y-13125775D01*
X15517143Y-13125775D02*
X15520952Y-13129585D01*
X15520952Y-13129585D02*
X15524762Y-13137204D01*
X15524762Y-13137204D02*
X15524762Y-13156251D01*
X15524762Y-13156251D02*
X15520952Y-13163870D01*
X15520952Y-13163870D02*
X15517143Y-13167680D01*
X15517143Y-13167680D02*
X15509524Y-13171489D01*
X15509524Y-13171489D02*
X15486667Y-13171489D01*
X15486667Y-13171489D02*
X15479047Y-13167680D01*
X15479047Y-13167680D02*
X15475238Y-13163870D01*
X15597143Y-13091489D02*
X15559048Y-13091489D01*
X15559048Y-13091489D02*
X15555238Y-13129585D01*
X15555238Y-13129585D02*
X15559048Y-13125775D01*
X15559048Y-13125775D02*
X15566667Y-13121966D01*
X15566667Y-13121966D02*
X15585714Y-13121966D01*
X15585714Y-13121966D02*
X15593333Y-13125775D01*
X15593333Y-13125775D02*
X15597143Y-13129585D01*
X15597143Y-13129585D02*
X15600952Y-13137204D01*
X15600952Y-13137204D02*
X15600952Y-13156251D01*
X15600952Y-13156251D02*
X15597143Y-13163870D01*
X15597143Y-13163870D02*
X15593333Y-13167680D01*
X15593333Y-13167680D02*
X15585714Y-13171489D01*
X15585714Y-13171489D02*
X15566667Y-13171489D01*
X15566667Y-13171489D02*
X15559048Y-13167680D01*
X15559048Y-13167680D02*
X15555238Y-13163870D01*
X17290714Y-11636489D02*
X17257381Y-11598394D01*
X17233571Y-11636489D02*
X17233571Y-11556489D01*
X17233571Y-11556489D02*
X17271667Y-11556489D01*
X17271667Y-11556489D02*
X17281190Y-11560299D01*
X17281190Y-11560299D02*
X17285952Y-11564108D01*
X17285952Y-11564108D02*
X17290714Y-11571728D01*
X17290714Y-11571728D02*
X17290714Y-11583156D01*
X17290714Y-11583156D02*
X17285952Y-11590775D01*
X17285952Y-11590775D02*
X17281190Y-11594585D01*
X17281190Y-11594585D02*
X17271667Y-11598394D01*
X17271667Y-11598394D02*
X17233571Y-11598394D01*
X17385952Y-11636489D02*
X17328810Y-11636489D01*
X17357381Y-11636489D02*
X17357381Y-11556489D01*
X17357381Y-11556489D02*
X17347857Y-11567918D01*
X17347857Y-11567918D02*
X17338333Y-11575537D01*
X17338333Y-11575537D02*
X17328810Y-11579347D01*
X17471667Y-11583156D02*
X17471667Y-11636489D01*
X17447857Y-11552680D02*
X17424048Y-11609823D01*
X17424048Y-11609823D02*
X17485952Y-11609823D01*
X17381490Y-13349333D02*
X17438632Y-13349333D01*
X17438632Y-13349333D02*
X17450061Y-13354095D01*
X17450061Y-13354095D02*
X17457680Y-13363619D01*
X17457680Y-13363619D02*
X17461490Y-13377905D01*
X17461490Y-13377905D02*
X17461490Y-13387428D01*
X17461490Y-13249333D02*
X17461490Y-13306476D01*
X17461490Y-13277905D02*
X17381490Y-13277905D01*
X17381490Y-13277905D02*
X17392918Y-13287428D01*
X17392918Y-13287428D02*
X17400537Y-13296952D01*
X17400537Y-13296952D02*
X17404347Y-13306476D01*
X12928870Y-11994286D02*
X12932680Y-11999048D01*
X12932680Y-11999048D02*
X12936490Y-12013333D01*
X12936490Y-12013333D02*
X12936490Y-12022857D01*
X12936490Y-12022857D02*
X12932680Y-12037143D01*
X12932680Y-12037143D02*
X12925061Y-12046667D01*
X12925061Y-12046667D02*
X12917442Y-12051428D01*
X12917442Y-12051428D02*
X12902204Y-12056190D01*
X12902204Y-12056190D02*
X12890775Y-12056190D01*
X12890775Y-12056190D02*
X12875537Y-12051428D01*
X12875537Y-12051428D02*
X12867918Y-12046667D01*
X12867918Y-12046667D02*
X12860299Y-12037143D01*
X12860299Y-12037143D02*
X12856490Y-12022857D01*
X12856490Y-12022857D02*
X12856490Y-12013333D01*
X12856490Y-12013333D02*
X12860299Y-11999048D01*
X12860299Y-11999048D02*
X12864109Y-11994286D01*
X12864109Y-11956190D02*
X12860299Y-11951428D01*
X12860299Y-11951428D02*
X12856490Y-11941905D01*
X12856490Y-11941905D02*
X12856490Y-11918095D01*
X12856490Y-11918095D02*
X12860299Y-11908571D01*
X12860299Y-11908571D02*
X12864109Y-11903809D01*
X12864109Y-11903809D02*
X12871728Y-11899048D01*
X12871728Y-11899048D02*
X12879347Y-11899048D01*
X12879347Y-11899048D02*
X12890775Y-11903809D01*
X12890775Y-11903809D02*
X12936490Y-11960952D01*
X12936490Y-11960952D02*
X12936490Y-11899048D01*
X12856490Y-11813333D02*
X12856490Y-11832381D01*
X12856490Y-11832381D02*
X12860299Y-11841905D01*
X12860299Y-11841905D02*
X12864109Y-11846667D01*
X12864109Y-11846667D02*
X12875537Y-11856190D01*
X12875537Y-11856190D02*
X12890775Y-11860952D01*
X12890775Y-11860952D02*
X12921251Y-11860952D01*
X12921251Y-11860952D02*
X12928870Y-11856190D01*
X12928870Y-11856190D02*
X12932680Y-11851428D01*
X12932680Y-11851428D02*
X12936490Y-11841905D01*
X12936490Y-11841905D02*
X12936490Y-11822857D01*
X12936490Y-11822857D02*
X12932680Y-11813333D01*
X12932680Y-11813333D02*
X12928870Y-11808571D01*
X12928870Y-11808571D02*
X12921251Y-11803809D01*
X12921251Y-11803809D02*
X12902204Y-11803809D01*
X12902204Y-11803809D02*
X12894585Y-11808571D01*
X12894585Y-11808571D02*
X12890775Y-11813333D01*
X12890775Y-11813333D02*
X12886966Y-11822857D01*
X12886966Y-11822857D02*
X12886966Y-11841905D01*
X12886966Y-11841905D02*
X12890775Y-11851428D01*
X12890775Y-11851428D02*
X12894585Y-11856190D01*
X12894585Y-11856190D02*
X12902204Y-11860952D01*
X12474489Y-12970667D02*
X12474489Y-13018286D01*
X12474489Y-13018286D02*
X12394489Y-13018286D01*
X12394489Y-12946857D02*
X12394489Y-12884952D01*
X12394489Y-12884952D02*
X12424966Y-12918286D01*
X12424966Y-12918286D02*
X12424966Y-12904000D01*
X12424966Y-12904000D02*
X12428775Y-12894476D01*
X12428775Y-12894476D02*
X12432585Y-12889714D01*
X12432585Y-12889714D02*
X12440204Y-12884952D01*
X12440204Y-12884952D02*
X12459251Y-12884952D01*
X12459251Y-12884952D02*
X12466870Y-12889714D01*
X12466870Y-12889714D02*
X12470680Y-12894476D01*
X12470680Y-12894476D02*
X12474489Y-12904000D01*
X12474489Y-12904000D02*
X12474489Y-12932571D01*
X12474489Y-12932571D02*
X12470680Y-12942095D01*
X12470680Y-12942095D02*
X12466870Y-12946857D01*
X18351333Y-13936489D02*
X18318000Y-13898394D01*
X18294191Y-13936489D02*
X18294191Y-13856489D01*
X18294191Y-13856489D02*
X18332286Y-13856489D01*
X18332286Y-13856489D02*
X18341810Y-13860299D01*
X18341810Y-13860299D02*
X18346571Y-13864108D01*
X18346571Y-13864108D02*
X18351333Y-13871728D01*
X18351333Y-13871728D02*
X18351333Y-13883156D01*
X18351333Y-13883156D02*
X18346571Y-13890775D01*
X18346571Y-13890775D02*
X18341810Y-13894585D01*
X18341810Y-13894585D02*
X18332286Y-13898394D01*
X18332286Y-13898394D02*
X18294191Y-13898394D01*
X18437048Y-13856489D02*
X18418000Y-13856489D01*
X18418000Y-13856489D02*
X18408476Y-13860299D01*
X18408476Y-13860299D02*
X18403714Y-13864108D01*
X18403714Y-13864108D02*
X18394191Y-13875537D01*
X18394191Y-13875537D02*
X18389429Y-13890775D01*
X18389429Y-13890775D02*
X18389429Y-13921251D01*
X18389429Y-13921251D02*
X18394191Y-13928870D01*
X18394191Y-13928870D02*
X18398952Y-13932680D01*
X18398952Y-13932680D02*
X18408476Y-13936489D01*
X18408476Y-13936489D02*
X18427524Y-13936489D01*
X18427524Y-13936489D02*
X18437048Y-13932680D01*
X18437048Y-13932680D02*
X18441810Y-13928870D01*
X18441810Y-13928870D02*
X18446571Y-13921251D01*
X18446571Y-13921251D02*
X18446571Y-13902204D01*
X18446571Y-13902204D02*
X18441810Y-13894585D01*
X18441810Y-13894585D02*
X18437048Y-13890775D01*
X18437048Y-13890775D02*
X18427524Y-13886966D01*
X18427524Y-13886966D02*
X18408476Y-13886966D01*
X18408476Y-13886966D02*
X18398952Y-13890775D01*
X18398952Y-13890775D02*
X18394191Y-13894585D01*
X18394191Y-13894585D02*
X18389429Y-13902204D01*
X17772667Y-14713680D02*
X17786952Y-14717489D01*
X17786952Y-14717489D02*
X17810762Y-14717489D01*
X17810762Y-14717489D02*
X17820286Y-14713680D01*
X17820286Y-14713680D02*
X17825048Y-14709870D01*
X17825048Y-14709870D02*
X17829810Y-14702251D01*
X17829810Y-14702251D02*
X17829810Y-14694632D01*
X17829810Y-14694632D02*
X17825048Y-14687013D01*
X17825048Y-14687013D02*
X17820286Y-14683204D01*
X17820286Y-14683204D02*
X17810762Y-14679394D01*
X17810762Y-14679394D02*
X17791714Y-14675585D01*
X17791714Y-14675585D02*
X17782191Y-14671775D01*
X17782191Y-14671775D02*
X17777429Y-14667966D01*
X17777429Y-14667966D02*
X17772667Y-14660347D01*
X17772667Y-14660347D02*
X17772667Y-14652728D01*
X17772667Y-14652728D02*
X17777429Y-14645108D01*
X17777429Y-14645108D02*
X17782191Y-14641299D01*
X17782191Y-14641299D02*
X17791714Y-14637489D01*
X17791714Y-14637489D02*
X17815524Y-14637489D01*
X17815524Y-14637489D02*
X17829810Y-14641299D01*
X17863143Y-14637489D02*
X17886952Y-14717489D01*
X17886952Y-14717489D02*
X17906000Y-14660347D01*
X17906000Y-14660347D02*
X17925048Y-14717489D01*
X17925048Y-14717489D02*
X17948857Y-14637489D01*
X18029810Y-14664156D02*
X18029810Y-14717489D01*
X18006000Y-14633680D02*
X17982191Y-14690823D01*
X17982191Y-14690823D02*
X18044095Y-14690823D01*
X14256714Y-13428870D02*
X14251952Y-13432680D01*
X14251952Y-13432680D02*
X14237667Y-13436489D01*
X14237667Y-13436489D02*
X14228143Y-13436489D01*
X14228143Y-13436489D02*
X14213857Y-13432680D01*
X14213857Y-13432680D02*
X14204333Y-13425061D01*
X14204333Y-13425061D02*
X14199571Y-13417442D01*
X14199571Y-13417442D02*
X14194809Y-13402204D01*
X14194809Y-13402204D02*
X14194809Y-13390775D01*
X14194809Y-13390775D02*
X14199571Y-13375537D01*
X14199571Y-13375537D02*
X14204333Y-13367918D01*
X14204333Y-13367918D02*
X14213857Y-13360299D01*
X14213857Y-13360299D02*
X14228143Y-13356489D01*
X14228143Y-13356489D02*
X14237667Y-13356489D01*
X14237667Y-13356489D02*
X14251952Y-13360299D01*
X14251952Y-13360299D02*
X14256714Y-13364108D01*
X14294809Y-13364108D02*
X14299571Y-13360299D01*
X14299571Y-13360299D02*
X14309095Y-13356489D01*
X14309095Y-13356489D02*
X14332905Y-13356489D01*
X14332905Y-13356489D02*
X14342428Y-13360299D01*
X14342428Y-13360299D02*
X14347190Y-13364108D01*
X14347190Y-13364108D02*
X14351952Y-13371728D01*
X14351952Y-13371728D02*
X14351952Y-13379347D01*
X14351952Y-13379347D02*
X14347190Y-13390775D01*
X14347190Y-13390775D02*
X14290048Y-13436489D01*
X14290048Y-13436489D02*
X14351952Y-13436489D01*
X14442428Y-13356489D02*
X14394809Y-13356489D01*
X14394809Y-13356489D02*
X14390048Y-13394585D01*
X14390048Y-13394585D02*
X14394809Y-13390775D01*
X14394809Y-13390775D02*
X14404333Y-13386966D01*
X14404333Y-13386966D02*
X14428143Y-13386966D01*
X14428143Y-13386966D02*
X14437667Y-13390775D01*
X14437667Y-13390775D02*
X14442428Y-13394585D01*
X14442428Y-13394585D02*
X14447190Y-13402204D01*
X14447190Y-13402204D02*
X14447190Y-13421251D01*
X14447190Y-13421251D02*
X14442428Y-13428870D01*
X14442428Y-13428870D02*
X14437667Y-13432680D01*
X14437667Y-13432680D02*
X14428143Y-13436489D01*
X14428143Y-13436489D02*
X14404333Y-13436489D01*
X14404333Y-13436489D02*
X14394809Y-13432680D01*
X14394809Y-13432680D02*
X14390048Y-13428870D01*
X15090476Y-12394108D02*
X15080952Y-12390299D01*
X15080952Y-12390299D02*
X15071428Y-12382680D01*
X15071428Y-12382680D02*
X15057143Y-12371251D01*
X15057143Y-12371251D02*
X15047619Y-12367442D01*
X15047619Y-12367442D02*
X15038095Y-12367442D01*
X15042857Y-12386489D02*
X15033333Y-12382680D01*
X15033333Y-12382680D02*
X15023809Y-12375061D01*
X15023809Y-12375061D02*
X15019048Y-12359823D01*
X15019048Y-12359823D02*
X15019048Y-12333156D01*
X15019048Y-12333156D02*
X15023809Y-12317918D01*
X15023809Y-12317918D02*
X15033333Y-12310299D01*
X15033333Y-12310299D02*
X15042857Y-12306489D01*
X15042857Y-12306489D02*
X15061905Y-12306489D01*
X15061905Y-12306489D02*
X15071428Y-12310299D01*
X15071428Y-12310299D02*
X15080952Y-12317918D01*
X15080952Y-12317918D02*
X15085714Y-12333156D01*
X15085714Y-12333156D02*
X15085714Y-12359823D01*
X15085714Y-12359823D02*
X15080952Y-12375061D01*
X15080952Y-12375061D02*
X15071428Y-12382680D01*
X15071428Y-12382680D02*
X15061905Y-12386489D01*
X15061905Y-12386489D02*
X15042857Y-12386489D01*
X15123809Y-12314108D02*
X15128571Y-12310299D01*
X15128571Y-12310299D02*
X15138095Y-12306489D01*
X15138095Y-12306489D02*
X15161905Y-12306489D01*
X15161905Y-12306489D02*
X15171428Y-12310299D01*
X15171428Y-12310299D02*
X15176190Y-12314108D01*
X15176190Y-12314108D02*
X15180952Y-12321728D01*
X15180952Y-12321728D02*
X15180952Y-12329347D01*
X15180952Y-12329347D02*
X15176190Y-12340775D01*
X15176190Y-12340775D02*
X15119048Y-12386489D01*
X15119048Y-12386489D02*
X15180952Y-12386489D01*
X18356333Y-14136489D02*
X18323000Y-14098394D01*
X18299191Y-14136489D02*
X18299191Y-14056489D01*
X18299191Y-14056489D02*
X18337286Y-14056489D01*
X18337286Y-14056489D02*
X18346810Y-14060299D01*
X18346810Y-14060299D02*
X18351571Y-14064108D01*
X18351571Y-14064108D02*
X18356333Y-14071728D01*
X18356333Y-14071728D02*
X18356333Y-14083156D01*
X18356333Y-14083156D02*
X18351571Y-14090775D01*
X18351571Y-14090775D02*
X18346810Y-14094585D01*
X18346810Y-14094585D02*
X18337286Y-14098394D01*
X18337286Y-14098394D02*
X18299191Y-14098394D01*
X18389667Y-14056489D02*
X18456333Y-14056489D01*
X18456333Y-14056489D02*
X18413476Y-14136489D01*
X16950667Y-13308680D02*
X16964952Y-13312489D01*
X16964952Y-13312489D02*
X16988762Y-13312489D01*
X16988762Y-13312489D02*
X16998286Y-13308680D01*
X16998286Y-13308680D02*
X17003048Y-13304870D01*
X17003048Y-13304870D02*
X17007810Y-13297251D01*
X17007810Y-13297251D02*
X17007810Y-13289632D01*
X17007810Y-13289632D02*
X17003048Y-13282013D01*
X17003048Y-13282013D02*
X16998286Y-13278204D01*
X16998286Y-13278204D02*
X16988762Y-13274394D01*
X16988762Y-13274394D02*
X16969714Y-13270585D01*
X16969714Y-13270585D02*
X16960191Y-13266775D01*
X16960191Y-13266775D02*
X16955429Y-13262966D01*
X16955429Y-13262966D02*
X16950667Y-13255347D01*
X16950667Y-13255347D02*
X16950667Y-13247728D01*
X16950667Y-13247728D02*
X16955429Y-13240108D01*
X16955429Y-13240108D02*
X16960191Y-13236299D01*
X16960191Y-13236299D02*
X16969714Y-13232489D01*
X16969714Y-13232489D02*
X16993524Y-13232489D01*
X16993524Y-13232489D02*
X17007810Y-13236299D01*
X17041143Y-13232489D02*
X17064952Y-13312489D01*
X17064952Y-13312489D02*
X17084000Y-13255347D01*
X17084000Y-13255347D02*
X17103048Y-13312489D01*
X17103048Y-13312489D02*
X17126857Y-13232489D01*
X17217333Y-13312489D02*
X17160191Y-13312489D01*
X17188762Y-13312489D02*
X17188762Y-13232489D01*
X17188762Y-13232489D02*
X17179238Y-13243918D01*
X17179238Y-13243918D02*
X17169714Y-13251537D01*
X17169714Y-13251537D02*
X17160191Y-13255347D01*
X13623809Y-12656489D02*
X13623809Y-12721251D01*
X13623809Y-12721251D02*
X13628571Y-12728870D01*
X13628571Y-12728870D02*
X13633333Y-12732680D01*
X13633333Y-12732680D02*
X13642857Y-12736489D01*
X13642857Y-12736489D02*
X13661905Y-12736489D01*
X13661905Y-12736489D02*
X13671428Y-12732680D01*
X13671428Y-12732680D02*
X13676190Y-12728870D01*
X13676190Y-12728870D02*
X13680952Y-12721251D01*
X13680952Y-12721251D02*
X13680952Y-12656489D01*
X13771428Y-12656489D02*
X13752381Y-12656489D01*
X13752381Y-12656489D02*
X13742857Y-12660299D01*
X13742857Y-12660299D02*
X13738095Y-12664108D01*
X13738095Y-12664108D02*
X13728571Y-12675537D01*
X13728571Y-12675537D02*
X13723809Y-12690775D01*
X13723809Y-12690775D02*
X13723809Y-12721251D01*
X13723809Y-12721251D02*
X13728571Y-12728870D01*
X13728571Y-12728870D02*
X13733333Y-12732680D01*
X13733333Y-12732680D02*
X13742857Y-12736489D01*
X13742857Y-12736489D02*
X13761905Y-12736489D01*
X13761905Y-12736489D02*
X13771428Y-12732680D01*
X13771428Y-12732680D02*
X13776190Y-12728870D01*
X13776190Y-12728870D02*
X13780952Y-12721251D01*
X13780952Y-12721251D02*
X13780952Y-12702204D01*
X13780952Y-12702204D02*
X13776190Y-12694585D01*
X13776190Y-12694585D02*
X13771428Y-12690775D01*
X13771428Y-12690775D02*
X13761905Y-12686966D01*
X13761905Y-12686966D02*
X13742857Y-12686966D01*
X13742857Y-12686966D02*
X13733333Y-12690775D01*
X13733333Y-12690775D02*
X13728571Y-12694585D01*
X13728571Y-12694585D02*
X13723809Y-12702204D01*
X14835714Y-13147489D02*
X14802381Y-13109394D01*
X14778571Y-13147489D02*
X14778571Y-13067489D01*
X14778571Y-13067489D02*
X14816667Y-13067489D01*
X14816667Y-13067489D02*
X14826190Y-13071299D01*
X14826190Y-13071299D02*
X14830952Y-13075108D01*
X14830952Y-13075108D02*
X14835714Y-13082728D01*
X14835714Y-13082728D02*
X14835714Y-13094156D01*
X14835714Y-13094156D02*
X14830952Y-13101775D01*
X14830952Y-13101775D02*
X14826190Y-13105585D01*
X14826190Y-13105585D02*
X14816667Y-13109394D01*
X14816667Y-13109394D02*
X14778571Y-13109394D01*
X14930952Y-13147489D02*
X14873809Y-13147489D01*
X14902381Y-13147489D02*
X14902381Y-13067489D01*
X14902381Y-13067489D02*
X14892857Y-13078918D01*
X14892857Y-13078918D02*
X14883333Y-13086537D01*
X14883333Y-13086537D02*
X14873809Y-13090347D01*
X14992857Y-13067489D02*
X15002381Y-13067489D01*
X15002381Y-13067489D02*
X15011905Y-13071299D01*
X15011905Y-13071299D02*
X15016667Y-13075108D01*
X15016667Y-13075108D02*
X15021428Y-13082728D01*
X15021428Y-13082728D02*
X15026190Y-13097966D01*
X15026190Y-13097966D02*
X15026190Y-13117013D01*
X15026190Y-13117013D02*
X15021428Y-13132251D01*
X15021428Y-13132251D02*
X15016667Y-13139870D01*
X15016667Y-13139870D02*
X15011905Y-13143680D01*
X15011905Y-13143680D02*
X15002381Y-13147489D01*
X15002381Y-13147489D02*
X14992857Y-13147489D01*
X14992857Y-13147489D02*
X14983333Y-13143680D01*
X14983333Y-13143680D02*
X14978571Y-13139870D01*
X14978571Y-13139870D02*
X14973809Y-13132251D01*
X14973809Y-13132251D02*
X14969048Y-13117013D01*
X14969048Y-13117013D02*
X14969048Y-13097966D01*
X14969048Y-13097966D02*
X14973809Y-13082728D01*
X14973809Y-13082728D02*
X14978571Y-13075108D01*
X14978571Y-13075108D02*
X14983333Y-13071299D01*
X14983333Y-13071299D02*
X14992857Y-13067489D01*
X12364333Y-14528870D02*
X12359571Y-14532680D01*
X12359571Y-14532680D02*
X12345286Y-14536489D01*
X12345286Y-14536489D02*
X12335762Y-14536489D01*
X12335762Y-14536489D02*
X12321476Y-14532680D01*
X12321476Y-14532680D02*
X12311952Y-14525061D01*
X12311952Y-14525061D02*
X12307190Y-14517442D01*
X12307190Y-14517442D02*
X12302429Y-14502204D01*
X12302429Y-14502204D02*
X12302429Y-14490775D01*
X12302429Y-14490775D02*
X12307190Y-14475537D01*
X12307190Y-14475537D02*
X12311952Y-14467918D01*
X12311952Y-14467918D02*
X12321476Y-14460299D01*
X12321476Y-14460299D02*
X12335762Y-14456489D01*
X12335762Y-14456489D02*
X12345286Y-14456489D01*
X12345286Y-14456489D02*
X12359571Y-14460299D01*
X12359571Y-14460299D02*
X12364333Y-14464108D01*
X12459571Y-14536489D02*
X12402429Y-14536489D01*
X12431000Y-14536489D02*
X12431000Y-14456489D01*
X12431000Y-14456489D02*
X12421476Y-14467918D01*
X12421476Y-14467918D02*
X12411952Y-14475537D01*
X12411952Y-14475537D02*
X12402429Y-14479347D01*
X13536490Y-11940833D02*
X13536490Y-11971786D01*
X13536490Y-11971786D02*
X13456490Y-11971786D01*
X13536490Y-11885119D02*
X13536490Y-11922262D01*
X13536490Y-11903690D02*
X13456490Y-11903690D01*
X13456490Y-11903690D02*
X13467918Y-11909881D01*
X13467918Y-11909881D02*
X13475537Y-11916071D01*
X13475537Y-11916071D02*
X13479347Y-11922262D01*
X13919048Y-11886489D02*
X13985714Y-11966489D01*
X13985714Y-11886489D02*
X13919048Y-11966489D01*
X14076190Y-11966489D02*
X14019048Y-11966489D01*
X14047619Y-11966489D02*
X14047619Y-11886489D01*
X14047619Y-11886489D02*
X14038095Y-11897918D01*
X14038095Y-11897918D02*
X14028571Y-11905537D01*
X14028571Y-11905537D02*
X14019048Y-11909347D01*
X14256714Y-13828870D02*
X14251952Y-13832680D01*
X14251952Y-13832680D02*
X14237667Y-13836489D01*
X14237667Y-13836489D02*
X14228143Y-13836489D01*
X14228143Y-13836489D02*
X14213857Y-13832680D01*
X14213857Y-13832680D02*
X14204333Y-13825061D01*
X14204333Y-13825061D02*
X14199571Y-13817442D01*
X14199571Y-13817442D02*
X14194809Y-13802204D01*
X14194809Y-13802204D02*
X14194809Y-13790775D01*
X14194809Y-13790775D02*
X14199571Y-13775537D01*
X14199571Y-13775537D02*
X14204333Y-13767918D01*
X14204333Y-13767918D02*
X14213857Y-13760299D01*
X14213857Y-13760299D02*
X14228143Y-13756489D01*
X14228143Y-13756489D02*
X14237667Y-13756489D01*
X14237667Y-13756489D02*
X14251952Y-13760299D01*
X14251952Y-13760299D02*
X14256714Y-13764108D01*
X14351952Y-13836489D02*
X14294809Y-13836489D01*
X14323381Y-13836489D02*
X14323381Y-13756489D01*
X14323381Y-13756489D02*
X14313857Y-13767918D01*
X14313857Y-13767918D02*
X14304333Y-13775537D01*
X14304333Y-13775537D02*
X14294809Y-13779347D01*
X14437667Y-13756489D02*
X14418619Y-13756489D01*
X14418619Y-13756489D02*
X14409095Y-13760299D01*
X14409095Y-13760299D02*
X14404333Y-13764108D01*
X14404333Y-13764108D02*
X14394809Y-13775537D01*
X14394809Y-13775537D02*
X14390048Y-13790775D01*
X14390048Y-13790775D02*
X14390048Y-13821251D01*
X14390048Y-13821251D02*
X14394809Y-13828870D01*
X14394809Y-13828870D02*
X14399571Y-13832680D01*
X14399571Y-13832680D02*
X14409095Y-13836489D01*
X14409095Y-13836489D02*
X14428143Y-13836489D01*
X14428143Y-13836489D02*
X14437667Y-13832680D01*
X14437667Y-13832680D02*
X14442428Y-13828870D01*
X14442428Y-13828870D02*
X14447190Y-13821251D01*
X14447190Y-13821251D02*
X14447190Y-13802204D01*
X14447190Y-13802204D02*
X14442428Y-13794585D01*
X14442428Y-13794585D02*
X14437667Y-13790775D01*
X14437667Y-13790775D02*
X14428143Y-13786966D01*
X14428143Y-13786966D02*
X14409095Y-13786966D01*
X14409095Y-13786966D02*
X14399571Y-13790775D01*
X14399571Y-13790775D02*
X14394809Y-13794585D01*
X14394809Y-13794585D02*
X14390048Y-13802204D01*
X15123809Y-13756489D02*
X15123809Y-13821251D01*
X15123809Y-13821251D02*
X15128571Y-13828870D01*
X15128571Y-13828870D02*
X15133333Y-13832680D01*
X15133333Y-13832680D02*
X15142857Y-13836489D01*
X15142857Y-13836489D02*
X15161905Y-13836489D01*
X15161905Y-13836489D02*
X15171428Y-13832680D01*
X15171428Y-13832680D02*
X15176190Y-13828870D01*
X15176190Y-13828870D02*
X15180952Y-13821251D01*
X15180952Y-13821251D02*
X15180952Y-13756489D01*
X15219048Y-13756489D02*
X15280952Y-13756489D01*
X15280952Y-13756489D02*
X15247619Y-13786966D01*
X15247619Y-13786966D02*
X15261905Y-13786966D01*
X15261905Y-13786966D02*
X15271428Y-13790775D01*
X15271428Y-13790775D02*
X15276190Y-13794585D01*
X15276190Y-13794585D02*
X15280952Y-13802204D01*
X15280952Y-13802204D02*
X15280952Y-13821251D01*
X15280952Y-13821251D02*
X15276190Y-13828870D01*
X15276190Y-13828870D02*
X15271428Y-13832680D01*
X15271428Y-13832680D02*
X15261905Y-13836489D01*
X15261905Y-13836489D02*
X15233333Y-13836489D01*
X15233333Y-13836489D02*
X15223809Y-13832680D01*
X15223809Y-13832680D02*
X15219048Y-13828870D01*
D12*
X12406164Y-12030167D02*
X12406164Y-12029690D01*
X12406450Y-12030262D02*
X12405450Y-12029928D01*
X12405450Y-12029928D02*
X12406450Y-12029595D01*
X12405926Y-12029262D02*
X12405926Y-12028928D01*
X12406450Y-12028786D02*
X12406450Y-12029262D01*
X12406450Y-12029262D02*
X12405450Y-12029262D01*
X12405450Y-12029262D02*
X12405450Y-12028786D01*
X12405545Y-12028405D02*
X12405497Y-12028357D01*
X12405497Y-12028357D02*
X12405450Y-12028262D01*
X12405450Y-12028262D02*
X12405450Y-12028024D01*
X12405450Y-12028024D02*
X12405497Y-12027928D01*
X12405497Y-12027928D02*
X12405545Y-12027881D01*
X12405545Y-12027881D02*
X12405640Y-12027833D01*
X12405640Y-12027833D02*
X12405735Y-12027833D01*
X12405735Y-12027833D02*
X12405878Y-12027881D01*
X12405878Y-12027881D02*
X12406450Y-12028452D01*
X12406450Y-12028452D02*
X12406450Y-12027833D01*
D11*
X12364333Y-14928870D02*
X12359571Y-14932680D01*
X12359571Y-14932680D02*
X12345286Y-14936489D01*
X12345286Y-14936489D02*
X12335762Y-14936489D01*
X12335762Y-14936489D02*
X12321476Y-14932680D01*
X12321476Y-14932680D02*
X12311952Y-14925061D01*
X12311952Y-14925061D02*
X12307190Y-14917442D01*
X12307190Y-14917442D02*
X12302429Y-14902204D01*
X12302429Y-14902204D02*
X12302429Y-14890775D01*
X12302429Y-14890775D02*
X12307190Y-14875537D01*
X12307190Y-14875537D02*
X12311952Y-14867918D01*
X12311952Y-14867918D02*
X12321476Y-14860299D01*
X12321476Y-14860299D02*
X12335762Y-14856489D01*
X12335762Y-14856489D02*
X12345286Y-14856489D01*
X12345286Y-14856489D02*
X12359571Y-14860299D01*
X12359571Y-14860299D02*
X12364333Y-14864108D01*
X12402429Y-14864108D02*
X12407190Y-14860299D01*
X12407190Y-14860299D02*
X12416714Y-14856489D01*
X12416714Y-14856489D02*
X12440524Y-14856489D01*
X12440524Y-14856489D02*
X12450048Y-14860299D01*
X12450048Y-14860299D02*
X12454809Y-14864108D01*
X12454809Y-14864108D02*
X12459571Y-14871728D01*
X12459571Y-14871728D02*
X12459571Y-14879347D01*
X12459571Y-14879347D02*
X12454809Y-14890775D01*
X12454809Y-14890775D02*
X12397667Y-14936489D01*
X12397667Y-14936489D02*
X12459571Y-14936489D01*
X13356489Y-14876190D02*
X13421251Y-14876190D01*
X13421251Y-14876190D02*
X13428870Y-14871428D01*
X13428870Y-14871428D02*
X13432680Y-14866667D01*
X13432680Y-14866667D02*
X13436489Y-14857143D01*
X13436489Y-14857143D02*
X13436489Y-14838095D01*
X13436489Y-14838095D02*
X13432680Y-14828571D01*
X13432680Y-14828571D02*
X13428870Y-14823809D01*
X13428870Y-14823809D02*
X13421251Y-14819048D01*
X13421251Y-14819048D02*
X13356489Y-14819048D01*
X13364108Y-14776190D02*
X13360299Y-14771428D01*
X13360299Y-14771428D02*
X13356489Y-14761905D01*
X13356489Y-14761905D02*
X13356489Y-14738095D01*
X13356489Y-14738095D02*
X13360299Y-14728571D01*
X13360299Y-14728571D02*
X13364108Y-14723809D01*
X13364108Y-14723809D02*
X13371728Y-14719048D01*
X13371728Y-14719048D02*
X13379347Y-14719048D01*
X13379347Y-14719048D02*
X13390775Y-14723809D01*
X13390775Y-14723809D02*
X13436489Y-14780952D01*
X13436489Y-14780952D02*
X13436489Y-14719048D01*
X14252333Y-14936489D02*
X14219000Y-14898394D01*
X14195190Y-14936489D02*
X14195190Y-14856489D01*
X14195190Y-14856489D02*
X14233286Y-14856489D01*
X14233286Y-14856489D02*
X14242809Y-14860299D01*
X14242809Y-14860299D02*
X14247571Y-14864108D01*
X14247571Y-14864108D02*
X14252333Y-14871728D01*
X14252333Y-14871728D02*
X14252333Y-14883156D01*
X14252333Y-14883156D02*
X14247571Y-14890775D01*
X14247571Y-14890775D02*
X14242809Y-14894585D01*
X14242809Y-14894585D02*
X14233286Y-14898394D01*
X14233286Y-14898394D02*
X14195190Y-14898394D01*
X14290429Y-14864108D02*
X14295190Y-14860299D01*
X14295190Y-14860299D02*
X14304714Y-14856489D01*
X14304714Y-14856489D02*
X14328524Y-14856489D01*
X14328524Y-14856489D02*
X14338048Y-14860299D01*
X14338048Y-14860299D02*
X14342809Y-14864108D01*
X14342809Y-14864108D02*
X14347571Y-14871728D01*
X14347571Y-14871728D02*
X14347571Y-14879347D01*
X14347571Y-14879347D02*
X14342809Y-14890775D01*
X14342809Y-14890775D02*
X14285667Y-14936489D01*
X14285667Y-14936489D02*
X14347571Y-14936489D01*
X17290714Y-12236489D02*
X17257381Y-12198394D01*
X17233571Y-12236489D02*
X17233571Y-12156489D01*
X17233571Y-12156489D02*
X17271667Y-12156489D01*
X17271667Y-12156489D02*
X17281190Y-12160299D01*
X17281190Y-12160299D02*
X17285952Y-12164108D01*
X17285952Y-12164108D02*
X17290714Y-12171728D01*
X17290714Y-12171728D02*
X17290714Y-12183156D01*
X17290714Y-12183156D02*
X17285952Y-12190775D01*
X17285952Y-12190775D02*
X17281190Y-12194585D01*
X17281190Y-12194585D02*
X17271667Y-12198394D01*
X17271667Y-12198394D02*
X17233571Y-12198394D01*
X17385952Y-12236489D02*
X17328810Y-12236489D01*
X17357381Y-12236489D02*
X17357381Y-12156489D01*
X17357381Y-12156489D02*
X17347857Y-12167918D01*
X17347857Y-12167918D02*
X17338333Y-12175537D01*
X17338333Y-12175537D02*
X17328810Y-12179347D01*
X17424048Y-12164108D02*
X17428810Y-12160299D01*
X17428810Y-12160299D02*
X17438333Y-12156489D01*
X17438333Y-12156489D02*
X17462143Y-12156489D01*
X17462143Y-12156489D02*
X17471667Y-12160299D01*
X17471667Y-12160299D02*
X17476429Y-12164108D01*
X17476429Y-12164108D02*
X17481190Y-12171728D01*
X17481190Y-12171728D02*
X17481190Y-12179347D01*
X17481190Y-12179347D02*
X17476429Y-12190775D01*
X17476429Y-12190775D02*
X17419286Y-12236489D01*
X17419286Y-12236489D02*
X17481190Y-12236489D01*
X17290714Y-12428870D02*
X17285952Y-12432680D01*
X17285952Y-12432680D02*
X17271667Y-12436489D01*
X17271667Y-12436489D02*
X17262143Y-12436489D01*
X17262143Y-12436489D02*
X17247857Y-12432680D01*
X17247857Y-12432680D02*
X17238333Y-12425061D01*
X17238333Y-12425061D02*
X17233571Y-12417442D01*
X17233571Y-12417442D02*
X17228810Y-12402204D01*
X17228810Y-12402204D02*
X17228810Y-12390775D01*
X17228810Y-12390775D02*
X17233571Y-12375537D01*
X17233571Y-12375537D02*
X17238333Y-12367918D01*
X17238333Y-12367918D02*
X17247857Y-12360299D01*
X17247857Y-12360299D02*
X17262143Y-12356489D01*
X17262143Y-12356489D02*
X17271667Y-12356489D01*
X17271667Y-12356489D02*
X17285952Y-12360299D01*
X17285952Y-12360299D02*
X17290714Y-12364108D01*
X17385952Y-12436489D02*
X17328810Y-12436489D01*
X17357381Y-12436489D02*
X17357381Y-12356489D01*
X17357381Y-12356489D02*
X17347857Y-12367918D01*
X17347857Y-12367918D02*
X17338333Y-12375537D01*
X17338333Y-12375537D02*
X17328810Y-12379347D01*
X17476429Y-12356489D02*
X17428810Y-12356489D01*
X17428810Y-12356489D02*
X17424048Y-12394585D01*
X17424048Y-12394585D02*
X17428810Y-12390775D01*
X17428810Y-12390775D02*
X17438333Y-12386966D01*
X17438333Y-12386966D02*
X17462143Y-12386966D01*
X17462143Y-12386966D02*
X17471667Y-12390775D01*
X17471667Y-12390775D02*
X17476429Y-12394585D01*
X17476429Y-12394585D02*
X17481190Y-12402204D01*
X17481190Y-12402204D02*
X17481190Y-12421251D01*
X17481190Y-12421251D02*
X17476429Y-12428870D01*
X17476429Y-12428870D02*
X17471667Y-12432680D01*
X17471667Y-12432680D02*
X17462143Y-12436489D01*
X17462143Y-12436489D02*
X17438333Y-12436489D01*
X17438333Y-12436489D02*
X17428810Y-12432680D01*
X17428810Y-12432680D02*
X17424048Y-12428870D01*
X12316714Y-13328870D02*
X12311952Y-13332680D01*
X12311952Y-13332680D02*
X12297667Y-13336489D01*
X12297667Y-13336489D02*
X12288143Y-13336489D01*
X12288143Y-13336489D02*
X12273857Y-13332680D01*
X12273857Y-13332680D02*
X12264333Y-13325061D01*
X12264333Y-13325061D02*
X12259571Y-13317442D01*
X12259571Y-13317442D02*
X12254809Y-13302204D01*
X12254809Y-13302204D02*
X12254809Y-13290775D01*
X12254809Y-13290775D02*
X12259571Y-13275537D01*
X12259571Y-13275537D02*
X12264333Y-13267918D01*
X12264333Y-13267918D02*
X12273857Y-13260299D01*
X12273857Y-13260299D02*
X12288143Y-13256489D01*
X12288143Y-13256489D02*
X12297667Y-13256489D01*
X12297667Y-13256489D02*
X12311952Y-13260299D01*
X12311952Y-13260299D02*
X12316714Y-13264108D01*
X12411952Y-13336489D02*
X12354809Y-13336489D01*
X12383381Y-13336489D02*
X12383381Y-13256489D01*
X12383381Y-13256489D02*
X12373857Y-13267918D01*
X12373857Y-13267918D02*
X12364333Y-13275537D01*
X12364333Y-13275537D02*
X12354809Y-13279347D01*
X12459571Y-13336489D02*
X12478619Y-13336489D01*
X12478619Y-13336489D02*
X12488143Y-13332680D01*
X12488143Y-13332680D02*
X12492905Y-13328870D01*
X12492905Y-13328870D02*
X12502428Y-13317442D01*
X12502428Y-13317442D02*
X12507190Y-13302204D01*
X12507190Y-13302204D02*
X12507190Y-13271728D01*
X12507190Y-13271728D02*
X12502428Y-13264108D01*
X12502428Y-13264108D02*
X12497667Y-13260299D01*
X12497667Y-13260299D02*
X12488143Y-13256489D01*
X12488143Y-13256489D02*
X12469095Y-13256489D01*
X12469095Y-13256489D02*
X12459571Y-13260299D01*
X12459571Y-13260299D02*
X12454809Y-13264108D01*
X12454809Y-13264108D02*
X12450048Y-13271728D01*
X12450048Y-13271728D02*
X12450048Y-13290775D01*
X12450048Y-13290775D02*
X12454809Y-13298394D01*
X12454809Y-13298394D02*
X12459571Y-13302204D01*
X12459571Y-13302204D02*
X12469095Y-13306013D01*
X12469095Y-13306013D02*
X12488143Y-13306013D01*
X12488143Y-13306013D02*
X12497667Y-13302204D01*
X12497667Y-13302204D02*
X12502428Y-13298394D01*
X12502428Y-13298394D02*
X12507190Y-13290775D01*
X12364333Y-15128870D02*
X12359571Y-15132680D01*
X12359571Y-15132680D02*
X12345286Y-15136489D01*
X12345286Y-15136489D02*
X12335762Y-15136489D01*
X12335762Y-15136489D02*
X12321476Y-15132680D01*
X12321476Y-15132680D02*
X12311952Y-15125061D01*
X12311952Y-15125061D02*
X12307190Y-15117442D01*
X12307190Y-15117442D02*
X12302429Y-15102204D01*
X12302429Y-15102204D02*
X12302429Y-15090775D01*
X12302429Y-15090775D02*
X12307190Y-15075537D01*
X12307190Y-15075537D02*
X12311952Y-15067918D01*
X12311952Y-15067918D02*
X12321476Y-15060299D01*
X12321476Y-15060299D02*
X12335762Y-15056489D01*
X12335762Y-15056489D02*
X12345286Y-15056489D01*
X12345286Y-15056489D02*
X12359571Y-15060299D01*
X12359571Y-15060299D02*
X12364333Y-15064108D01*
X12454809Y-15056489D02*
X12407190Y-15056489D01*
X12407190Y-15056489D02*
X12402429Y-15094585D01*
X12402429Y-15094585D02*
X12407190Y-15090775D01*
X12407190Y-15090775D02*
X12416714Y-15086966D01*
X12416714Y-15086966D02*
X12440524Y-15086966D01*
X12440524Y-15086966D02*
X12450048Y-15090775D01*
X12450048Y-15090775D02*
X12454809Y-15094585D01*
X12454809Y-15094585D02*
X12459571Y-15102204D01*
X12459571Y-15102204D02*
X12459571Y-15121251D01*
X12459571Y-15121251D02*
X12454809Y-15128870D01*
X12454809Y-15128870D02*
X12450048Y-15132680D01*
X12450048Y-15132680D02*
X12440524Y-15136489D01*
X12440524Y-15136489D02*
X12416714Y-15136489D01*
X12416714Y-15136489D02*
X12407190Y-15132680D01*
X12407190Y-15132680D02*
X12402429Y-15128870D01*
X16241714Y-14374870D02*
X16236952Y-14378680D01*
X16236952Y-14378680D02*
X16222667Y-14382489D01*
X16222667Y-14382489D02*
X16213143Y-14382489D01*
X16213143Y-14382489D02*
X16198857Y-14378680D01*
X16198857Y-14378680D02*
X16189333Y-14371061D01*
X16189333Y-14371061D02*
X16184571Y-14363442D01*
X16184571Y-14363442D02*
X16179809Y-14348204D01*
X16179809Y-14348204D02*
X16179809Y-14336775D01*
X16179809Y-14336775D02*
X16184571Y-14321537D01*
X16184571Y-14321537D02*
X16189333Y-14313918D01*
X16189333Y-14313918D02*
X16198857Y-14306299D01*
X16198857Y-14306299D02*
X16213143Y-14302489D01*
X16213143Y-14302489D02*
X16222667Y-14302489D01*
X16222667Y-14302489D02*
X16236952Y-14306299D01*
X16236952Y-14306299D02*
X16241714Y-14310108D01*
X16279809Y-14310108D02*
X16284571Y-14306299D01*
X16284571Y-14306299D02*
X16294095Y-14302489D01*
X16294095Y-14302489D02*
X16317905Y-14302489D01*
X16317905Y-14302489D02*
X16327428Y-14306299D01*
X16327428Y-14306299D02*
X16332190Y-14310108D01*
X16332190Y-14310108D02*
X16336952Y-14317728D01*
X16336952Y-14317728D02*
X16336952Y-14325347D01*
X16336952Y-14325347D02*
X16332190Y-14336775D01*
X16332190Y-14336775D02*
X16275048Y-14382489D01*
X16275048Y-14382489D02*
X16336952Y-14382489D01*
X16384571Y-14382489D02*
X16403619Y-14382489D01*
X16403619Y-14382489D02*
X16413143Y-14378680D01*
X16413143Y-14378680D02*
X16417905Y-14374870D01*
X16417905Y-14374870D02*
X16427428Y-14363442D01*
X16427428Y-14363442D02*
X16432190Y-14348204D01*
X16432190Y-14348204D02*
X16432190Y-14317728D01*
X16432190Y-14317728D02*
X16427428Y-14310108D01*
X16427428Y-14310108D02*
X16422667Y-14306299D01*
X16422667Y-14306299D02*
X16413143Y-14302489D01*
X16413143Y-14302489D02*
X16394095Y-14302489D01*
X16394095Y-14302489D02*
X16384571Y-14306299D01*
X16384571Y-14306299D02*
X16379809Y-14310108D01*
X16379809Y-14310108D02*
X16375048Y-14317728D01*
X16375048Y-14317728D02*
X16375048Y-14336775D01*
X16375048Y-14336775D02*
X16379809Y-14344394D01*
X16379809Y-14344394D02*
X16384571Y-14348204D01*
X16384571Y-14348204D02*
X16394095Y-14352013D01*
X16394095Y-14352013D02*
X16413143Y-14352013D01*
X16413143Y-14352013D02*
X16422667Y-14348204D01*
X16422667Y-14348204D02*
X16427428Y-14344394D01*
X16427428Y-14344394D02*
X16432190Y-14336775D01*
X17290714Y-12628870D02*
X17285952Y-12632680D01*
X17285952Y-12632680D02*
X17271667Y-12636489D01*
X17271667Y-12636489D02*
X17262143Y-12636489D01*
X17262143Y-12636489D02*
X17247857Y-12632680D01*
X17247857Y-12632680D02*
X17238333Y-12625061D01*
X17238333Y-12625061D02*
X17233571Y-12617442D01*
X17233571Y-12617442D02*
X17228810Y-12602204D01*
X17228810Y-12602204D02*
X17228810Y-12590775D01*
X17228810Y-12590775D02*
X17233571Y-12575537D01*
X17233571Y-12575537D02*
X17238333Y-12567918D01*
X17238333Y-12567918D02*
X17247857Y-12560299D01*
X17247857Y-12560299D02*
X17262143Y-12556489D01*
X17262143Y-12556489D02*
X17271667Y-12556489D01*
X17271667Y-12556489D02*
X17285952Y-12560299D01*
X17285952Y-12560299D02*
X17290714Y-12564108D01*
X17385952Y-12636489D02*
X17328810Y-12636489D01*
X17357381Y-12636489D02*
X17357381Y-12556489D01*
X17357381Y-12556489D02*
X17347857Y-12567918D01*
X17347857Y-12567918D02*
X17338333Y-12575537D01*
X17338333Y-12575537D02*
X17328810Y-12579347D01*
X17471667Y-12583156D02*
X17471667Y-12636489D01*
X17447857Y-12552680D02*
X17424048Y-12609823D01*
X17424048Y-12609823D02*
X17485952Y-12609823D01*
X14311333Y-14371870D02*
X14306571Y-14375680D01*
X14306571Y-14375680D02*
X14292286Y-14379489D01*
X14292286Y-14379489D02*
X14282762Y-14379489D01*
X14282762Y-14379489D02*
X14268476Y-14375680D01*
X14268476Y-14375680D02*
X14258952Y-14368061D01*
X14258952Y-14368061D02*
X14254190Y-14360442D01*
X14254190Y-14360442D02*
X14249429Y-14345204D01*
X14249429Y-14345204D02*
X14249429Y-14333775D01*
X14249429Y-14333775D02*
X14254190Y-14318537D01*
X14254190Y-14318537D02*
X14258952Y-14310918D01*
X14258952Y-14310918D02*
X14268476Y-14303299D01*
X14268476Y-14303299D02*
X14282762Y-14299489D01*
X14282762Y-14299489D02*
X14292286Y-14299489D01*
X14292286Y-14299489D02*
X14306571Y-14303299D01*
X14306571Y-14303299D02*
X14311333Y-14307108D01*
X14344667Y-14299489D02*
X14411333Y-14299489D01*
X14411333Y-14299489D02*
X14368476Y-14379489D01*
X17290714Y-11836489D02*
X17257381Y-11798394D01*
X17233571Y-11836489D02*
X17233571Y-11756489D01*
X17233571Y-11756489D02*
X17271667Y-11756489D01*
X17271667Y-11756489D02*
X17281190Y-11760299D01*
X17281190Y-11760299D02*
X17285952Y-11764108D01*
X17285952Y-11764108D02*
X17290714Y-11771728D01*
X17290714Y-11771728D02*
X17290714Y-11783156D01*
X17290714Y-11783156D02*
X17285952Y-11790775D01*
X17285952Y-11790775D02*
X17281190Y-11794585D01*
X17281190Y-11794585D02*
X17271667Y-11798394D01*
X17271667Y-11798394D02*
X17233571Y-11798394D01*
X17385952Y-11836489D02*
X17328810Y-11836489D01*
X17357381Y-11836489D02*
X17357381Y-11756489D01*
X17357381Y-11756489D02*
X17347857Y-11767918D01*
X17347857Y-11767918D02*
X17338333Y-11775537D01*
X17338333Y-11775537D02*
X17328810Y-11779347D01*
X17481190Y-11836489D02*
X17424048Y-11836489D01*
X17452619Y-11836489D02*
X17452619Y-11756489D01*
X17452619Y-11756489D02*
X17443095Y-11767918D01*
X17443095Y-11767918D02*
X17433571Y-11775537D01*
X17433571Y-11775537D02*
X17424048Y-11779347D01*
X14567667Y-14704680D02*
X14581952Y-14708489D01*
X14581952Y-14708489D02*
X14605762Y-14708489D01*
X14605762Y-14708489D02*
X14615286Y-14704680D01*
X14615286Y-14704680D02*
X14620048Y-14700870D01*
X14620048Y-14700870D02*
X14624809Y-14693251D01*
X14624809Y-14693251D02*
X14624809Y-14685632D01*
X14624809Y-14685632D02*
X14620048Y-14678013D01*
X14620048Y-14678013D02*
X14615286Y-14674204D01*
X14615286Y-14674204D02*
X14605762Y-14670394D01*
X14605762Y-14670394D02*
X14586714Y-14666585D01*
X14586714Y-14666585D02*
X14577190Y-14662775D01*
X14577190Y-14662775D02*
X14572429Y-14658966D01*
X14572429Y-14658966D02*
X14567667Y-14651347D01*
X14567667Y-14651347D02*
X14567667Y-14643728D01*
X14567667Y-14643728D02*
X14572429Y-14636108D01*
X14572429Y-14636108D02*
X14577190Y-14632299D01*
X14577190Y-14632299D02*
X14586714Y-14628489D01*
X14586714Y-14628489D02*
X14610524Y-14628489D01*
X14610524Y-14628489D02*
X14624809Y-14632299D01*
X14658143Y-14628489D02*
X14681952Y-14708489D01*
X14681952Y-14708489D02*
X14701000Y-14651347D01*
X14701000Y-14651347D02*
X14720048Y-14708489D01*
X14720048Y-14708489D02*
X14743857Y-14628489D01*
X14824809Y-14628489D02*
X14805762Y-14628489D01*
X14805762Y-14628489D02*
X14796238Y-14632299D01*
X14796238Y-14632299D02*
X14791476Y-14636108D01*
X14791476Y-14636108D02*
X14781952Y-14647537D01*
X14781952Y-14647537D02*
X14777190Y-14662775D01*
X14777190Y-14662775D02*
X14777190Y-14693251D01*
X14777190Y-14693251D02*
X14781952Y-14700870D01*
X14781952Y-14700870D02*
X14786714Y-14704680D01*
X14786714Y-14704680D02*
X14796238Y-14708489D01*
X14796238Y-14708489D02*
X14815286Y-14708489D01*
X14815286Y-14708489D02*
X14824809Y-14704680D01*
X14824809Y-14704680D02*
X14829571Y-14700870D01*
X14829571Y-14700870D02*
X14834333Y-14693251D01*
X14834333Y-14693251D02*
X14834333Y-14674204D01*
X14834333Y-14674204D02*
X14829571Y-14666585D01*
X14829571Y-14666585D02*
X14824809Y-14662775D01*
X14824809Y-14662775D02*
X14815286Y-14658966D01*
X14815286Y-14658966D02*
X14796238Y-14658966D01*
X14796238Y-14658966D02*
X14786714Y-14662775D01*
X14786714Y-14662775D02*
X14781952Y-14666585D01*
X14781952Y-14666585D02*
X14777190Y-14674204D01*
X14353870Y-11994286D02*
X14357680Y-11999048D01*
X14357680Y-11999048D02*
X14361490Y-12013333D01*
X14361490Y-12013333D02*
X14361490Y-12022857D01*
X14361490Y-12022857D02*
X14357680Y-12037143D01*
X14357680Y-12037143D02*
X14350061Y-12046667D01*
X14350061Y-12046667D02*
X14342442Y-12051428D01*
X14342442Y-12051428D02*
X14327204Y-12056190D01*
X14327204Y-12056190D02*
X14315775Y-12056190D01*
X14315775Y-12056190D02*
X14300537Y-12051428D01*
X14300537Y-12051428D02*
X14292918Y-12046667D01*
X14292918Y-12046667D02*
X14285299Y-12037143D01*
X14285299Y-12037143D02*
X14281490Y-12022857D01*
X14281490Y-12022857D02*
X14281490Y-12013333D01*
X14281490Y-12013333D02*
X14285299Y-11999048D01*
X14285299Y-11999048D02*
X14289109Y-11994286D01*
X14361490Y-11899048D02*
X14361490Y-11956190D01*
X14361490Y-11927619D02*
X14281490Y-11927619D01*
X14281490Y-11927619D02*
X14292918Y-11937143D01*
X14292918Y-11937143D02*
X14300537Y-11946667D01*
X14300537Y-11946667D02*
X14304347Y-11956190D01*
X14361490Y-11803809D02*
X14361490Y-11860952D01*
X14361490Y-11832381D02*
X14281490Y-11832381D01*
X14281490Y-11832381D02*
X14292918Y-11841905D01*
X14292918Y-11841905D02*
X14300537Y-11851428D01*
X14300537Y-11851428D02*
X14304347Y-11860952D01*
X17034714Y-14374870D02*
X17029952Y-14378680D01*
X17029952Y-14378680D02*
X17015667Y-14382489D01*
X17015667Y-14382489D02*
X17006143Y-14382489D01*
X17006143Y-14382489D02*
X16991857Y-14378680D01*
X16991857Y-14378680D02*
X16982333Y-14371061D01*
X16982333Y-14371061D02*
X16977571Y-14363442D01*
X16977571Y-14363442D02*
X16972810Y-14348204D01*
X16972810Y-14348204D02*
X16972810Y-14336775D01*
X16972810Y-14336775D02*
X16977571Y-14321537D01*
X16977571Y-14321537D02*
X16982333Y-14313918D01*
X16982333Y-14313918D02*
X16991857Y-14306299D01*
X16991857Y-14306299D02*
X17006143Y-14302489D01*
X17006143Y-14302489D02*
X17015667Y-14302489D01*
X17015667Y-14302489D02*
X17029952Y-14306299D01*
X17029952Y-14306299D02*
X17034714Y-14310108D01*
X17068048Y-14302489D02*
X17129952Y-14302489D01*
X17129952Y-14302489D02*
X17096619Y-14332966D01*
X17096619Y-14332966D02*
X17110905Y-14332966D01*
X17110905Y-14332966D02*
X17120429Y-14336775D01*
X17120429Y-14336775D02*
X17125190Y-14340585D01*
X17125190Y-14340585D02*
X17129952Y-14348204D01*
X17129952Y-14348204D02*
X17129952Y-14367251D01*
X17129952Y-14367251D02*
X17125190Y-14374870D01*
X17125190Y-14374870D02*
X17120429Y-14378680D01*
X17120429Y-14378680D02*
X17110905Y-14382489D01*
X17110905Y-14382489D02*
X17082333Y-14382489D01*
X17082333Y-14382489D02*
X17072810Y-14378680D01*
X17072810Y-14378680D02*
X17068048Y-14374870D01*
X17191857Y-14302489D02*
X17201381Y-14302489D01*
X17201381Y-14302489D02*
X17210905Y-14306299D01*
X17210905Y-14306299D02*
X17215667Y-14310108D01*
X17215667Y-14310108D02*
X17220429Y-14317728D01*
X17220429Y-14317728D02*
X17225190Y-14332966D01*
X17225190Y-14332966D02*
X17225190Y-14352013D01*
X17225190Y-14352013D02*
X17220429Y-14367251D01*
X17220429Y-14367251D02*
X17215667Y-14374870D01*
X17215667Y-14374870D02*
X17210905Y-14378680D01*
X17210905Y-14378680D02*
X17201381Y-14382489D01*
X17201381Y-14382489D02*
X17191857Y-14382489D01*
X17191857Y-14382489D02*
X17182333Y-14378680D01*
X17182333Y-14378680D02*
X17177571Y-14374870D01*
X17177571Y-14374870D02*
X17172810Y-14367251D01*
X17172810Y-14367251D02*
X17168048Y-14352013D01*
X17168048Y-14352013D02*
X17168048Y-14332966D01*
X17168048Y-14332966D02*
X17172810Y-14317728D01*
X17172810Y-14317728D02*
X17177571Y-14310108D01*
X17177571Y-14310108D02*
X17182333Y-14306299D01*
X17182333Y-14306299D02*
X17191857Y-14302489D01*
D10*
X11970667Y-15395482D02*
X11970667Y-15466910D01*
X11970667Y-15466910D02*
X11965905Y-15481196D01*
X11965905Y-15481196D02*
X11956381Y-15490720D01*
X11956381Y-15490720D02*
X11942095Y-15495482D01*
X11942095Y-15495482D02*
X11932571Y-15495482D01*
X12013524Y-15405006D02*
X12018286Y-15400244D01*
X12018286Y-15400244D02*
X12027809Y-15395482D01*
X12027809Y-15395482D02*
X12051619Y-15395482D01*
X12051619Y-15395482D02*
X12061143Y-15400244D01*
X12061143Y-15400244D02*
X12065905Y-15405006D01*
X12065905Y-15405006D02*
X12070667Y-15414529D01*
X12070667Y-15414529D02*
X12070667Y-15424053D01*
X12070667Y-15424053D02*
X12065905Y-15438339D01*
X12065905Y-15438339D02*
X12008762Y-15495482D01*
X12008762Y-15495482D02*
X12070667Y-15495482D01*
D11*
X15090476Y-11522108D02*
X15080952Y-11518299D01*
X15080952Y-11518299D02*
X15071428Y-11510680D01*
X15071428Y-11510680D02*
X15057143Y-11499251D01*
X15057143Y-11499251D02*
X15047619Y-11495442D01*
X15047619Y-11495442D02*
X15038095Y-11495442D01*
X15042857Y-11514489D02*
X15033333Y-11510680D01*
X15033333Y-11510680D02*
X15023809Y-11503061D01*
X15023809Y-11503061D02*
X15019048Y-11487823D01*
X15019048Y-11487823D02*
X15019048Y-11461156D01*
X15019048Y-11461156D02*
X15023809Y-11445918D01*
X15023809Y-11445918D02*
X15033333Y-11438299D01*
X15033333Y-11438299D02*
X15042857Y-11434489D01*
X15042857Y-11434489D02*
X15061905Y-11434489D01*
X15061905Y-11434489D02*
X15071428Y-11438299D01*
X15071428Y-11438299D02*
X15080952Y-11445918D01*
X15080952Y-11445918D02*
X15085714Y-11461156D01*
X15085714Y-11461156D02*
X15085714Y-11487823D01*
X15085714Y-11487823D02*
X15080952Y-11503061D01*
X15080952Y-11503061D02*
X15071428Y-11510680D01*
X15071428Y-11510680D02*
X15061905Y-11514489D01*
X15061905Y-11514489D02*
X15042857Y-11514489D01*
X15180952Y-11514489D02*
X15123809Y-11514489D01*
X15152381Y-11514489D02*
X15152381Y-11434489D01*
X15152381Y-11434489D02*
X15142857Y-11445918D01*
X15142857Y-11445918D02*
X15133333Y-11453537D01*
X15133333Y-11453537D02*
X15123809Y-11457347D01*
X17290714Y-12036489D02*
X17257381Y-11998394D01*
X17233571Y-12036489D02*
X17233571Y-11956489D01*
X17233571Y-11956489D02*
X17271667Y-11956489D01*
X17271667Y-11956489D02*
X17281190Y-11960299D01*
X17281190Y-11960299D02*
X17285952Y-11964108D01*
X17285952Y-11964108D02*
X17290714Y-11971728D01*
X17290714Y-11971728D02*
X17290714Y-11983156D01*
X17290714Y-11983156D02*
X17285952Y-11990775D01*
X17285952Y-11990775D02*
X17281190Y-11994585D01*
X17281190Y-11994585D02*
X17271667Y-11998394D01*
X17271667Y-11998394D02*
X17233571Y-11998394D01*
X17385952Y-12036489D02*
X17328810Y-12036489D01*
X17357381Y-12036489D02*
X17357381Y-11956489D01*
X17357381Y-11956489D02*
X17347857Y-11967918D01*
X17347857Y-11967918D02*
X17338333Y-11975537D01*
X17338333Y-11975537D02*
X17328810Y-11979347D01*
X17419286Y-11956489D02*
X17481190Y-11956489D01*
X17481190Y-11956489D02*
X17447857Y-11986966D01*
X17447857Y-11986966D02*
X17462143Y-11986966D01*
X17462143Y-11986966D02*
X17471667Y-11990775D01*
X17471667Y-11990775D02*
X17476429Y-11994585D01*
X17476429Y-11994585D02*
X17481190Y-12002204D01*
X17481190Y-12002204D02*
X17481190Y-12021251D01*
X17481190Y-12021251D02*
X17476429Y-12028870D01*
X17476429Y-12028870D02*
X17471667Y-12032680D01*
X17471667Y-12032680D02*
X17462143Y-12036489D01*
X17462143Y-12036489D02*
X17433571Y-12036489D01*
X17433571Y-12036489D02*
X17424048Y-12032680D01*
X17424048Y-12032680D02*
X17419286Y-12028870D01*
X16183667Y-14716680D02*
X16197952Y-14720489D01*
X16197952Y-14720489D02*
X16221762Y-14720489D01*
X16221762Y-14720489D02*
X16231286Y-14716680D01*
X16231286Y-14716680D02*
X16236048Y-14712870D01*
X16236048Y-14712870D02*
X16240809Y-14705251D01*
X16240809Y-14705251D02*
X16240809Y-14697632D01*
X16240809Y-14697632D02*
X16236048Y-14690013D01*
X16236048Y-14690013D02*
X16231286Y-14686204D01*
X16231286Y-14686204D02*
X16221762Y-14682394D01*
X16221762Y-14682394D02*
X16202714Y-14678585D01*
X16202714Y-14678585D02*
X16193190Y-14674775D01*
X16193190Y-14674775D02*
X16188429Y-14670966D01*
X16188429Y-14670966D02*
X16183667Y-14663347D01*
X16183667Y-14663347D02*
X16183667Y-14655728D01*
X16183667Y-14655728D02*
X16188429Y-14648108D01*
X16188429Y-14648108D02*
X16193190Y-14644299D01*
X16193190Y-14644299D02*
X16202714Y-14640489D01*
X16202714Y-14640489D02*
X16226524Y-14640489D01*
X16226524Y-14640489D02*
X16240809Y-14644299D01*
X16274143Y-14640489D02*
X16297952Y-14720489D01*
X16297952Y-14720489D02*
X16317000Y-14663347D01*
X16317000Y-14663347D02*
X16336048Y-14720489D01*
X16336048Y-14720489D02*
X16359857Y-14640489D01*
X16393190Y-14648108D02*
X16397952Y-14644299D01*
X16397952Y-14644299D02*
X16407476Y-14640489D01*
X16407476Y-14640489D02*
X16431286Y-14640489D01*
X16431286Y-14640489D02*
X16440809Y-14644299D01*
X16440809Y-14644299D02*
X16445571Y-14648108D01*
X16445571Y-14648108D02*
X16450333Y-14655728D01*
X16450333Y-14655728D02*
X16450333Y-14663347D01*
X16450333Y-14663347D02*
X16445571Y-14674775D01*
X16445571Y-14674775D02*
X16388429Y-14720489D01*
X16388429Y-14720489D02*
X16450333Y-14720489D01*
X15374667Y-14716680D02*
X15388952Y-14720489D01*
X15388952Y-14720489D02*
X15412762Y-14720489D01*
X15412762Y-14720489D02*
X15422286Y-14716680D01*
X15422286Y-14716680D02*
X15427048Y-14712870D01*
X15427048Y-14712870D02*
X15431809Y-14705251D01*
X15431809Y-14705251D02*
X15431809Y-14697632D01*
X15431809Y-14697632D02*
X15427048Y-14690013D01*
X15427048Y-14690013D02*
X15422286Y-14686204D01*
X15422286Y-14686204D02*
X15412762Y-14682394D01*
X15412762Y-14682394D02*
X15393714Y-14678585D01*
X15393714Y-14678585D02*
X15384190Y-14674775D01*
X15384190Y-14674775D02*
X15379429Y-14670966D01*
X15379429Y-14670966D02*
X15374667Y-14663347D01*
X15374667Y-14663347D02*
X15374667Y-14655728D01*
X15374667Y-14655728D02*
X15379429Y-14648108D01*
X15379429Y-14648108D02*
X15384190Y-14644299D01*
X15384190Y-14644299D02*
X15393714Y-14640489D01*
X15393714Y-14640489D02*
X15417524Y-14640489D01*
X15417524Y-14640489D02*
X15431809Y-14644299D01*
X15465143Y-14640489D02*
X15488952Y-14720489D01*
X15488952Y-14720489D02*
X15508000Y-14663347D01*
X15508000Y-14663347D02*
X15527048Y-14720489D01*
X15527048Y-14720489D02*
X15550857Y-14640489D01*
X15636571Y-14640489D02*
X15588952Y-14640489D01*
X15588952Y-14640489D02*
X15584190Y-14678585D01*
X15584190Y-14678585D02*
X15588952Y-14674775D01*
X15588952Y-14674775D02*
X15598476Y-14670966D01*
X15598476Y-14670966D02*
X15622286Y-14670966D01*
X15622286Y-14670966D02*
X15631809Y-14674775D01*
X15631809Y-14674775D02*
X15636571Y-14678585D01*
X15636571Y-14678585D02*
X15641333Y-14686204D01*
X15641333Y-14686204D02*
X15641333Y-14705251D01*
X15641333Y-14705251D02*
X15636571Y-14712870D01*
X15636571Y-14712870D02*
X15631809Y-14716680D01*
X15631809Y-14716680D02*
X15622286Y-14720489D01*
X15622286Y-14720489D02*
X15598476Y-14720489D01*
X15598476Y-14720489D02*
X15588952Y-14716680D01*
X15588952Y-14716680D02*
X15584190Y-14712870D01*
X14833714Y-14379489D02*
X14800381Y-14341394D01*
X14776571Y-14379489D02*
X14776571Y-14299489D01*
X14776571Y-14299489D02*
X14814667Y-14299489D01*
X14814667Y-14299489D02*
X14824190Y-14303299D01*
X14824190Y-14303299D02*
X14828952Y-14307108D01*
X14828952Y-14307108D02*
X14833714Y-14314728D01*
X14833714Y-14314728D02*
X14833714Y-14326156D01*
X14833714Y-14326156D02*
X14828952Y-14333775D01*
X14828952Y-14333775D02*
X14824190Y-14337585D01*
X14824190Y-14337585D02*
X14814667Y-14341394D01*
X14814667Y-14341394D02*
X14776571Y-14341394D01*
X14928952Y-14379489D02*
X14871809Y-14379489D01*
X14900381Y-14379489D02*
X14900381Y-14299489D01*
X14900381Y-14299489D02*
X14890857Y-14310918D01*
X14890857Y-14310918D02*
X14881333Y-14318537D01*
X14881333Y-14318537D02*
X14871809Y-14322347D01*
X15014667Y-14299489D02*
X14995619Y-14299489D01*
X14995619Y-14299489D02*
X14986095Y-14303299D01*
X14986095Y-14303299D02*
X14981333Y-14307108D01*
X14981333Y-14307108D02*
X14971809Y-14318537D01*
X14971809Y-14318537D02*
X14967048Y-14333775D01*
X14967048Y-14333775D02*
X14967048Y-14364251D01*
X14967048Y-14364251D02*
X14971809Y-14371870D01*
X14971809Y-14371870D02*
X14976571Y-14375680D01*
X14976571Y-14375680D02*
X14986095Y-14379489D01*
X14986095Y-14379489D02*
X15005143Y-14379489D01*
X15005143Y-14379489D02*
X15014667Y-14375680D01*
X15014667Y-14375680D02*
X15019428Y-14371870D01*
X15019428Y-14371870D02*
X15024190Y-14364251D01*
X15024190Y-14364251D02*
X15024190Y-14345204D01*
X15024190Y-14345204D02*
X15019428Y-14337585D01*
X15019428Y-14337585D02*
X15014667Y-14333775D01*
X15014667Y-14333775D02*
X15005143Y-14329966D01*
X15005143Y-14329966D02*
X14986095Y-14329966D01*
X14986095Y-14329966D02*
X14976571Y-14333775D01*
X14976571Y-14333775D02*
X14971809Y-14337585D01*
X14971809Y-14337585D02*
X14967048Y-14345204D01*
X17894167Y-11871489D02*
X17894167Y-11928632D01*
X17894167Y-11928632D02*
X17889405Y-11940061D01*
X17889405Y-11940061D02*
X17879881Y-11947680D01*
X17879881Y-11947680D02*
X17865595Y-11951489D01*
X17865595Y-11951489D02*
X17856071Y-11951489D01*
X17984643Y-11898156D02*
X17984643Y-11951489D01*
X17960833Y-11867680D02*
X17937024Y-11924823D01*
X17937024Y-11924823D02*
X17998929Y-11924823D01*
X15432714Y-14372870D02*
X15427952Y-14376680D01*
X15427952Y-14376680D02*
X15413667Y-14380489D01*
X15413667Y-14380489D02*
X15404143Y-14380489D01*
X15404143Y-14380489D02*
X15389857Y-14376680D01*
X15389857Y-14376680D02*
X15380333Y-14369061D01*
X15380333Y-14369061D02*
X15375571Y-14361442D01*
X15375571Y-14361442D02*
X15370809Y-14346204D01*
X15370809Y-14346204D02*
X15370809Y-14334775D01*
X15370809Y-14334775D02*
X15375571Y-14319537D01*
X15375571Y-14319537D02*
X15380333Y-14311918D01*
X15380333Y-14311918D02*
X15389857Y-14304299D01*
X15389857Y-14304299D02*
X15404143Y-14300489D01*
X15404143Y-14300489D02*
X15413667Y-14300489D01*
X15413667Y-14300489D02*
X15427952Y-14304299D01*
X15427952Y-14304299D02*
X15432714Y-14308108D01*
X15466048Y-14300489D02*
X15527952Y-14300489D01*
X15527952Y-14300489D02*
X15494619Y-14330966D01*
X15494619Y-14330966D02*
X15508905Y-14330966D01*
X15508905Y-14330966D02*
X15518428Y-14334775D01*
X15518428Y-14334775D02*
X15523190Y-14338585D01*
X15523190Y-14338585D02*
X15527952Y-14346204D01*
X15527952Y-14346204D02*
X15527952Y-14365251D01*
X15527952Y-14365251D02*
X15523190Y-14372870D01*
X15523190Y-14372870D02*
X15518428Y-14376680D01*
X15518428Y-14376680D02*
X15508905Y-14380489D01*
X15508905Y-14380489D02*
X15480333Y-14380489D01*
X15480333Y-14380489D02*
X15470809Y-14376680D01*
X15470809Y-14376680D02*
X15466048Y-14372870D01*
X15561286Y-14300489D02*
X15623190Y-14300489D01*
X15623190Y-14300489D02*
X15589857Y-14330966D01*
X15589857Y-14330966D02*
X15604143Y-14330966D01*
X15604143Y-14330966D02*
X15613667Y-14334775D01*
X15613667Y-14334775D02*
X15618428Y-14338585D01*
X15618428Y-14338585D02*
X15623190Y-14346204D01*
X15623190Y-14346204D02*
X15623190Y-14365251D01*
X15623190Y-14365251D02*
X15618428Y-14372870D01*
X15618428Y-14372870D02*
X15613667Y-14376680D01*
X15613667Y-14376680D02*
X15604143Y-14380489D01*
X15604143Y-14380489D02*
X15575571Y-14380489D01*
X15575571Y-14380489D02*
X15566048Y-14376680D01*
X15566048Y-14376680D02*
X15561286Y-14372870D01*
X13128870Y-11994286D02*
X13132680Y-11999048D01*
X13132680Y-11999048D02*
X13136490Y-12013333D01*
X13136490Y-12013333D02*
X13136490Y-12022857D01*
X13136490Y-12022857D02*
X13132680Y-12037143D01*
X13132680Y-12037143D02*
X13125061Y-12046667D01*
X13125061Y-12046667D02*
X13117442Y-12051428D01*
X13117442Y-12051428D02*
X13102204Y-12056190D01*
X13102204Y-12056190D02*
X13090775Y-12056190D01*
X13090775Y-12056190D02*
X13075537Y-12051428D01*
X13075537Y-12051428D02*
X13067918Y-12046667D01*
X13067918Y-12046667D02*
X13060299Y-12037143D01*
X13060299Y-12037143D02*
X13056490Y-12022857D01*
X13056490Y-12022857D02*
X13056490Y-12013333D01*
X13056490Y-12013333D02*
X13060299Y-11999048D01*
X13060299Y-11999048D02*
X13064109Y-11994286D01*
X13064109Y-11956190D02*
X13060299Y-11951428D01*
X13060299Y-11951428D02*
X13056490Y-11941905D01*
X13056490Y-11941905D02*
X13056490Y-11918095D01*
X13056490Y-11918095D02*
X13060299Y-11908571D01*
X13060299Y-11908571D02*
X13064109Y-11903809D01*
X13064109Y-11903809D02*
X13071728Y-11899048D01*
X13071728Y-11899048D02*
X13079347Y-11899048D01*
X13079347Y-11899048D02*
X13090775Y-11903809D01*
X13090775Y-11903809D02*
X13136490Y-11960952D01*
X13136490Y-11960952D02*
X13136490Y-11899048D01*
X13056490Y-11865714D02*
X13056490Y-11799048D01*
X13056490Y-11799048D02*
X13136490Y-11841905D01*
X14264333Y-15128870D02*
X14259571Y-15132680D01*
X14259571Y-15132680D02*
X14245286Y-15136489D01*
X14245286Y-15136489D02*
X14235762Y-15136489D01*
X14235762Y-15136489D02*
X14221476Y-15132680D01*
X14221476Y-15132680D02*
X14211952Y-15125061D01*
X14211952Y-15125061D02*
X14207190Y-15117442D01*
X14207190Y-15117442D02*
X14202429Y-15102204D01*
X14202429Y-15102204D02*
X14202429Y-15090775D01*
X14202429Y-15090775D02*
X14207190Y-15075537D01*
X14207190Y-15075537D02*
X14211952Y-15067918D01*
X14211952Y-15067918D02*
X14221476Y-15060299D01*
X14221476Y-15060299D02*
X14235762Y-15056489D01*
X14235762Y-15056489D02*
X14245286Y-15056489D01*
X14245286Y-15056489D02*
X14259571Y-15060299D01*
X14259571Y-15060299D02*
X14264333Y-15064108D01*
X14311952Y-15136489D02*
X14331000Y-15136489D01*
X14331000Y-15136489D02*
X14340524Y-15132680D01*
X14340524Y-15132680D02*
X14345286Y-15128870D01*
X14345286Y-15128870D02*
X14354809Y-15117442D01*
X14354809Y-15117442D02*
X14359571Y-15102204D01*
X14359571Y-15102204D02*
X14359571Y-15071728D01*
X14359571Y-15071728D02*
X14354809Y-15064108D01*
X14354809Y-15064108D02*
X14350048Y-15060299D01*
X14350048Y-15060299D02*
X14340524Y-15056489D01*
X14340524Y-15056489D02*
X14321476Y-15056489D01*
X14321476Y-15056489D02*
X14311952Y-15060299D01*
X14311952Y-15060299D02*
X14307190Y-15064108D01*
X14307190Y-15064108D02*
X14302429Y-15071728D01*
X14302429Y-15071728D02*
X14302429Y-15090775D01*
X14302429Y-15090775D02*
X14307190Y-15098394D01*
X14307190Y-15098394D02*
X14311952Y-15102204D01*
X14311952Y-15102204D02*
X14321476Y-15106013D01*
X14321476Y-15106013D02*
X14340524Y-15106013D01*
X14340524Y-15106013D02*
X14350048Y-15102204D01*
X14350048Y-15102204D02*
X14354809Y-15098394D01*
X14354809Y-15098394D02*
X14359571Y-15090775D01*
X12364333Y-14136489D02*
X12331000Y-14098394D01*
X12307190Y-14136489D02*
X12307190Y-14056489D01*
X12307190Y-14056489D02*
X12345286Y-14056489D01*
X12345286Y-14056489D02*
X12354809Y-14060299D01*
X12354809Y-14060299D02*
X12359571Y-14064108D01*
X12359571Y-14064108D02*
X12364333Y-14071728D01*
X12364333Y-14071728D02*
X12364333Y-14083156D01*
X12364333Y-14083156D02*
X12359571Y-14090775D01*
X12359571Y-14090775D02*
X12354809Y-14094585D01*
X12354809Y-14094585D02*
X12345286Y-14098394D01*
X12345286Y-14098394D02*
X12307190Y-14098394D01*
X12454809Y-14056489D02*
X12407190Y-14056489D01*
X12407190Y-14056489D02*
X12402429Y-14094585D01*
X12402429Y-14094585D02*
X12407190Y-14090775D01*
X12407190Y-14090775D02*
X12416714Y-14086966D01*
X12416714Y-14086966D02*
X12440524Y-14086966D01*
X12440524Y-14086966D02*
X12450048Y-14090775D01*
X12450048Y-14090775D02*
X12454809Y-14094585D01*
X12454809Y-14094585D02*
X12459571Y-14102204D01*
X12459571Y-14102204D02*
X12459571Y-14121251D01*
X12459571Y-14121251D02*
X12454809Y-14128870D01*
X12454809Y-14128870D02*
X12450048Y-14132680D01*
X12450048Y-14132680D02*
X12440524Y-14136489D01*
X12440524Y-14136489D02*
X12416714Y-14136489D01*
X12416714Y-14136489D02*
X12407190Y-14132680D01*
X12407190Y-14132680D02*
X12402429Y-14128870D01*
D13*
%TO.C,C22*%
X16450000Y-14200000D02*
X16750000Y-14200000D01*
X16750000Y-14000000D02*
X16450000Y-14000000D01*
X16450000Y-14200000D02*
G75*
G02*
X16450000Y-14000000I112225J100000D01*
G01*
X16750000Y-14000000D02*
G75*
G02*
X16750000Y-14200000I-112225J-100000D01*
G01*
%TO.C,C28*%
X12600000Y-11450000D02*
X12600000Y-11750000D01*
X12800000Y-11750000D02*
X12800000Y-11450000D01*
X12600000Y-11450000D02*
G75*
G02*
X12800000Y-11450000I100000J-112225D01*
G01*
X12800000Y-11750000D02*
G75*
G02*
X12600000Y-11750000I-100000J112225D01*
G01*
%TO.C,C24*%
X13850000Y-13700000D02*
X14150000Y-13700000D01*
X14150000Y-13500000D02*
X13850000Y-13500000D01*
X13850000Y-13700000D02*
G75*
G02*
X13850000Y-13500000I112225J100000D01*
G01*
X14150000Y-13500000D02*
G75*
G02*
X14150000Y-13700000I-112225J-100000D01*
G01*
%TO.C,R8*%
X15300000Y-11730000D02*
X15300000Y-12070000D01*
X15300000Y-12070000D02*
X15500000Y-12070000D01*
X15500000Y-11730000D02*
X15300000Y-11730000D01*
X15500000Y-12070000D02*
X15500000Y-11730000D01*
%TO.C,R9*%
X15500000Y-11730000D02*
X15500000Y-12070000D01*
X15500000Y-12070000D02*
X15700000Y-12070000D01*
X15700000Y-11730000D02*
X15500000Y-11730000D01*
X15700000Y-12070000D02*
X15700000Y-11730000D01*
%TO.C,C10*%
X13595000Y-11470000D02*
X13595000Y-11730000D01*
X13755000Y-11730000D02*
X13755000Y-11470000D01*
X13595000Y-11470000D02*
G75*
G02*
X13755000Y-11470000I80000J-84022D01*
G01*
X13755000Y-11730000D02*
G75*
G02*
X13595000Y-11730000I-80000J84022D01*
G01*
D11*
%TO.C,U1*%
X13240000Y-13740000D02*
X13240000Y-13790000D01*
X13240000Y-13740000D02*
X13290000Y-13740000D01*
X13240000Y-14060000D02*
X13240000Y-14010000D01*
X13240000Y-14060000D02*
X13290000Y-14060000D01*
X13510000Y-13740000D02*
X13560000Y-13740000D01*
X13560000Y-13740000D02*
X13560000Y-13790000D01*
X13560000Y-14060000D02*
X13510000Y-14060000D01*
X13560000Y-14060000D02*
X13560000Y-14010000D01*
D13*
X13232500Y-13825000D02*
X13198900Y-13849000D01*
X13198900Y-13801000D01*
X13232500Y-13825000D01*
G36*
X13232500Y-13825000D02*
G01*
X13198900Y-13849000D01*
X13198900Y-13801000D01*
X13232500Y-13825000D01*
G37*
%TO.C,C23*%
X16050000Y-14200000D02*
X16350000Y-14200000D01*
X16350000Y-14000000D02*
X16050000Y-14000000D01*
X16050000Y-14200000D02*
G75*
G02*
X16050000Y-14000000I112225J100000D01*
G01*
X16350000Y-14000000D02*
G75*
G02*
X16350000Y-14200000I-112225J-100000D01*
G01*
%TO.C,R15*%
X14630000Y-11800000D02*
X14630000Y-12000000D01*
X14630000Y-12000000D02*
X14970000Y-12000000D01*
X14970000Y-11800000D02*
X14630000Y-11800000D01*
X14970000Y-12000000D02*
X14970000Y-11800000D01*
%TO.C,U5*%
X15939000Y-11639000D02*
X16011500Y-11639000D01*
X15939000Y-11711500D02*
X15939000Y-11639000D01*
X15939000Y-12088500D02*
X15939000Y-12131000D01*
X16011500Y-12161000D02*
X15963000Y-12161000D01*
X16461000Y-11639000D02*
X16388500Y-11639000D01*
X16461000Y-11711500D02*
X16461000Y-11639000D01*
X16461000Y-12088500D02*
X16461000Y-12161000D01*
X16461000Y-12161000D02*
X16388500Y-12161000D01*
X15939000Y-12161000D02*
X15906000Y-12185000D01*
X15906000Y-12137000D01*
X15939000Y-12161000D01*
G36*
X15939000Y-12161000D02*
G01*
X15906000Y-12185000D01*
X15906000Y-12137000D01*
X15939000Y-12161000D01*
G37*
%TO.C,R3*%
X13830000Y-14600000D02*
X13830000Y-14800000D01*
X13830000Y-14800000D02*
X14170000Y-14800000D01*
X14170000Y-14600000D02*
X13830000Y-14600000D01*
X14170000Y-14800000D02*
X14170000Y-14600000D01*
%TO.C,C20*%
X12550000Y-12700000D02*
X12850000Y-12700000D01*
X12850000Y-12500000D02*
X12550000Y-12500000D01*
X12550000Y-12700000D02*
G75*
G02*
X12550000Y-12500000I112225J100000D01*
G01*
X12850000Y-12500000D02*
G75*
G02*
X12850000Y-12700000I-112225J-100000D01*
G01*
%TO.C,D1*%
X17540000Y-12220000D02*
X17540000Y-12580000D01*
X17540000Y-12580000D02*
X18260000Y-12580000D01*
X18260000Y-12220000D02*
X17540000Y-12220000D01*
X18260000Y-12580000D02*
X18260000Y-12220000D01*
%TO.C,C6*%
X13850000Y-14300000D02*
X14150000Y-14300000D01*
X14150000Y-14100000D02*
X13850000Y-14100000D01*
X13850000Y-14300000D02*
G75*
G02*
X13850000Y-14100000I112225J100000D01*
G01*
X14150000Y-14100000D02*
G75*
G02*
X14150000Y-14300000I-112225J-100000D01*
G01*
%TO.C,SW3*%
X16775000Y-14875000D02*
X16775000Y-15325000D01*
X17025000Y-15450000D02*
X17175000Y-15450000D01*
X17175000Y-14750000D02*
X17025000Y-14750000D01*
X17425000Y-15325000D02*
X17425000Y-14875000D01*
%TO.C,C34*%
X14350000Y-14600000D02*
X14650000Y-14600000D01*
X14650000Y-14400000D02*
X14350000Y-14400000D01*
X14350000Y-14600000D02*
G75*
G02*
X14350000Y-14400000I112225J100000D01*
G01*
X14650000Y-14400000D02*
G75*
G02*
X14650000Y-14600000I-112225J-100000D01*
G01*
%TO.C,J3*%
X14507000Y-12564500D02*
X14640000Y-12564500D01*
X14507000Y-12697500D02*
X14507000Y-12564500D01*
X14767000Y-12564500D02*
X16297000Y-12564500D01*
X14767000Y-12830500D02*
X14767000Y-12564500D01*
X14767000Y-12830500D02*
X16297000Y-12830500D01*
X16297000Y-12830500D02*
X16297000Y-12564500D01*
%TO.C,C8*%
X12550000Y-14800000D02*
X12850000Y-14800000D01*
X12850000Y-14600000D02*
X12550000Y-14600000D01*
X12550000Y-14800000D02*
G75*
G02*
X12550000Y-14600000I112225J100000D01*
G01*
X12850000Y-14600000D02*
G75*
G02*
X12850000Y-14800000I-112225J-100000D01*
G01*
%TO.C,C3*%
X13850000Y-14100000D02*
X14150000Y-14100000D01*
X14150000Y-13900000D02*
X13850000Y-13900000D01*
X13850000Y-14100000D02*
G75*
G02*
X13850000Y-13900000I112225J100000D01*
G01*
X14150000Y-13900000D02*
G75*
G02*
X14150000Y-14100000I-112225J-100000D01*
G01*
%TO.C,C31*%
X17750000Y-14600000D02*
X18050000Y-14600000D01*
X18050000Y-14400000D02*
X17750000Y-14400000D01*
X17750000Y-14600000D02*
G75*
G02*
X17750000Y-14400000I112225J100000D01*
G01*
X18050000Y-14400000D02*
G75*
G02*
X18050000Y-14600000I-112225J-100000D01*
G01*
%TO.C,C32*%
X17650000Y-12200000D02*
X17950000Y-12200000D01*
X17950000Y-12000000D02*
X17650000Y-12000000D01*
X17650000Y-12200000D02*
G75*
G02*
X17650000Y-12000000I112225J100000D01*
G01*
X17950000Y-12000000D02*
G75*
G02*
X17950000Y-12200000I-112225J-100000D01*
G01*
%TO.C,C18*%
X12550000Y-13600000D02*
X12850000Y-13600000D01*
X12850000Y-13400000D02*
X12550000Y-13400000D01*
X12550000Y-13600000D02*
G75*
G02*
X12550000Y-13400000I112225J100000D01*
G01*
X12850000Y-13400000D02*
G75*
G02*
X12850000Y-13600000I-112225J-100000D01*
G01*
%TO.C,C21*%
X13200000Y-11450000D02*
X13200000Y-11750000D01*
X13400000Y-11750000D02*
X13400000Y-11450000D01*
X13200000Y-11450000D02*
G75*
G02*
X13400000Y-11450000I100000J-112225D01*
G01*
X13400000Y-11750000D02*
G75*
G02*
X13200000Y-11750000I-100000J112225D01*
G01*
%TO.C,C4*%
X12550000Y-14400000D02*
X12850000Y-14400000D01*
X12850000Y-14200000D02*
X12550000Y-14200000D01*
X12550000Y-14400000D02*
G75*
G02*
X12550000Y-14200000I112225J100000D01*
G01*
X12850000Y-14200000D02*
G75*
G02*
X12850000Y-14400000I-112225J-100000D01*
G01*
%TO.C,C17*%
X12550000Y-13800000D02*
X12850000Y-13800000D01*
X12850000Y-13600000D02*
X12550000Y-13600000D01*
X12550000Y-13800000D02*
G75*
G02*
X12550000Y-13600000I112225J100000D01*
G01*
X12850000Y-13600000D02*
G75*
G02*
X12850000Y-13800000I-112225J-100000D01*
G01*
%TO.C,U4*%
X16059000Y-13309000D02*
X16185000Y-13309000D01*
X16059000Y-13685000D02*
X16059000Y-13309000D01*
X16741000Y-13309000D02*
X16615000Y-13309000D01*
X16741000Y-13685000D02*
X16741000Y-13309000D01*
X16069000Y-13813000D02*
X16036000Y-13837000D01*
X16036000Y-13789000D01*
X16069000Y-13813000D01*
G36*
X16069000Y-13813000D02*
G01*
X16036000Y-13837000D01*
X16036000Y-13789000D01*
X16069000Y-13813000D01*
G37*
%TO.C,R1*%
X17530000Y-13800000D02*
X17530000Y-14000000D01*
X17530000Y-14000000D02*
X17870000Y-14000000D01*
X17870000Y-13800000D02*
X17530000Y-13800000D01*
X17870000Y-14000000D02*
X17870000Y-13800000D01*
%TO.C,LED1*%
X17530000Y-14000000D02*
X17870000Y-14000000D01*
X17870000Y-14200000D01*
X17530000Y-14200000D01*
X17530000Y-14000000D01*
X17570000Y-13970000D02*
X17650000Y-13970000D01*
X17650000Y-14000000D01*
X17570000Y-14000000D01*
X17570000Y-13970000D01*
G36*
X17570000Y-13970000D02*
G01*
X17650000Y-13970000D01*
X17650000Y-14000000D01*
X17570000Y-14000000D01*
X17570000Y-13970000D01*
G37*
X17570000Y-14200000D02*
X17650000Y-14200000D01*
X17650000Y-14230000D01*
X17570000Y-14230000D01*
X17570000Y-14200000D01*
G36*
X17570000Y-14200000D02*
G01*
X17650000Y-14200000D01*
X17650000Y-14230000D01*
X17570000Y-14230000D01*
X17570000Y-14200000D01*
G37*
%TO.C,R4*%
X12530000Y-13800000D02*
X12530000Y-14000000D01*
X12530000Y-14000000D02*
X12870000Y-14000000D01*
X12870000Y-13800000D02*
X12530000Y-13800000D01*
X12870000Y-14000000D02*
X12870000Y-13800000D01*
%TO.C,C35*%
X15350000Y-13400000D02*
X15650000Y-13400000D01*
X15650000Y-13200000D02*
X15350000Y-13200000D01*
X15350000Y-13400000D02*
G75*
G02*
X15350000Y-13200000I112225J100000D01*
G01*
X15650000Y-13200000D02*
G75*
G02*
X15650000Y-13400000I-112225J-100000D01*
G01*
%TO.C,R14*%
X16830000Y-11500000D02*
X16830000Y-11700000D01*
X16830000Y-11700000D02*
X17170000Y-11700000D01*
X17170000Y-11500000D02*
X16830000Y-11500000D01*
X17170000Y-11700000D02*
X17170000Y-11500000D01*
%TO.C,J1*%
X17530000Y-13480000D02*
X17530000Y-13560000D01*
X17822000Y-12730000D02*
X18000000Y-12730000D01*
X17822000Y-13670000D02*
X18000000Y-13670000D01*
%TO.C,C26*%
X12800000Y-11450000D02*
X12800000Y-11750000D01*
X13000000Y-11750000D02*
X13000000Y-11450000D01*
X12800000Y-11450000D02*
G75*
G02*
X13000000Y-11450000I100000J-112225D01*
G01*
X13000000Y-11750000D02*
G75*
G02*
X12800000Y-11750000I-100000J112225D01*
G01*
%TO.C,L3*%
X12530000Y-12720000D02*
X12530000Y-13180000D01*
X12530000Y-13180000D02*
X12770000Y-13180000D01*
X12770000Y-12720000D02*
X12530000Y-12720000D01*
X12770000Y-13180000D02*
X12770000Y-12720000D01*
%TO.C,R6*%
X17930000Y-13800000D02*
X17930000Y-14000000D01*
X17930000Y-14000000D02*
X18270000Y-14000000D01*
X18270000Y-13800000D02*
X17930000Y-13800000D01*
X18270000Y-14000000D02*
X18270000Y-13800000D01*
%TO.C,SW4*%
X17575000Y-14875000D02*
X17575000Y-15325000D01*
X17825000Y-15450000D02*
X17975000Y-15450000D01*
X17975000Y-14750000D02*
X17825000Y-14750000D01*
X18225000Y-15325000D02*
X18225000Y-14875000D01*
%TO.C,C25*%
X13850000Y-13500000D02*
X14150000Y-13500000D01*
X14150000Y-13300000D02*
X13850000Y-13300000D01*
X13850000Y-13500000D02*
G75*
G02*
X13850000Y-13300000I112225J100000D01*
G01*
X14150000Y-13300000D02*
G75*
G02*
X14150000Y-13500000I-112225J-100000D01*
G01*
%TO.C,Q2*%
X15100000Y-11944000D02*
X15035000Y-11944000D01*
X15100000Y-11944000D02*
X15165000Y-11944000D01*
X15100000Y-12256000D02*
X15035000Y-12256000D01*
X15100000Y-12256000D02*
X15165000Y-12256000D01*
X15240250Y-12284000D02*
X15192250Y-12284000D01*
X15216250Y-12251000D01*
X15240250Y-12284000D01*
G36*
X15240250Y-12284000D02*
G01*
X15192250Y-12284000D01*
X15216250Y-12251000D01*
X15240250Y-12284000D01*
G37*
%TO.C,R7*%
X17930000Y-14000000D02*
X17930000Y-14200000D01*
X17930000Y-14200000D02*
X18270000Y-14200000D01*
X18270000Y-14000000D02*
X17930000Y-14000000D01*
X18270000Y-14200000D02*
X18270000Y-14000000D01*
%TO.C,SW1*%
X16962000Y-13873000D02*
X16962000Y-13354000D01*
X17238000Y-13354000D02*
X16962000Y-13354000D01*
X17238000Y-13873000D02*
X16962000Y-13873000D01*
X17238000Y-13873000D02*
X17238000Y-13354000D01*
X17238000Y-14000000D02*
X17238000Y-14138000D01*
X17238000Y-14138000D02*
X17100000Y-14138000D01*
%TO.C,U6*%
X13339000Y-12404000D02*
X13339000Y-12363000D01*
X13339000Y-13061000D02*
X13339000Y-12996000D01*
X13404000Y-12339000D02*
X13369000Y-12339000D01*
X13404000Y-13061000D02*
X13339000Y-13061000D01*
X13996000Y-12339000D02*
X14061000Y-12339000D01*
X13996000Y-13061000D02*
X14061000Y-13061000D01*
X14061000Y-12339000D02*
X14061000Y-12404000D01*
X14061000Y-13061000D02*
X14061000Y-12996000D01*
X13339000Y-12339000D02*
X13315000Y-12306000D01*
X13363000Y-12306000D01*
X13339000Y-12339000D01*
G36*
X13339000Y-12339000D02*
G01*
X13315000Y-12306000D01*
X13363000Y-12306000D01*
X13339000Y-12339000D01*
G37*
%TO.C,R10*%
X14730000Y-13200000D02*
X14730000Y-13400000D01*
X14730000Y-13400000D02*
X15070000Y-13400000D01*
X15070000Y-13200000D02*
X14730000Y-13200000D01*
X15070000Y-13400000D02*
X15070000Y-13200000D01*
%TO.C,C1*%
X12550000Y-14600000D02*
X12850000Y-14600000D01*
X12850000Y-14400000D02*
X12550000Y-14400000D01*
X12550000Y-14600000D02*
G75*
G02*
X12550000Y-14400000I112225J100000D01*
G01*
X12850000Y-14400000D02*
G75*
G02*
X12850000Y-14600000I-112225J-100000D01*
G01*
D10*
%TO.C,L1*%
X13430000Y-11685000D02*
X13430000Y-11515000D01*
X13570000Y-11515000D02*
X13570000Y-11685000D01*
D13*
%TO.C,X1*%
X13780000Y-11420000D02*
X14220000Y-11420000D01*
X13780000Y-11730000D02*
X13780000Y-11420000D01*
X14220000Y-11420000D02*
X14220000Y-11780000D01*
X14220000Y-11780000D02*
X13830000Y-11780000D01*
D14*
X13806350Y-11760000D02*
G75*
G02*
X13793650Y-11760000I-6350J0D01*
G01*
X13793650Y-11760000D02*
G75*
G02*
X13806350Y-11760000I6350J0D01*
G01*
D13*
%TO.C,C16*%
X13850000Y-13900000D02*
X14150000Y-13900000D01*
X14150000Y-13700000D02*
X13850000Y-13700000D01*
X13850000Y-13900000D02*
G75*
G02*
X13850000Y-13700000I112225J100000D01*
G01*
X14150000Y-13700000D02*
G75*
G02*
X14150000Y-13900000I-112225J-100000D01*
G01*
%TO.C,U3*%
X14800000Y-14111000D02*
X15600000Y-14111000D01*
X14801000Y-13489000D02*
X15600000Y-13489000D01*
X14777000Y-13569000D02*
X14729000Y-13569000D01*
X14777000Y-13521000D01*
X14777000Y-13569000D01*
G36*
X14777000Y-13569000D02*
G01*
X14729000Y-13569000D01*
X14777000Y-13521000D01*
X14777000Y-13569000D01*
G37*
%TO.C,C2*%
X12550000Y-15000000D02*
X12850000Y-15000000D01*
X12850000Y-14800000D02*
X12550000Y-14800000D01*
X12550000Y-15000000D02*
G75*
G02*
X12550000Y-14800000I112225J100000D01*
G01*
X12850000Y-14800000D02*
G75*
G02*
X12850000Y-15000000I-112225J-100000D01*
G01*
%TO.C,U2*%
X13189000Y-14589000D02*
X13236500Y-14589000D01*
X13189000Y-14636500D02*
X13189000Y-14589000D01*
X13189000Y-14963500D02*
X13189000Y-15011000D01*
X13189000Y-15011000D02*
X13236500Y-15011000D01*
X13563500Y-14589000D02*
X13587000Y-14589000D01*
X13611000Y-14636500D02*
X13611000Y-14619000D01*
X13611000Y-14963500D02*
X13611000Y-15011000D01*
X13611000Y-15011000D02*
X13563500Y-15011000D01*
X13644000Y-14613000D02*
X13611000Y-14589000D01*
X13644000Y-14565000D01*
X13644000Y-14613000D01*
G36*
X13644000Y-14613000D02*
G01*
X13611000Y-14589000D01*
X13644000Y-14565000D01*
X13644000Y-14613000D01*
G37*
%TO.C,R2*%
X13830000Y-14800000D02*
X13830000Y-15000000D01*
X13830000Y-15000000D02*
X14170000Y-15000000D01*
X14170000Y-14800000D02*
X13830000Y-14800000D01*
X14170000Y-15000000D02*
X14170000Y-14800000D01*
%TO.C,R12*%
X16830000Y-12100000D02*
X16830000Y-12300000D01*
X16830000Y-12300000D02*
X17170000Y-12300000D01*
X17170000Y-12100000D02*
X16830000Y-12100000D01*
X17170000Y-12300000D02*
X17170000Y-12100000D01*
%TO.C,C15*%
X16850000Y-12500000D02*
X17150000Y-12500000D01*
X17150000Y-12300000D02*
X16850000Y-12300000D01*
X16850000Y-12500000D02*
G75*
G02*
X16850000Y-12300000I112225J100000D01*
G01*
X17150000Y-12300000D02*
G75*
G02*
X17150000Y-12500000I-112225J-100000D01*
G01*
%TO.C,C19*%
X12550000Y-13400000D02*
X12850000Y-13400000D01*
X12850000Y-13200000D02*
X12550000Y-13200000D01*
X12550000Y-13400000D02*
G75*
G02*
X12550000Y-13200000I112225J100000D01*
G01*
X12850000Y-13200000D02*
G75*
G02*
X12850000Y-13400000I-112225J-100000D01*
G01*
%TO.C,C5*%
X12550000Y-15200000D02*
X12850000Y-15200000D01*
X12850000Y-15000000D02*
X12550000Y-15000000D01*
X12550000Y-15200000D02*
G75*
G02*
X12550000Y-15000000I112225J100000D01*
G01*
X12850000Y-15000000D02*
G75*
G02*
X12850000Y-15200000I-112225J-100000D01*
G01*
%TO.C,C29*%
X16150000Y-14600000D02*
X16450000Y-14600000D01*
X16450000Y-14400000D02*
X16150000Y-14400000D01*
X16150000Y-14600000D02*
G75*
G02*
X16150000Y-14400000I112225J100000D01*
G01*
X16450000Y-14400000D02*
G75*
G02*
X16450000Y-14600000I-112225J-100000D01*
G01*
%TO.C,C14*%
X16850000Y-12700000D02*
X17150000Y-12700000D01*
X17150000Y-12500000D02*
X16850000Y-12500000D01*
X16850000Y-12700000D02*
G75*
G02*
X16850000Y-12500000I112225J100000D01*
G01*
X17150000Y-12500000D02*
G75*
G02*
X17150000Y-12700000I-112225J-100000D01*
G01*
%TO.C,C7*%
X13850000Y-14500000D02*
X14150000Y-14500000D01*
X14150000Y-14300000D02*
X13850000Y-14300000D01*
X13850000Y-14500000D02*
G75*
G02*
X13850000Y-14300000I112225J100000D01*
G01*
X14150000Y-14300000D02*
G75*
G02*
X14150000Y-14500000I-112225J-100000D01*
G01*
%TO.C,R11*%
X16830000Y-11700000D02*
X16830000Y-11900000D01*
X16830000Y-11900000D02*
X17170000Y-11900000D01*
X17170000Y-11700000D02*
X16830000Y-11700000D01*
X17170000Y-11900000D02*
X17170000Y-11700000D01*
%TO.C,SW6*%
X14375000Y-14875000D02*
X14375000Y-15325000D01*
X14625000Y-15450000D02*
X14775000Y-15450000D01*
X14775000Y-14750000D02*
X14625000Y-14750000D01*
X15025000Y-15325000D02*
X15025000Y-14875000D01*
%TO.C,C11*%
X14245000Y-11470000D02*
X14245000Y-11730000D01*
X14405000Y-11730000D02*
X14405000Y-11470000D01*
X14245000Y-11470000D02*
G75*
G02*
X14405000Y-11470000I80000J-84022D01*
G01*
X14405000Y-11730000D02*
G75*
G02*
X14245000Y-11730000I-80000J84022D01*
G01*
%TO.C,C30*%
X16950000Y-14600000D02*
X17250000Y-14600000D01*
X17250000Y-14400000D02*
X16950000Y-14400000D01*
X16950000Y-14600000D02*
G75*
G02*
X16950000Y-14400000I112225J100000D01*
G01*
X17250000Y-14400000D02*
G75*
G02*
X17250000Y-14600000I-112225J-100000D01*
G01*
%TO.C,J2*%
X12146000Y-15262000D02*
X12146000Y-15538000D01*
X13935000Y-15262000D02*
X12146000Y-15262000D01*
X13935000Y-15262000D02*
X13935000Y-15538000D01*
X13935000Y-15538000D02*
X12146000Y-15538000D01*
X14062000Y-15262000D02*
X14200000Y-15262000D01*
X14200000Y-15262000D02*
X14200000Y-15400000D01*
%TO.C,Q1*%
X15100000Y-11544000D02*
X15035000Y-11544000D01*
X15100000Y-11544000D02*
X15165000Y-11544000D01*
X15100000Y-11856000D02*
X15035000Y-11856000D01*
X15100000Y-11856000D02*
X15165000Y-11856000D01*
X15240250Y-11884000D02*
X15192250Y-11884000D01*
X15216250Y-11851000D01*
X15240250Y-11884000D01*
G36*
X15240250Y-11884000D02*
G01*
X15192250Y-11884000D01*
X15216250Y-11851000D01*
X15240250Y-11884000D01*
G37*
%TO.C,R13*%
X16830000Y-11900000D02*
X16830000Y-12100000D01*
X16830000Y-12100000D02*
X17170000Y-12100000D01*
X17170000Y-11900000D02*
X16830000Y-11900000D01*
X17170000Y-12100000D02*
X17170000Y-11900000D01*
%TO.C,SW2*%
X15975000Y-14875000D02*
X15975000Y-15325000D01*
X16225000Y-15450000D02*
X16375000Y-15450000D01*
X16375000Y-14750000D02*
X16225000Y-14750000D01*
X16625000Y-15325000D02*
X16625000Y-14875000D01*
%TO.C,SW5*%
X15175000Y-14875000D02*
X15175000Y-15325000D01*
X15425000Y-15450000D02*
X15575000Y-15450000D01*
X15575000Y-14750000D02*
X15425000Y-14750000D01*
X15825000Y-15325000D02*
X15825000Y-14875000D01*
%TO.C,R16*%
X14730000Y-14400000D02*
X14730000Y-14600000D01*
X14730000Y-14600000D02*
X15070000Y-14600000D01*
X15070000Y-14400000D02*
X14730000Y-14400000D01*
X15070000Y-14600000D02*
X15070000Y-14400000D01*
%TO.C,J4*%
X17662000Y-11838000D02*
X17662000Y-11700000D01*
X17800000Y-11838000D02*
X17662000Y-11838000D01*
X17927000Y-11562000D02*
X18192000Y-11562000D01*
X17927000Y-11838000D02*
X17927000Y-11562000D01*
X17927000Y-11838000D02*
X18192000Y-11838000D01*
X18192000Y-11838000D02*
X18192000Y-11562000D01*
%TO.C,C33*%
X15350000Y-14600000D02*
X15650000Y-14600000D01*
X15650000Y-14400000D02*
X15350000Y-14400000D01*
X15350000Y-14600000D02*
G75*
G02*
X15350000Y-14400000I112225J100000D01*
G01*
X15650000Y-14400000D02*
G75*
G02*
X15650000Y-14600000I-112225J-100000D01*
G01*
%TO.C,C27*%
X13000000Y-11450000D02*
X13000000Y-11750000D01*
X13200000Y-11750000D02*
X13200000Y-11450000D01*
X13000000Y-11450000D02*
G75*
G02*
X13200000Y-11450000I100000J-112225D01*
G01*
X13200000Y-11750000D02*
G75*
G02*
X13000000Y-11750000I-100000J112225D01*
G01*
%TO.C,C9*%
X13850000Y-15200000D02*
X14150000Y-15200000D01*
X14150000Y-15000000D02*
X13850000Y-15000000D01*
X13850000Y-15200000D02*
G75*
G02*
X13850000Y-15000000I112225J100000D01*
G01*
X14150000Y-15000000D02*
G75*
G02*
X14150000Y-15200000I-112225J-100000D01*
G01*
%TO.C,R5*%
X12530000Y-14000000D02*
X12530000Y-14200000D01*
X12530000Y-14200000D02*
X12870000Y-14200000D01*
X12870000Y-14000000D02*
X12530000Y-14000000D01*
X12870000Y-14200000D02*
X12870000Y-14000000D01*
%TD*%
D15*
X12000000Y-15600000D02*
G75*
G02*
X11700000Y-15300000I0J300000D01*
G01*
X18200000Y-15600000D02*
X12000000Y-15600000D01*
X18200000Y-11200000D02*
G75*
G02*
X18500000Y-11500000I0J-300000D01*
G01*
X18500000Y-15300000D02*
G75*
G02*
X18200000Y-15600000I-300000J0D01*
G01*
X11700000Y-15300000D02*
X11700000Y-11500000D01*
X12000000Y-11200000D02*
X18200000Y-11200000D01*
X11700000Y-11500000D02*
G75*
G02*
X12000000Y-11200000I300000J0D01*
G01*
X18500000Y-11500000D02*
X18500000Y-15300000D01*
M02*
